<svg xmlns="http://www.w3.org/2000/svg" width="130" height="32"><g fill="none" fill-rule="evenodd"><path fill="#FFF" d="M72.22 20.02c0 .26-.02.52-.1.74a2.6 2.6 0 01-2.5 1.76c-1.02 0-1.83-.58-1.83-1.82 0-1.88 2.07-2.4 4.43-2.39v1.71zm3.7-3.28c0-3.1-1.33-5.84-5.81-5.84-2.3 0-4.13.64-5.13 1.22l.73 2.5a7.51 7.51 0 013.74-1.05c2.28 0 2.65 1.29 2.65 2.11v.2c-4.96 0-8.1 1.71-8.1 5.21 0 2.14 1.6 4.14 4.38 4.14 1.7 0 3.13-.68 3.99-1.77h.08s.57 2.37 3.7 1.46c-.17-.99-.23-2.04-.23-3.3v-4.88zM0 6.67L3.76 22.1c.6 2.52 1.69 3.45 4.82 2.82l2.03-8.23c.51-2.05.86-3.5 1.19-5.59h.05c.24 2.1.57 3.55.99 5.6l1.24 5.7c.43 1.96 1.6 3.2 4.68 2.52l4.82-18.25h-3.9l-1.64 7.89c-.45 2.3-.85 4.1-1.16 6.2h-.05c-.28-2.09-.64-3.81-1.1-6.05l-1.7-8.04H9.97L8.13 14.5c-.51 2.38-1 4.3-1.3 6.33h-.06c-.32-1.9-.74-4.33-1.2-6.63L4.1 6.67H0m30.71 13.35c0 .26-.02.52-.1.74a2.6 2.6 0 01-2.5 1.76c-1.02 0-1.83-.58-1.83-1.82 0-1.88 2.07-2.4 4.43-2.39v1.71zm3.7-3.28c0-3.1-1.32-5.84-5.8-5.84-2.3 0-4.14.64-5.14 1.22l.73 2.5a7.52 7.52 0 013.74-1.05c2.28 0 2.65 1.29 2.65 2.11v.2c-4.96 0-8.1 1.71-8.1 5.21 0 2.14 1.6 4.14 4.38 4.14 1.7 0 3.13-.68 3.99-1.77h.08s.57 2.37 3.7 1.46c-.17-.99-.23-2.04-.23-3.3v-4.88zm5.73 4.3V6.68h-3.7v18.25h3.7v-3.88M87.3 6.68v13.46c0 1.86.35 3.16 1.1 3.95.65.7 1.72 1.15 3.01 1.15 1.1 0 2.17-.2 2.68-.4l-.04-2.9c-.38.1-.82.17-1.41.17-1.26 0-1.69-.8-1.69-2.47v-5.15h3.23v-3.5h-3.23V6.67H87.3m-9.57 4.54v13.71h3.82V17.9c0-.38.03-.7.09-1.01.28-1.47 1.4-2.41 3.02-2.41.44 0 .76.04 1.1.1v-3.6a3.68 3.68 0 00-.84-.08c-1.43 0-3.05.92-3.73 2.9h-.1v-2.6h-3.36m-35.43 0v13.72H46v-8.04c0-.38.05-.78.18-1.12.3-.81 1.06-1.76 2.26-1.76 1.5 0 2.21 1.27 2.21 3.1v7.82h3.72v-8.14c0-.36.05-.8.16-1.11A2.35 2.35 0 0156.78 14c1.52 0 2.25 1.25 2.25 3.4v7.52h3.73v-8.08c0-4.25-2.17-5.94-4.6-5.94-1.09 0-1.94.27-2.71.74-.65.4-1.24.97-1.74 1.71h-.06a3.9 3.9 0 00-3.77-2.45 4.31 4.31 0 00-4 2.17h-.05v-1.86h-3.54"/><path fill="#F3B53B" d="M114.2 10.6c.74 0 1.34-.39 1.43-.88l.72-8.24c0-.81-.95-1.48-2.15-1.48s-2.15.67-2.15 1.48l.73 8.24c.08.5.69.87 1.42.87m-4.45 2.58c.37-.64.34-1.36-.05-1.68l-6.77-4.74c-.7-.41-1.75.08-2.35 1.12-.6 1.04-.5 2.2.2 2.6l7.5 3.49c.47.17 1.1-.16 1.47-.8m8.9 0c.37.64 1 .97 1.48.8l7.49-3.49c.7-.4.8-1.56.21-2.6-.6-1.04-1.66-1.53-2.36-1.12l-6.77 4.74c-.38.32-.41 1.04-.04 1.68m-4.46 7.7c.74 0 1.34.39 1.43.88l.72 8.24c0 .81-.95 1.48-2.15 1.48s-2.15-.67-2.15-1.48l.73-8.24c.08-.5.69-.87 1.42-.87m4.45-2.57c.37-.64 1-.97 1.48-.8l7.49 3.49c.7.4.8 1.57.21 2.6-.6 1.04-1.66 1.53-2.36 1.12l-6.77-4.74c-.38-.32-.41-1.04-.04-1.67m-8.91 0c.37.63.34 1.35-.05 1.67l-6.77 4.74c-.7.4-1.75-.08-2.35-1.12-.6-1.04-.5-2.2.2-2.6l7.5-3.49c.47-.17 1.1.16 1.47.8M129.2 24h.07c.08 0 .15-.03.15-.1 0-.06-.04-.1-.14-.1h-.08v.2zm0 .36h-.16v-.65l.25-.02c.13 0 .18.02.23.05.04.03.07.08.07.14 0 .08-.06.13-.14.16.06.02.1.08.12.16.02.1.03.14.05.16h-.16c-.02-.02-.04-.08-.06-.15-.01-.07-.05-.1-.13-.1h-.08v.26zm.1-.86c-.3 0-.51.24-.51.53 0 .29.22.52.51.52.29 0 .5-.23.5-.52a.5.5 0 00-.5-.53zm0-.13c.38 0 .67.29.67.66 0 .37-.3.66-.67.66a.66.66 0 01-.68-.66c0-.37.3-.66.68-.66z"/></g></svg>