<?xml version="1.0" encoding="UTF-8"?>
<svg width="80px" height="68px" viewBox="0 0 80 68" version="1.1" xmlns="http://www.w3.org/2000/svg" xmlns:xlink="http://www.w3.org/1999/xlink">
    <title>W+_White</title>
    <defs>
        <polygon id="path-1" points="0.577504979 0.341 7.45471817 0.341 7.45471817 17.2503 0.577504979 17.2503"></polygon>
        <polygon id="path-3" points="0.580741475 0.0894 7.45398657 0.0894 7.45398657 17 0.580741475 17"></polygon>
    </defs>
    <g id="Page-1" stroke="none" stroke-width="1" fill="none" fill-rule="evenodd">
        <g id="Artboard" transform="translate(-47.000000, -51.000000)">
            <g id="W+_White" transform="translate(47.000000, 51.000000)">
                <path d="M47.2933,43.6028 C47.3283,44.6568 48.5163,45.6838 50.0193,45.6838 C51.5203,45.6838 52.7023,44.6568 52.7403,43.6078 L52.9693,37.2168 L59.3643,36.9798 C60.4183,36.9448 61.4453,35.7578 61.4453,34.2538 C61.4453,32.7538 60.4183,31.5708 59.3693,31.5328 L52.9873,31.2938 L52.7423,24.9088 C52.7073,23.8548 51.5193,22.8288 50.0163,22.8288 C48.5153,22.8288 47.3333,23.8548 47.2943,24.9038 L47.0703,31.2768 L40.6703,31.5318 C39.6163,31.5668 38.5903,32.7538 38.5903,34.2568 C38.5903,35.7578 39.6163,36.9408 40.6663,36.9788 L47.0513,37.2158 L47.2933,43.6028 Z" id="Fill-1" fill="#FFFFFF"></path>
                <g id="Group-5" transform="translate(46.000000, 0.659300)">
                    <mask id="mask-2" fill="white">
                        <use xlink:href="#path-1"></use>
                    </mask>
                    <g id="Clip-4"></g>
                    <path d="M1.7449,15.8503 L0.5839,2.7073 C0.4619,1.3793 2.1029,0.3403 4.0149,0.3403 C5.9299,0.3403 7.5649,1.4173 7.4489,2.7073 L6.2849,15.8503 C6.2389,16.6833 5.1869,17.2503 4.0109,17.2503 C2.8419,17.2503 1.8149,16.6213 1.7449,15.8503" id="Fill-3" fill="#FFC220" mask="url(#mask-2)"></path>
                </g>
                <path d="M64.4408,45.0218 L75.2418,52.5908 C76.3278,53.3188 78.0478,52.4558 79.0088,50.8018 C79.9628,49.1438 79.8378,47.2078 78.6718,46.6418 L66.7108,41.0818 C65.9638,40.7988 64.9508,41.3258 64.3608,42.3468 C63.7778,43.3638 63.8248,44.5068 64.4408,45.0218" id="Fill-6" fill="#FFC220"></path>
                <path d="M64.0848,25.8548 C64.6708,26.8718 65.7308,27.4708 66.4348,27.1248 L78.3958,21.5558 C79.5858,20.9818 79.6828,19.0578 78.7328,17.3998 C77.7718,15.7418 76.0568,14.8828 74.9658,15.6108 L64.1648,23.1878 C63.4928,23.6698 63.4978,24.8338 64.0848,25.8548" id="Fill-8" fill="#FFC220"></path>
                <g id="Group-12" transform="translate(46.000000, 50.659300)">
                    <mask id="mask-4" fill="white">
                        <use xlink:href="#path-3"></use>
                    </mask>
                    <g id="Clip-11"></g>
                    <path d="M1.7449,1.4904 L0.5839,14.6334 C0.4999,15.8734 2.1029,17.0004 4.0149,17.0004 C5.9299,17.0004 7.5569,15.9304 7.4489,14.6334 L6.2849,1.4904 C6.2179,0.6874 5.1869,0.0894 4.0109,0.0894 C2.8419,0.0944 1.8179,0.7074 1.7449,1.4904" id="Fill-10" fill="#FFC220" mask="url(#mask-4)"></path>
                </g>
                <path d="M6.5213,19.1136 C7.1293,22.1876 8.8623,31.1086 8.8623,31.1086 C9.5883,34.7766 10.2583,38.6226 10.7623,41.6636 L10.8503,41.6636 C11.3423,38.4346 12.1153,35.3746 12.9413,31.5846 L15.8573,19.1136 L22.3093,19.1136 L25.0363,31.9066 C25.7523,35.4666 26.3213,38.2076 26.7693,41.5186 L26.8573,41.5186 C27.3503,38.1756 27.9883,35.3206 28.6923,31.6666 L31.3113,19.1136 L37.5043,19.1136 L29.8333,48.1486 C24.9473,49.2196 23.0753,47.2526 22.4023,44.1306 C21.7313,41.0086 20.4213,35.0626 20.4213,35.0626 C19.7493,31.8076 19.2253,29.5106 18.8563,26.1696 L18.7633,26.1696 C18.2393,29.4786 17.6913,31.7976 16.8763,35.0506 L13.6563,48.1486 C8.6683,49.1416 6.9383,47.6696 5.9773,43.6676 C5.1553,40.2386 0.0003,19.1136 0.0003,19.1136 L6.5213,19.1136 Z" id="Fill-13" fill="#FFFFFF"></path>
            </g>
        </g>
    </g>
</svg>