<svg width="184" height="35" viewBox="0 0 184 35" fill="none" xmlns="http://www.w3.org/2000/svg">
<path d="M6.8 25.13L0.71 18.5L6.8 11.87H13.25L7.13 18.5L13.25 25.13H6.8ZM31.0934 7.94V12.05H22.5134V16.49H28.9334V20.48H22.5134V29H17.3834V7.94H31.0934ZM38.9197 15.05C39.5197 14.13 40.2697 13.41 41.1697 12.89C42.0697 12.35 43.0697 12.08 44.1697 12.08V17.51H42.7597C41.4797 17.51 40.5197 17.79 39.8797 18.35C39.2397 18.89 38.9197 19.85 38.9197 21.23V29H33.7897V12.26H38.9197V15.05ZM54.2417 29.24C52.6017 29.24 51.1217 28.89 49.8017 28.19C48.5017 27.49 47.4717 26.49 46.7117 25.19C45.9717 23.89 45.6017 22.37 45.6017 20.63C45.6017 18.91 45.9817 17.4 46.7417 16.1C47.5017 14.78 48.5417 13.77 49.8617 13.07C51.1817 12.37 52.6617 12.02 54.3017 12.02C55.9417 12.02 57.4217 12.37 58.7417 13.07C60.0617 13.77 61.1017 14.78 61.8617 16.1C62.6217 17.4 63.0017 18.91 63.0017 20.63C63.0017 22.35 62.6117 23.87 61.8317 25.19C61.0717 26.49 60.0217 27.49 58.6817 28.19C57.3617 28.89 55.8817 29.24 54.2417 29.24ZM54.2417 24.8C55.2217 24.8 56.0517 24.44 56.7317 23.72C57.4317 23 57.7817 21.97 57.7817 20.63C57.7817 19.29 57.4417 18.26 56.7617 17.54C56.1017 16.82 55.2817 16.46 54.3017 16.46C53.3017 16.46 52.4717 16.82 51.8117 17.54C51.1517 18.24 50.8217 19.27 50.8217 20.63C50.8217 21.97 51.1417 23 51.7817 23.72C52.4417 24.44 53.2617 24.8 54.2417 24.8ZM75.9233 12.08C77.8833 12.08 79.4433 12.72 80.6033 14C81.7833 15.26 82.3733 17 82.3733 19.22V29H77.2733V19.91C77.2733 18.79 76.9833 17.92 76.4033 17.3C75.8233 16.68 75.0433 16.37 74.0633 16.37C73.0833 16.37 72.3033 16.68 71.7233 17.3C71.1433 17.92 70.8533 18.79 70.8533 19.91V29H65.7233V12.26H70.8533V14.48C71.3733 13.74 72.0733 13.16 72.9533 12.74C73.8333 12.3 74.8233 12.08 75.9233 12.08ZM95.2681 24.65V29H92.6581C90.7981 29 89.3481 28.55 88.3081 27.65C87.2681 26.73 86.7481 25.24 86.7481 23.18V16.52H84.7081V12.26H86.7481V8.18H91.8781V12.26H95.2381V16.52H91.8781V23.24C91.8781 23.74 91.9981 24.1 92.2381 24.32C92.4781 24.54 92.8781 24.65 93.4381 24.65H95.2681Z" fill="#4089F8"/>
<path d="M113.906 20.36C113.906 20.84 113.876 21.34 113.816 21.86H102.206C102.286 22.9 102.616 23.7 103.196 24.26C103.796 24.8 104.526 25.07 105.386 25.07C106.666 25.07 107.556 24.53 108.056 23.45H113.516C113.236 24.55 112.726 25.54 111.986 26.42C111.266 27.3 110.356 27.99 109.256 28.49C108.156 28.99 106.926 29.24 105.566 29.24C103.926 29.24 102.466 28.89 101.186 28.19C99.9056 27.49 98.9056 26.49 98.1856 25.19C97.4656 23.89 97.1056 22.37 97.1056 20.63C97.1056 18.89 97.4556 17.37 98.1556 16.07C98.8756 14.77 99.8756 13.77 101.156 13.07C102.436 12.37 103.906 12.02 105.566 12.02C107.186 12.02 108.626 12.36 109.886 13.04C111.146 13.72 112.126 14.69 112.826 15.95C113.546 17.21 113.906 18.68 113.906 20.36ZM108.656 19.01C108.656 18.13 108.356 17.43 107.756 16.91C107.156 16.39 106.406 16.13 105.506 16.13C104.646 16.13 103.916 16.38 103.316 16.88C102.736 17.38 102.376 18.09 102.236 19.01H108.656ZM126.812 12.08C128.772 12.08 130.332 12.72 131.492 14C132.672 15.26 133.262 17 133.262 19.22V29H128.162V19.91C128.162 18.79 127.872 17.92 127.292 17.3C126.712 16.68 125.932 16.37 124.952 16.37C123.972 16.37 123.192 16.68 122.612 17.3C122.032 17.92 121.742 18.79 121.742 19.91V29H116.612V12.26H121.742V14.48C122.262 13.74 122.962 13.16 123.842 12.74C124.722 12.3 125.712 12.08 126.812 12.08ZM135.807 20.6C135.807 18.88 136.127 17.37 136.767 16.07C137.427 14.77 138.317 13.77 139.437 13.07C140.557 12.37 141.807 12.02 143.187 12.02C144.287 12.02 145.287 12.25 146.187 12.71C147.107 13.17 147.827 13.79 148.347 14.57V6.8H153.477V29H148.347V26.6C147.867 27.4 147.177 28.04 146.277 28.52C145.397 29 144.367 29.24 143.187 29.24C141.807 29.24 140.557 28.89 139.437 28.19C138.317 27.47 137.427 26.46 136.767 25.16C136.127 23.84 135.807 22.32 135.807 20.6ZM148.347 20.63C148.347 19.35 147.987 18.34 147.267 17.6C146.567 16.86 145.707 16.49 144.687 16.49C143.667 16.49 142.797 16.86 142.077 17.6C141.377 18.32 141.027 19.32 141.027 20.6C141.027 21.88 141.377 22.9 142.077 23.66C142.797 24.4 143.667 24.77 144.687 24.77C145.707 24.77 146.567 24.4 147.267 23.66C147.987 22.92 148.347 21.91 148.347 20.63ZM168.618 0.499999L160.578 34.61H155.628L163.668 0.499999H168.618ZM170.812 11.87H177.262L183.352 18.5L177.262 25.13H170.812L176.932 18.5L170.812 11.87Z" fill="black"/>
</svg>
