<svg width="167" height="78" viewBox="0 0 167 78" fill="none" xmlns="http://www.w3.org/2000/svg">
<path d="M6.99 11.94V33H1.86V11.94H6.99ZM9.68766 24.6C9.68766 22.88 10.0077 21.37 10.6477 20.07C11.3077 18.77 12.1977 17.77 13.3177 17.07C14.4377 16.37 15.6877 16.02 17.0677 16.02C18.1677 16.02 19.1677 16.25 20.0677 16.71C20.9877 17.17 21.7077 17.79 22.2277 18.57V10.8H27.3577V33H22.2277V30.6C21.7477 31.4 21.0577 32.04 20.1577 32.52C19.2777 33 18.2477 33.24 17.0677 33.24C15.6877 33.24 14.4377 32.89 13.3177 32.19C12.1977 31.47 11.3077 30.46 10.6477 29.16C10.0077 27.84 9.68766 26.32 9.68766 24.6ZM22.2277 24.63C22.2277 23.35 21.8677 22.34 21.1477 21.6C20.4477 20.86 19.5877 20.49 18.5677 20.49C17.5477 20.49 16.6777 20.86 15.9577 21.6C15.2577 22.32 14.9077 23.32 14.9077 24.6C14.9077 25.88 15.2577 26.9 15.9577 27.66C16.6777 28.4 17.5477 28.77 18.5677 28.77C19.5877 28.77 20.4477 28.4 21.1477 27.66C21.8677 26.92 22.2277 25.91 22.2277 24.63ZM46.849 24.36C46.849 24.84 46.819 25.34 46.759 25.86H35.149C35.229 26.9 35.559 27.7 36.139 28.26C36.739 28.8 37.469 29.07 38.329 29.07C39.609 29.07 40.499 28.53 40.999 27.45H46.459C46.179 28.55 45.669 29.54 44.929 30.42C44.209 31.3 43.299 31.99 42.199 32.49C41.099 32.99 39.869 33.24 38.509 33.24C36.869 33.24 35.409 32.89 34.129 32.19C32.849 31.49 31.849 30.49 31.129 29.19C30.409 27.89 30.049 26.37 30.049 24.63C30.049 22.89 30.399 21.37 31.099 20.07C31.819 18.77 32.819 17.77 34.099 17.07C35.379 16.37 36.849 16.02 38.509 16.02C40.129 16.02 41.569 16.36 42.829 17.04C44.089 17.72 45.069 18.69 45.769 19.95C46.489 21.21 46.849 22.68 46.849 24.36ZM41.599 23.01C41.599 22.13 41.299 21.43 40.699 20.91C40.099 20.39 39.349 20.13 38.449 20.13C37.589 20.13 36.859 20.38 36.259 20.88C35.679 21.38 35.319 22.09 35.179 23.01H41.599ZM59.7553 16.08C61.7153 16.08 63.2753 16.72 64.4353 18C65.6153 19.26 66.2053 21 66.2053 23.22V33H61.1053V23.91C61.1053 22.79 60.8153 21.92 60.2353 21.3C59.6553 20.68 58.8753 20.37 57.8953 20.37C56.9153 20.37 56.1353 20.68 55.5553 21.3C54.9753 21.92 54.6853 22.79 54.6853 23.91V33H49.5553V16.26H54.6853V18.48C55.2053 17.74 55.9053 17.16 56.7853 16.74C57.6653 16.3 58.6553 16.08 59.7553 16.08ZM79.1002 28.65V33H76.4902C74.6302 33 73.1802 32.55 72.1402 31.65C71.1002 30.73 70.5802 29.24 70.5802 27.18V20.52H68.5402V16.26H70.5802V12.18H75.7102V16.26H79.0702V20.52H75.7102V27.24C75.7102 27.74 75.8302 28.1 76.0702 28.32C76.3102 28.54 76.7102 28.65 77.2702 28.65H79.1002ZM84.5377 14.52C83.6377 14.52 82.8977 14.26 82.3177 13.74C81.7577 13.2 81.4777 12.54 81.4777 11.76C81.4777 10.96 81.7577 10.3 82.3177 9.78C82.8977 9.24 83.6377 8.97 84.5377 8.97C85.4177 8.97 86.1377 9.24 86.6977 9.78C87.2777 10.3 87.5677 10.96 87.5677 11.76C87.5677 12.54 87.2777 13.2 86.6977 13.74C86.1377 14.26 85.4177 14.52 84.5377 14.52ZM87.0877 16.26V33H81.9577V16.26H87.0877ZM100.135 28.65V33H97.5253C95.6653 33 94.2153 32.55 93.1753 31.65C92.1353 30.73 91.6153 29.24 91.6153 27.18V20.52H89.5753V16.26H91.6153V12.18H96.7453V16.26H100.105V20.52H96.7453V27.24C96.7453 27.74 96.8653 28.1 97.1053 28.32C97.3453 28.54 97.7453 28.65 98.3053 28.65H100.135ZM120.093 16.26L109.593 40.95H104.073L107.913 32.43L101.103 16.26H106.833L110.703 26.73L114.543 16.26H120.093Z" fill="#4089F8"/>
<path d="M69.75 44.94C71.97 44.94 73.91 45.38 75.57 46.26C77.23 47.14 78.51 48.38 79.41 49.98C80.33 51.56 80.79 53.39 80.79 55.47C80.79 57.53 80.33 59.36 79.41 60.96C78.51 62.56 77.22 63.8 75.54 64.68C73.88 65.56 71.95 66 69.75 66H61.86V44.94H69.75ZM69.42 61.56C71.36 61.56 72.87 61.03 73.95 59.97C75.03 58.91 75.57 57.41 75.57 55.47C75.57 53.53 75.03 52.02 73.95 50.94C72.87 49.86 71.36 49.32 69.42 49.32H66.99V61.56H69.42ZM99.4369 57.36C99.4369 57.84 99.4069 58.34 99.3469 58.86H87.7369C87.8169 59.9 88.1469 60.7 88.7269 61.26C89.3269 61.8 90.0569 62.07 90.9169 62.07C92.1969 62.07 93.0869 61.53 93.5869 60.45H99.0469C98.7669 61.55 98.2569 62.54 97.5169 63.42C96.7969 64.3 95.8869 64.99 94.7869 65.49C93.6869 65.99 92.4569 66.24 91.0969 66.24C89.4569 66.24 87.9969 65.89 86.7169 65.19C85.4369 64.49 84.4369 63.49 83.7169 62.19C82.9969 60.89 82.6369 59.37 82.6369 57.63C82.6369 55.89 82.9869 54.37 83.6869 53.07C84.4069 51.77 85.4069 50.77 86.6869 50.07C87.9669 49.37 89.4369 49.02 91.0969 49.02C92.7169 49.02 94.1569 49.36 95.4169 50.04C96.6769 50.72 97.6569 51.69 98.3569 52.95C99.0769 54.21 99.4369 55.68 99.4369 57.36ZM94.1869 56.01C94.1869 55.13 93.8869 54.43 93.2869 53.91C92.6869 53.39 91.9369 53.13 91.0369 53.13C90.1769 53.13 89.4469 53.38 88.8469 53.88C88.2669 54.38 87.9069 55.09 87.7669 56.01H94.1869ZM108.953 66.24C107.493 66.24 106.193 65.99 105.053 65.49C103.913 64.99 103.013 64.31 102.353 63.45C101.693 62.57 101.323 61.59 101.243 60.51H106.313C106.373 61.09 106.643 61.56 107.123 61.92C107.603 62.28 108.193 62.46 108.893 62.46C109.533 62.46 110.023 62.34 110.363 62.1C110.723 61.84 110.903 61.51 110.903 61.11C110.903 60.63 110.653 60.28 110.153 60.06C109.653 59.82 108.843 59.56 107.723 59.28C106.523 59 105.523 58.71 104.723 58.41C103.923 58.09 103.233 57.6 102.653 56.94C102.073 56.26 101.783 55.35 101.783 54.21C101.783 53.25 102.043 52.38 102.563 51.6C103.103 50.8 103.883 50.17 104.903 49.71C105.943 49.25 107.173 49.02 108.593 49.02C110.693 49.02 112.343 49.54 113.543 50.58C114.763 51.62 115.463 53 115.643 54.72H110.903C110.823 54.14 110.563 53.68 110.123 53.34C109.703 53 109.143 52.83 108.443 52.83C107.843 52.83 107.383 52.95 107.063 53.19C106.743 53.41 106.583 53.72 106.583 54.12C106.583 54.6 106.833 54.96 107.333 55.2C107.853 55.44 108.653 55.68 109.733 55.92C110.973 56.24 111.983 56.56 112.763 56.88C113.543 57.18 114.223 57.68 114.803 58.38C115.403 59.06 115.713 59.98 115.733 61.14C115.733 62.12 115.453 63 114.893 63.78C114.353 64.54 113.563 65.14 112.523 65.58C111.503 66.02 110.313 66.24 108.953 66.24ZM121.452 47.52C120.552 47.52 119.812 47.26 119.232 46.74C118.672 46.2 118.392 45.54 118.392 44.76C118.392 43.96 118.672 43.3 119.232 42.78C119.812 42.24 120.552 41.97 121.452 41.97C122.332 41.97 123.052 42.24 123.612 42.78C124.192 43.3 124.482 43.96 124.482 44.76C124.482 45.54 124.192 46.2 123.612 46.74C123.052 47.26 122.332 47.52 121.452 47.52ZM124.002 49.26V66H118.872V49.26H124.002ZM134.079 49.02C135.259 49.02 136.289 49.26 137.169 49.74C138.069 50.22 138.759 50.85 139.239 51.63V49.26H144.369V65.97C144.369 67.51 144.059 68.9 143.439 70.14C142.839 71.4 141.909 72.4 140.649 73.14C139.409 73.88 137.859 74.25 135.999 74.25C133.519 74.25 131.509 73.66 129.969 72.48C128.429 71.32 127.549 69.74 127.329 67.74H132.399C132.559 68.38 132.939 68.88 133.539 69.24C134.139 69.62 134.879 69.81 135.759 69.81C136.819 69.81 137.659 69.5 138.279 68.88C138.919 68.28 139.239 67.31 139.239 65.97V63.6C138.739 64.38 138.049 65.02 137.169 65.52C136.289 66 135.259 66.24 134.079 66.24C132.699 66.24 131.449 65.89 130.329 65.19C129.209 64.47 128.319 63.46 127.659 62.16C127.019 60.84 126.699 59.32 126.699 57.6C126.699 55.88 127.019 54.37 127.659 53.07C128.319 51.77 129.209 50.77 130.329 50.07C131.449 49.37 132.699 49.02 134.079 49.02ZM139.239 57.63C139.239 56.35 138.879 55.34 138.159 54.6C137.459 53.86 136.599 53.49 135.579 53.49C134.559 53.49 133.689 53.86 132.969 54.6C132.269 55.32 131.919 56.32 131.919 57.6C131.919 58.88 132.269 59.9 132.969 60.66C133.689 61.4 134.559 61.77 135.579 61.77C136.599 61.77 137.459 61.4 138.159 60.66C138.879 59.92 139.239 58.91 139.239 57.63ZM158.281 49.08C160.241 49.08 161.801 49.72 162.961 51C164.141 52.26 164.731 54 164.731 56.22V66H159.631V56.91C159.631 55.79 159.341 54.92 158.761 54.3C158.181 53.68 157.401 53.37 156.421 53.37C155.441 53.37 154.661 53.68 154.081 54.3C153.501 54.92 153.211 55.79 153.211 56.91V66H148.081V49.26H153.211V51.48C153.731 50.74 154.431 50.16 155.311 49.74C156.191 49.3 157.181 49.08 158.281 49.08Z" fill="black"/>
</svg>
