<svg width="85" height="35" viewBox="0 0 85 35" fill="none" xmlns="http://www.w3.org/2000/svg">
<path d="M5.9 7.94V20.54C5.9 21.8 6.21 22.77 6.83 23.45C7.45 24.13 8.36 24.47 9.56 24.47C10.76 24.47 11.68 24.13 12.32 23.45C12.96 22.77 13.28 21.8 13.28 20.54V7.94H18.41V20.51C18.41 22.39 18.01 23.98 17.21 25.28C16.41 26.58 15.33 27.56 13.97 28.22C12.63 28.88 11.13 29.21 9.47 29.21C7.81 29.21 6.32 28.89 5 28.25C3.7 27.59 2.67 26.61 1.91 25.31C1.15 23.99 0.77 22.39 0.77 20.51V7.94H5.9ZM27.1423 7.94V29H22.0123V7.94H27.1423ZM42.29 0.499999L34.25 34.61H29.3L37.34 0.499999H42.29Z" fill="#4089F8"/>
<path d="M49.4938 7.94V20.54C49.4938 21.8 49.8038 22.77 50.4238 23.45C51.0438 24.13 51.9538 24.47 53.1538 24.47C54.3538 24.47 55.2738 24.13 55.9138 23.45C56.5538 22.77 56.8738 21.8 56.8738 20.54V7.94H62.0038V20.51C62.0038 22.39 61.6038 23.98 60.8038 25.28C60.0038 26.58 58.9238 27.56 57.5638 28.22C56.2238 28.88 54.7238 29.21 53.0638 29.21C51.4038 29.21 49.9138 28.89 48.5938 28.25C47.2938 27.59 46.2638 26.61 45.5038 25.31C44.7438 23.99 44.3638 22.39 44.3638 20.51V7.94H49.4938ZM78.5061 29L74.2161 22.55L70.4361 29H64.6161L71.3661 18.29L64.4661 7.94H70.4361L74.6661 14.3L78.3861 7.94H84.2061L77.5161 18.56L84.4761 29H78.5061Z" fill="black"/>
</svg>
