<?xml version="1.0" encoding="utf-8"?>
<!DOCTYPE svg PUBLIC "-//W3C//DTD SVG 1.1//EN" "http://www.w3.org/Graphics/SVG/1.1/DTD/svg11.dtd">
<svg version="1.1" id="Layer_1" xmlns="http://www.w3.org/2000/svg" x="0px"
     y="0px" width="100px" height="100px" viewBox="0 0 100 100" enable-background="new 0 0 100 100"
     xml:space="preserve">
<g>
	<path fill-rule="evenodd" clip-rule="evenodd" fill="#5C5A44" d="M14.677,100.204c-1.177-1.979-2.064-3.892-2.054-6.419
		c0.124-28.486,0.081-56.975,0.081-85.462c0-2.499-0.332-5.213,2.756-6.26c3.703-1.256,6.16,0.779,6.204,5.295
		c0.092,9.495,0.032,18.991,0.032,28.487c0.001,18.825-0.037,37.649,0.037,56.475c0.012,3.118-0.351,5.906-3.056,7.884
		C17.343,100.204,16.01,100.204,14.677,100.204z"/>
    <path fill-rule="evenodd" clip-rule="evenodd" fill="#E42912" d="M88.748,10.235c2.628-1.525,2.415,0.785,2.421,2.025
		c0.064,14.472,0.053,28.944-0.009,43.416c-0.009,1.919-0.887,3.372-2.829,4.292c-11.129,5.271-22.184,6.161-33.432,0.234
		c-5.511-2.903-10.95-5.862-17.706-5.526c-4.024,0.2-7.151,2.282-11.386,3.54c0-8.598,0-16.81,0-25.021
		c0-6.654-0.007-13.308,0-19.962c0.01-8.343,5.868-13.479,14.201-12.395c3.496,0.456,7.042,1.3,9.792,3.447
		c11.149,8.707,23.229,11.709,36.838,6.839c0.605,0.89,1.413,1.384,2.366,0.656C89.623,11.31,89.293,10.681,88.748,10.235z"/>
    <path fill-rule="evenodd" clip-rule="evenodd" fill="#E31C04" d="M88.748,10.235c0.545,0.445,0.875,1.074,0.257,1.547
		c-0.953,0.728-1.761,0.233-2.366-0.656C87.342,10.829,88.045,10.532,88.748,10.235z"/>
</g>
</svg>
