<?xml version="1.0" encoding="utf-8"?>
<!DOCTYPE svg PUBLIC "-//W3C//DTD SVG 1.1//EN" "http://www.w3.org/Graphics/SVG/1.1/DTD/svg11.dtd">
<svg version="1.1" id="Layer_1" xmlns="http://www.w3.org/2000/svg" x="0px"
     y="0px" width="380.453px" height="379.828px" viewBox="104.825 4.006 380.453 379.828"
     enable-background="new 104.825 4.006 380.453 379.828" xml:space="preserve">
<g>
	<path fill="#FC9023" d="M312.973,382.906c-50.179,4.705-95.203-8.502-134.938-39.362c-28.656-22.256-49.033-50.539-61.541-84.757
		c-9.348-25.575-13.219-51.832-11.107-78.742c3.013-38.396,16.369-73.015,40.293-103.5c19.598-24.973,43.978-43.7,72.821-56.523
		c19.926-8.858,40.89-13.76,62.774-15.443c22.709-1.747,44.919,0.492,66.563,6.82c33.034,9.658,61.655,26.998,85.375,52.156
		c21.922,23.252,37.222,50.326,45.386,81.13c6.437,24.278,8.764,49.05,4.564,74.094c-0.405,2.416,0.5,5.041-1.146,7.258
		c-2.441,0.325-4.165-0.966-5.62-2.647c-11.581-13.374-24.673-25.269-37.081-37.827c-19.21-19.442-38.623-38.686-57.951-58.012
		c-1.768-1.767-3.476-3.602-5.641-4.918c-7.859-6.896-14.754-14.839-23.939-20.276c-21.949-12.99-45.342-18.586-70.774-15.172
		c-21.571,2.896-40.776,11.068-56.784,25.895c-13.5,12.505-22.521,27.547-26.219,45.994c-4.5,22.452,0.524,42.47,12.638,61.292
		c5.275,8.196,5.227,10.44-0.969,18.824c-6.309,8.538-7.013,17.279-2.232,26.683c1.889,3.716,5.434,5.805,7.986,8.845
		c1.815,2.578,4.133,4.681,6.485,6.752c0.434,0.502,0.892,1.048,0.94,1.703c0.54,7.254,4.393,12.552,9.901,16.884
		c1.408,2.087,3.254,3.778,5.019,5.542c23.775,23.78,47.569,47.542,71.298,71.368C310.73,378.629,313.327,379.852,312.973,382.906z"
    />
    <path fill="#CD741D" d="M312.973,382.906c-12.887-13.021-25.748-26.069-38.667-39.057c-13.046-13.114-26.157-26.163-39.22-39.259
		c-1.161-1.163-2.607-2.117-3.14-3.808c1.457-0.966,2.909-0.321,4.323,0.077c4.866,1.372,9.59,1.108,14.057-1.321
		c2.879-1.566,5.592-1.631,8.547-0.147c6.256,3.14,12.511,3.255,18.522-0.682c2.736-1.792,5.216-1.435,7.913,0.171
		c6.428,3.829,13.006,3.869,19.409-0.013c2.938-1.782,5.5-1.695,8.365,0.082c5.869,3.643,12.021,3.709,18.094,0.606
		c3.151-1.609,5.875-1.234,9.006,0.136c11.81,5.168,23.212-0.511,26.12-13.174c1.26-5.49,3.501-9.466,8.539-12.646
		c12.026-7.589,14.342-23,5.861-34.567c-6.619-9.029-6.664-10.696-0.533-19.955c18.509-27.951,18.03-63.862-1.18-91.163
		c-1.307-1.854-3.17-3.552-2.54-6.227c1.972,0.38,2.999,2.016,4.27,3.285c30.474,30.445,60.905,60.93,91.421,91.331
		c3.227,3.213,5.229,7.733,9.883,9.457c-1.19,12.308-4.788,24.034-9.241,35.445c-19.111,48.973-52.823,84.453-100.469,106.315
		C353.604,376.38,333.768,381.863,312.973,382.906z"/>
    <path fill="#FEFEFE" d="M376.446,121.962c6.139,8.886,11.839,17.934,14.936,28.486c7.509,25.586,3.513,49.245-11.21,71.262
		c-4.676,6.991-4.604,9.115,0.858,15.854c10.142,12.508,7.283,30.392-6.563,38.206c-4.197,2.369-5.789,5.325-6.477,9.724
		c-1.748,11.189-10.296,19.072-21.131,17.076c-7.921-1.459-15.021-2.494-22.802,0.204c-4.311,1.495-8.877-0.578-12.649-3.215
		c-1.921-1.343-3.261-1.364-5.247-0.044c-7.205,4.787-14.639,4.859-21.947,0.188c-2.044-1.307-3.523-1.544-5.729-0.052
		c-6.852,4.635-14.023,4.453-21.152,0.472c-1.319-0.737-2.538-1.826-4.083-0.712c-6.825,4.924-13.989,4.239-21.306,1.372
		c-6.837-4.406-9.811-11.006-10.682-18.801c-1.509-2.661-4-4.341-6.254-6.259c-7.992-5.814-12.58-13.321-12.009-23.548
		c0.332-5.937,3.071-10.729,6.586-15.247c4.699-6.04,4.845-8.556,0.68-14.643c-11.153-16.298-16.725-34.257-15.126-54.003
		c1.757-21.702,11.037-40.144,26.806-54.959c23.933-22.487,53.046-31.106,85.147-27.799c26.05,2.685,48.822,13.585,66.507,33.673
		C374.472,120.188,375.494,121.044,376.446,121.962z"/>
    <path fill="#BC7D3B"
          d="M215.009,275.724c2.972,1.199,5.977,2.366,6.254,6.259C218.581,280.494,216.408,278.495,215.009,275.724z"
    />
    <path fill="#333333" d="M248.886,175.945c16.232,0.029,31.62,15.495,31.574,29.118c-0.023,6.943-3.742,10.859-10.792,10.739
		c-3.95-0.066-7.887-0.896-11.829-1.384c-5.281-0.654-10.521-1.081-15.824,0.156c-6.871,1.603-11.198-1.57-12.139-8.647
		c-0.996-7.499,0.509-14.584,4.366-20.998C238.079,178.551,244.251,176.083,248.886,175.945z"/>
    <path fill="#333333" d="M360.362,201.266c0.669,10.697-3.755,14.691-14.097,12.896c-7.178-1.246-14.227,0.289-21.27,1.325
		c-12.598,1.854-18.363-4.974-14.204-17.008c2.694-7.795,7.568-13.986,14.459-18.403c15.509-9.943,32.273-1.82,34.752,16.722
		C360.201,198.276,360.246,199.775,360.362,201.266z"/>
    <path fill="#333333" d="M313.292,257.19c0.345,8.093-2.091,10.504-7.725,7.923c-7.194-3.297-13.604-3.314-20.832-0.042
		c-5.896,2.669-8.449,0.467-8.059-5.988c0.615-10.179,5-18.814,12.136-25.929c4.392-4.378,8.001-4.327,12.517,0.156
		C308.364,240.295,312.382,248.868,313.292,257.19z"/>
</g>
</svg>
