<?xml version="1.0" encoding="utf-8"?>
<!-- Generator: Adobe Illustrator 25.0.1, SVG Export Plug-In . SVG Version: 6.00 Build 0)  -->
<svg version="1.1" id="Layer_1" xmlns="http://www.w3.org/2000/svg" xmlns:xlink="http://www.w3.org/1999/xlink" x="0px" y="0px"
	 viewBox="0 0 18 18" style="enable-background:new 0 0 18 18;" xml:space="preserve">
<style type="text/css">
	.st0{fill:#FFFFFF;}
</style>
<path class="st0" d="M13.7,12.2l4.3,4.3L16.6,18l-4.3-4.3c-3.3,2.6-8.1,1.9-10.7-1.4S-0.3,4.1,3,1.6S11.1-0.3,13.7,3
	C15.8,5.7,15.8,9.5,13.7,12.2z M11.6,3.7c-2.2-2.2-5.7-2.2-7.9,0s-2.2,5.7,0,7.9c2.2,2.2,5.7,2.2,7.9,0C13.8,9.4,13.8,5.9,11.6,3.7
	C11.6,3.7,11.6,3.7,11.6,3.7z"/>
</svg>
