<svg xmlns="http://www.w3.org/2000/svg" viewBox="0 0 500 500"><g id="freepik--Table--inject-611"><polygon points="45.75 439.07 96.82 438.83 147.88 438.74 250 438.58 352.12 438.74 403.19 438.83 454.25 439.07 403.19 439.32 352.12 439.41 250 439.57 147.88 439.41 96.82 439.32 45.75 439.07" style="fill:#263238"></polygon></g><g id="freepik--Plant--inject-611"><path d="M401.86,344.46c15.62,15.29,18.24,39,14.95,59.68-.09.47-.81.34-.81-.1,0-4.72.14-9.4.13-14.06-.09-.21-.16-.41-.25-.63-4.07-3-7.82-6.31-10.14-10.9-2.61-5.13-3.64-10.92-5.63-16.28-.19-.51.36-.36.72-.09,9.5,7,12.53,14.55,15.25,24.62A83.61,83.61,0,0,0,414.43,371c-2.05-9.56-6.12-19-13-26.14C401.19,344.6,401.59,344.19,401.86,344.46Z" style="fill:#263238"></path><path d="M398.92,346.24c-2.69.09-4.37,4.39-6.46,5.64a2,2,0,0,1-3-.47c-2.08-2.89.77-6.47,3.45-8.47-1.92.79-3.5,2.18-5.57,2.57a1.94,1.94,0,0,1-2.51-1.51c-.91-3.95,4-5.7,7.44-5.79-1.65-1.14-6.37-4.26-3.86-5.79s8.08,2.92,9.89,4.38c2.66,2.16,5.82,5.38,5.94,8.75C404.43,349.49,401,347.07,398.92,346.24Z" style="fill:#00E77F"></path><path d="M398.92,346.24c-2.69.09-4.37,4.39-6.46,5.64a2,2,0,0,1-3-.47c-2.08-2.89.77-6.47,3.45-8.47-1.92.79-3.5,2.18-5.57,2.57a1.94,1.94,0,0,1-2.51-1.51c-.91-3.95,4-5.7,7.44-5.79-1.65-1.14-6.37-4.26-3.86-5.79s8.08,2.92,9.89,4.38c2.66,2.16,5.82,5.38,5.94,8.75C404.43,349.49,401,347.07,398.92,346.24Z" style="opacity:0.1"></path><path d="M399.7,346.9c-3.44-1.56-10,.69-10.6-.61-1.14-2.65,4.14-4.46,7-4.82-2.63-.71-7.65-1.84-7.5-4.37.19-3.08,7.71-.43,11.52,2.49,4.79,3.67,4.76,7.22,4,7.93C403,348.5,400.27,347.16,399.7,346.9Z" style="fill:#00E77F"></path><path d="M437.43,342.94c-16.19,14.69-19.71,38.24-17.21,59.07.07.47.8.37.82-.07.18-4.71.21-9.39.41-14.05l.26-.62c4.19-2.8,8.06-6,10.56-10.51,2.8-5,4.05-10.77,6.24-16.05.21-.5-.34-.37-.71-.12-9.76,6.64-13.08,14.06-16.19,24A84.41,84.41,0,0,1,423.86,369c2.42-9.48,6.84-18.8,14-25.63A.29.29,0,0,0,437.43,342.94Z" style="fill:#263238"></path><path d="M440.3,344.84c2.68.19,4.2,4.55,6.25,5.88a2,2,0,0,0,3-.35c2.18-2.82-.53-6.5-3.13-8.6,1.89.86,3.42,2.3,5.47,2.77a1.94,1.94,0,0,0,2.57-1.4c1.06-3.92-3.82-5.86-7.22-6.07,1.69-1.08,6.53-4,4.08-5.64s-8.19,2.6-10.05,4c-2.74,2.05-6,5.15-6.27,8.52C434.67,347.87,438.2,345.58,440.3,344.84Z" style="fill:#00E77F"></path><path d="M440.3,344.84c2.68.19,4.2,4.55,6.25,5.88a2,2,0,0,0,3-.35c2.18-2.82-.53-6.5-3.13-8.6,1.89.86,3.42,2.3,5.47,2.77a1.94,1.94,0,0,0,2.57-1.4c1.06-3.92-3.82-5.86-7.22-6.07,1.69-1.08,6.53-4,4.08-5.64s-8.19,2.6-10.05,4c-2.74,2.05-6,5.15-6.27,8.52C434.67,347.87,438.2,345.58,440.3,344.84Z" style="opacity:0.1"></path><path d="M439.5,345.47c3.49-1.43,10,1.07,10.61-.21,1.24-2.6-4-4.62-6.79-5.08,2.64-.61,7.71-1.55,7.65-4.08-.07-3.09-7.69-.73-11.6,2-4.93,3.5-5,7-4.27,7.78C436.15,346.94,438.92,345.71,439.5,345.47Z" style="fill:#00E77F"></path><path d="M420.88,381.74a159.81,159.81,0,0,1-5,23.22.58.58,0,0,1-1.13-.23c1.06-7.15,3-14.18,4.06-21.34a107.77,107.77,0,0,0,1.25-21.9c-.68-12.06-4-24.89-11.83-34.33-.17-.22.19-.54.37-.33,15.76,18.37,13.25,40.89,13.24,42.91,2.23-7.6,4.53-16.32,13-24.07.37-.33.65-.17.59.4-1.51,14.1-5.43,21.47-13.61,29C421.52,377.31,421.23,379.54,420.88,381.74Z" style="fill:#263238"></path><path d="M408.06,329.27c-2.84-1.26-6.75,2.35-9.55,2.6a2.33,2.33,0,0,1-2.84-2c-.7-4.05,4.06-6.32,7.84-7.05-2.38-.15-4.73.49-7.07-.14a2.24,2.24,0,0,1-1.85-2.83c1.05-4.55,7.07-3.88,10.64-2.26-1.13-2-4.47-7.62-1.09-7.95s6.92,7.09,8.05,9.52c1.68,3.58,3.34,8.51,1.77,12.07C412.14,335.41,409.79,331.17,408.06,329.27Z" style="fill:#00E77F"></path><path d="M408.06,329.27c-2.84-1.26-6.75,2.35-9.55,2.6a2.33,2.33,0,0,1-2.84-2c-.7-4.05,4.06-6.32,7.84-7.05-2.38-.15-4.73.49-7.07-.14a2.24,2.24,0,0,1-1.85-2.83c1.05-4.55,7.07-3.88,10.64-2.26-1.13-2-4.47-7.62-1.09-7.95s6.92,7.09,8.05,9.52c1.68,3.58,3.34,8.51,1.77,12.07C412.14,335.41,409.79,331.17,408.06,329.27Z" style="opacity:0.1"></path><path d="M408.53,330.35c-2.78-3.35-10.76-4.34-10.69-6,.16-3.32,6.54-2.55,9.67-1.48-2.36-2.06-7-5.76-5.57-8.31,1.75-3.11,8.21,3.43,10.69,8.38,3.13,6.22,1.31,9.89.13,10.23C411.14,333.66,409,330.91,408.53,330.35Z" style="fill:#00E77F"></path><path d="M431.24,386l6.95,53.09H395.91c.87-4.7,8.74-53.15,8.74-53.15Z" style="fill:#00E77F"></path></g><g id="freepik--circuit-board--inject-611"><path d="M429.21,139.58A10.07,10.07,0,0,0,439,149.64h15.29V290.81H296.68V277.23h0a10.07,10.07,0,0,0-20.13,0v13.58H208.42V45H454.25v84.5H439v0A10.07,10.07,0,0,0,429.21,139.58Z" style="fill:#00E77F"></path><g style="opacity:0.1"><polygon points="421.05 214.6 426.7 214.6 426.7 217.43 421.05 217.43 421.05 219.59 426.7 219.59 426.7 222.41 421.05 222.41 421.05 224.58 426.7 224.58 426.7 227.4 421.05 227.4 421.05 229.56 426.7 229.56 426.7 232.39 421.05 232.39 421.05 234.55 426.7 234.55 426.7 237.38 421.05 237.38 421.05 238.95 395.13 238.95 395.13 237.38 389.48 237.38 389.48 234.55 395.13 234.55 395.13 232.39 389.48 232.39 389.48 229.56 395.13 229.56 395.13 227.4 389.48 227.4 389.48 224.58 395.13 224.58 395.13 222.41 389.48 222.41 389.48 219.59 395.13 219.59 395.13 217.43 389.48 217.43 389.48 214.6 395.13 214.6 395.13 213.03 421.05 213.03 421.05 214.6"></polygon><polygon points="421.05 184.17 421.05 186.33 426.7 186.33 426.7 189.16 421.05 189.16 421.05 191.32 426.7 191.32 426.7 194.15 421.05 194.15 421.05 196.31 426.7 196.31 426.7 199.14 421.05 199.14 421.05 201.3 426.7 201.3 426.7 204.12 421.05 204.12 421.05 205.69 395.13 205.69 395.13 204.12 389.48 204.12 389.48 201.3 395.13 201.3 395.13 199.14 389.48 199.14 389.48 196.31 395.13 196.31 395.13 194.15 389.48 194.15 389.48 191.32 395.13 191.32 395.13 189.16 389.48 189.16 389.48 186.33 395.13 186.33 395.13 184.17 389.48 184.17 389.48 181.35 395.13 181.35 395.13 179.78 421.05 179.78 421.05 181.35 426.7 181.35 426.7 184.17 421.05 184.17"></polygon></g><g style="opacity:0.1"><path d="M273.45,216.65v2.16h5.66v2.83h-5.66v2.16h5.66v2.83h-5.66v2.16h5.66v2.82h-5.66v2.17h5.66v2.82h-5.66v2.16h5.66v2.83h-5.66v2.16h5.66v2.83h-5.66v2.16h5.66v2.83h-5.66v2.16h5.66v2.82h-5.66v2.13H250v-2.13h-5.65v-2.82H250v-2.16h-5.65v-2.83H250v-2.16h-5.65v-2.83H250v-2.16h-5.65v-2.83H250V236.6h-5.65v-2.82H250v-2.17h-5.65v-2.82H250v-2.16h-5.65V223.8H250v-2.16h-5.65v-2.83H250v-2.16h-5.65v-2.83H250v-2.13h8.59a3.16,3.16,0,0,0,6.32,0h8.58v2.13h5.66v2.83Z"></path></g><g style="opacity:0.1"><polygon points="421.05 86.54 421.05 88.7 426.7 88.7 426.7 91.52 421.05 91.52 421.05 93.69 426.7 93.69 426.7 96.51 421.05 96.51 421.05 98.67 426.7 98.67 426.7 101.5 421.05 101.5 421.05 103.66 426.7 103.66 426.7 106.49 421.05 106.49 421.05 108.06 395.13 108.06 395.13 106.49 389.48 106.49 389.48 103.66 395.13 103.66 395.13 101.5 389.48 101.5 389.48 98.67 395.13 98.67 395.13 96.51 389.48 96.51 389.48 93.69 395.13 93.69 395.13 91.52 389.48 91.52 389.48 88.7 395.13 88.7 395.13 86.54 389.48 86.54 389.48 83.71 395.13 83.71 395.13 82.14 421.05 82.14 421.05 83.71 426.7 83.71 426.7 86.54 421.05 86.54"></polygon></g><g style="opacity:0.1"><polygon points="342.83 93.51 342.83 95.67 348.48 95.67 348.48 98.5 342.83 98.5 342.83 100.66 348.48 100.66 348.48 103.49 342.83 103.49 342.83 105.65 348.48 105.65 348.48 108.48 342.83 108.48 342.83 110.64 348.48 110.64 348.48 113.47 342.83 113.47 342.83 115.63 348.48 115.63 348.48 118.45 342.83 118.45 342.83 120.61 348.48 120.61 348.48 123.44 342.83 123.44 342.83 125.6 348.48 125.6 348.48 128.43 342.83 128.43 342.83 130.59 348.48 130.59 348.48 133.42 342.83 133.42 342.83 135.58 348.48 135.58 348.48 138.41 342.83 138.41 342.83 140.57 348.48 140.57 348.48 143.39 342.83 143.39 342.83 145.56 348.48 145.56 348.48 148.38 342.83 148.38 342.83 150.54 348.48 150.54 348.48 153.37 342.83 153.37 342.83 155.53 348.48 155.53 348.48 158.36 342.83 158.36 342.83 160.52 348.48 160.52 348.48 163.35 342.83 163.35 342.83 165.51 348.48 165.51 348.48 168.33 342.83 168.33 342.83 170.04 341.12 170.04 341.12 175.69 338.3 175.69 338.3 170.04 336.14 170.04 336.14 175.69 333.31 175.69 333.31 170.04 331.15 170.04 331.15 175.69 328.32 175.69 328.32 170.04 326.16 170.04 326.16 175.69 323.33 175.69 323.33 170.04 321.17 170.04 321.17 175.69 318.35 175.69 318.35 170.04 316.18 170.04 316.18 175.69 313.36 175.69 313.36 170.04 311.2 170.04 311.2 175.69 308.37 175.69 308.37 170.04 306.21 170.04 306.21 175.69 303.38 175.69 303.38 170.04 301.22 170.04 301.22 175.69 298.39 175.69 298.39 170.04 296.23 170.04 296.23 175.69 293.41 175.69 293.41 170.04 291.24 170.04 291.24 175.69 288.42 175.69 288.42 170.04 286.26 170.04 286.26 175.69 283.43 175.69 283.43 170.04 281.27 170.04 281.27 175.69 278.44 175.69 278.44 170.04 276.28 170.04 276.28 175.69 273.45 175.69 273.45 170.04 271.29 170.04 271.29 175.69 268.46 175.69 268.46 170.04 266.3 170.04 266.3 175.69 263.48 175.69 263.48 170.04 261.77 170.04 261.77 168.33 256.12 168.33 256.12 165.51 261.77 165.51 261.77 163.35 256.12 163.35 256.12 160.52 261.77 160.52 261.77 158.36 256.12 158.36 256.12 155.53 261.77 155.53 261.77 153.37 256.12 153.37 256.12 150.54 261.77 150.54 261.77 148.38 256.12 148.38 256.12 145.56 261.77 145.56 261.77 143.39 256.12 143.39 256.12 140.57 261.77 140.57 261.77 138.41 256.12 138.41 256.12 135.58 261.77 135.58 261.77 133.42 256.12 133.42 256.12 130.59 261.77 130.59 261.77 128.43 256.12 128.43 256.12 125.6 261.77 125.6 261.77 123.44 256.12 123.44 256.12 120.61 261.77 120.61 261.77 118.45 256.12 118.45 256.12 115.63 261.77 115.63 261.77 113.47 256.12 113.47 256.12 110.64 261.77 110.64 261.77 108.48 256.12 108.48 256.12 105.65 261.77 105.65 261.77 103.49 256.12 103.49 256.12 100.66 261.77 100.66 261.77 98.5 256.12 98.5 256.12 95.67 261.77 95.67 261.77 93.51 256.12 93.51 256.12 90.69 261.77 90.69 261.77 88.98 263.48 88.98 263.48 83.33 266.3 83.33 266.3 88.98 268.46 88.98 268.46 83.33 271.29 83.33 271.29 88.98 273.45 88.98 273.45 83.33 276.28 83.33 276.28 88.98 278.44 88.98 278.44 83.33 281.27 83.33 281.27 88.98 283.43 88.98 283.43 83.33 286.26 83.33 286.26 88.98 288.42 88.98 288.42 83.33 291.24 83.33 291.24 88.98 293.41 88.98 293.41 83.33 296.23 83.33 296.23 88.98 298.39 88.98 298.39 83.33 301.22 83.33 301.22 88.98 303.38 88.98 303.38 83.33 306.21 83.33 306.21 88.98 308.37 88.98 308.37 83.33 311.2 83.33 311.2 88.98 313.36 88.98 313.36 83.33 316.18 83.33 316.18 88.98 318.35 88.98 318.35 83.33 321.17 83.33 321.17 88.98 323.33 88.98 323.33 83.33 326.16 83.33 326.16 88.98 328.32 88.98 328.32 83.33 331.15 83.33 331.15 88.98 333.31 88.98 333.31 83.33 336.14 83.33 336.14 88.98 338.3 88.98 338.3 83.33 341.12 83.33 341.12 88.98 342.83 88.98 342.83 90.69 348.48 90.69 348.48 93.51 342.83 93.51"></polygon></g><rect x="260.77" y="87.98" width="81.06" height="81.06" style="fill:#37474f"></rect><rect x="262.47" y="169.04" width="2.83" height="5.65" style="fill:#ebebeb"></rect><rect x="267.46" y="169.04" width="2.83" height="5.65" style="fill:#ebebeb"></rect><rect x="272.45" y="169.04" width="2.83" height="5.65" style="fill:#ebebeb"></rect><rect x="277.44" y="169.04" width="2.83" height="5.65" style="fill:#ebebeb"></rect><rect x="282.43" y="169.04" width="2.83" height="5.65" style="fill:#ebebeb"></rect><rect x="287.41" y="169.04" width="2.83" height="5.65" style="fill:#ebebeb"></rect><rect x="292.4" y="169.04" width="2.83" height="5.65" style="fill:#ebebeb"></rect><rect x="297.39" y="169.04" width="2.83" height="5.65" style="fill:#ebebeb"></rect><rect x="302.38" y="169.04" width="2.83" height="5.65" style="fill:#ebebeb"></rect><rect x="307.37" y="169.04" width="2.83" height="5.65" style="fill:#ebebeb"></rect><rect x="312.35" y="169.04" width="2.83" height="5.65" style="fill:#ebebeb"></rect><rect x="317.34" y="169.04" width="2.83" height="5.65" style="fill:#ebebeb"></rect><rect x="322.33" y="169.04" width="2.83" height="5.65" style="fill:#ebebeb"></rect><rect x="327.32" y="169.04" width="2.83" height="5.65" style="fill:#ebebeb"></rect><rect x="332.31" y="169.04" width="2.83" height="5.65" style="fill:#ebebeb"></rect><rect x="337.29" y="169.04" width="2.83" height="5.65" style="fill:#ebebeb"></rect><rect x="256.53" y="88.27" width="2.83" height="5.65" transform="translate(349.04 -166.84) rotate(90)" style="fill:#ebebeb"></rect><rect x="256.53" y="93.26" width="2.83" height="5.65" transform="translate(354.03 -161.85) rotate(90)" style="fill:#ebebeb"></rect><rect x="256.53" y="98.25" width="2.83" height="5.65" transform="translate(359.02 -156.87) rotate(90)" style="fill:#ebebeb"></rect><rect x="256.53" y="103.24" width="2.83" height="5.65" transform="translate(364.01 -151.88) rotate(90)" style="fill:#ebebeb"></rect><rect x="256.53" y="108.23" width="2.83" height="5.65" transform="translate(368.99 -146.89) rotate(90)" style="fill:#ebebeb"></rect><rect x="256.53" y="113.21" width="2.83" height="5.65" transform="translate(373.98 -141.9) rotate(90)" style="fill:#ebebeb"></rect><rect x="256.53" y="118.2" width="2.83" height="5.65" transform="translate(378.97 -136.91) rotate(90)" style="fill:#ebebeb"></rect><rect x="256.53" y="123.19" width="2.83" height="5.65" transform="translate(383.96 -131.93) rotate(90)" style="fill:#ebebeb"></rect><rect x="256.53" y="128.18" width="2.83" height="5.65" transform="translate(388.95 -126.94) rotate(90)" style="fill:#ebebeb"></rect><rect x="256.53" y="133.17" width="2.83" height="5.65" transform="translate(393.93 -121.95) rotate(90)" style="fill:#ebebeb"></rect><rect x="256.53" y="138.15" width="2.83" height="5.65" transform="translate(398.92 -116.96) rotate(90)" style="fill:#ebebeb"></rect><rect x="256.53" y="143.14" width="2.83" height="5.65" transform="translate(403.91 -111.97) rotate(90)" style="fill:#ebebeb"></rect><rect x="256.53" y="148.13" width="2.83" height="5.65" transform="translate(408.9 -106.98) rotate(90)" style="fill:#ebebeb"></rect><rect x="256.53" y="153.12" width="2.83" height="5.65" transform="translate(413.89 -102) rotate(90)" style="fill:#ebebeb"></rect><rect x="256.53" y="158.11" width="2.83" height="5.65" transform="translate(418.87 -97.01) rotate(90)" style="fill:#ebebeb"></rect><rect x="256.53" y="163.09" width="2.83" height="5.65" transform="translate(423.86 -92.02) rotate(90)" style="fill:#ebebeb"></rect><rect x="337.29" y="82.33" width="2.83" height="5.65" transform="translate(677.42 170.31) rotate(180)" style="fill:#ebebeb"></rect><rect x="332.31" y="82.33" width="2.83" height="5.65" transform="translate(667.44 170.31) rotate(180)" style="fill:#ebebeb"></rect><rect x="327.32" y="82.33" width="2.83" height="5.65" transform="translate(657.46 170.31) rotate(180)" style="fill:#ebebeb"></rect><rect x="322.33" y="82.33" width="2.83" height="5.65" transform="translate(647.49 170.31) rotate(180)" style="fill:#ebebeb"></rect><rect x="317.34" y="82.33" width="2.83" height="5.65" transform="translate(637.51 170.31) rotate(180)" style="fill:#ebebeb"></rect><rect x="312.35" y="82.33" width="2.83" height="5.65" transform="translate(627.53 170.31) rotate(180)" style="fill:#ebebeb"></rect><rect x="307.37" y="82.33" width="2.83" height="5.65" transform="translate(617.56 170.31) rotate(180)" style="fill:#ebebeb"></rect><rect x="302.38" y="82.33" width="2.83" height="5.65" transform="translate(607.58 170.31) rotate(180)" style="fill:#ebebeb"></rect><rect x="297.39" y="82.33" width="2.83" height="5.65" transform="translate(597.61 170.31) rotate(180)" style="fill:#ebebeb"></rect><rect x="292.4" y="82.33" width="2.83" height="5.65" transform="translate(587.63 170.31) rotate(180)" style="fill:#ebebeb"></rect><rect x="287.41" y="82.33" width="2.83" height="5.65" transform="translate(577.65 170.31) rotate(180)" style="fill:#ebebeb"></rect><rect x="282.43" y="82.33" width="2.83" height="5.65" transform="translate(567.68 170.31) rotate(180)" style="fill:#ebebeb"></rect><rect x="277.44" y="82.33" width="2.83" height="5.65" transform="translate(557.7 170.31) rotate(180)" style="fill:#ebebeb"></rect><rect x="272.45" y="82.33" width="2.83" height="5.65" transform="translate(547.72 170.31) rotate(180)" style="fill:#ebebeb"></rect><rect x="267.46" y="82.33" width="2.83" height="5.65" transform="translate(537.75 170.31) rotate(180)" style="fill:#ebebeb"></rect><rect x="262.47" y="82.33" width="2.83" height="5.65" transform="translate(527.77 170.31) rotate(180)" style="fill:#ebebeb"></rect><rect x="343.24" y="163.09" width="2.83" height="5.65" transform="translate(178.73 510.57) rotate(-90)" style="fill:#ebebeb"></rect><rect x="343.24" y="158.11" width="2.83" height="5.65" transform="translate(183.72 505.58) rotate(-90)" style="fill:#ebebeb"></rect><rect x="343.24" y="153.12" width="2.83" height="5.65" transform="translate(188.71 500.6) rotate(-90)" style="fill:#ebebeb"></rect><rect x="343.24" y="148.13" width="2.83" height="5.65" transform="translate(193.7 495.61) rotate(-90)" style="fill:#ebebeb"></rect><rect x="343.24" y="143.14" width="2.83" height="5.65" transform="translate(198.68 490.62) rotate(-90)" style="fill:#ebebeb"></rect><rect x="343.24" y="138.15" width="2.83" height="5.65" transform="translate(203.67 485.63) rotate(-90)" style="fill:#ebebeb"></rect><rect x="343.24" y="133.17" width="2.83" height="5.65" transform="translate(208.66 480.64) rotate(-90)" style="fill:#ebebeb"></rect><rect x="343.24" y="128.18" width="2.83" height="5.65" transform="translate(213.65 475.66) rotate(-90)" style="fill:#ebebeb"></rect><rect x="343.24" y="123.19" width="2.83" height="5.65" transform="translate(218.64 470.67) rotate(-90)" style="fill:#ebebeb"></rect><rect x="343.24" y="118.2" width="2.83" height="5.65" transform="translate(223.62 465.68) rotate(-90)" style="fill:#ebebeb"></rect><rect x="343.24" y="113.21" width="2.83" height="5.65" transform="translate(228.61 460.69) rotate(-90)" style="fill:#ebebeb"></rect><rect x="343.24" y="108.23" width="2.83" height="5.65" transform="translate(233.6 455.7) rotate(-90)" style="fill:#ebebeb"></rect><rect x="343.24" y="103.24" width="2.83" height="5.65" transform="translate(238.59 450.72) rotate(-90)" style="fill:#ebebeb"></rect><rect x="343.24" y="98.25" width="2.83" height="5.65" transform="translate(243.58 445.73) rotate(-90)" style="fill:#ebebeb"></rect><rect x="343.24" y="93.26" width="2.83" height="5.65" transform="translate(248.56 440.74) rotate(-90)" style="fill:#ebebeb"></rect><rect x="343.24" y="88.27" width="2.83" height="5.65" transform="translate(253.55 435.75) rotate(-90)" style="fill:#ebebeb"></rect><path d="M269.52,94.67a2.83,2.83,0,1,1-2.83-2.82A2.83,2.83,0,0,1,269.52,94.67Z" style="fill:#263238"></path><polygon points="353.17 91.6 347.48 91.6 347.48 90.6 352.76 90.6 365.1 78.25 365.81 78.96 353.17 91.6" style="fill:#fff"></polygon><polygon points="354.25 96.59 347.48 96.59 347.48 95.59 353.84 95.59 371.29 78.14 371.99 78.85 354.25 96.59" style="fill:#fff"></polygon><polygon points="356.68 166.42 347.48 166.42 347.48 165.42 356.26 165.42 363.93 157.76 399.16 157.76 399.16 158.76 364.34 158.76 356.68 166.42" style="fill:#fff"></polygon><polygon points="353.59 161.43 347.48 161.43 347.48 160.43 353.17 160.43 364.91 148.7 399.16 148.7 399.16 149.7 365.32 149.7 353.59 161.43" style="fill:#fff"></polygon><rect x="399.16" y="155.12" width="13.95" height="6.28" style="fill:#00E77F"></rect><rect x="399.16" y="155.12" width="13.95" height="6.28" style="opacity:0.2"></rect><rect x="399.16" y="155.12" width="2.94" height="6.28" style="opacity:0.2"></rect><rect x="410.17" y="155.12" width="2.94" height="6.28" style="opacity:0.2"></rect><rect x="399.16" y="146.06" width="13.95" height="6.28" style="fill:#00E77F"></rect><rect x="399.16" y="146.06" width="13.95" height="6.28" style="opacity:0.2"></rect><rect x="399.16" y="146.06" width="2.94" height="6.28" style="opacity:0.2"></rect><rect x="410.17" y="146.06" width="2.94" height="6.28" style="opacity:0.2"></rect><rect x="215.14" y="108.46" width="20.18" height="6.28" transform="translate(336.82 -113.63) rotate(90)" style="fill:#00E77F"></rect><rect x="215.14" y="108.46" width="20.18" height="6.28" transform="translate(336.82 -113.63) rotate(90)" style="opacity:0.2"></rect><rect x="223.1" y="100.49" width="4.26" height="6.28" transform="translate(328.86 -121.6) rotate(90)" style="opacity:0.2"></rect><rect x="223.1" y="116.42" width="4.26" height="6.28" transform="translate(344.79 -105.67) rotate(90)" style="opacity:0.2"></rect><rect x="215.14" y="153.97" width="20.18" height="6.28" transform="translate(382.33 -68.12) rotate(90)" style="fill:#00E77F"></rect><rect x="215.14" y="153.97" width="20.18" height="6.28" transform="translate(382.33 -68.12) rotate(90)" style="opacity:0.2"></rect><rect x="223.1" y="146" width="4.26" height="6.28" transform="translate(374.37 -76.09) rotate(90)" style="opacity:0.2"></rect><rect x="223.1" y="161.93" width="4.26" height="6.28" transform="translate(390.3 -60.16) rotate(90)" style="opacity:0.2"></rect><rect x="399.16" y="137.01" width="13.95" height="6.28" style="fill:#00E77F"></rect><rect x="399.16" y="137.01" width="13.95" height="6.28" style="opacity:0.2"></rect><rect x="399.16" y="137.01" width="2.94" height="6.28" style="opacity:0.2"></rect><rect x="410.17" y="137.01" width="2.94" height="6.28" style="opacity:0.2"></rect><rect x="399.16" y="127.95" width="13.95" height="6.28" style="fill:#00E77F"></rect><rect x="399.16" y="127.95" width="13.95" height="6.28" style="opacity:0.2"></rect><rect x="399.16" y="127.95" width="2.94" height="6.28" style="opacity:0.2"></rect><rect x="410.17" y="127.95" width="2.94" height="6.28" style="opacity:0.2"></rect><rect x="399.16" y="118.89" width="13.95" height="6.28" style="fill:#00E77F"></rect><rect x="399.16" y="118.89" width="13.95" height="6.28" style="opacity:0.2"></rect><rect x="399.16" y="118.89" width="2.94" height="6.28" style="opacity:0.2"></rect><rect x="410.17" y="118.89" width="2.94" height="6.28" style="opacity:0.2"></rect><path d="M272.45,210.69v47H249v-47h8.59a3.16,3.16,0,0,0,6.32,0Z" style="fill:#37474f"></path><rect x="244.72" y="211.41" width="2.83" height="5.65" transform="translate(460.37 -31.9) rotate(90)" style="fill:#ebebeb"></rect><rect x="244.72" y="216.4" width="2.83" height="5.65" transform="translate(465.36 -26.91) rotate(90)" style="fill:#ebebeb"></rect><rect x="244.72" y="221.39" width="2.83" height="5.65" transform="translate(470.35 -21.92) rotate(90)" style="fill:#ebebeb"></rect><rect x="244.72" y="226.37" width="2.83" height="5.65" transform="translate(475.33 -16.93) rotate(90)" style="fill:#ebebeb"></rect><rect x="244.72" y="231.36" width="2.83" height="5.65" transform="translate(480.32 -11.94) rotate(90)" style="fill:#ebebeb"></rect><rect x="244.72" y="236.35" width="2.83" height="5.65" transform="translate(485.31 -6.96) rotate(90)" style="fill:#ebebeb"></rect><rect x="244.72" y="241.34" width="2.83" height="5.65" transform="translate(490.3 -1.97) rotate(90)" style="fill:#ebebeb"></rect><rect x="244.72" y="246.33" width="2.83" height="5.65" transform="translate(495.29 3.02) rotate(90)" style="fill:#ebebeb"></rect><rect x="244.72" y="251.31" width="2.83" height="5.65" transform="translate(500.27 8.01) rotate(90)" style="fill:#ebebeb"></rect><rect x="273.86" y="211.41" width="2.83" height="5.65" transform="translate(489.51 -61.04) rotate(90)" style="fill:#ebebeb"></rect><rect x="273.86" y="216.4" width="2.83" height="5.65" transform="translate(494.5 -56.05) rotate(90)" style="fill:#ebebeb"></rect><rect x="273.86" y="221.39" width="2.83" height="5.65" transform="translate(499.49 -51.06) rotate(90)" style="fill:#ebebeb"></rect><rect x="273.86" y="226.37" width="2.83" height="5.65" transform="translate(504.48 -46.08) rotate(90)" style="fill:#ebebeb"></rect><rect x="273.86" y="231.36" width="2.83" height="5.65" transform="translate(509.47 -41.09) rotate(90)" style="fill:#ebebeb"></rect><rect x="273.86" y="236.35" width="2.83" height="5.65" transform="translate(514.45 -36.1) rotate(90)" style="fill:#ebebeb"></rect><rect x="273.86" y="241.34" width="2.83" height="5.65" transform="translate(519.44 -31.11) rotate(90)" style="fill:#ebebeb"></rect><rect x="273.86" y="246.33" width="2.83" height="5.65" transform="translate(524.43 -26.12) rotate(90)" style="fill:#ebebeb"></rect><rect x="273.86" y="251.31" width="2.83" height="5.65" transform="translate(529.42 -21.14) rotate(90)" style="fill:#ebebeb"></rect><rect x="394.13" y="178.78" width="25.92" height="25.92" style="fill:#37474f"></rect><rect x="421.46" y="198.88" width="2.83" height="5.65" transform="translate(221.16 624.58) rotate(-90)" style="fill:#ebebeb"></rect><rect x="421.46" y="193.9" width="2.83" height="5.65" transform="translate(226.15 619.6) rotate(-90)" style="fill:#ebebeb"></rect><rect x="421.46" y="188.91" width="2.83" height="5.65" transform="translate(231.14 614.61) rotate(-90)" style="fill:#ebebeb"></rect><rect x="421.46" y="183.92" width="2.83" height="5.65" transform="translate(236.13 609.62) rotate(-90)" style="fill:#ebebeb"></rect><rect x="421.46" y="178.93" width="2.83" height="5.65" transform="translate(241.11 604.63) rotate(-90)" style="fill:#ebebeb"></rect><rect x="389.89" y="198.88" width="2.83" height="5.65" transform="translate(189.59 593.01) rotate(-90)" style="fill:#ebebeb"></rect><rect x="389.89" y="193.9" width="2.83" height="5.65" transform="translate(194.58 588.02) rotate(-90)" style="fill:#ebebeb"></rect><rect x="389.89" y="188.91" width="2.83" height="5.65" transform="translate(199.57 583.04) rotate(-90)" style="fill:#ebebeb"></rect><rect x="389.89" y="183.92" width="2.83" height="5.65" transform="translate(204.55 578.05) rotate(-90)" style="fill:#ebebeb"></rect><rect x="389.89" y="178.93" width="2.83" height="5.65" transform="translate(209.54 573.06) rotate(-90)" style="fill:#ebebeb"></rect><rect x="394.13" y="81.14" width="25.92" height="25.92" style="fill:#37474f"></rect><rect x="421.46" y="101.25" width="2.83" height="5.65" transform="translate(318.8 526.95) rotate(-90)" style="fill:#ebebeb"></rect><rect x="421.46" y="96.26" width="2.83" height="5.65" transform="translate(323.78 521.96) rotate(-90)" style="fill:#ebebeb"></rect><rect x="421.46" y="91.27" width="2.83" height="5.65" transform="translate(328.77 516.97) rotate(-90)" style="fill:#ebebeb"></rect><rect x="421.46" y="86.28" width="2.83" height="5.65" transform="translate(333.76 511.98) rotate(-90)" style="fill:#ebebeb"></rect><rect x="421.46" y="81.3" width="2.83" height="5.65" transform="translate(338.75 507) rotate(-90)" style="fill:#ebebeb"></rect><rect x="389.89" y="101.25" width="2.83" height="5.65" transform="translate(287.22 495.38) rotate(-90)" style="fill:#ebebeb"></rect><rect x="389.89" y="96.26" width="2.83" height="5.65" transform="translate(292.21 490.39) rotate(-90)" style="fill:#ebebeb"></rect><rect x="389.89" y="91.27" width="2.83" height="5.65" transform="translate(297.2 485.4) rotate(-90)" style="fill:#ebebeb"></rect><rect x="389.89" y="86.28" width="2.83" height="5.65" transform="translate(302.19 480.41) rotate(-90)" style="fill:#ebebeb"></rect><rect x="389.89" y="81.3" width="2.83" height="5.65" transform="translate(307.18 475.42) rotate(-90)" style="fill:#ebebeb"></rect><rect x="394.13" y="212.03" width="25.92" height="25.92" style="fill:#37474f"></rect><rect x="421.46" y="232.14" width="2.83" height="5.65" transform="translate(187.91 657.84) rotate(-90)" style="fill:#ebebeb"></rect><rect x="421.46" y="227.15" width="2.83" height="5.65" transform="translate(192.9 652.85) rotate(-90)" style="fill:#ebebeb"></rect><rect x="421.46" y="222.16" width="2.83" height="5.65" transform="translate(197.88 647.86) rotate(-90)" style="fill:#ebebeb"></rect><rect x="421.46" y="217.17" width="2.83" height="5.65" transform="translate(202.87 642.87) rotate(-90)" style="fill:#ebebeb"></rect><rect x="421.46" y="212.19" width="2.83" height="5.65" transform="translate(207.86 637.88) rotate(-90)" style="fill:#ebebeb"></rect><rect x="389.89" y="232.14" width="2.83" height="5.65" transform="translate(156.34 626.27) rotate(-90)" style="fill:#ebebeb"></rect><rect x="389.89" y="227.15" width="2.83" height="5.65" transform="translate(161.32 621.28) rotate(-90)" style="fill:#ebebeb"></rect><rect x="389.89" y="222.16" width="2.83" height="5.65" transform="translate(166.31 616.29) rotate(-90)" style="fill:#ebebeb"></rect><rect x="389.89" y="217.17" width="2.83" height="5.65" transform="translate(171.3 611.3) rotate(-90)" style="fill:#ebebeb"></rect><rect x="389.89" y="212.19" width="2.83" height="5.65" transform="translate(176.29 606.31) rotate(-90)" style="fill:#ebebeb"></rect><polygon points="350.37 156.33 347.48 156.33 347.48 155.33 349.96 155.33 365.64 139.64 399.16 139.64 399.16 140.64 366.06 140.64 350.37 156.33" style="fill:#fff"></polygon><polygon points="355.04 131.78 347.48 131.78 347.48 130.78 354.63 130.78 363.87 121.53 399.16 121.53 399.16 122.53 364.29 122.53 355.04 131.78" style="fill:#fff"></polygon><polygon points="356.02 141.81 347.48 141.81 347.48 140.81 355.61 140.81 365.64 130.78 399.16 130.78 399.16 131.78 366.06 131.78 356.02 141.81" style="fill:#fff"></polygon><path d="M366.31,79.34a1.88,1.88,0,1,1,1.87-1.87A1.87,1.87,0,0,1,366.31,79.34Zm0-2.75a.88.88,0,1,0,.87.88A.87.87,0,0,0,366.31,76.59Z" style="fill:#fff"></path><path d="M372.49,79.43a1.87,1.87,0,1,1,1.87-1.87A1.87,1.87,0,0,1,372.49,79.43Zm0-2.74a.87.87,0,1,0,.87.87A.87.87,0,0,0,372.49,76.69Z" style="fill:#fff"></path><path d="M438.81,101a1.87,1.87,0,1,1,1.87-1.87A1.87,1.87,0,0,1,438.81,101Zm0-2.74a.87.87,0,1,0,.87.87A.87.87,0,0,0,438.81,98.22Z" style="fill:#fff"></path><path d="M438.81,86.87A1.88,1.88,0,1,1,440.68,85,1.87,1.87,0,0,1,438.81,86.87Zm0-2.75a.88.88,0,1,0,.87.88A.88.88,0,0,0,438.81,84.12Z" style="fill:#fff"></path><path d="M449.12,76.59A1.87,1.87,0,1,1,451,74.72,1.88,1.88,0,0,1,449.12,76.59Zm0-2.74a.87.87,0,1,0,.87.87A.88.88,0,0,0,449.12,73.85Z" style="fill:#fff"></path><path d="M241.54,162.8a1.87,1.87,0,1,1,1.87-1.87A1.87,1.87,0,0,1,241.54,162.8Zm0-2.74a.87.87,0,1,0,.87.87A.87.87,0,0,0,241.54,160.06Z" style="fill:#fff"></path><path d="M241.54,173.28a1.87,1.87,0,1,1,1.87-1.87A1.87,1.87,0,0,1,241.54,173.28Zm0-2.74a.87.87,0,1,0,.87.87A.87.87,0,0,0,241.54,170.54Z" style="fill:#fff"></path><path d="M272.45,201.46a1.87,1.87,0,1,1,1.87-1.87A1.87,1.87,0,0,1,272.45,201.46Zm0-2.74a.87.87,0,1,0,.87.87A.87.87,0,0,0,272.45,198.72Z" style="fill:#fff"></path><path d="M281.72,201.46a1.87,1.87,0,1,1,1.87-1.87A1.87,1.87,0,0,1,281.72,201.46Zm0-2.74a.87.87,0,1,0,.87.87A.87.87,0,0,0,281.72,198.72Z" style="fill:#fff"></path><path d="M296,210a1.87,1.87,0,1,1,1.87-1.87A1.87,1.87,0,0,1,296,210Zm0-2.74a.87.87,0,1,0,.87.87A.87.87,0,0,0,296,207.27Z" style="fill:#fff"></path><path d="M303.25,210a1.87,1.87,0,1,1,1.87-1.87A1.87,1.87,0,0,1,303.25,210Zm0-2.74a.87.87,0,1,0,.87.87A.87.87,0,0,0,303.25,207.27Z" style="fill:#fff"></path><path d="M310.48,210a1.87,1.87,0,1,1,1.88-1.87A1.87,1.87,0,0,1,310.48,210Zm0-2.74a.87.87,0,1,0,.88.87A.87.87,0,0,0,310.48,207.27Z" style="fill:#fff"></path><path d="M368.75,233.26a1.87,1.87,0,1,1,1.87-1.87A1.87,1.87,0,0,1,368.75,233.26Zm0-2.74a.87.87,0,1,0,.87.87A.87.87,0,0,0,368.75,230.52Z" style="fill:#fff"></path><path d="M362.79,238.66a1.88,1.88,0,1,1,1.88-1.87A1.87,1.87,0,0,1,362.79,238.66Zm0-2.75a.88.88,0,1,0,.88.88A.88.88,0,0,0,362.79,235.91Z" style="fill:#fff"></path><path d="M230,216.11a1.88,1.88,0,1,1,1.87-1.87A1.87,1.87,0,0,1,230,216.11Zm0-2.75a.88.88,0,1,0,.87.88A.88.88,0,0,0,230,213.36Z" style="fill:#fff"></path><path d="M230,241.05a1.87,1.87,0,1,1,1.87-1.87A1.87,1.87,0,0,1,230,241.05Zm0-2.74a.87.87,0,1,0,.87.87A.87.87,0,0,0,230,238.31Z" style="fill:#fff"></path><path d="M224.86,262.4a1.87,1.87,0,1,1,1.87-1.87A1.87,1.87,0,0,1,224.86,262.4Zm0-2.74a.87.87,0,1,0,.87.87A.87.87,0,0,0,224.86,259.66Z" style="fill:#fff"></path><path d="M232.15,262.4a1.87,1.87,0,1,1,1.87-1.87A1.87,1.87,0,0,1,232.15,262.4Zm0-2.74a.87.87,0,1,0,.87.87A.87.87,0,0,0,232.15,259.66Z" style="fill:#fff"></path><path d="M440,213.4a1.87,1.87,0,1,1,1.87-1.87A1.88,1.88,0,0,1,440,213.4Zm0-2.74a.87.87,0,1,0,.87.87A.88.88,0,0,0,440,210.66Z" style="fill:#fff"></path><polygon points="353.63 279.22 313.91 279.22 289.33 254.64 278.1 254.64 278.1 253.64 289.74 253.64 314.32 278.22 353.63 278.22 353.63 279.22" style="fill:#fff"></polygon><path d="M357,282.6a3.88,3.88,0,1,1,3.88-3.88A3.88,3.88,0,0,1,357,282.6Zm0-5.76a1.88,1.88,0,1,0,1.88,1.88A1.88,1.88,0,0,0,357,276.84Z" style="fill:#fff"></path><path d="M357,273.2a3.89,3.89,0,1,1,3.88-3.89A3.89,3.89,0,0,1,357,273.2Zm0-5.77a1.89,1.89,0,1,0,1.88,1.88A1.88,1.88,0,0,0,357,267.43Z" style="fill:#fff"></path><path d="M357,263.79a3.89,3.89,0,1,1,3.88-3.88A3.88,3.88,0,0,1,357,263.79Zm0-5.77a1.89,1.89,0,1,0,1.88,1.89A1.89,1.89,0,0,0,357,258Z" style="fill:#fff"></path><path d="M366.29,282.6a3.88,3.88,0,1,1,3.88-3.88A3.88,3.88,0,0,1,366.29,282.6Zm0-5.76a1.88,1.88,0,1,0,1.88,1.88A1.88,1.88,0,0,0,366.29,276.84Z" style="fill:#fff"></path><path d="M366.29,273.2a3.89,3.89,0,1,1,3.88-3.89A3.89,3.89,0,0,1,366.29,273.2Zm0-5.77a1.89,1.89,0,1,0,1.88,1.88A1.88,1.88,0,0,0,366.29,267.43Z" style="fill:#fff"></path><path d="M366.29,263.79a3.89,3.89,0,1,1,3.88-3.88A3.88,3.88,0,0,1,366.29,263.79Zm0-5.77a1.89,1.89,0,1,0,1.88,1.89A1.89,1.89,0,0,0,366.29,258Z" style="fill:#fff"></path><path d="M375.54,282.6a3.88,3.88,0,1,1,3.88-3.88A3.89,3.89,0,0,1,375.54,282.6Zm0-5.76a1.88,1.88,0,1,0,1.88,1.88A1.89,1.89,0,0,0,375.54,276.84Z" style="fill:#fff"></path><path d="M375.54,273.2a3.89,3.89,0,1,1,3.88-3.89A3.89,3.89,0,0,1,375.54,273.2Zm0-5.77a1.89,1.89,0,1,0,1.88,1.88A1.89,1.89,0,0,0,375.54,267.43Z" style="fill:#fff"></path><path d="M375.54,263.79a3.89,3.89,0,1,1,3.88-3.88A3.89,3.89,0,0,1,375.54,263.79Zm0-5.77a1.89,1.89,0,1,0,1.88,1.89A1.89,1.89,0,0,0,375.54,258Z" style="fill:#fff"></path><path d="M384.78,282.6a3.88,3.88,0,1,1,3.89-3.88A3.88,3.88,0,0,1,384.78,282.6Zm0-5.76a1.88,1.88,0,1,0,1.89,1.88A1.88,1.88,0,0,0,384.78,276.84Z" style="fill:#fff"></path><path d="M384.78,273.2a3.89,3.89,0,1,1,3.89-3.89A3.89,3.89,0,0,1,384.78,273.2Zm0-5.77a1.89,1.89,0,1,0,1.89,1.88A1.89,1.89,0,0,0,384.78,267.43Z" style="fill:#fff"></path><path d="M384.78,263.79a3.89,3.89,0,1,1,3.89-3.88A3.88,3.88,0,0,1,384.78,263.79Zm0-5.77a1.89,1.89,0,1,0,1.89,1.89A1.89,1.89,0,0,0,384.78,258Z" style="fill:#fff"></path><path d="M394,282.6a3.88,3.88,0,1,1,3.88-3.88A3.88,3.88,0,0,1,394,282.6Zm0-5.76a1.88,1.88,0,1,0,1.88,1.88A1.88,1.88,0,0,0,394,276.84Z" style="fill:#fff"></path><path d="M394,273.2a3.89,3.89,0,1,1,3.88-3.89A3.89,3.89,0,0,1,394,273.2Zm0-5.77a1.89,1.89,0,1,0,1.88,1.88A1.88,1.88,0,0,0,394,267.43Z" style="fill:#fff"></path><path d="M394,263.79a3.89,3.89,0,1,1,3.88-3.88A3.88,3.88,0,0,1,394,263.79Zm0-5.77a1.89,1.89,0,1,0,1.88,1.89A1.89,1.89,0,0,0,394,258Z" style="fill:#fff"></path><path d="M403.28,282.6a3.88,3.88,0,1,1,3.88-3.88A3.88,3.88,0,0,1,403.28,282.6Zm0-5.76a1.88,1.88,0,1,0,1.88,1.88A1.88,1.88,0,0,0,403.28,276.84Z" style="fill:#fff"></path><path d="M403.28,273.2a3.89,3.89,0,1,1,3.88-3.89A3.89,3.89,0,0,1,403.28,273.2Zm0-5.77a1.89,1.89,0,1,0,1.88,1.88A1.88,1.88,0,0,0,403.28,267.43Z" style="fill:#fff"></path><path d="M323.81,67.73a3.89,3.89,0,1,1,3.89-3.88A3.88,3.88,0,0,1,323.81,67.73Zm0-5.77a1.89,1.89,0,1,0,1.89,1.89A1.89,1.89,0,0,0,323.81,62Z" style="fill:#fff"></path><path d="M323.81,58.32a3.88,3.88,0,1,1,3.89-3.88A3.88,3.88,0,0,1,323.81,58.32Zm0-5.76a1.88,1.88,0,1,0,1.89,1.88A1.88,1.88,0,0,0,323.81,52.56Z" style="fill:#fff"></path><path d="M333.06,67.73A3.89,3.89,0,1,1,337,63.85,3.88,3.88,0,0,1,333.06,67.73Zm0-5.77A1.89,1.89,0,1,0,335,63.85,1.89,1.89,0,0,0,333.06,62Z" style="fill:#fff"></path><path d="M333.06,58.32A3.88,3.88,0,1,1,337,54.44,3.88,3.88,0,0,1,333.06,58.32Zm0-5.76A1.88,1.88,0,1,0,335,54.44,1.88,1.88,0,0,0,333.06,52.56Z" style="fill:#fff"></path><path d="M342.31,67.73a3.89,3.89,0,1,1,3.88-3.88A3.88,3.88,0,0,1,342.31,67.73Zm0-5.77a1.89,1.89,0,1,0,1.88,1.89A1.89,1.89,0,0,0,342.31,62Z" style="fill:#fff"></path><path d="M342.31,58.32a3.88,3.88,0,1,1,3.88-3.88A3.88,3.88,0,0,1,342.31,58.32Zm0-5.76a1.88,1.88,0,1,0,1.88,1.88A1.88,1.88,0,0,0,342.31,52.56Z" style="fill:#fff"></path><path d="M351.56,67.73a3.89,3.89,0,1,1,3.88-3.88A3.88,3.88,0,0,1,351.56,67.73Zm0-5.77a1.89,1.89,0,1,0,1.88,1.89A1.89,1.89,0,0,0,351.56,62Z" style="fill:#fff"></path><path d="M351.56,58.32a3.88,3.88,0,1,1,3.88-3.88A3.88,3.88,0,0,1,351.56,58.32Zm0-5.76a1.88,1.88,0,1,0,1.88,1.88A1.88,1.88,0,0,0,351.56,52.56Z" style="fill:#fff"></path><path d="M403.28,263.79a3.89,3.89,0,1,1,3.88-3.88A3.88,3.88,0,0,1,403.28,263.79Zm0-5.77a1.89,1.89,0,1,0,1.88,1.89A1.89,1.89,0,0,0,403.28,258Z" style="fill:#fff"></path><polygon points="354.16 269.71 315.08 269.71 295.02 249.65 278.1 249.65 278.1 248.65 295.44 248.65 315.49 268.71 354.16 268.71 354.16 269.71" style="fill:#fff"></polygon><polygon points="354.16 260.36 337.81 260.36 312.15 234.69 278.1 234.69 278.1 233.69 312.56 233.69 338.23 259.36 354.16 259.36 354.16 260.36" style="fill:#fff"></polygon><polygon points="289.85 214.74 278.1 214.74 278.1 213.74 289.44 213.74 294.72 208.45 295.43 209.16 289.85 214.74" style="fill:#fff"></polygon><polygon points="292.61 219.72 278.1 219.72 278.1 218.72 292.19 218.72 302.11 208.81 302.81 209.52 292.61 219.72" style="fill:#fff"></polygon><polygon points="388.47 215.63 333.51 215.63 313.33 195.45 313.33 174.69 314.33 174.69 314.33 195.04 333.93 214.63 388.47 214.63 388.47 215.63" style="fill:#fff"></polygon><polygon points="388.47 202.21 341.09 202.21 328.17 189.29 328.17 174.69 329.17 174.69 329.17 188.87 341.51 201.21 388.47 201.21 388.47 202.21" style="fill:#fff"></polygon><polygon points="388.47 197.24 344.42 197.24 333.22 186.04 333.22 174.69 334.22 174.69 334.22 185.63 344.84 196.24 388.47 196.24 388.47 197.24" style="fill:#fff"></polygon><polygon points="385.33 257.02 384.33 257.02 384.33 251.76 377.87 245.3 377.87 235.26 383.66 229.48 388.47 229.48 388.47 230.48 384.07 230.48 378.87 235.68 378.87 244.89 385.33 251.34 385.33 257.02" style="fill:#fff"></polygon><polygon points="432 220.5 425.7 220.5 425.7 219.5 431.59 219.5 438.93 212.16 439.63 212.87 432 220.5" style="fill:#fff"></polygon><rect x="231.01" y="213.74" width="12.3" height="1" style="fill:#fff"></rect><polygon points="226.06 260.05 225.35 259.34 236.04 248.65 243.31 248.65 243.31 249.65 236.46 249.65 226.06 260.05" style="fill:#fff"></polygon><polygon points="233.31 259.9 232.6 259.19 237.87 253.92 243.31 253.92 243.31 254.92 238.29 254.92 233.31 259.9" style="fill:#fff"></polygon><rect x="231.01" y="238.68" width="12.3" height="1" style="fill:#fff"></rect><polygon points="294.85 224.72 278.1 224.72 278.1 223.72 294.44 223.72 309.11 209.04 309.82 209.75 294.85 224.72" style="fill:#fff"></polygon><polygon points="225.73 147.01 224.73 147.01 224.73 141.4 230.68 135.45 255.12 135.45 255.12 136.45 231.09 136.45 225.73 141.81 225.73 147.01" style="fill:#fff"></polygon><polygon points="263.37 194.04 245.98 194.04 224.73 172.79 224.73 167.33 225.73 167.33 225.73 172.38 246.39 193.04 262.95 193.04 268.31 187.68 268.31 174.69 269.31 174.69 269.31 188.1 263.37 194.04" style="fill:#fff"></polygon><polygon points="225.73 101.5 224.73 101.5 224.73 96.3 230.43 90.6 255.12 90.6 255.12 91.6 230.84 91.6 225.73 96.72 225.73 101.5" style="fill:#fff"></polygon><polygon points="255.12 131.44 230.93 131.44 224.73 125.24 224.73 121.69 225.73 121.69 225.73 124.83 231.34 130.44 255.12 130.44 255.12 131.44" style="fill:#fff"></polygon><rect x="242.49" y="160.43" width="12.63" height="1" style="fill:#fff"></rect><polygon points="242.9 170.74 242.2 170.04 246.81 165.42 255.12 165.42 255.12 166.42 247.23 166.42 242.9 170.74" style="fill:#fff"></polygon><polygon points="273.49 199.21 272.79 198.5 283.34 187.95 283.34 174.69 284.34 174.69 284.34 188.37 273.49 199.21" style="fill:#fff"></polygon><polygon points="282.93 199.09 282.22 198.38 288.33 192.28 288.33 174.69 289.33 174.69 289.33 192.69 282.93 199.09" style="fill:#fff"></polygon><polygon points="432.03 122.58 413.11 122.58 413.11 121.58 431.61 121.58 437.36 115.83 437.36 112.6 429.33 104.58 425.7 104.58 425.7 103.58 429.75 103.58 438.36 112.18 438.36 116.25 432.03 122.58" style="fill:#fff"></polygon><rect x="425.7" y="98.59" width="12.23" height="1" style="fill:#fff"></rect><polygon points="429.91 94.6 425.7 94.6 425.7 93.6 429.5 93.6 437.58 85.52 438.29 86.22 429.91 94.6" style="fill:#fff"></polygon><polygon points="431.3 197.22 425.7 197.22 425.7 196.22 430.89 196.22 433.45 193.66 433.45 166.71 425.49 158.76 413.11 158.76 413.11 157.76 425.91 157.76 434.45 166.3 434.45 194.08 431.3 197.22" style="fill:#fff"></polygon><polygon points="431.95 202.17 425.7 202.17 425.7 201.17 431.53 201.17 438 194.7 438 165.03 422.67 149.7 413.41 149.7 413.41 148.7 423.08 148.7 439 164.62 439 195.12 431.95 202.17" style="fill:#fff"></polygon><polygon points="430.37 274.47 418.38 274.47 413.73 269.81 406.16 269.81 406.16 268.81 414.14 268.81 418.8 273.47 430.37 273.47 430.37 274.47" style="fill:#fff"></polygon><rect x="407.09" y="278.22" width="23.29" height="1" style="fill:#fff"></rect><polygon points="394.53 257.02 393.53 257.02 393.53 251.56 402.38 242.71 429.77 242.71 434.16 238.32 434.16 233.35 431.32 230.51 425.7 230.51 425.7 229.51 431.73 229.51 435.16 232.93 435.16 238.74 430.19 243.71 402.79 243.71 394.53 251.97 394.53 257.02" style="fill:#fff"></polygon><polygon points="430.37 269.74 421.35 269.74 412.02 260.4 406.16 260.4 406.16 259.4 412.44 259.4 421.77 268.74 430.37 268.74 430.37 269.74" style="fill:#fff"></polygon><rect x="448.62" y="69.65" width="1" height="3.61" style="fill:#fff"></rect><path d="M444.36,76.59a1.87,1.87,0,1,1,1.87-1.87A1.87,1.87,0,0,1,444.36,76.59Zm0-2.74a.87.87,0,1,0,.87.87A.87.87,0,0,0,444.36,73.85Z" style="fill:#fff"></path><rect x="443.86" y="69.65" width="1" height="3.61" style="fill:#fff"></rect><path d="M401.57,76.59a1.87,1.87,0,1,1,1.87-1.87A1.87,1.87,0,0,1,401.57,76.59Zm0-2.74a.87.87,0,1,0,.87.87A.87.87,0,0,0,401.57,73.85Z" style="fill:#fff"></path><rect x="401.07" y="69.65" width="1" height="3.61" style="fill:#fff"></rect><path d="M242.52,262.94a1.87,1.87,0,1,1,1.87-1.87A1.87,1.87,0,0,1,242.52,262.94Zm0-2.74a.87.87,0,1,0,.87.87A.87.87,0,0,0,242.52,260.2Z" style="fill:#fff"></path><rect x="242.02" y="262.52" width="1" height="3.61" style="fill:#fff"></rect><path d="M247.27,262.94a1.87,1.87,0,1,1,1.87-1.87A1.87,1.87,0,0,1,247.27,262.94Zm0-2.74a.87.87,0,1,0,.87.87A.87.87,0,0,0,247.27,260.2Z" style="fill:#fff"></path><rect x="246.77" y="262.52" width="1" height="3.61" style="fill:#fff"></rect><path d="M252,262.94a1.87,1.87,0,1,1,1.87-1.87A1.88,1.88,0,0,1,252,262.94Zm0-2.74a.87.87,0,1,0,.87.87A.87.87,0,0,0,252,260.2Z" style="fill:#fff"></path><rect x="251.53" y="262.52" width="1" height="3.61" style="fill:#fff"></rect><path d="M256.78,262.94a1.87,1.87,0,1,1,1.87-1.87A1.87,1.87,0,0,1,256.78,262.94Zm0-2.74a.87.87,0,1,0,.87.87A.87.87,0,0,0,256.78,260.2Z" style="fill:#fff"></path><rect x="256.28" y="262.52" width="1" height="3.61" style="fill:#fff"></rect><path d="M261.54,262.94a1.87,1.87,0,1,1,1.87-1.87A1.88,1.88,0,0,1,261.54,262.94Zm0-2.74a.87.87,0,1,0,.87.87A.88.88,0,0,0,261.54,260.2Z" style="fill:#fff"></path><rect x="261.04" y="262.52" width="1" height="3.61" style="fill:#fff"></rect><path d="M266.29,262.94a1.87,1.87,0,1,1,1.87-1.87A1.87,1.87,0,0,1,266.29,262.94Zm0-2.74a.87.87,0,1,0,.87.87A.87.87,0,0,0,266.29,260.2Z" style="fill:#fff"></path><rect x="265.79" y="262.52" width="1" height="3.61" style="fill:#fff"></rect><path d="M396.81,76.59a1.87,1.87,0,1,1,1.88-1.87A1.87,1.87,0,0,1,396.81,76.59Zm0-2.74a.87.87,0,1,0,.88.87A.87.87,0,0,0,396.81,73.85Z" style="fill:#fff"></path><rect x="396.31" y="69.65" width="1" height="3.61" style="fill:#fff"></rect><path d="M392.06,76.59a1.87,1.87,0,1,1,1.87-1.87A1.87,1.87,0,0,1,392.06,76.59Zm0-2.74a.87.87,0,1,0,.87.87A.87.87,0,0,0,392.06,73.85Z" style="fill:#fff"></path><rect x="391.56" y="69.65" width="1" height="3.61" style="fill:#fff"></rect><path d="M387.3,76.59a1.87,1.87,0,1,1,1.88-1.87A1.87,1.87,0,0,1,387.3,76.59Zm0-2.74a.87.87,0,1,0,.88.87A.87.87,0,0,0,387.3,73.85Z" style="fill:#fff"></path><rect x="386.8" y="69.65" width="1" height="3.61" style="fill:#fff"></rect><path d="M430.1,76.59A1.87,1.87,0,1,1,432,74.72,1.87,1.87,0,0,1,430.1,76.59Zm0-2.74a.87.87,0,1,0,.87.87A.87.87,0,0,0,430.1,73.85Z" style="fill:#fff"></path><rect x="429.6" y="69.65" width="1" height="3.61" style="fill:#fff"></rect><path d="M425.34,76.59a1.87,1.87,0,1,1,1.87-1.87A1.87,1.87,0,0,1,425.34,76.59Zm0-2.74a.87.87,0,1,0,.87.87A.87.87,0,0,0,425.34,73.85Z" style="fill:#fff"></path><rect x="424.84" y="69.65" width="1" height="3.61" style="fill:#fff"></rect><path d="M420.59,76.59a1.87,1.87,0,1,1,1.87-1.87A1.87,1.87,0,0,1,420.59,76.59Zm0-2.74a.87.87,0,1,0,.87.87A.87.87,0,0,0,420.59,73.85Z" style="fill:#fff"></path><rect x="420.09" y="69.65" width="1" height="3.61" style="fill:#fff"></rect><path d="M415.83,76.59a1.87,1.87,0,1,1,1.88-1.87A1.87,1.87,0,0,1,415.83,76.59Zm0-2.74a.87.87,0,1,0,.88.87A.87.87,0,0,0,415.83,73.85Z" style="fill:#fff"></path><rect x="415.33" y="69.65" width="1" height="3.61" style="fill:#fff"></rect><path d="M411.08,76.59A1.87,1.87,0,1,1,413,74.72,1.87,1.87,0,0,1,411.08,76.59Zm0-2.74a.87.87,0,1,0,.87.87A.87.87,0,0,0,411.08,73.85Z" style="fill:#fff"></path><rect x="410.58" y="69.65" width="1" height="3.61" style="fill:#fff"></rect><polygon points="289.4 82.33 288.4 82.33 288.4 70.84 277.72 60.16 233.82 60.16 233.82 59.16 278.13 59.16 289.4 70.43 289.4 82.33" style="fill:#fff"></polygon><polygon points="433.69 84.62 425.48 84.62 425.48 83.62 433.27 83.62 439.11 77.86 439.11 69.65 440.11 69.65 440.11 78.28 433.69 84.62" style="fill:#fff"></polygon><polygon points="264.39 82.33 263.39 82.33 263.39 78.91 258.9 74.42 233.82 74.42 233.82 73.42 259.31 73.42 264.39 78.5 264.39 82.33" style="fill:#fff"></polygon><polygon points="269.37 82.33 268.37 82.33 268.37 78.33 259.69 69.65 233.82 69.65 233.82 68.65 260.11 68.65 269.37 77.92 269.37 82.33" style="fill:#fff"></polygon><polygon points="284.34 82.33 283.34 82.33 283.34 74.13 274.05 64.84 233.82 64.84 233.82 63.84 274.46 63.84 284.34 73.72 284.34 82.33" style="fill:#fff"></polygon><polygon points="304.29 82.33 303.29 82.33 303.29 71.82 286.9 55.42 233.82 55.41 233.82 54.41 287.31 54.42 304.29 71.4 304.29 82.33" style="fill:#fff"></polygon><polygon points="309.28 82.33 308.28 82.33 308.28 70.92 288.31 50.95 233.82 50.65 233.82 49.65 288.73 49.96 309.28 70.5 309.28 82.33" style="fill:#fff"></polygon><rect x="323.31" y="66.73" width="1" height="15.6" style="fill:#fff"></rect><polygon points="339.21 82.33 338.21 82.33 338.21 77.1 341.82 73.49 341.82 66.73 342.82 66.73 342.82 73.9 339.21 77.51 339.21 82.33" style="fill:#fff"></polygon><polygon points="329.23 82.33 328.23 82.33 328.23 76.89 332.64 72.48 332.64 66.5 333.64 66.5 333.64 72.89 329.23 77.3 329.23 82.33" style="fill:#fff"></polygon><polygon points="367.83 101.52 347.48 101.52 347.48 100.52 367.42 100.52 377.63 90.32 377.63 68.83 363.74 54.94 354.44 54.94 354.44 53.94 364.15 53.94 378.63 68.41 378.63 90.73 367.83 101.52" style="fill:#fff"></polygon><rect x="435" y="277.18" width="16.54" height="3.08" style="fill:#fff;opacity:0.5"></rect><rect x="430.37" y="278.13" width="4.63" height="1.19" style="fill:#fff;opacity:0.5"></rect><rect x="435" y="272.42" width="16.54" height="3.08" style="fill:#fff;opacity:0.5"></rect><rect x="430.37" y="273.37" width="4.63" height="1.19" style="fill:#fff;opacity:0.5"></rect><rect x="435" y="267.67" width="16.54" height="3.08" style="fill:#fff;opacity:0.5"></rect><rect x="430.37" y="268.62" width="4.63" height="1.19" style="fill:#fff;opacity:0.5"></rect><rect x="212.65" y="72.38" width="16.54" height="3.08" transform="translate(441.83 147.85) rotate(180)" style="fill:#fff;opacity:0.5"></rect><rect x="229.19" y="73.33" width="4.63" height="1.19" transform="translate(463.01 147.85) rotate(180)" style="fill:#fff;opacity:0.5"></rect><rect x="212.65" y="67.63" width="16.54" height="3.08" transform="translate(441.83 138.34) rotate(180)" style="fill:#fff;opacity:0.5"></rect><rect x="229.19" y="68.58" width="4.63" height="1.19" transform="translate(463.01 138.34) rotate(180)" style="fill:#fff;opacity:0.5"></rect><rect x="212.65" y="62.87" width="16.54" height="3.08" transform="translate(441.83 128.83) rotate(180)" style="fill:#fff;opacity:0.5"></rect><rect x="229.19" y="63.82" width="4.63" height="1.19" transform="translate(463.01 128.83) rotate(180)" style="fill:#fff;opacity:0.5"></rect><rect x="212.65" y="58.12" width="16.54" height="3.08" transform="translate(441.83 119.32) rotate(180)" style="fill:#fff;opacity:0.5"></rect><rect x="229.19" y="59.07" width="4.63" height="1.19" transform="translate(463.01 119.32) rotate(180)" style="fill:#fff;opacity:0.5"></rect><rect x="212.65" y="53.36" width="16.54" height="3.08" transform="translate(441.83 109.81) rotate(180)" style="fill:#fff;opacity:0.5"></rect><rect x="229.19" y="54.31" width="4.63" height="1.19" transform="translate(463.01 109.81) rotate(180)" style="fill:#fff;opacity:0.5"></rect><rect x="212.65" y="48.61" width="16.54" height="3.08" transform="translate(441.83 100.3) rotate(180)" style="fill:#fff;opacity:0.5"></rect><rect x="229.19" y="49.56" width="4.63" height="1.19" transform="translate(463.01 100.3) rotate(180)" style="fill:#fff;opacity:0.5"></rect><rect x="234.25" y="277.46" width="16.54" height="3.08" transform="translate(521.52 36.48) rotate(90)" style="fill:#fff;opacity:0.5"></rect><rect x="240.2" y="267.82" width="4.63" height="1.19" transform="translate(510.93 25.9) rotate(90)" style="fill:#fff;opacity:0.5"></rect><rect x="239" y="277.46" width="16.54" height="3.08" transform="translate(526.27 31.73) rotate(90)" style="fill:#fff;opacity:0.5"></rect><rect x="244.96" y="267.82" width="4.63" height="1.19" transform="translate(515.68 21.14) rotate(90)" style="fill:#fff;opacity:0.5"></rect><rect x="243.76" y="277.46" width="16.54" height="3.08" transform="translate(531.03 26.97) rotate(90)" style="fill:#fff;opacity:0.5"></rect><rect x="249.71" y="267.82" width="4.63" height="1.19" transform="translate(520.44 16.39) rotate(90)" style="fill:#fff;opacity:0.5"></rect><rect x="248.51" y="277.46" width="16.54" height="3.08" transform="translate(535.78 22.22) rotate(90)" style="fill:#fff;opacity:0.5"></rect><rect x="254.47" y="267.82" width="4.63" height="1.19" transform="translate(525.19 11.63) rotate(90)" style="fill:#fff;opacity:0.5"></rect><rect x="253.27" y="277.46" width="16.54" height="3.08" transform="translate(540.53 17.46) rotate(90)" style="fill:#fff;opacity:0.5"></rect><rect x="259.22" y="267.82" width="4.63" height="1.19" transform="translate(529.95 6.88) rotate(90)" style="fill:#fff;opacity:0.5"></rect><rect x="258.02" y="277.46" width="16.54" height="3.08" transform="translate(545.29 12.71) rotate(90)" style="fill:#fff;opacity:0.5"></rect><rect x="263.97" y="267.82" width="4.63" height="1.19" transform="translate(534.7 2.12) rotate(90)" style="fill:#fff;opacity:0.5"></rect><rect x="210.47" y="277.46" width="16.54" height="3.08" transform="translate(497.74 60.26) rotate(90)" style="fill:#fff;opacity:0.5"></rect><rect x="216.43" y="267.82" width="4.63" height="1.19" transform="translate(487.16 49.67) rotate(90)" style="fill:#fff;opacity:0.5"></rect><rect x="205.72" y="277.46" width="16.54" height="3.08" transform="translate(492.99 65.01) rotate(90)" style="fill:#fff;opacity:0.5"></rect><rect x="211.67" y="267.82" width="4.63" height="1.19" transform="translate(482.4 54.42) rotate(90)" style="fill:#fff;opacity:0.5"></rect><rect x="412.32" y="55.21" width="16.54" height="3.08" transform="translate(363.84 477.34) rotate(-90)" style="fill:#fff;opacity:0.5"></rect><rect x="418.27" y="66.74" width="4.63" height="1.19" transform="translate(353.25 487.92) rotate(-90)" style="fill:#fff;opacity:0.5"></rect><rect x="407.56" y="55.21" width="16.54" height="3.08" transform="translate(359.08 472.58) rotate(-90)" style="fill:#fff;opacity:0.5"></rect><rect x="413.52" y="66.74" width="4.63" height="1.19" transform="translate(348.5 483.17) rotate(-90)" style="fill:#fff;opacity:0.5"></rect><rect x="402.81" y="55.21" width="16.54" height="3.08" transform="translate(354.33 467.83) rotate(-90)" style="fill:#fff;opacity:0.5"></rect><rect x="408.76" y="66.74" width="4.63" height="1.19" transform="translate(343.74 478.42) rotate(-90)" style="fill:#fff;opacity:0.5"></rect><rect x="393.3" y="55.21" width="16.54" height="3.08" transform="translate(344.82 458.32) rotate(-90)" style="fill:#fff;opacity:0.5"></rect><rect x="399.25" y="66.74" width="4.63" height="1.19" transform="translate(334.23 468.91) rotate(-90)" style="fill:#fff;opacity:0.5"></rect><rect x="388.54" y="55.21" width="16.54" height="3.08" transform="translate(340.06 453.57) rotate(-90)" style="fill:#fff;opacity:0.5"></rect><rect x="394.5" y="66.74" width="4.63" height="1.19" transform="translate(329.48 464.15) rotate(-90)" style="fill:#fff;opacity:0.5"></rect><rect x="383.79" y="55.21" width="16.54" height="3.08" transform="translate(335.31 448.81) rotate(-90)" style="fill:#fff;opacity:0.5"></rect><rect x="389.74" y="66.74" width="4.63" height="1.19" transform="translate(324.72 459.4) rotate(-90)" style="fill:#fff;opacity:0.5"></rect><rect x="379.03" y="55.21" width="16.54" height="3.08" transform="translate(330.55 444.06) rotate(-90)" style="fill:#fff;opacity:0.5"></rect><rect x="384.99" y="66.74" width="4.63" height="1.19" transform="translate(319.97 454.64) rotate(-90)" style="fill:#fff;opacity:0.5"></rect><rect x="417.07" y="55.21" width="16.54" height="3.08" transform="translate(368.59 482.09) rotate(-90)" style="fill:#fff;opacity:0.5"></rect><rect x="423.03" y="66.74" width="4.63" height="1.19" transform="translate(358.01 492.68) rotate(-90)" style="fill:#fff;opacity:0.5"></rect><rect x="421.83" y="55.21" width="16.54" height="3.08" transform="translate(373.35 486.85) rotate(-90)" style="fill:#fff;opacity:0.5"></rect><rect x="427.78" y="66.74" width="4.63" height="1.19" transform="translate(362.76 497.43) rotate(-90)" style="fill:#fff;opacity:0.5"></rect><rect x="431.34" y="55.21" width="16.54" height="3.08" transform="translate(382.86 496.36) rotate(-90)" style="fill:#fff;opacity:0.5"></rect><rect x="437.29" y="66.74" width="4.63" height="1.19" transform="translate(372.27 506.94) rotate(-90)" style="fill:#fff;opacity:0.5"></rect><rect x="436.09" y="55.21" width="16.54" height="3.08" transform="translate(387.61 501.11) rotate(-90)" style="fill:#fff;opacity:0.5"></rect><rect x="442.05" y="66.74" width="4.63" height="1.19" transform="translate(377.02 511.7) rotate(-90)" style="fill:#fff;opacity:0.5"></rect><rect x="440.85" y="55.21" width="16.54" height="3.08" transform="translate(392.36 505.87) rotate(-90)" style="fill:#fff;opacity:0.5"></rect><rect x="446.8" y="66.74" width="4.63" height="1.19" transform="translate(381.78 516.45) rotate(-90)" style="fill:#fff;opacity:0.5"></rect><polygon points="214.57 266.1 213.57 266.1 213.57 235.47 230.31 218.72 243.31 218.72 243.31 219.72 230.73 219.72 214.57 235.89 214.57 266.1" style="fill:#fff"></polygon><polygon points="219.31 266.1 218.31 266.1 218.31 237.09 231.72 223.67 243.31 223.67 243.31 224.67 232.13 224.67 219.31 237.5 219.31 266.1" style="fill:#fff"></polygon><polygon points="369.86 230.7 369.15 229.99 374.66 224.49 388.47 224.49 388.47 225.49 375.07 225.49 369.86 230.7" style="fill:#fff"></polygon><polygon points="357.54 257.02 356.54 257.02 356.54 242.46 361.72 237.28 362.43 237.99 357.54 242.88 357.54 257.02" style="fill:#fff"></polygon><path d="M276.52,277.24v.69c0-.11,0-.23,0-.34S276.51,277.36,276.52,277.24Z" style="fill:#fff"></path><path d="M218.74,215a5.1,5.1,0,1,1,5.1-5.09A5.09,5.09,0,0,1,218.74,215Zm0-7.19a2.1,2.1,0,1,0,2.1,2.1A2.1,2.1,0,0,0,218.74,207.76Z" style="fill:#fff;opacity:0.5"></path><path d="M218.74,202.63a5.1,5.1,0,1,1,5.1-5.09A5.09,5.09,0,0,1,218.74,202.63Zm0-7.19a2.1,2.1,0,1,0,2.1,2.1A2.1,2.1,0,0,0,218.74,195.44Z" style="fill:#fff;opacity:0.5"></path><path d="M443,262.08a5.1,5.1,0,1,1,5.09-5.09A5.1,5.1,0,0,1,443,262.08Zm0-7.19a2.1,2.1,0,1,0,2.09,2.1A2.09,2.09,0,0,0,443,254.89Z" style="fill:#fff;opacity:0.5"></path><path d="M218.74,190.31a5.1,5.1,0,1,1,5.1-5.09A5.1,5.1,0,0,1,218.74,190.31Zm0-7.19a2.1,2.1,0,1,0,2.1,2.1A2.1,2.1,0,0,0,218.74,183.12Z" style="fill:#fff;opacity:0.5"></path></g><g id="freepik--Character--inject-611"><path d="M152.62,288.32c8,45,26.48,99.42,35.07,108.53,10.87,11.53,81.44,31.71,85.19,32.31,9.29,1.41,34.36-56.4,24.49-58.34-15-2.94-68.89-13.46-72-17-3.24-3.71-25-34.16-47.22-68.45C162.8,261.67,147.66,260.38,152.62,288.32Z" style="fill: rgb(255, 196, 192);"></path><path d="M267.81,427.93c1,.4,15.2,6,23.82,7.68,6.43,1.26,25,4.36,27.11-2.58,1.43-4.73-9.3-7.85-16.83-10.22-4-1.25-9.05-4.83-8.14-7.39,1.58-4.48,11.82-1.05,18.64,2.13,13.18,6.15,31,17.75,38.12,10.71,2.67-2.67-1.08-6.74-6.38-10.58,8.43,4.28,17.3,7.61,20.38,4.77,1.78-1.62,1.69-3.61.42-5.79,2.54.58,4.7.23,6.07-1.51,2.35-2.95.72-6.83-2.48-10.68a3.12,3.12,0,0,0,2.21-1.76c4.74-8.86-24.89-30.41-34.59-31.8-28.55-4.13-57.89-.24-57.89-.24C268.09,380.43,267.78,427.91,267.81,427.93Z" style="fill: rgb(255, 196, 192);"></path><path d="M306.59,398.5a47.66,47.66,0,0,1,19.28,5.5c7.51,4,12.7,9.09,19.14,14.06.17.13,0,.4-.2.27-3.07-2.37-15.69-11.16-18.92-13.12a45.22,45.22,0,0,0-19.32-6.59C306.5,398.61,306.51,398.5,306.59,398.5Z" style="fill:#263238"></path><path d="M310.72,386.17c7.53,1.35,15.24,2.7,22.37,5.56,7.8,3.13,14.2,8.81,20.48,14.25q5.65,4.9,11.09,10.06c.15.15,0,.42-.2.27q-9.57-8.46-19.64-16.33a60.13,60.13,0,0,0-20.91-10.68c-4.34-1.22-8.78-2.11-13.2-3C310.63,386.29,310.64,386.16,310.72,386.17Z" style="fill:#263238"></path><path d="M317.64,375.1c7.26.82,13.6,1.51,20.27,4.77,8.82,4.31,17.66,12.11,20.77,14.88,3.43,3.06,6.75,6.23,10,9.45.14.13-.09.36-.23.23a237.73,237.73,0,0,0-23.71-19.59A47.26,47.26,0,0,0,331.89,378a84.38,84.38,0,0,0-14.26-2.87S317.6,375.09,317.64,375.1Z" style="fill:#263238"></path><path d="M285.76,361.79l-26.94,72.47s-62-21.12-72.91-34.1S157,322.08,152.33,290.72s11-29.8,24.41-9.5,47,69.52,48.94,70.65S285.76,361.79,285.76,361.79Z" style="fill:#ebebeb"></path><path d="M253.36,400.31c3-8.09,6.15-16.16,8.89-24.36,1.56-4.67,3.15-9.32,4.66-14,.06-.18-.23-.3-.31-.13-3.38,8-6.75,16-9.76,24.18s-6.06,16.19-8.95,24.35q-2.46,6.94-4.5,14a.09.09,0,0,0,.17.07C247.21,416.57,250.29,408.46,253.36,400.31Z" style="fill:#263238"></path><path d="M227.59,422.55l-2.74-1.12c-5.15-2.13-10.39-4.41-15.32-6.72-.64-.29-1.27-.59-1.88-.89-1-.47-2-.95-2.94-1.43-.49-.23-1-.48-1.43-.71l-.51-.26-1.48-.77c-1.95-1-3.8-2-5.52-3l-1.19-.71a44.27,44.27,0,0,1-7.5-5.49c-.21-.21-.43-.42-.61-.63s-.39-.42-.56-.61c-10.88-13-28.9-78.08-33.58-109.44-.05-.36-.11-.73-.16-1.08,0-.08,0-.15,0-.23-.3-2.38-.53-5.32-.67-8.5v0c-.1-15.49,7.34-17.65,16-10.41C187.69,320,218.18,401.52,227.59,422.55Z" style="opacity:0.1"></path><path d="M198.25,438.87H50.74c6.23-27.8,32.09-132,77.83-173.8l0,0,1-.91c6.64-5.89,21.63-4.57,31.41.29A7.14,7.14,0,0,1,162.8,266c3.93,4.33,11,16.38,15,28.71v0a67.07,67.07,0,0,1,1.75,6.52q.15.63.3,1.5h0c.1.43.18.92.28,1.45.12.74.26,1.55.41,2.45C184.51,330.61,194.61,408.78,198.25,438.87Z" style="fill:#00E77F"></path><path d="M148.55,438.87H47.74c9.2-39.84,23.16-90,40.63-121.33,31.29-56.09,41.24-53.4,41.24-53.4s14.27,61.21,14.52,70.12C144.28,339.17,146.54,392.18,148.55,438.87Z" style="fill:#ebebeb"></path><path d="M128.64,264.86c-1.12,3.82-2.19,7.66-3.26,11.49l-3.18,11.51q-3.14,11.52-6.14,23.08l-.18.7.63.39q6.46,3.93,13,7.77l-.39-1.49L120,334.24l-.3.53.29.53c4.18,7.67,8.45,15.29,12.75,22.88,2.16,3.8,4.32,7.59,6.53,11.36s4.39,7.55,6.67,11.28c-1.9-3.94-3.89-7.82-5.84-11.73s-4-7.79-6-11.67q-6-11.61-12.25-23.15v1.06L131,319.4l.54-.94-.93-.55q-6.51-3.82-13.07-7.57l.45,1.08q2.8-11.6,5.49-23.24l2.64-11.65C127,272.64,127.82,268.76,128.64,264.86Z" style="fill:#dbdbdb"></path><path d="M133.09,430.94c-3.55-.29-16-.24-28.38-1.39A226.7,226.7,0,0,1,78.39,425c-.3.07-1.06,7.27-1.78,13.86h1.44c.1-1.07.21-2.16.31-3.28a109.1,109.1,0,0,0,12.41,3.28H103a142.42,142.42,0,0,1-24.44-5c.25-2.64.44-4.68.64-7.31,3.66,1.29,16.14,4,25.59,4.85,8.8.82,21.83.81,27.38.66-.28,1.71-.53,5-.71,6.81h1.68c.14-3.07.23-5.83.24-6.95C133.45,431.65,133.35,431,133.09,430.94Z" style="fill:#dbdbdb"></path><path d="M201.09,438.87H183.58c-4.37-48.23-9.22-102.55-9.34-107.16-.23-7.78-10-58.18-11.44-65.74-.12-.62-.19-1-.19-1s14.08,16.34,18,35.19c0,0,0,0,0,0,.24,1.13.56,2.91,1,5.25C185,325.61,193.81,387.34,201.09,438.87Z" style="fill:#ebebeb"></path><path d="M163.61,268.12c1.37,3.08,2.78,6.12,4.19,9.17s2.81,6.1,4.25,9.13q4.29,9.12,8.7,18.15l.17-1.19q-3.85,3.84-7.66,7.76l-.6.62.45.78L180.87,326l-.16-.67c-.51,8-.93,15.93-1.31,23.9q-.28,6-.49,12c-.12,4-.28,8-.34,12,.47-4,.83-7.93,1.25-11.89s.75-7.94,1.09-11.91c.68-7.94,1.32-15.89,1.86-23.85l0-.36-.18-.31-7.74-13.44-.16,1.4c2.52-2.63,5-5.27,7.5-7.94l.51-.54-.33-.65q-4.59-9-9.26-17.84c-1.56-3-3.15-5.91-4.73-8.85S165.24,271.05,163.61,268.12Z" style="fill:#dbdbdb"></path><polygon points="149.47 301.58 156.44 290.96 163.69 299.48 161.86 307.53 153.65 308.87 149.47 301.58" style="fill:#263238"></polygon><polygon points="153.65 308.87 152.83 401.68 164.85 430.55 175.75 399.31 161.86 307.53 153.65 308.87" style="fill:#263238"></polygon><path d="M199.22,438.94c0-.22-1.55-22.1-3.16-33.76-1.72-12.39,10.2-66.62,13.26-72.31a10.09,10.09,0,0,1,7.54-5.32,9.34,9.34,0,0,1,7.74,2.12l-1.41,1.42a7.42,7.42,0,0,0-6-1.56,8.14,8.14,0,0,0-6.07,4.29c-3,5.59-14.73,58.91-13,71.09,1.63,11.72,3.16,33.67,3.17,33.89Z" style="fill:#263238"></path><rect x="255.09" y="323.99" width="8.57" height="89.05" transform="translate(-181.46 275.03) rotate(-42.89)" style="fill:#00E77F"></rect><rect x="223.73" y="329.28" width="5.47" height="7.63" transform="translate(-166.15 243.18) rotate(-42.89)" style="fill:#00E77F"></rect><polygon points="231.07 334.02 227.06 337.75 226.25 336.87 229.7 332.55 231.07 334.02" style="opacity:0.1"></polygon><rect x="288.43" y="400.55" width="5.47" height="4.38" transform="translate(778.59 499.65) rotate(137.11)" style="fill:#00E77F"></rect><polygon points="287.67 403 291.68 399.27 292.5 400.15 289.04 404.47 287.67 403" style="opacity:0.1"></polygon><rect x="295.45" y="402.93" width="1.59" height="10.55" transform="translate(-198.63 310.75) rotate(-42.89)" style="fill:#a6a6a6"></rect><path d="M111.61,290.19C95.3,342.12,89.43,434.68,105,445.29c17.29,11.81,40.17-58.91,38.53-61.64-1.23-2.06-7.19-54.66-11-93.19S115.64,277.34,111.61,290.19Z" style="fill: rgb(255, 196, 192);"></path><path d="M143.83,383.54c-1-5.45-8.13-75.18-11.09-96.87s-11.87-24.3-21.74,2S88.93,388.81,95,423.39c5.84,33.32,21.13,29,33.85,5.7C139.25,410,143.83,383.54,143.83,383.54Z" style="fill:#ebebeb"></path><path d="M144.79,392.54q-1.66-9.71-2.95-19.45c-.89-6.49-1.66-13-2.41-19.5s-1.39-13-2-19.56-1.07-13.06-1.41-19.61q1.68,9.69,3,19.44c.89,6.49,1.66,13,2.4,19.5s1.39,13,2,19.56S144.45,386,144.79,392.54Z" style="fill:#263238"></path><path d="M138,329.5a34.24,34.24,0,0,1,.21-5.17c.19-1.71.45-3.4.81-5.11a23.08,23.08,0,0,1-.06,5.19A29.65,29.65,0,0,1,138,329.5Z" style="fill:#263238"></path><path d="M105.59,445.79c13.78,7.28,34.44,0,93.78-17.14,8.22-2.37,8.28-66.55-.62-64.47-11.21,2.62-54.14,15.22-57.17,16.54C116.08,391.83,96.25,440.85,105.59,445.79Z" style="fill: rgb(255, 196, 192);"></path><path d="M282.61,369.13c.27,7.82-19.06,6.86-19.06,6.86s4.69,2.69,6.11,7.68c1.62,5.72-6.63,10.78-6.63,10.78a17.81,17.81,0,0,1,5.15,9.13c1,5.63-6.6,11.92-6.6,11.92a15.63,15.63,0,0,1-.53,10.88c-4.32,9.05-19.53,10.78-29.19,12s-40.26-6-45.8-6.49l-6.12-60.4s41.78-17.69,53.33-17.48C243,354.15,282.2,357.18,282.61,369.13Z" style="fill: rgb(255, 196, 192);"></path><path d="M263.39,375.77c-10.31-2.67-21.23-2.86-31.77-2.94a.19.19,0,0,0,0,.37c10.48-.05,21.23,2.7,31.7,3.07A.26.26,0,0,0,263.39,375.77Z" style="fill:#263238"></path><path d="M262.72,393.66a27.9,27.9,0,0,0-7.25-.18c-2.57.11-5.13.26-7.7.46q-7.7.58-15.37,1.55c-.22,0-.23.39,0,.37,5.11-.38,10.24-.68,15.36-.85q3.85-.12,7.71-.18a33.07,33.07,0,0,0,7.24-.46A.37.37,0,0,0,262.72,393.66Z" style="fill:#263238"></path><path d="M261.36,415.51c-2-.54-4.48,0-6.54.18-2.33.23-4.67.44-7,.64-4.68.4-9.35.8-14,1-.23,0-.23.38,0,.37,4.76-.22,9.53-.37,14.29-.63,2.34-.13,4.67-.27,7-.43,2-.13,4.48-.06,6.31-.93A.13.13,0,0,0,261.36,415.51Z" style="fill:#263238"></path><path d="M191.47,364.82l-20.23,76.87s-52.89,13.09-66.22,4.46c-8.78-5.69,9.9-56.36,39-66.49Z" style="fill:#ebebeb"></path><path d="M116,404.85c2.75-5.42,11.28-19.15,28-25.25.14-.06.26.16.12.23-12,5.76-24.84,20.17-27.93,25.16C116.16,405.12,116,405,116,404.85Z" style="fill:#263238"></path><path d="M153.8,439.51c1.77-8.57,4-17,6.25-25.5s4.49-16.94,6.95-25.35c1.39-4.76,2.76-9.52,4.31-14.22.05-.13.26-.09.23,0-1.76,8.56-4,17-6.15,25.51s-4.48,16.95-6.84,25.39c-1.34,4.77-2.76,9.52-4.32,14.22C154.16,439.83,153.75,439.76,153.8,439.51Z" style="fill:#263238"></path><path d="M191.2,364.09a75.48,75.48,0,0,0-9.89,2.53c-3.27,1-6.52,2-9.76,3.06-6.45,2.1-20.35,5.82-31.33,11.5-.12.07.81.34.92.27,5.09-3,46.46-14.78,49.65-16.15a5.34,5.34,0,0,0,0,.8c0,.19.27.31.37.11.26-.46.36-.92.58-1.39A.5.5,0,0,0,191.2,364.09Z" style="fill:#263238"></path><path d="M99.24,438.38a57.42,57.42,0,0,1-4.36-13.6l-.63-3.53c-.19-1.18-.31-2.37-.46-3.55-.35-2.37-.44-4.76-.63-7.14A218.48,218.48,0,0,1,93.61,382c.73-9.5,1.81-19,3.15-28.39s3-18.79,4.78-28.13l-3.23,28.33c-1,9.44-2,18.88-2.71,28.34l-.48,7.09-.32,7.1-.16,7.1c0,2.37,0,4.74.07,7.1C95.06,419.91,95.86,429.45,99.24,438.38Z" style="fill:#263238"></path><path d="M98.78,327.8c.06,1.76,0,3.47.1,5.19a27.88,27.88,0,0,0,.58,5.11A10.5,10.5,0,0,1,98.13,333,15.81,15.81,0,0,1,98.78,327.8Z" style="fill:#263238"></path><path d="M156.7,290.86c-8.76.76-21.4-14.32-25.6-25.66-.28-.78,1.93-8.2,4.2-17.34,1.35-5.55,2.73-11.77,3.58-17.53.17-1.19,34.85,14.09,34.85,14.09S168.4,256,167,266a13.11,13.11,0,0,0-.1,2.4c0,.11,0,.24,0,.4C167,273.44,165.18,290.12,156.7,290.86Z" style="fill: rgb(255, 196, 192);"></path><path d="M141.08,230.8c.24,10,2.84,34.42,22.06,37.69a22.15,22.15,0,0,0,3.73.35,1.93,1.93,0,0,0,0-.41A15,15,0,0,1,167,266c1.43-10.07,6.76-21.63,6.76-21.63S148.71,233.39,141.08,230.8Z" style="fill:#263238"></path><path d="M148.47,183.76c-7.92,11-13.53,48.6-7.5,59.47,8.74,15.76,29.06,23.91,44,12,14.45-11.52,20.89-60.68,13.59-71.18C187.79,168.63,160.17,167.53,148.47,183.76Z" style="fill: rgb(255, 196, 192);"></path><path d="M175.77,217.22c0-.1-.22.09-.22.2-.22,2.55-.89,5.44-3.29,6-.08,0-.08.15,0,.15C175.12,223.52,176,219.67,175.77,217.22Z" style="fill:#263238"></path><path d="M173.8,214.3c-4.06-.79-5.32,7.39-1.57,8.11S177.2,215,173.8,214.3Z" style="fill:#263238"></path><path d="M189.93,219.49c0-.09.18.15.16.26-.47,2.52-.59,5.48,1.57,6.68.06,0,0,.16,0,.13C188.88,225.74,189.08,221.8,189.93,219.49Z" style="fill:#263238"></path><path d="M192.6,217.2c4.12.32,3.17,8.54-.65,8.24S189.15,216.93,192.6,217.2Z" style="fill:#263238"></path><path d="M170.82,212.59a33.94,33.94,0,0,0,3.31.8c1.27.29,2.25.65,3.52.17a1.75,1.75,0,0,0,.91-1.93c-.44-1.6-1.91-2.34-3.42-2.76a6.36,6.36,0,0,0-4.58.32A1.86,1.86,0,0,0,170.82,212.59Z" style="fill:#263238"></path><path d="M197.82,211.44c-1.15-.16-2.18-.49-3.31-.76s-2.3-.42-3.22-1.42a1.74,1.74,0,0,1,0-2.14c1.11-1.23,2.75-1.24,4.29-.93a6.38,6.38,0,0,1,4,2.32A1.87,1.87,0,0,1,197.82,211.44Z" style="fill:#263238"></path><path d="M167.89,240.09c.51.68,1,1.59,1.9,1.81a6.74,6.74,0,0,0,2.82-.21.09.09,0,0,1,.09.15,3.45,3.45,0,0,1-3.43.87,2.73,2.73,0,0,1-1.64-2.55C167.61,240,167.81,240,167.89,240.09Z" style="fill:#263238"></path><path d="M171.73,232.92a8.7,8.7,0,0,0,5.16,4.73,10.61,10.61,0,0,0,3.07.62,3.2,3.2,0,0,0,.61,0h.57a.64.64,0,0,0,.59-.49v0a.76.76,0,0,0,0-.26v0l0-.23c.36-1.94.63-4.93.63-4.93.66.47,4,2.66,4.14,1.64.8-8.51,1.7-18,.7-26.61a.24.24,0,0,0-.47,0c-1.1,8.15-.76,16.43-1.73,24.64a14.93,14.93,0,0,0-3.88-1.87c-.29,0-.42,5.79-.65,6.65a.19.19,0,0,1,0,.09c-3.34-.09-5.65-1.46-8.49-4.15C171.83,232.55,171.61,232.69,171.73,232.92Z" style="fill:#263238"></path><path d="M179,237.1a10.3,10.3,0,0,1-4.59,2.54,4.6,4.6,0,0,1-2.82-.26c-1.94-.84-1.7-2.71-1.09-4.24a11.41,11.41,0,0,1,1.29-2.28A13.35,13.35,0,0,0,179,237.1Z" style="fill:#263238"></path><path d="M174.38,239.64a4.6,4.6,0,0,1-2.82-.26c-1.94-.84-1.7-2.71-1.09-4.24C172.61,235.7,174.52,237.51,174.38,239.64Z" style="fill:#ff98b9"></path><path d="M152.5,207.76c4.91-6.31,5-19.72,9.66-21.69,10.15-4.26,21.35,14.57,32.2,18.41,10.51,3.73,16.39-1.82,17.46-11s-4.2-17.48-15.41-23.35c-11.6-6.08-24.46-5-31.87-3.25,0,0,4.14-3.34,3.61-5s-7.13.64-9.31,1.84a16.75,16.75,0,0,0-4.34,4.18,18.11,18.11,0,0,0-4.64-2.17c-2.7-.86-6.81.06-7.22.63s3.26,2.38,5.9,3.45c0,0-7.33,4.92-9.2,10.65s-2.4,35.87-.37,36.9C141.57,218.65,150.5,210.32,152.5,207.76Z" style="fill:#263238"></path><path d="M149.82,169.44c.11,0,.2.16.08.2a19.13,19.13,0,0,0-8.5,6.08,23.69,23.69,0,0,0-4.19,11.7c-.93,8.06.36,16.12,1.14,24.13,0,.23-.37.28-.41,0-1.37-8.43-2.59-17.49-1.25-26C137.82,178.34,142.13,171.05,149.82,169.44Z" style="fill:#263238"></path><path d="M162.7,183.16a27.38,27.38,0,0,1,9.34,4c2.72,1.79,4.62,4.53,6.79,6.9,4.85,5.33,10.54,10.13,17.61,12.11a.07.07,0,0,1,0,.14c-6.6-1.4-12.13-5.43-16.77-10.18-2.34-2.39-4.32-5.34-6.93-7.43-3-2.39-6.64-3.61-10.17-4.91A.3.3,0,0,1,162.7,183.16Z" style="fill:#263238"></path><path d="M172.07,166.12a52.85,52.85,0,0,1,15.07.23,41.67,41.67,0,0,1,13.79,4.26c7.37,4,12.82,11.45,11.86,20.1A18,18,0,0,1,207,202.33a.23.23,0,0,1-.32-.34c5.65-5.91,7.35-14.85,3.19-22.1-4.47-7.77-13.31-11.32-21.74-12.82a76,76,0,0,0-16-.89S172,166.12,172.07,166.12Z" style="fill:#263238"></path><path d="M158.81,206.25S136.45,203,131.31,205c-2.11.83-2.92,9.07-1.92,10.47.63.87,13.8-.3,26.63,2.29C156,217.78,156,210.63,158.81,206.25Z" style="fill:#455a64"></path><path d="M197.3,231.94a9.48,9.48,0,0,1-1.37.72c-1.88.8-3.81.69-6.24-1.29-1.6-1.3-2.18-3.71-5.28-4.76a11,11,0,0,0-5.94-.5,31.85,31.85,0,0,0-3.84.94c-.31.08-.63.18-.94.28a8.26,8.26,0,0,1-.89.22,9.19,9.19,0,0,1-1.42.17c-5.45.31-12.73-3-14.56-6.3-1.65-3.06-1-9.46,1.72-14.63a18.58,18.58,0,0,1,2.08-3.14,14.64,14.64,0,0,1,2.7-2.52l.54-.37a9.89,9.89,0,0,1,1.63-.8c3.91-1.5,10-1.33,16.14-.08l1.87.42c1.34.31,2.68.69,4,1.09,1.5.48,3,1,4.37,1.6,4.93,2.06,8.88,4.73,10.29,7.56a12.86,12.86,0,0,1,1,6.71,21.8,21.8,0,0,1-.47,3.31,30.23,30.23,0,0,1-4,9.81A5.9,5.9,0,0,1,197.3,231.94Z" style="fill:#fff;opacity:0.2"></path><g style="opacity:0.2"><path d="M197.3,231.94a9.48,9.48,0,0,1-1.37.72l-8.72-11a1.79,1.79,0,0,1,2.54-2.5,2.23,2.23,0,0,1,.27.26l8.68,10.93A5.9,5.9,0,0,1,197.3,231.94Z" style="fill:#fff"></path><path d="M178.47,226.11a31.85,31.85,0,0,0-3.84.94l-16.09-20.26a18.58,18.58,0,0,1,2.08-3.14Z" style="fill:#fff"></path><path d="M175.73,214.8a1.2,1.2,0,0,1-1.51,0,.62.62,0,0,1-.18-.18l-10.72-13.48.54-.37a9.89,9.89,0,0,1,1.63-.8l10.44,13.14A1.2,1.2,0,0,1,175.73,214.8Z" style="fill:#fff"></path><path d="M202.71,220.57l-15.23-19.18c1.5.48,3,1,4.37,1.6l11.33,14.27A21.8,21.8,0,0,1,202.71,220.57Z" style="fill:#fff"></path><path d="M198.3,219.9a.6.6,0,0,1-.75,0l-.1-.1-15.82-19.92,1.87.42,14.9,18.75A.6.6,0,0,1,198.3,219.9Z" style="fill:#fff"></path><path d="M172.8,227.55a9.19,9.19,0,0,1-1.42.17l-8.17-10.28a.61.61,0,0,1,.1-.85.59.59,0,0,1,.76,0l.09.09Z" style="fill:#fff"></path></g><path d="M158.82,224.8a8.91,8.91,0,0,1-2.54-3.14c-2.32-5.14-.25-16.66,7.26-21.41h0c5.05-3.19,15.21-2,22.37,0,6.64,1.87,14.53,5.48,16.77,10,3.69,7.47-1.71,19.16-5,22.1-2.22,2-5.52,1.79-8.4-.55a10.59,10.59,0,0,1-1.6-1.73,8.45,8.45,0,0,0-3.51-3c-2.8-1.13-4.82-.74-10.34.75A18.09,18.09,0,0,1,158.82,224.8Zm5.37-23.53c-6.79,4.29-9,15.11-6.81,19.9,2,4.39,10.14,7.2,16.15,5.58,5.34-1.45,7.83-2,11.11-.7a9.47,9.47,0,0,1,4,3.31,10.13,10.13,0,0,0,1.42,1.54c1.9,1.55,4.7,2.52,6.84.59,3-2.67,8.08-13.82,4.7-20.67-1.72-3.48-7.86-7.07-16-9.37-9.12-2.56-17.52-2.63-21.4-.18Z" style="fill:#455a64"></path><path d="M146.2,215.2s-4.39-14.1-10.54-12.89-5.41,19.85,0,24.09a6.55,6.55,0,0,0,9.44-.69Z" style="fill: rgb(255, 196, 192);"></path><path d="M136,207.65a.09.09,0,0,0-.09.15c3.75,3.12,4.75,7.84,5,12.48-.77-2-2.23-3.43-4.86-2.59-.13.05-.08.26.05.27a4,4,0,0,1,3.8,2.69,19.39,19.39,0,0,1,.93,4.07c.08.45.84.46.84,0a.41.41,0,0,0,0-.11C143.54,219.12,141.73,210.08,136,207.65Z" style="fill:#263238"></path><path d="M166.93,267.75l-11,18.71-23.3-28.28-6.81,8.74s20.39,40.75,20.71,39l9.83-15.63,10.7,12.62L169,274.12Z" style="fill:#00E77F"></path><path d="M168.84,288.75c.15-4.77.43-9.57.35-14.34,0-.17-.27-.27-.34-.08-1.44,4.48-1.89,22.72-2.34,27.06l0-.05c-.44-.55-10-11.16-10.09-11-2,2.44-9.24,13.82-9.76,14.86-3.22-6.47-17.08-32.1-21-38.31-.12-.17-.4-.06-.32.14,2.75,6.77,20.58,40.54,20.89,40.49.19.17,9.12-13.84,10.29-16.54,1.57,2.27,11.08,14.12,11.18,13.42A140.85,140.85,0,0,0,168.84,288.75Z" style="fill:#263238"></path><rect x="292.54" y="415.46" width="15.42" height="23.41" style="fill:#37474f"></rect><rect x="387.56" y="387.15" width="15.42" height="51.72" style="fill:#37474f"></rect><polygon points="402.89 379.34 292.54 415.46 292.54 423.45 402.89 387.33 402.89 379.34" style="fill:#37474f"></polygon></g></svg>