<svg xmlns="http://www.w3.org/2000/svg" viewBox="0 0 500 500"><g id="freepik--Floor--inject-194"><polygon points="46.98 433.16 97.74 432.92 148.49 432.83 250 432.66 351.51 432.83 402.26 432.92 453.01 433.16 402.26 433.4 351.51 433.49 250 433.66 148.49 433.49 97.74 433.4 46.98 433.16" style="fill:#263238"></polygon></g><g id="freepik--Device--inject-194"><path d="M334.51,61.92h-169a17.26,17.26,0,0,0-17.11,17.42v348a17.27,17.27,0,0,0,17.11,17.42h169a17.28,17.28,0,0,0,17.13-17.42v-348A17.27,17.27,0,0,0,334.51,61.92Zm6.43,354.67c0,9.16-6.86,16.57-15.31,16.57H174.39c-8.49,0-15.34-7.41-15.34-16.57V92.53c0-18.66,6.85-19.57,15.34-19.57h30.29c1.76,0,3.2,2,3.2,4.48v1.07c0,5.81,3.18,5.83,7.09,5.83h70c4,0,7.09,0,7.09-5.83V77.44c0-2.48,1.42-4.48,3.22-4.48h30.3c8.45,0,15.31,2.48,15.31,19.57Z" style="fill:#263238"></path><path d="M259.55,77.08H240.44a1.18,1.18,0,0,1-1.18-1.18h0a1.18,1.18,0,0,1,1.18-1.18h19.11a1.18,1.18,0,0,1,1.18,1.18h0A1.18,1.18,0,0,1,259.55,77.08Z" style="fill:#fff"></path><path d="M340.94,92.53V416.59c0,9.16-6.86,16.57-15.31,16.57H174.39c-8.49,0-15.34-7.41-15.34-16.57V92.53c0-18.66,6.85-19.57,15.34-19.57h30.29c1.76,0,3.2,2,3.2,4.48v1.07c0,5.81,3.18,5.83,7.09,5.83h70c4,0,7.09,0,7.09-5.83V77.44c0-2.48,1.42-4.48,3.22-4.48h30.3C334.08,73,340.94,75.44,340.94,92.53Z" style="fill:#fff"></path><path d="M340.94,92.53v24.18H159V92.53C159,73.87,165.9,73,174.38,73h30.3c1.76,0,3.2,2,3.2,4.48v1.07c0,5.81,3.18,5.83,7.08,5.83H285c3.94,0,7.1,0,7.1-5.83V77.44c0-2.48,1.42-4.48,3.21-4.48h30.29C334.08,73,340.94,75.44,340.94,92.53Z" style="fill:#00E77F"></path><polygon points="176.28 104.91 170.91 99.87 176.28 94.83 177.11 95.72 172.69 99.87 177.11 104.02 176.28 104.91" style="fill:#fff"></polygon><path d="M324.44,105.26h-3.6V104a.31.31,0,0,0-.17-.27c-.14-.07-.27-.15-.4-.23a.31.31,0,0,0-.32,0l-1.08.62-1.8-3.11,1.09-.63a.29.29,0,0,0,.14-.28,1.69,1.69,0,0,1,0-.23,1.77,1.77,0,0,1,0-.23.29.29,0,0,0-.14-.28l-1.09-.63,1.8-3.11,1.08.62a.31.31,0,0,0,.32,0c.13-.08.26-.16.4-.23a.31.31,0,0,0,.17-.27V94.48h3.6v1.25a.31.31,0,0,0,.17.27l.4.23a.31.31,0,0,0,.32,0l1.08-.62,1.79,3.11-1.08.63a.3.3,0,0,0-.15.28,1.77,1.77,0,0,1,0,.23v.22a.28.28,0,0,0,.14.29l1.08.63-1.79,3.11-1.09-.62a.29.29,0,0,0-.31,0l-.4.23a.31.31,0,0,0-.17.27Zm-2.85-.75h2.1V104a1.06,1.06,0,0,1,.57-.94,2.27,2.27,0,0,0,.34-.19,1,1,0,0,1,1.1,0l.43.25,1.05-1.82-.44-.25a1,1,0,0,1-.51-1v-.38a1,1,0,0,1,.52-1l.43-.25-1.05-1.82-.43.25a1,1,0,0,1-1.1,0,2.79,2.79,0,0,0-.33-.19,1.05,1.05,0,0,1-.58-.94v-.5h-2.1v.5a1.05,1.05,0,0,1-.58.94,2.17,2.17,0,0,0-.33.19,1,1,0,0,1-1.1,0l-.43-.25-1,1.82.43.25a1,1,0,0,1,.52,1,1.81,1.81,0,0,0,0,.38,1,1,0,0,1-.52,1l-.43.25,1,1.82.43-.25a1,1,0,0,1,1.1,0,2.79,2.79,0,0,0,.33.19,1.05,1.05,0,0,1,.58.94Zm1.05-1.94a2.71,2.71,0,1,1,2.7-2.7A2.71,2.71,0,0,1,322.64,102.57Zm0-4.66a2,2,0,1,0,1.95,2A2,2,0,0,0,322.64,97.91Z" style="fill:#fff"></path><g id="freepik--u5Zjqx--inject-194"><path d="M199.45,80.24l-.29.29c-.06,0-.11.11-.17.17a3.9,3.9,0,0,0-2.82-1.17,3.86,3.86,0,0,0-2.82,1.17l-.16-.17-.29-.29h0l0,0,.37-.32a4.06,4.06,0,0,1,.86-.55,4.18,4.18,0,0,1,1.13-.38c.19,0,.38,0,.57-.08h.5l.38,0a4.51,4.51,0,0,1,1,.25,4.58,4.58,0,0,1,.71.33,4.48,4.48,0,0,1,.67.47l.31.28Z" style="fill:#fff"></path><path d="M194.27,81.62c-.15-.16-.3-.31-.46-.46a3.32,3.32,0,0,1,4.71,0l-.46.46a2.68,2.68,0,0,0-3.79,0Z" style="fill:#fff"></path><path d="M197.6,82.08l-.46.46a1.31,1.31,0,0,0-1-.4,1.35,1.35,0,0,0-1,.4l-.46-.46A2,2,0,0,1,197.6,82.08Z" style="fill:#fff"></path><path d="M196.58,83a.41.41,0,0,1-.41.41.42.42,0,1,1,0-.83A.41.41,0,0,1,196.58,83Z" style="fill:#fff"></path></g><path d="M170.9,81.12a1.21,1.21,0,1,1,1.21,1.21A1.21,1.21,0,0,1,170.9,81.12Z" style="fill:#fff"></path><path d="M174.7,81.12a1.21,1.21,0,1,1,1.21,1.21A1.21,1.21,0,0,1,174.7,81.12Z" style="fill:#fff"></path><path d="M178.5,81.12a1.21,1.21,0,1,1,1.2,1.21A1.2,1.2,0,0,1,178.5,81.12Z" style="fill:#fff"></path><path d="M182.3,81.12a1.21,1.21,0,1,1,1.2,1.21A1.2,1.2,0,0,1,182.3,81.12Z" style="fill:#fff"></path><path d="M186.09,81.12a1.21,1.21,0,1,1,1.21,1.21A1.21,1.21,0,0,1,186.09,81.12Z" style="fill:#fff"></path><path d="M327.3,83.75h-9.82V79.21h9.82Zm-9.32-.5h8.82V79.71H318Z" style="fill:#fff"></path><rect x="318.3" y="79.98" width="6.33" height="3" style="fill:#fff"></rect><rect x="327.3" y="80.27" width="0.87" height="2.43" style="fill:#fff"></rect><polygon points="186.68 413.35 185.3 413.35 185.3 419.7 182.72 419.7 182.72 416.46 178.14 416.46 178.14 419.7 175.56 419.7 175.56 413.35 174.17 413.35 180.43 406.89 186.68 413.35" style="fill:#ebebeb"></polygon><rect x="310.75" y="406.89" width="15.08" height="2.15" style="fill:#ebebeb"></rect><rect x="310.75" y="412.22" width="15.08" height="2.15" style="fill:#ebebeb"></rect><rect x="310.75" y="417.55" width="15.08" height="2.15" style="fill:#ebebeb"></rect><path d="M186.39,148.52a9.93,9.93,0,0,1-2.93,1.23,10.17,10.17,0,1,1,2.93-1.23Z" style="fill:#dbdbdb"></path><path d="M184.14,138.73a3.09,3.09,0,1,1-3.09-3.09A3.09,3.09,0,0,1,184.14,138.73Z" style="fill:#fff"></path><path d="M186.39,147.25v1.27a9.93,9.93,0,0,1-2.93,1.23,10.11,10.11,0,0,1-7.74-1.23v-1.27a5.34,5.34,0,1,1,10.67,0Z" style="fill:#fff"></path><rect x="203.93" y="130.32" width="64.51" height="5.32" style="fill:#ebebeb"></rect><rect x="203.93" y="139.19" width="56.31" height="3.52" style="fill:#ebebeb"></rect><rect x="203.93" y="145.98" width="93.11" height="3.52" style="fill:#ebebeb"></rect><rect x="159.05" y="158.45" width="181.87" height="127.36" transform="translate(499.96 444.25) rotate(180)" style="fill:#ebebeb"></rect><path d="M180.3,194.65a15.07,15.07,0,1,0,15.07-15.07A15.07,15.07,0,0,0,180.3,194.65Z" style="fill:#dbdbdb"></path><polygon points="239.8 258.1 340.94 258.1 290.37 189.56 239.8 258.1" style="fill:#c7c7c7"></polygon><polygon points="200.16 258.43 283.66 258.43 241.91 213.79 200.16 258.43" style="fill:#dbdbdb"></polygon><rect x="159.05" y="258.37" width="181.87" height="27.44" style="fill:#dbdbdb"></rect><path d="M186.39,353a10.19,10.19,0,0,1-2.93,1.22,10.14,10.14,0,1,1,7.46-12.26A10.17,10.17,0,0,1,186.39,353Z" style="fill:#dbdbdb"></path><path d="M184.14,343.17a3.09,3.09,0,1,1-3.09-3.09A3.09,3.09,0,0,1,184.14,343.17Z" style="fill:#fff"></path><path d="M186.39,351.69V353a10.19,10.19,0,0,1-2.93,1.22,10.07,10.07,0,0,1-7.74-1.23v-1.27a5.34,5.34,0,1,1,10.67,0Z" style="fill:#fff"></path><rect x="203.93" y="334.76" width="82.97" height="5.32" style="fill:#ebebeb"></rect><rect x="203.93" y="343.63" width="105.91" height="3.52" style="fill:#ebebeb"></rect><rect x="203.93" y="350.42" width="36.08" height="3.52" style="fill:#ebebeb"></rect><rect x="159.05" y="362.89" width="181.87" height="31.11" style="fill:#ebebeb"></rect><path d="M209.55,394H181.19a15.07,15.07,0,0,1,28.36,0Z" style="fill:#dbdbdb"></path><circle cx="177.11" cy="299.3" r="6.02" style="fill:#ebebeb"></circle><g id="freepik--xsrjp0--inject-194"><path d="M176.29,301.7c-.16-.1-.3-.25-.51-.23s-.06-.05-.06-.1c0-.8,0-1.6,0-2.4a.13.13,0,0,1,.07-.14c.61-.31.88-.92,1.26-1.44a2.41,2.41,0,0,0,.44-1.82c0-.18.06-.26.22-.3a.41.41,0,0,1,.46.15,3.25,3.25,0,0,1,.35,1.05,4.61,4.61,0,0,1-.11.9c0,.22-.08.44-.12.66.05,0,.11,0,.17,0h2c.29,0,.43.08.47.27a.54.54,0,0,1-.3.59c-.05,0-.14,0-.15.08s.09.07.14.11c.24.16.2.51-.09.71-.06.05-.2,0-.2.13s.12.08.18.13a.46.46,0,0,1-.2.71.61.61,0,0,0-.12.05s-.06,0,0,.09a.4.4,0,0,1,0,.72l-.08.06a.58.58,0,0,1-.36.08h-3.19A.4.4,0,0,1,176.29,301.7Z" style="fill:#fff;fill-rule:evenodd"></path><path d="M173.27,300.29v-1.53c0-.11,0-.16.14-.16h1.86c.12,0,.14,0,.14.15v3.08c0,.13,0,.17-.16.16h-1.81c-.15,0-.17-.05-.17-.19C173.28,301.3,173.27,300.8,173.27,300.29Z" style="fill:#fff;fill-rule:evenodd"></path></g><path d="M183.91,300.73a6,6,0,1,1,7.28,4.42A6,6,0,0,1,183.91,300.73Z" style="fill:#00E77F"></path><path d="M192.83,300.06a7.74,7.74,0,0,1-3.07,2.92,7.73,7.73,0,0,1-3.08-2.92c-.75-1.53-.27-3.19.92-3.55,1.72-.52,2.16,2.47,2.16,2.47s.44-3,2.15-2.47C193.11,296.87,193.59,298.53,192.83,300.06Z" style="fill:#fff"></path><rect x="204.93" y="298.52" width="85.45" height="3.48" style="fill:#ebebeb"></rect><polygon points="159.04 319.27 181.78 319.09 204.51 319.02 249.98 318.9 295.45 319.02 318.18 319.09 340.92 319.27 318.18 319.45 295.45 319.52 249.98 319.65 204.51 319.52 181.78 319.45 159.04 319.27" style="fill:#ebebeb"></polygon></g><g id="freepik--Icons--inject-194"><rect x="69.38" y="263.51" width="63.5" height="63.5" transform="translate(-72.65 36.02) rotate(-14.93)" style="fill:#455a64"></rect><path d="M97.16,303.27l-8.22,2.19c-.86-3.21-1.67-6.24-2.52-9.44l8.07-2.15c-.16-.73-.26-1.3-.4-1.86-.61-2.5-1.37-5-1.8-7.49-.93-5.56,1.37-10.27,6.54-12.44,3.22-1.36,6.78-1.9,10.27-2.83.79,2.93,1.5,5.6,2.3,8.59-1.25.33-2.5.64-3.73,1a17.78,17.78,0,0,0-3.25,1.11,3.17,3.17,0,0,0-1.82,3.68c.54,2.44,1.26,4.84,2,7.46l9.38-2.51c.42,3.2.85,6.16,1.17,9.13,0,.29-.59.83-1,1-2.25.67-4.52,1.24-7,1.89,2.16,8.13,4.29,16.12,6.46,24.24l-10,2.66C101.48,319.44,99.34,311.45,97.16,303.27Z" style="fill:#fff"></path><rect x="360.02" y="325.71" width="63.67" height="63.67" transform="translate(37.15 -36.88) rotate(5.66)" style="fill:#00E77F"></rect><path d="M416.44,347c.6-6.34-3-10.84-9.24-11.52q-13-1.43-26.1-2.59c-6.16-.54-10.55,3.14-11.25,9.27-.49,4.34-.87,8.69-1.3,13s-.87,8.5-1.26,12.75c-.59,6.49,3,11,9.37,11.73q12.9,1.41,25.82,2.56c6.3.55,10.75-3.19,11.4-9.45Q415.23,359.88,416.44,347Zm-6.73,25.44c-.44,4-2.82,6-6.83,5.64q-12.92-1.2-25.82-2.56c-4-.42-6-2.85-5.62-6.84q1.23-13,2.58-26.05c.41-4,2.86-6,6.84-5.67q12.92,1.19,25.82,2.55c4,.43,6,2.92,5.61,6.89-.38,4.34-.84,8.68-1.27,13S410.19,368.08,409.71,372.42Z" style="fill:#fff"></path><path d="M393.1,345.32A12.24,12.24,0,1,0,404,358.88,12.23,12.23,0,0,0,393.1,345.32Zm-2.17,20.27a8.27,8.27,0,0,1-7.19-8.81A8.16,8.16,0,0,1,400,358.39,8.26,8.26,0,0,1,390.93,365.59Z" style="fill:#fff"></path><path d="M408.93,346.59a2.55,2.55,0,0,1-3.16,2.24,2.57,2.57,0,0,1-2.35-3.3c.3-1.69,1.49-2.37,3.2-2.3C408.32,343.69,409.24,344.78,408.93,346.59Z" style="fill:#fff"></path><rect x="364.31" y="181.3" width="47.35" height="47.35" transform="translate(91.17 -118.21) rotate(19.59)" style="fill:#455a64"></rect><path d="M367.07,210a16.3,16.3,0,0,0,11,.47c-3.66-2.7-4.85-4.54-4.62-7.08l2.8.84c-2.79-2.39-3.92-5.24-2.91-8.88l2.57,1.75c-1.64-4.79-1.21-7.9,1.52-10a21.71,21.71,0,0,0,12,12.44c.14-.47.23-.83.34-1.18A7.12,7.12,0,0,1,396,193a7.2,7.2,0,0,1,7.4,3.68,1.5,1.5,0,0,0,1.44.88c1.26,0,2.51,0,3.88,0a7.47,7.47,0,0,1-3.93,2.5,1.69,1.69,0,0,1,0,.23l3.71.33.09.19c-1.19.57-2.37,1.19-3.59,1.69a2,2,0,0,0-1.28,1.25,21.11,21.11,0,0,1-25.2,13.5,21.42,21.42,0,0,1-10.95-6.61C367.41,210.41,367.24,210.19,367.07,210Z" style="fill:#fff"></path><rect x="362.66" y="105.09" width="41.15" height="41.15" transform="translate(-20.07 127.68) rotate(-18.44)" style="fill:#00E77F"></rect><path d="M373.5,145c-.13-2.45-.27-4.72-.34-7a2.45,2.45,0,0,0-.79-1.79A15.22,15.22,0,1,1,397.86,121a15.34,15.34,0,0,1-9,18.46,16.32,16.32,0,0,1-7.61,1,2.43,2.43,0,0,0-1.41.35C377.75,142.18,375.72,143.52,373.5,145Zm2.37-4.57c1.3-.84,2.39-1.59,3.53-2.26a2.27,2.27,0,0,1,1.33-.26,13.54,13.54,0,0,0,6.32-.42c7.48-2.35,11.16-11.25,7.33-18A11.87,11.87,0,0,0,382.21,113a12.06,12.06,0,0,0-11,8.86c-1.64,5.13-.24,9.59,3.72,13.26a2.29,2.29,0,0,1,.65,1.35C375.77,137.72,375.79,139,375.87,140.39Z" style="fill:#fff"></path><path d="M375,121.83c.54-1.65,1.95-1.83,3.12-.6.46.48.59.65,1.07,1.22a1.87,1.87,0,0,1,.36,2.41c-.37.63-.18,1,.35,1.43a10.71,10.71,0,0,0,5.61,2.24,1,1,0,0,0,1.23-.74c.76-1.93.79-1.92,2.86-1.68l.71.09a1.77,1.77,0,0,1,1.46,2.83,4.25,4.25,0,0,1-3.71,2.33,15.46,15.46,0,0,1-11-3.74,5.86,5.86,0,0,1-2.19-2.9A5.15,5.15,0,0,1,375,121.83Z" style="fill:#fff"></path></g><g id="freepik--Character--inject-194"><path d="M238.4,280.85s-7.07,22.4-16,51.56c-9.92,32.41-22.14,73.15-29.48,100.74h66.8c1.12-4.44,2.34-9.24,3.63-14.34l5.64-22c5.34-20.79,11.22-43.52,16.35-63.29,7.69-29.63,13.69-52.64,13.69-52.64Z" style="fill:#455a64"></path><path d="M286.08,297.11c-1.44,5.13-3.25,10.17-4.84,15.24s-3.23,10.39-4.83,15.59q-4.76,15.45-9.44,30.91-9.39,30.91-18.72,61.86c-1.25,4.15-2.56,8.29-3.85,12.44h2q3.59-11.92,7.18-23.86,9.42-31.41,18.77-62.85,4.68-15.79,9.31-31.61c1.55-5.33,3-10.67,4.55-16C287,296.17,286.66,295,286.08,297.11Z" style="fill:#263238"></path><path d="M245.29,280.85c4.21,32.57,12.23,93.65,18.08,138,13.69-53.69,35.68-138,35.68-138Z" style="fill:#263238"></path><path d="M269,396.78c.33,12.26.66,25.09.92,36.37h61.38c-1.25-27.88-3.4-67.23-5.2-98.95-1.7-30.13-3.1-53.35-3.1-53.35H240.36s1.4,29,8,52c.53,1.9,1.11,3.77,1.74,5.56a108.14,108.14,0,0,1,17.48,9S268.32,370.74,269,396.78Z" style="fill:#455a64"></path><path d="M321.61,433.15h1Q322,422.07,321.49,411c-1.78-39.9-3.18-79.83-4.5-119.74,0-.32-.5-.35-.49,0,.67,22.57,1.26,45.15,2,67.72Q319.79,396,321.61,433.15Z" style="fill:#263238"></path><path d="M247.16,336.68a133.25,133.25,0,0,1,20.46,10.72.24.24,0,0,1-.22.42c-6.9-3.36-13.95-6.59-20.66-10.31A.47.47,0,0,1,247.16,336.68Z" style="fill:#263238"></path><path d="M242.88,304.58c.57,3.07,1.31,6.11,2,9.16.62,2.86,1.07,5.78,1.83,8.6a14.6,14.6,0,0,0,4,7.22c1.12,1,2.36,2,3.56,2.92.64.51,1.34,1,2,1.53-.09-.4-.16-.82-.23-1.23-.21-1.17-.4-2.33-.6-3.49-.43-2.59-.85-5.18-1.24-7.77-.78-5.09-1.5-10.23-2.56-15.27a.17.17,0,0,1,.32-.08c1.27,5,2.67,9.94,3.77,15,.54,2.47,2.48,14.67,2.56,15.53s.16,1.78.2,2.68a10.92,10.92,0,0,1,0,2.74c-.05.22-.32.18-.42,0h0a11.25,11.25,0,0,1-.78-2.65c-.22-.87-.42-1.75-.57-2.64-.06-.32-.1-.64-.15-1-1.2-.73-2.32-1.69-3.44-2.51s-2.44-1.73-3.59-2.69a13.81,13.81,0,0,1-4.38-6.84,50,50,0,0,1-1.43-8.77c-.39-3.46-.67-6.95-1.16-10.4C242.53,304.46,242.84,304.37,242.88,304.58Z" style="fill:#263238"></path><path d="M253.82,200.24c-4.1,32.68-11.26,87.49-22.85,91.92-2,.77-10.54,2.46-16.37-4.1C204.77,277,187.77,239.68,183,227.67c-2.11-5.32,32.59-22.68,35.56-17.33,4.16,7.49,8.53,18.77,9.35,18.39,1.39-.63,3.75-14.54,13-34.08C252.46,170.37,255.35,188.09,253.82,200.24Z" style="fill: rgb(255, 196, 192);"></path><path d="M172.94,214.77c3.42,7.34,16.28,19.61,20.52,21.38s25.83-19.39,25.28-24.08-14-28.49-21.37-32.16S169.41,207.17,172.94,214.77Z" style="fill: rgb(255, 196, 192);"></path><path d="M217.17,207.62s-.71-10.51,1.78-19.44c2.1-7.51,6.07-18.43,2.07-19.71-8.2-2.63-18.08,24.6-18.08,24.6s-2.44,12.71,5.46,16A8.51,8.51,0,0,0,217.17,207.62Z" style="fill: rgb(255, 196, 192);"></path><polygon points="195.19 216.3 183.02 214.16 189.23 178.91 204.63 181.62 195.19 216.3" style="fill:#00E77F"></polygon><polygon points="204.63 181.62 201.03 194.85 195.19 216.31 183.01 214.16 189.23 178.91 204.63 181.62" style="fill:#00E77F"></polygon><polygon points="204.63 181.62 201.03 194.85 186.86 192.35 189.23 178.91 204.63 181.62" style="opacity:0.1"></polygon><rect x="187.12" y="170.72" width="19.46" height="14.78" transform="translate(33.9 -31.46) rotate(10)" style="fill:#00E77F"></rect><polygon points="221.49 169.46 206.34 168.32 210.49 144.76 225.11 148.88 221.49 169.46" style="fill:#00E77F"></polygon><polygon points="203.65 138.75 197.53 173.52 172.02 172.11 110.17 183.24 124.89 99.74 179.2 131.36 203.65 138.75" style="fill:#00E77F"></polygon><ellipse cx="116.17" cy="141.25" rx="42.6" ry="13.69" transform="translate(-43.1 231.15) rotate(-80)" style="fill:#00E77F"></ellipse><ellipse cx="115.6" cy="140.41" rx="37.82" ry="11.21" transform="translate(-42.74 229.89) rotate(-80)" style="opacity:0.2"></ellipse><path d="M124.85,142c-.49,2.74-1,5.39-1.67,7.93a8.46,8.46,0,0,1-12.44-8.86l.69-3.94A8.45,8.45,0,0,1,126.1,133C125.81,135.94,125.39,139,124.85,142Z" style="fill:#00E77F"></path><polygon points="210.66 177.82 181.36 175.62 189.39 130.06 217.68 138.01 210.66 177.82" style="fill:#00E77F"></polygon><polygon points="210.66 177.82 181.36 175.62 189.39 130.06 217.68 138.01 210.66 177.82" style="opacity:0.2"></polygon><path d="M127.79,106.15a26.58,26.58,0,0,1,3,9.06,60,60,0,0,1,.75,9.56c0,1.6-.05,3.2-.1,4.79s-.21,3.19-.38,4.78-.34,3.18-.58,4.76-.47,3.16-.75,4.73a104.74,104.74,0,0,1-5,18.49,54.07,54.07,0,0,1-4.16,8.64,22.76,22.76,0,0,1-6.35,7.1,23.32,23.32,0,0,0,6-7.32,53.8,53.8,0,0,0,3.89-8.66,112,112,0,0,0,4.73-18.41,114.37,114.37,0,0,0,2-18.9,60.19,60.19,0,0,0-.49-9.49A27.57,27.57,0,0,0,127.79,106.15Z" style="opacity:0.2"></path><path d="M97.33,98.9c1.73,1.37,3.4,2.83,5,4.29s3.26,3,4.86,4.48,3.17,3.06,4.71,4.65l2.29,2.38c.74.82,1.51,1.62,2.23,2.46-.88-.68-1.71-1.4-2.57-2.1l-2.49-2.19c-1.65-1.45-3.26-3-4.86-4.48s-3.17-3.06-4.7-4.65S98.78,100.57,97.33,98.9Z" style="fill:#263238"></path><path d="M109.63,163.42c-2.41.63-4.85,1.15-7.28,1.65s-4.88,1-7.33,1.39-4.9.83-7.37,1.17l-3.7.5c-1.23.13-2.47.29-3.71.39,1.2-.32,2.42-.58,3.63-.88l3.65-.77c2.43-.52,4.88-1,7.33-1.39s4.9-.83,7.37-1.16S107.15,163.64,109.63,163.42Z" style="fill:#263238"></path><path d="M63.83,154.75c3.65-.28,7.3-.46,11-.62s7.3-.27,10.95-.36,7.31-.14,11-.13h5.48c1.83,0,3.66,0,5.49.13-1.83.15-3.65.24-5.48.36l-5.48.27c-3.65.17-7.3.26-11,.36s-7.31.13-11,.12S67.49,154.88,63.83,154.75Z" style="fill:#263238"></path><path d="M76.92,99.63c3.12,2,6.18,4.1,9.23,6.21s6.07,4.26,9.08,6.42,6,4.36,8.94,6.61l4.42,3.37c1.45,1.16,2.92,2.28,4.36,3.46-1.57-1-3.1-2-4.65-3.06l-4.58-3.15c-3.06-2.1-6.07-4.26-9.08-6.42s-6-4.37-8.94-6.61S79.8,102,76.92,99.63Z" style="fill:#263238"></path><path d="M109.14,139.68c-4.24-.58-8.47-1.27-12.69-2s-8.43-1.5-12.64-2.24-8.41-1.61-12.6-2.48l-6.29-1.31c-2.08-.48-4.18-.92-6.26-1.43,2.12.29,4.24.63,6.35.94l6.34,1c4.22.7,8.43,1.5,12.64,2.24s8.41,1.61,12.6,2.48S105,138.69,109.14,139.68Z" style="fill:#263238"></path><path d="M207.63,187.84c-.47,4.26-5.23,1.28-5.23,1.28s5.82,5.94,3.64,10.16c-2.11,4.05-7.73.24-8.14,0,.31.32,5.51,5.92,2.89,9.93s-7.72-.63-8-.94c.19.39,2.67,5.59,0,8.18-4.62,4.45-11.31-8.68-16.31-10.07,0,0-3.33,8.2-3.48,8.42,0,0-6.62-12.35-4.36-19a4.48,4.48,0,0,1,4.68-3.09s-2.57-3.74-.61-7c1-1.65,4.56-1.5,4.56-1.5s-1.94-3.09,0-5.84c1.53-2.2,4.84-1.71,4.84-1.71s-.49-3.82,1.81-5.57C188.47,167.59,208.61,178.71,207.63,187.84Z" style="fill: rgb(255, 196, 192);"></path><path d="M182.58,176.68a.06.06,0,0,1,0-.11c7.52,2,15.15,6.58,20.07,12.68.16.2-.1.55-.32.36A82,82,0,0,0,182.58,176.68Z" style="fill:#263238"></path><path d="M177.13,184.13c-.08,0,0-.17.07-.14,7.73,2.14,16.18,7.5,21,15.19.16.27.05.67-.17.38C194.46,194.69,183.92,187.16,177.13,184.13Z" style="fill:#263238"></path><path d="M192.9,208.89c-4.93-7.2-11.67-12.1-19.31-16.13-.1,0,0-.19.08-.16,4.27,1,8.88,4,12.26,6.73a22.9,22.9,0,0,1,7.22,9.39C193.21,208.87,193,209,192.9,208.89Z" style="fill:#263238"></path><path d="M202.55,189.11c.19.24-.37.26-.19.5.79,1,4.95,7.68,3.13,9.8-1.46,1.7-4.76.91-5.9.11l-2.89-2,2,2.89a14.17,14.17,0,0,1,2,4.19,5.12,5.12,0,0,1-.31,4.19,2.94,2.94,0,0,1-3.43,1.39,9,9,0,0,1-3.75-2.4l-2.93-3,1.79,3.74a13.69,13.69,0,0,1,1.1,3.27A5.67,5.67,0,0,1,193,215a2.67,2.67,0,0,1-2.28,1.62,5.86,5.86,0,0,1-3.05-1.17,46.56,46.56,0,0,1-5.47-4.73c-.88-.84-1.77-1.68-2.7-2.48a8.76,8.76,0,0,0-3.11-1.92,9.39,9.39,0,0,1,2.88,2.17c.86.86,1.67,1.76,2.49,2.66a39.18,39.18,0,0,0,5.33,5.12,6.82,6.82,0,0,0,3.63,1.53,3.78,3.78,0,0,0,3.44-2.27,6.82,6.82,0,0,0,.34-4,14.85,14.85,0,0,0-1.16-3.66l-1.14.78a10.22,10.22,0,0,0,4.41,2.88,4.28,4.28,0,0,0,2.88-.16,4.89,4.89,0,0,0,2.12-1.9,6.49,6.49,0,0,0,.39-5.31,15.49,15.49,0,0,0-2.31-4.57l-.88.88c1.5,1,5.08,2.25,7.68-.1C209.46,196.87,203.69,190.24,202.55,189.11Z" style="fill:#263238"></path><path d="M202.4,189.12a8.66,8.66,0,0,0,2.58.55,2,2,0,0,0,1.82-.87,4.06,4.06,0,0,0,.37-2.27c-.06-.86-.17-1.76-.32-2.69a6.69,6.69,0,0,1,1.25,2.55,4,4,0,0,1-.29,3.05,2.78,2.78,0,0,1-1.33,1.07,3,3,0,0,1-1.61.09A4.63,4.63,0,0,1,202.4,189.12Z" style="fill:#263238"></path><path d="M180.3,239.45,218.23,209s9.19,19,9.73,18.92,6.56-25.29,16.54-41,12.38,1.34,10.26,14.3-12.1,84.79-21.07,91.37-17.4-1.66-21-5.15C207.66,282.57,180.3,239.45,180.3,239.45Z" style="fill:#00E77F"></path><path d="M187.6,242.88c1.19-1.22,13.11-10.52,15.74-12.48l7.92-5.88c2.72-2,5.41-4.21,8.29-6a.12.12,0,0,1,.15.19c-2.5,2.3-5.32,4.3-8,6.39s-5.27,4.14-7.91,6.19-14.64,11-16.08,11.79C187.59,243.14,187.52,243,187.6,242.88Z" style="fill:#263238"></path><path d="M228,227.87c1,2.24,2,4.54,2.84,6.84s1.68,4.65,2.43,7,1.43,4.73,2,7.14a64.12,64.12,0,0,1,1.37,7.29c-.37-1.19-.67-2.38-1-3.55s-.7-2.36-1.07-3.54l-2.2-7-2.2-7L229,231.43C228.66,230.24,228.29,229.06,228,227.87Z" style="fill:#263238"></path><path d="M228.14,306.11c1.64,1.63,102.49-3.71,103-4.36,1.33-1.78-34.74-109.11-58.38-126.09-5.08-3.65-18.74,1.24-22.25,4.76-2.2,2.21-7,16.16-10.12,27.69C234.09,231.21,226.71,304.68,228.14,306.11Z" style="fill:#fff"></path><path d="M252.56,175.89c-4,3-7.06,18.31,2.08,20.38s17.62-12.36,18.87-17S261.21,169.47,252.56,175.89Z" style="fill:#00E77F"></path><path d="M255.3,194.17c5.67.73,14.28-8.72,17.31-16,.21-.5-1-5.37-2.26-11.37-.73-3.64-1.45-7.71-1.85-11.48l-23,8.21s3.15,7.65,3.8,14.22a8.13,8.13,0,0,1,0,1.56c0,.07,0,.16,0,.26C249.11,182.58,249.82,193.47,255.3,194.17Z" style="fill: rgb(255, 196, 192);"></path><path d="M267.41,155.74c-.24,4.78-2.05,22-15.69,23.74a16.11,16.11,0,0,1-2.44.12.71.71,0,0,1,0-.26,10.15,10.15,0,0,0,0-1.56c-.66-6.56-3.81-14.21-3.81-14.21Z" style="fill:#263238"></path><path d="M268.89,127.14c3.35,8.14,1.23,32.76-4.21,38.73-7.9,8.65-22,10.74-29.61,1-7.4-9.45-4.07-41.5,2.12-47C246.3,111.66,263.93,115.12,268.89,127.14Z" style="fill: rgb(255, 196, 192);"></path><path d="M265.25,165.58s0,0,0,0" style="fill:none;stroke:#f4a69d;stroke-linecap:round;stroke-linejoin:round;stroke-width:0px"></path><path d="M247.14,144.15c0-.06.13.09.12.16-.19,1.66-.12,3.58,1.33,4.25,0,0,0,.11,0,.1C246.76,148.25,246.7,145.69,247.14,144.15Z" style="fill:#263238"></path><path d="M248.77,142.54c2.68,0,2.46,5.38,0,5.37S246.52,142.53,248.77,142.54Z" style="fill:#263238"></path><path d="M237.83,143.81c0-.06-.13.08-.13.14,0,1.67-.32,3.57-1.85,4.06,0,0,0,.1,0,.1C237.71,147.93,238.08,145.39,237.83,143.81Z" style="fill:#263238"></path><path d="M236.42,142c-2.67-.31-3.1,5-.63,5.34S238.65,142.28,236.42,142Z" style="fill:#263238"></path><path d="M251,140.17a19,19,0,0,1-2.05-.82,3.57,3.57,0,0,1-1.93-1.23,1.14,1.14,0,0,1,.24-1.37,2.82,2.82,0,0,1,2.85-.17,4.16,4.16,0,0,1,2.31,1.89A1.21,1.21,0,0,1,251,140.17Z" style="fill:#263238"></path><path d="M234.46,139.22c.74-.09,1.42-.3,2.15-.46a3.51,3.51,0,0,0,2.11-.9,1.13,1.13,0,0,0,0-1.38,2.82,2.82,0,0,0-2.79-.65,4.16,4.16,0,0,0-2.59,1.47A1.22,1.22,0,0,0,234.46,139.22Z" style="fill:#263238"></path><path d="M249.27,159.73c-.41.37-.83.89-1.44.91a4.27,4.27,0,0,1-1.77-.49.06.06,0,0,0-.07.08,2.2,2.2,0,0,0,2.07,1,1.76,1.76,0,0,0,1.37-1.41C249.46,159.71,249.33,159.67,249.27,159.73Z" style="fill:#263238"></path><path d="M247.73,154.67a5.62,5.62,0,0,1-3.88,2.36,7,7,0,0,1-2,0,2.28,2.28,0,0,1-.39-.06l-.36-.07a.41.41,0,0,1-.32-.39h0a1,1,0,0,1,0-.17h0v-.15c0-1.28.23-3.22.23-3.22-.48.21-2.91,1.19-2.85.52.57-5.53,1.19-11.67,2.92-17,.05-.18.33-.13.3,0-.33,5.34-1.6,10.57-2,15.92a9.77,9.77,0,0,1,2.7-.69c.18.06-.46,3.74-.42,4.32a.28.28,0,0,0,0,.06c2.14.37,3.79-.22,5.93-1.57C247.71,154.43,247.84,154.54,247.73,154.67Z" style="fill:#263238"></path><path d="M242.76,156.72a6.64,6.64,0,0,0,2.76,1.95,3,3,0,0,0,1.83,0c1.3-.41,1.27-1.62,1-2.64a7.42,7.42,0,0,0-.67-1.56A8.62,8.62,0,0,1,242.76,156.72Z" style="fill:#263238"></path><path d="M245.52,158.67a3,3,0,0,0,1.83,0c1.3-.41,1.27-1.62,1-2.64A3.1,3.1,0,0,0,245.52,158.67Z" style="fill:#f392b9"></path><path d="M269.42,147.56c.6-2.15,6.15-25.33,5.54-27.86-.56-2.3-3.08-1.36-3.11-1.49s-.12-2.23-1.42-3a3.53,3.53,0,0,0-2.81,0s-.39-2.21-1.78-2.81a2.8,2.8,0,0,0-2.72.59,3.7,3.7,0,0,0-2.22-2.64,2.41,2.41,0,0,0-2.69,1s-.59-2.11-2-2.52-2.7,1.16-2.7,1.16a3.19,3.19,0,0,0-2.56-2,2.78,2.78,0,0,0-2.45,1.9s-1-1.86-2.7-1.91-2.22,2-2.22,2-.68-1.84-2.24-1.72-1.92,2.3-1.92,2.3-.87-2-2.71-1.43c-2.81.91-3.16,14.35-3.8,20.19,0,0,.78-2.79,2-2.89s2.08,1.79,4.31,2.29c3.17.7,8.45-3,12.82-2.09s7.39,5.37,8.92,12C262.63,146.32,268,152.66,269.42,147.56Z" style="fill:#263238"></path><path d="M248.18,152.38a6.88,6.88,0,0,1-5.53-8h0a6.85,6.85,0,1,1,7.23,8.06A7,7,0,0,1,248.18,152.38Zm-4.63-7.8a5.94,5.94,0,1,0,6.9-4.79,5.64,5.64,0,0,0-1.47-.08A5.93,5.93,0,0,0,243.55,144.58Z" style="fill:#00E77F"></path><path d="M233.72,151.66c-2.81-.13-4.95-3.31-4.78-7.08a8.19,8.19,0,0,1,1.67-4.72,4.27,4.27,0,0,1,7.3.34,8.16,8.16,0,0,1,1.22,4.85c-.16,3.58-2.35,6.42-5,6.61Zm-2.4-11.23a7.25,7.25,0,0,0-1.46,4.19c-.15,3.27,1.6,6,3.9,6.13s4.31-2.47,4.46-5.74a7.37,7.37,0,0,0-1.07-4.31,3.66,3.66,0,0,0-2.84-1.81H234A3.82,3.82,0,0,0,231.32,140.43Z" style="fill:#00E77F"></path><path d="M242.84,145.22l.62-.68c-1-.92-3.34-2.2-5.1-.49l.64.65C240.57,143.17,242.75,145.13,242.84,145.22Z" style="fill:#00E77F"></path><path d="M273.26,148.39l.84-.38c-.18-.39-1.81-3.81-3.83-4.23s-14.22.18-14.75.21l0,.91c3.53-.17,13-.53,14.51-.23S272.83,147.45,273.26,148.39Z" style="fill:#00E77F"></path><path d="M264,146.71s4.9-8.25,8.6-6.56.43,13.36-3.63,15.23a4.25,4.25,0,0,1-5.86-1.86Z" style="fill: rgb(255, 196, 192);"></path><path d="M271.54,143.47a.06.06,0,0,1,0,.11c-2.84,1.41-4.18,4.24-5.05,7.14.79-1.15,1.93-1.84,3.46-.91a.09.09,0,0,1-.06.16,2.64,2.64,0,0,0-2.81,1.13,12.48,12.48,0,0,0-1.2,2.43c-.12.27-.6.17-.53-.14a.19.19,0,0,0,0-.07C265.05,149.59,267.56,144.15,271.54,143.47Z" style="fill:#263238"></path><path d="M287,182.68c32.63,22.44,56.18,57.62,58.45,65,5.49,18,13.68,49.7,14.94,63.94.47,5.27-40.11,4.29-40.79-1.32-2.11-17.58-9.67-55.82-9.86-56.47-1.35-4.63-12.87-24.66-24.71-46.45S273.24,173.23,287,182.68Z" style="fill: rgb(255, 196, 192);"></path><path d="M322.82,365.84c4.14,1.42,6.83-2.24,6.83-2.24a9.33,9.33,0,0,0,5.45,3.26c3.81.56,6.35-5.17,6.35-5.17a11.56,11.56,0,0,0,6.3,2.52c3.7.16,7.08-5.25,7.08-5.25a10.23,10.23,0,0,0,6.94-1.28c3.51-2.26,5.24-13.45,5.18-19.75s-6.13-24.1-6.94-27.62l-40.43,0s-7.77,28.31-6.64,35.71C313.88,352.29,318.17,364.25,322.82,365.84Z" style="fill: rgb(255, 196, 192);"></path><path d="M329,363.33c-2.59-6.39-3.16-13.19-4.11-19.95a.12.12,0,0,1,.24,0c.86,6.73,3.05,13.21,4.19,19.89A.17.17,0,0,1,329,363.33Z" style="fill:#263238"></path><path d="M340.92,361.56a18.13,18.13,0,0,1-.74-4.64q-.23-2.49-.36-5c-.19-3.33-.31-6.66-.32-10,0-.15.22-.19.23,0,.2,3.32.44,6.63.77,9.93.17,1.66.35,3.31.54,5a21.09,21.09,0,0,1,.33,4.69A.24.24,0,0,1,340.92,361.56Z" style="fill:#263238"></path><path d="M354.82,358.82a12.45,12.45,0,0,1-.44-4.22c-.06-1.51-.12-3-.19-4.55-.14-3-.29-6.06-.54-9.09a.12.12,0,0,1,.24,0c.26,3.07.57,6.14.82,9.22l.33,4.53a11.68,11.68,0,0,1-.07,4.13A.08.08,0,0,1,354.82,358.82Z" style="fill:#263238"></path><path d="M317.65,310.79,362,307.21s-9.77-47.77-15.07-60.68-31.69-44.76-59.21-63.64C269,170.06,270.16,181,278.81,198s29,55.91,30,59S317.65,310.79,317.65,310.79Z" style="fill:#00E77F"></path><path d="M318.43,301.64c1.66-.39,16.71-1.77,20-2l9.83-.68c3.39-.23,6.83-.62,10.23-.58a.12.12,0,1,1,0,.23c-3.34.59-6.8.76-10.17,1.08l-10,.94c-3.34.3-18.25,1.34-19.9,1.23C318.29,301.85,318.32,301.67,318.43,301.64Z" style="fill:#263238"></path></g></svg>