<svg xmlns="http://www.w3.org/2000/svg" viewBox="0 0 750 500"><g id="freepik--background-complete--inject-84"><path d="M266.63,139.7H140V53.06H266.63ZM141,138.7H265.63V54.06H141Z" style="fill:#ebebeb"></path><path d="M149.89,58.64a2.52,2.52,0,1,1-2.52-2.52A2.52,2.52,0,0,1,149.89,58.64Z" style="fill:#a6a6a6"></path><path d="M160.18,58.64a2.52,2.52,0,1,1-2.52-2.52A2.52,2.52,0,0,1,160.18,58.64Z" style="fill:#ebebeb"></path><path d="M170.48,58.64A2.53,2.53,0,1,1,168,56.12,2.52,2.52,0,0,1,170.48,58.64Z" style="fill:#00E77F"></path><rect x="140.49" y="63.08" width="125.64" height="1" style="fill:#ebebeb"></rect><path d="M665.73,181.42l5.89-9.49-2.91-1.8a2.68,2.68,0,0,1-1.23-2.5,13.25,13.25,0,0,0,0-1.67,2.67,2.67,0,0,1,1.39-2.41l3-1.61-5.28-9.85-3,1.62a2.66,2.66,0,0,1-2.77-.18,15.13,15.13,0,0,0-1.42-.88,2.66,2.66,0,0,1-1.4-2.41l.11-3.42L647,146.47l-.1,3.43a2.66,2.66,0,0,1-1.56,2.31l-.73.37-.72.41a2.63,2.63,0,0,1-2.77,0l-2.93-1.81-5.88,9.49,2.91,1.81a2.65,2.65,0,0,1,1.23,2.5,15.26,15.26,0,0,0-.06,1.66,2.67,2.67,0,0,1-1.38,2.41l-3,1.61,5.28,9.85,3-1.62a2.66,2.66,0,0,1,2.77.18,14.87,14.87,0,0,0,1.41.87,2.67,2.67,0,0,1,1.41,2.41l-.11,3.43,11.16.34.11-3.42a2.66,2.66,0,0,1,1.55-2.31c.25-.11.5-.24.74-.37s.48-.26.72-.41a2.65,2.65,0,0,1,2.78,0Zm-9.45-7A9.15,9.15,0,1,1,660,162,9.14,9.14,0,0,1,656.28,174.37Z" style="fill:#ebebeb"></path><path d="M111.82,266.12l5.88-9.49-2.9-1.8a2.66,2.66,0,0,1-1.24-2.5,15.44,15.44,0,0,0,.06-1.67,2.67,2.67,0,0,1,1.38-2.41l3-1.61-5.28-9.85-3,1.62a2.66,2.66,0,0,1-2.77-.18,16,16,0,0,0-1.42-.88,2.66,2.66,0,0,1-1.4-2.41l.11-3.42-11.16-.34L93,234.61a2.66,2.66,0,0,1-1.55,2.31c-.25.11-.5.24-.74.37s-.48.26-.71.41a2.69,2.69,0,0,1-2.78,0l-2.92-1.82-5.89,9.49,2.91,1.81a2.64,2.64,0,0,1,1.23,2.5,13.15,13.15,0,0,0,0,1.66,2.67,2.67,0,0,1-1.39,2.41l-3,1.62,5.28,9.84,3-1.61a2.64,2.64,0,0,1,2.77.17,16,16,0,0,0,1.42.88,2.66,2.66,0,0,1,1.4,2.41l-.11,3.42,11.17.35.1-3.43a2.65,2.65,0,0,1,1.56-2.3c.24-.12.49-.24.74-.38s.48-.26.71-.4a2.67,2.67,0,0,1,2.79,0Zm-9.45-7.05a9.15,9.15,0,1,1,3.74-12.38A9.14,9.14,0,0,1,102.37,259.07Z" style="fill:#ebebeb"></path><path d="M625.72,109.36l-3.91-6.77-2.07,1.2a1.87,1.87,0,0,1-2-.07c-.33-.21-.66-.41-1-.59a1.84,1.84,0,0,1-1-1.65V99.09h-7.83v2.39a1.84,1.84,0,0,1-1,1.65,11.12,11.12,0,0,0-1,.59,1.87,1.87,0,0,1-2,.07l-2.08-1.2-3.91,6.77,2.09,1.2a1.89,1.89,0,0,1,.91,1.73c0,.19,0,.38,0,.58s0,.38,0,.57a1.87,1.87,0,0,1-.91,1.72l-2.09,1.21,3.91,6.77,2.08-1.19a1.85,1.85,0,0,1,2,.06,11.53,11.53,0,0,0,1,.59,1.85,1.85,0,0,1,1,1.65v2.4h7.83v-2.4a1.86,1.86,0,0,1,1-1.65,9.19,9.19,0,0,0,1-.59,1.85,1.85,0,0,1,2-.06l2.08,1.19,3.91-6.77-2.08-1.2a1.84,1.84,0,0,1-.9-1.72c0-.2,0-.39,0-.58s0-.39,0-.58a1.87,1.87,0,0,1,.91-1.73Zm-7.48,3.51a6.41,6.41,0,1,1-6.4-6.42A6.39,6.39,0,0,1,618.24,112.87Z" style="fill:#ebebeb"></path><path d="M82.63,75.3,95.75,75l6.66-.11c2.23,0,4.47,0,6.7-.06h.44v.45l.06,11.19V87h-.5l-13.24-.06c-4.42,0-8.83-.12-13.24-.17h-.28v-.27c0-1.9.08-3.79.13-5.65Zm0,0L82.77,81c0,1.87.11,3.71.13,5.54l-.27-.27c4.41,0,8.82-.16,13.24-.17L109.11,86l-.5.5,0-11.19.45.45c-2.18,0-4.36,0-6.55-.06L96,75.58Z" style="fill:#ebebeb"></path><path d="M97.4,61.19l13.12-.28,6.67-.11c2.22,0,4.46,0,6.69-.06h.44v.45l0,11.19v.5h-.5l-13.24-.06c-4.41,0-8.83-.12-13.24-.17h-.28v-.27c0-1.9.08-3.79.13-5.65Zm0,0,.14,5.65c0,1.87.11,3.71.13,5.54l-.27-.27c4.41,0,8.83-.16,13.24-.17l13.24-.06-.5.5.05-11.19.45.45c-2.18,0-4.36,0-6.55-.06l-6.57-.11Z" style="fill:#ebebeb"></path><path d="M67.86,61.19,81,60.91l6.66-.11c2.23,0,4.47,0,6.7-.06h.44v.45l.06,11.19v.5h-.5L81.1,72.82c-4.42,0-8.83-.12-13.24-.17h-.28v-.27c0-1.9.09-3.79.13-5.65Zm0,0L68,66.84c0,1.87.11,3.71.13,5.54l-.27-.27c4.41,0,8.82-.16,13.24-.17l13.24-.06-.5.5,0-11.19.45.45c-2.19,0-4.36,0-6.55-.06l-6.58-.11Z" style="fill:#ebebeb"></path><path d="M460.21,208.46l13.12-.28,6.66-.11c2.23,0,4.47,0,6.7-.06h.44v.45l.06,11.19v.5h-.5l-13.24-.07c-4.42,0-8.83-.11-13.24-.16h-.28v-.27c0-1.9.09-3.79.14-5.66Zm0,0,.14,5.65c0,1.86.11,3.71.13,5.54l-.27-.28c4.41-.05,8.82-.15,13.24-.16l13.24-.06-.5.5.05-11.19.45.44c-2.18,0-4.36,0-6.55-.05l-6.58-.11Z" style="fill:#ebebeb"></path><path d="M475,194.35l13.12-.28,6.67-.11c2.22-.05,4.46,0,6.69-.06h.44v.45l0,11.19v.5h-.5L488.22,206c-4.41,0-8.83-.11-13.24-.16h-.28v-.27c0-1.9.08-3.79.13-5.66Zm0,0,.14,5.65c.05,1.86.11,3.71.13,5.54l-.27-.28c4.41,0,8.83-.15,13.24-.16l13.24-.06-.5.5.05-11.19.45.44c-2.18,0-4.36,0-6.55,0l-6.57-.11Z" style="fill:#ebebeb"></path><path d="M445.44,194.35l13.12-.28,6.66-.11c2.23-.05,4.46,0,6.7-.06h.44v.45l.06,11.19v.5h-.5L458.68,206c-4.42,0-8.83-.11-13.24-.16h-.28v-.27c0-1.9.09-3.79.13-5.66Zm0,0,.14,5.65c0,1.86.11,3.71.13,5.54l-.27-.28c4.41,0,8.82-.15,13.24-.16l13.24-.06-.5.5.05-11.19.45.44c-2.19,0-4.36,0-6.55,0l-6.58-.11Z" style="fill:#ebebeb"></path><path d="M643.62,71.37l13.13-.28,6.66-.11c2.22,0,4.46,0,6.69,0h.45v.45l.05,11.19v.5h-.5L656.86,83c-4.41,0-8.83-.12-13.24-.17h-.27v-.27c0-1.9.08-3.79.13-5.65Zm0,0,.14,5.65c0,1.87.12,3.71.13,5.54l-.27-.27c4.41-.05,8.83-.16,13.24-.17l13.24-.06-.5.5.06-11.19.44.45c-2.18,0-4.36,0-6.54-.06L657,71.65Z" style="fill:#ebebeb"></path><path d="M237.14,208.46l13.12-.27,6.66-.12c2.23,0,4.47,0,6.7,0h.44v.44l.06,11.19v.51h-.5l-13.24-.06c-4.42,0-8.83-.11-13.24-.16h-.28v-.27c0-1.89.08-3.78.13-5.65Zm0,0,.14,5.66c.05,1.86.11,3.7.13,5.53l-.27-.27c4.41,0,8.82-.16,13.24-.16l13.24-.06-.5.49.05-11.19.45.45c-2.18,0-4.36,0-6.55,0l-6.58-.12Z" style="fill:#ebebeb"></path><path d="M84.16,317.14l13.12-.27,6.67-.12c2.22,0,4.46,0,6.69-.05h.44v.44l0,11.19v.51h-.5l-13.24-.06c-4.41,0-8.83-.11-13.24-.16h-.28v-.27c0-1.89.08-3.78.13-5.65Zm0,0,.14,5.66c0,1.86.11,3.7.13,5.53l-.27-.27c4.41-.05,8.83-.16,13.24-.16l13.24-.07-.5.5,0-11.19.45.45c-2.18,0-4.36,0-6.55-.06l-6.57-.11Z" style="fill:#ebebeb"></path><path d="M69.39,303l13.12-.27,6.66-.12c2.23,0,4.47,0,6.7-.05h.44V303l.06,11.19v.51h-.5l-13.24-.06c-4.42,0-8.83-.11-13.24-.16h-.28v-.27c0-1.89.09-3.78.14-5.65Zm0,0,.14,5.66c0,1.86.11,3.7.13,5.53l-.27-.27c4.41-.05,8.82-.16,13.24-.16l13.24-.07-.5.5,0-11.19.45.45c-2.18,0-4.36,0-6.55-.05l-6.58-.12Z" style="fill:#ebebeb"></path><path d="M655.66,317.13l13.13-.28,6.66-.11c2.22-.05,4.46,0,6.69-.05h.45v.45l0,11.19v.5h-.51l-13.24-.06c-4.41,0-8.82-.11-13.24-.17h-.27v-.27c0-1.9.09-3.78.13-5.65Zm0,0,.15,5.66c0,1.86.11,3.7.13,5.53l-.28-.27c4.42-.05,8.83-.16,13.24-.16l13.24-.07-.5.5.06-11.19.44.45c-2.18,0-4.35,0-6.54-.06l-6.58-.11Z" style="fill:#ebebeb"></path><rect x="557.22" y="245.44" width="104.03" height="143.97" style="fill:#dbdbdb"></rect><rect x="552.18" y="240.1" width="114.11" height="5.34" style="fill:#ebebeb"></rect><rect x="666.29" y="240.1" width="35.89" height="5.34" style="fill:#dbdbdb"></rect><rect x="661.25" y="245.44" width="35.25" height="143.97" style="fill:#ebebeb"></rect><path d="M650.05,312.07H568.43V265.94h81.62Zm-81.37-.25H649.8V266.19H568.68Z" style="fill:#a6a6a6"></path><rect x="597.85" y="279.42" width="15.89" height="9.13" style="fill:#a6a6a6"></rect><path d="M618.56,288H602.42v-8h16.14Zm-15.89-.25h15.64v-7.51H602.67Z" style="fill:#a6a6a6"></path><path d="M650.05,370H568.43V323.9h81.62Zm-81.37-.25H649.8V324.15H568.68Z" style="fill:#a6a6a6"></path><rect x="597.85" y="337.38" width="15.89" height="9.13" style="fill:#a6a6a6"></rect><path d="M618.56,346H602.42v-8h16.14Zm-15.89-.25h15.64v-7.51H602.67Z" style="fill:#a6a6a6"></path></g><g id="freepik--Plant--inject-84"><path d="M111.73,325.86s17.31-3.92,26.8-12.66,14.78-24.4,14.78-24.4a148.41,148.41,0,0,0-19.41,5.09A32.73,32.73,0,0,0,128,302.2a40.54,40.54,0,0,1,0-5.94,26.9,26.9,0,0,0-6.16,3.74C114,306.89,111.73,325.86,111.73,325.86Z" style="fill:#00E77F"></path><path d="M142.51,296.41c2.35-1.64,4.76-3.21,7.11-4.86a.14.14,0,0,0-.15-.23c-4.46,2.67-8.85,5.51-13.11,8.49-1.48,1-2.94,2.13-4.38,3.23.1-.17.2-.34.31-.51.51-.87,1.06-1.73,1.61-2.58a36.59,36.59,0,0,1,3.67-4.9c.05-.06,0-.14-.08-.08-1.35,1.55-2.69,3.09-3.92,4.74-.59.78-1.13,1.59-1.65,2.42-.27.43-.53.87-.78,1.31-.08.15-.17.29-.26.45-2.23,1.75-4.41,3.59-6.49,5.52-1.29,1.2-2.52,2.44-3.72,3.72.67-2.1,1.25-4.21,2-6.28,0-.07-.09-.1-.12,0-.75,2.17-1.57,4.34-2.16,6.56-1.32,1.44-2.59,2.92-3.78,4.46l.06-.28c.19-.81.4-1.63.62-2.44.42-1.56.88-3.12,1.41-4.65a26.68,26.68,0,0,1,4.65-8.78c0-.06,0-.14-.09-.09a33.91,33.91,0,0,0-6.63,13.85c-.18.73-.36,1.47-.53,2.21-.09.4-.19.8-.26,1.2-.52.71-1,1.42-1.52,2.15A75.31,75.31,0,0,0,107,335.37a166.53,166.53,0,0,0-5.54,17.3c0,.11.14.15.17,0,3.39-10.13,6.85-20.4,12.64-29.45,1.22-1.91,2.55-3.75,3.95-5.53a32.69,32.69,0,0,0,8.42-1.68,37.25,37.25,0,0,0,8.43-4.07,49.11,49.11,0,0,0,4.33-3.27.06.06,0,1,0-.08-.09,34.45,34.45,0,0,1-7.93,4.8,42.69,42.69,0,0,1-8.73,2.93c-1.28.28-2.57.49-3.87.66a71.82,71.82,0,0,1,5.1-5.65c.59-.59,1.19-1.14,1.79-1.71a40.55,40.55,0,0,1,6.4-3.66c2.84-1.37,5.63-2.83,8.43-4.25,1.59-.81,3.16-1.63,4.76-2.41.07,0,0-.14-.06-.1-2.85,1.37-5.74,2.66-8.61,4-2.7,1.24-5.44,2.48-8,3.94l-.33.19c2.35-2,4.77-4,7.26-5.86C137.81,299.74,140.14,298,142.51,296.41Z" style="fill:#263238"></path><path d="M141.52,305.33c-1.41.62-2.84,1.16-4.23,1.81s-2.79,1.46-4.15,2.26a.05.05,0,1,0,.05.09c1.38-.66,2.78-1.27,4.15-2s2.78-1.46,4.22-2.09C141.62,305.41,141.59,305.3,141.52,305.33Z" style="fill:#263238"></path><path d="M55.51,238.64A24.69,24.69,0,0,1,60.68,253c.06,1.55-.19,3.72-.37,6.26a41.11,41.11,0,0,1,11.3,9.65,20.5,20.5,0,0,0-11.42-2.73,35.22,35.22,0,0,0,.67,5.17,19.49,19.49,0,0,1,7.34,1.46,16.38,16.38,0,0,0-6.62,1.31C64.66,284,73.83,294,99.16,298.31a53.14,53.14,0,0,0-4.49-35.63C87.08,247.75,55.51,238.64,55.51,238.64Z" style="fill:#00E77F"></path><path d="M107.92,340.31q-.66-6.29-1.64-12.54A246,246,0,0,0,101.17,303a99.09,99.09,0,0,0-3.65-11.29,17.24,17.24,0,0,0,.09-2c0-.81,0-1.62,0-2.43,0-1.63-.09-3.25-.23-4.86a58.8,58.8,0,0,0-1.55-9.5c-.47-1.8-1-3.58-1.53-5.36a.06.06,0,0,0-.12,0A69.38,69.38,0,0,1,96.06,277a86.39,86.39,0,0,1,.85,9.5c0,.87,0,1.74,0,2.61,0,.37,0,.75,0,1.12a81.37,81.37,0,0,0-4.26-8.83,108.48,108.48,0,0,0-8.67-13,5.17,5.17,0,0,0-.21-1.41c-.12-.57-.24-1.13-.37-1.7-.26-1.16-.55-2.31-.86-3.45-.63-2.29-1.46-4.51-2.18-6.78,0-.07-.13,0-.11,0,.67,2.24,1.11,4.56,1.62,6.85q.39,1.69.75,3.39c.13.56.25,1.13.37,1.69a.59.59,0,0,0,0,.13q-1.53-1.93-3.14-3.82c-4.83-5.67-10.13-10.9-15.47-16.09-.66-.64-1.33-1.26-2-1.89-.06-.06-.14,0-.09.08,5.1,5.32,10.13,10.7,14.88,16.34,1.13,1.33,2.24,2.69,3.34,4.06l-1.73-1.14c-1.47-1-3-1.91-4.5-2.77s-3.09-1.7-4.67-2.48-3.36-1.46-4.92-2.37c-.07,0-.13.07-.06.1a35.91,35.91,0,0,1,4.62,2.56c1.54.91,3.08,1.84,4.59,2.8s3,1.87,4.47,2.83c1.23.8,2.44,1.68,3.72,2.41a121.64,121.64,0,0,1,8.11,11.81,85.1,85.1,0,0,1,4.19,8l-.9-.4-2.32-1c-1.49-.66-3-1.3-4.48-1.95-2.84-1.24-5.73-2.37-8.51-3.73A39.55,39.55,0,0,1,73.62,278c-.06-.05-.12.06-.05.1,5.19,3.58,11,6.1,16.75,8.64l2.5,1.11c.68.3,1.37.64,2.07.9a87.51,87.51,0,0,1,4.28,11.74,235.64,235.64,0,0,1,5.51,24.5c1.46,8.27,2.44,16.59,3.2,25,.09,1,.19,2.09.31,3.13a.33.33,0,0,0,.66,0C108.8,348.78,108.36,344.53,107.92,340.31Z" style="fill:#263238"></path><path d="M92.52,270.38c-.47-2.58-1.16-5.09-1.85-7.61a.06.06,0,1,0-.11,0c.64,2.47,1.1,5,1.56,7.51s.9,5.13,1.26,7.7a0,0,0,1,0,.07,0A70,70,0,0,0,92.52,270.38Z" style="fill:#263238"></path><path d="M81.6,277.36a43.73,43.73,0,0,0-5.51-3.1c-.92-.48-1.85-.93-2.79-1.38s-2-.86-2.92-1.34c-.07,0-.12.07-.06.1.93.47,1.81,1,2.72,1.53s1.87,1,2.81,1.53a62.22,62.22,0,0,0,5.62,2.91A.14.14,0,0,0,81.6,277.36Z" style="fill:#263238"></path><path d="M112.05,295.88s16-3.83,23.37-14.57c7-10.26,9.29-27.75,9.47-29.29-.29,1.41-3.59,16.7-14.5,23.82C122,281.29,114,285.78,112.05,295.88Z" style="fill:#263238;opacity:0.1"></path><path d="M126.83,268.21a20.48,20.48,0,0,0-5.91,9.72s0,.05,0,0a23.86,23.86,0,0,1,5.94-9.65C127,268.24,126.88,268.15,126.83,268.21Z" style="fill:#263238"></path><path d="M112.05,295.88s16-3.83,23.37-14.57c7-10.26,9.29-27.75,9.47-29.29,0-.07,0-.11,0-.11s-7.68,10.92-15.76,13.71S109.73,278,112.05,295.88Z" style="fill:#00E77F"></path><path d="M142.07,257.94a65.61,65.61,0,0,1-4.95,8.46,34.15,34.15,0,0,1-6.59,6.78c-2.18,1.73-4.48,3.29-6.68,5a.56.56,0,0,1,.05-.08c.42-.62.86-1.21,1.31-1.79.92-1.18,1.92-2.28,2.93-3.38,2-2.15,4-4.27,5.81-6.61a24.41,24.41,0,0,0,2.56-4.14c0-.06-.07-.1-.11,0-2.59,5.41-7.78,8.87-11.48,13.44a21.06,21.06,0,0,0-1.48,2,7.84,7.84,0,0,0-.93,1.62,34,34,0,0,0-5.46,5.53,21.71,21.71,0,0,1,.64-3.11,15.74,15.74,0,0,1,1.7-4.06c0-.06-.06-.13-.1-.06a19.17,19.17,0,0,0-1.87,4,14.08,14.08,0,0,0-.58,3.46h0a30.45,30.45,0,0,0-2.16,3.36c.07-.34.13-.68.2-1,.32-1.59.67-3.18,1.08-4.76a28.74,28.74,0,0,1,3.85-9,.05.05,0,1,0-.09-.06,34.09,34.09,0,0,0-4.27,8.82c-.51,1.57-.92,3.17-1.28,4.79-.18.78-.34,1.57-.49,2.37-.07.41-.16.83-.23,1.25a56.9,56.9,0,0,0-3.69,10.85,158,158,0,0,0-3.42,20.25,168,168,0,0,0-1.1,21.51c0,.9.06,1.8.11,2.7,0,.23.36.26.38,0,.15-3.56.24-7.11.45-10.66s.52-7.1.91-10.64a188,188,0,0,1,3.33-20.71c1.3-5.85,3-11.75,6.18-16.88a32,32,0,0,1,5.78-6.87c2.25-2,4.7-3.78,7.07-5.65a38.67,38.67,0,0,0,6.49-6.23,51.6,51.6,0,0,0,5.09-8.27c.38-.73.76-1.45,1.15-2.17C142.2,257.93,142.1,257.87,142.07,257.94Z" style="fill:#263238"></path><path d="M139.3,260.28a53.41,53.41,0,0,1-3.56,6.24c0,.05,0,.1.07.05a43.15,43.15,0,0,0,3.61-6.25C139.45,260.25,139.34,260.22,139.3,260.28Z" style="fill:#263238"></path><path d="M53.28,288.8S53,311.56,66.63,318.13s20.91,1.09,30.15,3.29h0c-.36-.54-7-10-17.46-12.64C68.51,306.08,56.55,298.28,53.28,288.8Z" style="fill:#00E77F"></path><path d="M53.28,288.8S53,311.56,66.63,318.13s20.91,1.09,30.15,3.29h0a51.89,51.89,0,0,0-15.48-4.56C72.71,315.82,56.32,310.22,53.28,288.8Z" style="opacity:0.1"></path><path d="M97.68,321.83a23.36,23.36,0,0,0-5.41-3.67c-.3-.14-.6-.25-.89-.38s-.3-.35-.46-.52c-.41-.42-.83-.83-1.28-1.21a18.88,18.88,0,0,0-2.74-2c-2.25-1.32-4.72-2.25-7-3.48a.06.06,0,0,0-.06.1c1.14.59,2.25,1.24,3.36,1.89s2.18,1.23,3.23,1.91a23,23,0,0,1,2.69,2c.24.21.47.43.7.66a38.46,38.46,0,0,0-4.6-1.22c-2.49-.5-5-.86-7.5-1.39a35,35,0,0,1-3.61-1c-1.13-.91-2.25-1.81-3.32-2.8a26.57,26.57,0,0,1-3.52-3.9c0-.06-.15,0-.1.06a41.75,41.75,0,0,0,5.58,6.16c-.59-.23-1.17-.46-1.74-.72a28.07,28.07,0,0,1-11.6-9.65c0-.06-.14,0-.1.06a31.85,31.85,0,0,0,9.38,9,28.21,28.21,0,0,0,5.93,2.8A54.65,54.65,0,0,0,82,316.35a52.64,52.64,0,0,1,7.22,1.72,22,22,0,0,1,6,3.18,28.24,28.24,0,0,1,8.15,10.11A50.57,50.57,0,0,1,107.86,348c0,.25.41.25.39,0C107.61,338.43,105.05,328.47,97.68,321.83Z" style="fill:#263238"></path><path d="M81.89,314.41a7.86,7.86,0,0,0-2.8-2.54,10.19,10.19,0,0,1-3.33-2.75c0-.06-.15,0-.1.06a11.18,11.18,0,0,0,2.94,2.63,10.39,10.39,0,0,1,3.2,2.65C81.84,314.51,81.92,314.46,81.89,314.41Z" style="fill:#263238"></path><polygon points="89.11 338.63 89.72 351.14 91.62 389.38 120.17 389.38 122.07 351.14 122.69 338.63 89.11 338.63" style="fill:#37474f"></polygon><polygon points="89.11 338.63 89.72 351.14 122.07 351.14 122.69 338.63 89.11 338.63" style="fill:#263238"></polygon><rect x="87.1" y="333.4" width="37.58" height="11.94" transform="translate(211.79 678.74) rotate(180)" style="fill:#37474f"></rect></g><g id="freepik--Floor--inject-84"><polygon points="50.72 389.4 131.79 389.16 212.86 389.07 375 388.91 537.14 389.07 618.21 389.16 699.28 389.4 618.21 389.65 537.14 389.74 375 389.9 212.86 389.74 131.79 389.65 50.72 389.4" style="fill:#263238"></polygon></g><g id="freepik--Device--inject-84"><rect x="161.95" y="72.07" width="426.11" height="289.74" style="fill:#37474f"></rect><rect x="161.95" y="319.08" width="426.11" height="42.74" style="fill:#ebebeb"></rect><rect x="291.97" y="414.05" width="166.06" height="13.88" style="fill:#dbdbdb"></rect><polygon points="438.26 414.06 311.74 414.06 314.96 389.98 315.12 388.84 315.41 386.58 315.56 385.44 315.87 383.18 315.91 382.83 316.02 382.05 316.32 379.79 316.47 378.65 318.72 361.83 431.28 361.83 433.4 377.7 433.5 378.46 433.85 381.09 433.95 381.86 434.09 382.83 434.31 384.49 434.41 385.25 434.76 387.89 434.86 388.65 438.26 414.06" style="fill:#ebebeb"></polygon><path d="M381.93,337.57a7.06,7.06,0,1,1-7.06-7.06A7.06,7.06,0,0,1,381.93,337.57Z" style="fill:#37474f"></path><polygon points="434.09 382.83 316.47 378.65 318.72 361.83 431.28 361.83 434.09 382.83" style="fill:#dbdbdb"></polygon><rect x="181.61" y="90.91" width="386.78" height="208.06" style="fill:#fff"></rect><rect x="181.61" y="90.91" width="386.78" height="208.06" style="fill:#fff"></rect><rect x="181.61" y="100.33" width="379.92" height="26.91" style="fill:#00E77F"></rect><rect x="194.38" y="109.32" width="9.18" height="1.48" style="fill:#fff"></rect><rect x="194.38" y="115.94" width="9.18" height="1.48" style="fill:#fff"></rect><rect x="194.38" y="112.67" width="9.18" height="1.48" style="fill:#fff"></rect><rect x="293.31" y="109.4" width="208.31" height="7.92" style="fill:#fff"></rect><path d="M501.7,117.41H293.23v-8.09H501.7Z" style="fill:#fff"></path><rect x="493.61" y="109.32" width="8.09" height="8.09" style="fill:#455a64"></rect><path d="M500.17,115.59l-.74.55-1.35-1.79-.5-.65a1.64,1.64,0,0,0,.29-.16,1.33,1.33,0,0,0,.37-.49l.53.69Z" style="fill:#fff"></path><path d="M498.72,111.37a2,2,0,1,0-.64,3,1.59,1.59,0,0,0,.27-.18,1.71,1.71,0,0,0,.42-.43A2,2,0,0,0,498.72,111.37Zm-.85,2.17a1.64,1.64,0,0,1-.29.16,1.2,1.2,0,1,1,.66-.65A1.33,1.33,0,0,1,497.87,113.54Z" style="fill:#fff"></path><rect x="294.97" y="110.96" width="0.43" height="4.81" style="fill:#c7c7c7"></rect><path d="M547.61,117.64a4.63,4.63,0,0,1-1.29.54,4.51,4.51,0,0,1-5.44-3.3,4.5,4.5,0,1,1,6.73,2.76Z" style="fill:#455a64"></path><path d="M546.62,113.29a1.37,1.37,0,1,1-1.37-1.37A1.37,1.37,0,0,1,546.62,113.29Z" style="fill:#fff"></path><path d="M547.61,117.07v.57a4.63,4.63,0,0,1-1.29.54,4.45,4.45,0,0,1-3.44-.55v-.56a2.37,2.37,0,1,1,4.73,0Z" style="fill:#fff"></path><path d="M532,118.31h-3.13V117.2a.16.16,0,0,0-.09-.15,2.33,2.33,0,0,1-.34-.2.19.19,0,0,0-.18,0l-1,.56-1.57-2.71,1-.56a.16.16,0,0,0,.08-.15,1.34,1.34,0,0,1,0-.2,1.21,1.21,0,0,1,0-.19.18.18,0,0,0-.08-.16l-1-.56,1.57-2.71,1,.56a.17.17,0,0,0,.18,0,3.79,3.79,0,0,1,.34-.2.16.16,0,0,0,.09-.15v-1.1H532v1.1a.16.16,0,0,0,.1.15l.34.2a.17.17,0,0,0,.18,0l1-.56,1.56,2.71-1,.56a.15.15,0,0,0-.08.16V114a.15.15,0,0,0,.08.16l1,.56-1.56,2.71-1-.55a.17.17,0,0,0-.18,0,3,3,0,0,1-.34.2.18.18,0,0,0-.1.15Zm-2.35-.78h1.57v-.33a.93.93,0,0,1,.52-.84l.27-.16a.93.93,0,0,1,1,0l.29.17.78-1.36-.28-.17a.94.94,0,0,1-.47-.88v-.3a1,1,0,0,1,.47-.88l.28-.16-.78-1.36-.28.16a1,1,0,0,1-1,0,1.73,1.73,0,0,0-.27-.15,1,1,0,0,1-.52-.85V110h-1.57v.32a1,1,0,0,1-.52.85c-.09,0-.18.1-.27.15a.93.93,0,0,1-1,0l-.28-.16-.79,1.36.29.16a1,1,0,0,1,.46.88v.31a1,1,0,0,1-.46.87l-.29.17.79,1.36.28-.17a.93.93,0,0,1,1,0l.27.16a.93.93,0,0,1,.52.84Zm.79-1.44a2.31,2.31,0,1,1,2.31-2.31A2.31,2.31,0,0,1,530.46,116.09Zm0-3.84a1.54,1.54,0,1,0,1.53,1.53A1.54,1.54,0,0,0,530.46,112.25Z" style="fill:#455a64"></path><rect x="211.35" y="112.67" width="63.11" height="3.01" style="fill:#455a64"></rect><rect x="181.61" y="90.91" width="386.78" height="9.42" style="fill:#455a64"></rect><path d="M189.09,95.62a2.34,2.34,0,1,1-2.33-2.33A2.33,2.33,0,0,1,189.09,95.62Z" style="fill:#c7c7c7"></path><path d="M198.63,95.62a2.34,2.34,0,1,1-2.34-2.33A2.34,2.34,0,0,1,198.63,95.62Z" style="fill:#fff"></path><path d="M208.16,95.62a2.34,2.34,0,1,1-2.33-2.33A2.33,2.33,0,0,1,208.16,95.62Z" style="fill:#00E77F"></path><rect x="561.53" y="100.33" width="6.86" height="198.65" style="fill:#dbdbdb"></rect><path d="M565,181.9h0a1.78,1.78,0,0,1-1.78-1.78V103.48a1.78,1.78,0,0,1,1.78-1.77h0a1.77,1.77,0,0,1,1.77,1.77v76.64A1.78,1.78,0,0,1,565,181.9Z" style="fill:#a6a6a6"></path><rect x="346.69" y="226.39" width="62.25" height="47.76" transform="translate(755.64 500.55) rotate(180)" style="fill:#00E77F"></rect><path d="M352.89,236.84a5.65,5.65,0,1,0,4.44-4.44A5.66,5.66,0,0,0,352.89,236.84Z" style="fill:#fff;opacity:0.6000000000000001"></path><polygon points="367.23 263.87 408.94 263.87 388.09 238.16 367.23 263.87" style="fill:#00E77F"></polygon><polygon points="367.23 263.87 408.94 263.87 388.09 238.16 367.23 263.87" style="opacity:0.2"></polygon><polygon points="346.69 263.89 383.69 263.89 365.19 247.15 346.69 263.89" style="fill:#00E77F"></polygon><polygon points="346.69 263.89 383.69 263.89 365.19 247.15 346.69 263.89" style="opacity:0.1"></polygon><rect x="346.69" y="263.87" width="62.25" height="10.29" style="fill:#00E77F"></rect><rect x="346.69" y="263.87" width="62.25" height="10.29" style="opacity:0.1"></rect><rect x="199.19" y="226.39" width="46.76" height="3.93" style="fill:#a6a6a6"></rect><rect x="199.19" y="235.52" width="135.32" height="3.93" style="fill:#ebebeb"></rect><rect x="199.19" y="244.18" width="135.32" height="3.93" style="fill:#ebebeb"></rect><rect x="199.19" y="252.83" width="135.32" height="3.93" style="fill:#ebebeb"></rect><rect x="199.19" y="261.49" width="135.32" height="3.93" style="fill:#ebebeb"></rect><rect x="199.19" y="270.14" width="135.32" height="3.93" style="fill:#ebebeb"></rect><rect x="312.88" y="148.17" width="96.07" height="10.52" style="fill:#a6a6a6"></rect><rect x="312.88" y="165.95" width="96.07" height="3.93" style="fill:#ebebeb"></rect><rect x="312.88" y="174.6" width="96.07" height="3.93" style="fill:#ebebeb"></rect><rect x="312.88" y="183.26" width="96.07" height="3.93" style="fill:#ebebeb"></rect><rect x="312.88" y="191.91" width="96.07" height="3.93" style="fill:#ebebeb"></rect><rect x="312.88" y="203.43" width="96.07" height="3.93" style="fill:#ebebeb"></rect><rect x="312.88" y="212.08" width="96.07" height="3.93" style="fill:#ebebeb"></rect><path d="M301.11,216h-2v-.75h2Zm-4,0h-2v-.75h2Zm-4,0h-2v-.75h2Zm-4,0h-2v-.75h2Zm-4,0h-2v-.75h2Zm-4,0h-2v-.75h2Zm-4,0h-2v-.75h2Zm-4,0h-2v-.75h2Zm-4,0h-2v-.75h2Zm-4,0h-2v-.75h2Zm-4,0h-2v-.75h2Zm-4,0h-2v-.75h2Zm-4,0h-2v-.75h2Zm-4,0h-2v-.75h2Zm-4,0h-2v-.75h2Zm-4,0h-2v-.75h2Zm-4,0h-2v-.75h2Zm-4,0h-2v-.75h2Zm-4,0h-2v-.75h2Zm-4,0h-2v-.75h2Zm-4,0h-2v-.75h2Zm-4,0h-2v-.75h2Zm-4,0h-2v-.75h2Zm-4,0h-2v-.75h2Zm-4,0h-2v-.75h2Zm-4,0h-2.3v-.37l.38,0v-.34h1.92Zm100.38-1.19h-.75v-2h.75Zm-101.93-1.26h-.75v-2h.75Zm101.93-2.74h-.75v-2h.75Zm-101.93-1.26h-.75v-2h.75Zm101.93-2.74h-.75v-2h.75Zm-101.93-1.26h-.75v-2h.75Zm101.93-2.74h-.75v-2h.75Zm-101.93-1.26h-.75v-2h.75Zm101.93-2.74h-.75v-2h.75Zm-101.93-1.26h-.75v-2h.75Zm101.93-2.74h-.75v-2h.75Zm-101.93-1.26h-.75v-2h.75Zm101.93-2.74h-.75v-2h.75Zm-101.93-1.26h-.75v-2h.75Zm101.93-2.74h-.75v-2h.75Zm-101.93-1.26h-.75v-2h.75Zm101.93-2.74h-.75v-2h.75Zm-101.93-1.26h-.75v-2h.75Zm101.93-2.74h-.75v-2h.75Zm-101.93-1.26h-.75v-2h.75Zm101.93-2.74h-.75v-2h.75Zm-101.93-1.26h-.75v-2h.75Zm101.93-2.74h-.75v-2h.75Zm-101.93-1.26h-.75v-2h.75Zm101.93-2.74h-.75v-2h.75Zm-101.93-1.26h-.75v-2h.75Zm101.93-2.74h-.75v-2h.75Zm-101.93-1.26h-.75v-2h.75Zm101.93-2.74h-.75v-2h.75Zm-101.93-1.26h-.75v-2h.75Zm101.93-2.74h-.75v-2h.75Zm-101.93-1.26h-.75v-2h.75Zm101.93-2.74h-.75v-2h.75Zm-101.93-1.26h-.75v-1.78h1v.75h-.22Zm100.22-1h-2v-.75h2Zm-4,0h-2v-.75h2Zm-4,0h-2v-.75h2Zm-4,0h-2v-.75h2Zm-4,0h-2v-.75h2Zm-4,0h-2v-.75h2Zm-4,0h-2v-.75h2Zm-4,0h-2v-.75h2Zm-4,0h-2v-.75h2Zm-4,0h-2v-.75h2Zm-4,0h-2v-.75h2Zm-4,0h-2v-.75h2Zm-4,0h-2v-.75h2Zm-4,0h-2v-.75h2Zm-4,0h-2v-.75h2Zm-4,0h-2v-.75h2Zm-4,0h-2v-.75h2Zm-4,0h-2v-.75h2Zm-4,0h-2v-.75h2Zm-4,0h-2v-.75h2Zm-4,0h-2v-.75h2Zm-4,0h-2v-.75h2Zm-4,0h-2v-.75h2Zm-4,0h-2v-.75h2Zm-4,0h-2v-.75h2Z" style="fill:#dbdbdb"></path><circle cx="250.15" cy="181.91" r="9.2" style="fill:#00E77F"></circle><rect x="249.28" y="176.44" width="1.75" height="10.94" style="fill:#fff"></rect><rect x="249.28" y="176.44" width="1.75" height="10.94" transform="translate(432.05 -68.24) rotate(90)" style="fill:#fff"></rect><path d="M547.39,274.53h-2v-.75h2Zm-4,0h-2v-.75h2Zm-4,0h-2v-.75h2Zm-4,0h-2v-.75h2Zm-4,0h-2v-.75h2Zm-4,0h-2v-.75h2Zm-4,0h-2v-.75h2Zm-4,0h-2v-.75h2Zm-4,0h-2v-.75h2Zm-4,0h-2v-.75h2Zm-4,0h-2v-.75h2Zm-4,0h-2v-.75h2Zm-4,0h-2v-.75h2Zm-4,0h-2v-.75h2Zm-4,0h-2v-.75h2Zm-4,0h-2v-.75h2Zm-4,0h-2v-.75h2Zm-4,0h-2v-.75h2Zm-4,0h-2v-.75h2Zm-4,0h-2v-.75h2Zm-4,0h-2v-.75h2Zm-4,0h-2v-.75h2Zm-4,0h-2v-.75h2Zm-4,0h-2v-.75h2Zm-4,0h-2v-.75h2Zm-4,0h-2v-.75h2Zm-4,0h-2v-.75h2Zm-4,0h-2v-.75h2Zm-4,0h-2v-.75h2Zm-4,0h-2v-.75h2Zm-4,0h-2v-.75h2Zm-4,0h-2.28v-.48h.38v-.27h1.9Zm124.37-1.41H547v-2h.75Zm-125.9-1.07h-.75v-2h.75Zm125.9-2.93H547v-2h.75Zm-125.9-1.07h-.75v-2h.75Zm125.9-2.93H547v-2h.75Zm-125.9-1.07h-.75v-2h.75Zm125.9-2.93H547v-2h.75Zm-125.9-1.07h-.75v-2h.75Zm125.9-2.93H547v-2h.75Zm-125.9-1.07h-.75v-2h.75Zm125.9-2.93H547v-2h.75Zm-125.9-1.07h-.75v-2h.75Zm125.9-2.93H547v-2h.75Zm-125.9-1.07h-.75v-2h.75Zm125.9-2.93H547v-2h.75Zm-125.9-1.07h-.75v-2h.75Zm125.9-2.93H547v-2h.75Zm-125.9-1.07h-.75v-2h.75Zm125.9-2.93H547v-2h.75Zm-125.9-1.07h-.75v-2h.75Zm125.9-2.93H547v-2h.75Zm-125.9-1.07h-.75v-2h.75Zm125.9-2.93H547v-2h.75Zm-125.9-1.07h-.75v-2h.75Zm125.9-2.93H547v-2h.75Zm-125.9-1.07h-.75v-2h.75Zm125.9-2.93H547v-2h.75Zm-125.9-1.07h-.75v-2h.75Zm125.9-2.93H547v-.21h-1v-.75h1.79Zm-3.79-.21h-2v-.75h2Zm-4,0h-2v-.75h2Zm-4,0h-2v-.75h2Zm-4,0h-2v-.75h2Zm-4,0h-2v-.75h2Zm-4,0h-2v-.75h2Zm-4,0h-2v-.75h2Zm-4,0h-2v-.75h2Zm-4,0h-2v-.75h2Zm-4,0h-2v-.75h2Zm-4,0h-2v-.75h2Zm-4,0h-2v-.75h2Zm-4,0h-2v-.75h2Zm-4,0h-2v-.75h2Zm-4,0h-2v-.75h2Zm-4,0h-2v-.75h2Zm-4,0h-2v-.75h2Zm-4,0h-2v-.75h2Zm-4,0h-2v-.75h2Zm-4,0h-2v-.75h2Zm-4,0h-2v-.75h2Zm-4,0h-2v-.75h2Zm-4,0h-2v-.75h2Zm-4,0h-2v-.75h2Zm-4,0h-2v-.75h2Zm-4,0h-2v-.75h2Zm-4,0h-2v-.75h2Zm-4,0h-2v-.75h2Zm-4,0h-2v-.75h2Zm-4,0h-2v-.75h2Zm-4,0h-2v-.75h2Z" style="fill:#dbdbdb"></path><circle cx="484.44" cy="245.35" r="9.2" style="fill:#00E77F"></circle><rect x="483.57" y="239.88" width="1.75" height="10.94" style="fill:#fff"></rect><rect x="483.57" y="239.88" width="1.75" height="10.94" transform="translate(729.78 -239.09) rotate(90)" style="fill:#fff"></rect><polygon points="456.46 183.24 455.08 183.24 455.08 182.49 455.71 182.49 455.71 181.86 456.46 181.86 456.46 183.24" style="fill:#dbdbdb"></polygon><path d="M453.16,183.24h-1.91v-.75h1.91Zm-3.83,0h-1.92v-.75h1.92Zm-3.83,0h-1.92v-.75h1.92Zm-3.84,0h-1.92v-.75h1.92Zm-3.83,0h-1.92v-.75h1.92Zm-3.84,0h-1.92v-.75H434Zm-3.83,0h-1.92v-.75h1.92Zm-3.84,0h-1.91v-.75h1.91Z" style="fill:#dbdbdb"></path><polygon points="422.49 183.24 421.11 183.24 421.11 181.86 421.86 181.86 421.86 182.49 422.49 182.49 422.49 183.24" style="fill:#dbdbdb"></polygon><path d="M421.86,180h-.75V178h.75Zm0-3.84h-.75v-1.92h.75Zm0-3.83h-.75v-1.92h.75Zm0-3.84h-.75v-1.92h.75Zm0-3.83h-.75v-1.92h.75Zm0-3.84h-.75v-1.91h.75Zm0-3.83h-.75V155h.75Zm0-3.84h-.75v-1.91h.75Z" style="fill:#dbdbdb"></path><polygon points="421.86 149.27 421.11 149.27 421.11 147.9 422.49 147.9 422.49 148.65 421.86 148.65 421.86 149.27" style="fill:#dbdbdb"></polygon><path d="M453.17,148.64h-1.92v-.75h1.92Zm-3.84,0h-1.92v-.75h1.92Zm-3.83,0h-1.92v-.75h1.92Zm-3.84,0h-1.92v-.75h1.92Zm-3.83,0h-1.92v-.75h1.92Zm-3.84,0h-1.91v-.75H434Zm-3.83,0h-1.92v-.75h1.92Zm-3.84,0h-1.91v-.75h1.91Z" style="fill:#dbdbdb"></path><polygon points="456.46 149.27 455.71 149.27 455.71 148.65 455.08 148.65 455.08 147.9 456.46 147.9 456.46 149.27" style="fill:#dbdbdb"></polygon><path d="M456.46,180h-.75V178h.75Zm0-3.84h-.75v-1.92h.75Zm0-3.83h-.75v-1.92h.75Zm0-3.84h-.75v-1.92h.75Zm0-3.83h-.75v-1.92h.75Zm0-3.84h-.75v-1.91h.75Zm0-3.83h-.75V155h.75Zm0-3.84h-.75v-1.91h.75Z" style="fill:#dbdbdb"></path><path d="M421.52,148.27c2.91,2.8,5.81,5.64,8.7,8.49l8.65,8.6,8.62,8.7,4.29,4.38,4.27,4.42-4.36-4.22-4.34-4.27-8.65-8.6-8.62-8.7C427.22,154.16,424.36,151.24,421.52,148.27Z" style="fill:#dbdbdb"></path><path d="M456.05,148.27c-2.84,3-5.7,5.89-8.56,8.8l-8.62,8.7-8.65,8.6-4.34,4.27-4.36,4.22,4.27-4.42,4.29-4.38,8.62-8.7,8.65-8.6C450.24,153.91,453.14,151.07,456.05,148.27Z" style="fill:#dbdbdb"></path><path d="M491.34,165.65a6.91,6.91,0,1,1-6.9-6.9A6.9,6.9,0,0,1,491.34,165.65Z" style="fill:#00E77F"></path><rect x="483.78" y="161.55" width="1.31" height="8.21" style="fill:#fff"></rect><rect x="483.78" y="161.55" width="1.31" height="8.21" transform="translate(650.09 -318.78) rotate(90)" style="fill:#fff"></rect><polygon points="502.11 183.32 500.73 183.32 500.73 182.57 501.36 182.57 501.36 181.95 502.11 181.95 502.11 183.32" style="fill:#00E77F"></polygon><path d="M498.82,183.32H496.9v-.75h1.92Zm-3.84,0h-1.91v-.75H495Zm-3.83,0h-1.92v-.75h1.92Zm-3.84,0H485.4v-.75h1.91Zm-3.83,0h-1.92v-.75h1.92Zm-3.83,0h-1.92v-.75h1.92Zm-3.84,0h-1.92v-.75h1.92Zm-3.83,0h-1.92v-.75H472Z" style="fill:#00E77F"></path><polygon points="468.14 183.32 466.77 183.32 466.77 181.95 467.52 181.95 467.52 182.57 468.14 182.57 468.14 183.32" style="fill:#00E77F"></polygon><path d="M467.52,180h-.75v-1.91h.75Zm0-3.83h-.75v-1.92h.75Zm0-3.84h-.75v-1.91h.75Zm0-3.83h-.75v-1.92h.75Zm0-3.84h-.75v-1.91h.75Zm0-3.83h-.75v-1.92h.75Zm0-3.83h-.75v-1.92h.75Zm0-3.84h-.75v-1.92h.75Z" style="fill:#00E77F"></path><polygon points="467.52 149.36 466.77 149.36 466.77 147.98 468.14 147.98 468.14 148.73 467.52 148.73 467.52 149.36" style="fill:#00E77F"></polygon><path d="M498.82,148.73H496.9V148h1.92Zm-3.84,0h-1.91V148H495Zm-3.83,0h-1.92V148h1.92Zm-3.84,0H485.4V148h1.91Zm-3.83,0h-1.92V148h1.92Zm-3.83,0h-1.92V148h1.92Zm-3.84,0h-1.92V148h1.92Zm-3.83,0h-1.92V148H472Z" style="fill:#00E77F"></path><polygon points="502.11 149.36 501.36 149.36 501.36 148.73 500.73 148.73 500.73 147.98 502.11 147.98 502.11 149.36" style="fill:#00E77F"></polygon><path d="M502.11,180h-.75v-1.91h.75Zm0-3.83h-.75v-1.92h.75Zm0-3.84h-.75v-1.91h.75Zm0-3.83h-.75v-1.92h.75Zm0-3.84h-.75v-1.91h.75Zm0-3.83h-.75v-1.92h.75Zm0-3.83h-.75v-1.92h.75Zm0-3.84h-.75v-1.92h.75Z" style="fill:#00E77F"></path><path d="M512.85,148.36c2.92,2.8,5.81,5.64,8.7,8.49l8.66,8.6,8.61,8.69,4.29,4.39,4.28,4.42L543,178.72l-4.34-4.26-8.66-8.6-8.61-8.7C518.56,154.25,515.69,151.32,512.85,148.36Z" style="fill:#dbdbdb"></path><path d="M547.39,148.36q-4.26,4.44-8.57,8.8l-8.61,8.7-8.65,8.6-4.35,4.26L512.85,183l4.28-4.42,4.29-4.39,8.61-8.69,8.66-8.6C541.58,154,544.47,151.16,547.39,148.36Z" style="fill:#dbdbdb"></path><polygon points="547.79 183.24 546.42 183.24 546.42 182.49 547.04 182.49 547.04 181.86 547.79 181.86 547.79 183.24" style="fill:#dbdbdb"></polygon><path d="M544.5,183.24h-1.92v-.75h1.92Zm-3.83,0h-1.92v-.75h1.92Zm-3.84,0h-1.92v-.75h1.92Zm-3.83,0h-1.92v-.75H533Zm-3.84,0h-1.91v-.75h1.91Zm-3.83,0h-1.92v-.75h1.92Zm-3.84,0h-1.91v-.75h1.91Zm-3.83,0h-1.92v-.75h1.92Z" style="fill:#dbdbdb"></path><polygon points="513.82 183.24 512.45 183.24 512.45 181.86 513.2 181.86 513.2 182.49 513.82 182.49 513.82 183.24" style="fill:#dbdbdb"></polygon><path d="M513.2,180h-.75V178h.75Zm0-3.84h-.75v-1.92h.75Zm0-3.83h-.75v-1.92h.75Zm0-3.84h-.75v-1.92h.75Zm0-3.83h-.75v-1.92h.75Zm0-3.84h-.75v-1.91h.75Zm0-3.83h-.75V155h.75Zm0-3.84h-.75v-1.91h.75Z" style="fill:#dbdbdb"></path><polygon points="513.2 149.27 512.45 149.27 512.45 147.9 513.82 147.9 513.82 148.65 513.2 148.65 513.2 149.27" style="fill:#dbdbdb"></polygon><path d="M544.5,148.64h-1.92v-.75h1.92Zm-3.83,0h-1.92v-.75h1.92Zm-3.84,0h-1.92v-.75h1.92Zm-3.83,0h-1.92v-.75H533Zm-3.84,0h-1.92v-.75h1.92Zm-3.83,0h-1.92v-.75h1.92Zm-3.84,0h-1.91v-.75h1.91Zm-3.83,0h-1.92v-.75h1.92Z" style="fill:#dbdbdb"></path><polygon points="547.79 149.27 547.04 149.27 547.04 148.65 546.42 148.65 546.42 147.9 547.79 147.9 547.79 149.27" style="fill:#dbdbdb"></polygon><path d="M547.79,180H547V178h.75Zm0-3.84H547v-1.92h.75Zm0-3.83H547v-1.92h.75Zm0-3.84H547v-1.92h.75Zm0-3.83H547v-1.92h.75Zm0-3.84H547v-1.91h.75Zm0-3.83H547V155h.75Zm0-3.84H547v-1.91h.75Z" style="fill:#dbdbdb"></path><rect x="421.49" y="191.91" width="126.12" height="15.45" style="fill:#00E77F"></rect></g><g id="freepik--Gears--inject-84"><path d="M631.65,105A11.31,11.31,0,1,0,639,119.19,11.31,11.31,0,0,0,631.65,105Zm6.06,13.77a9.92,9.92,0,1,1-6.48-12.45A9.92,9.92,0,0,1,637.71,118.78ZM631.65,105A11.31,11.31,0,1,0,639,119.19,11.31,11.31,0,0,0,631.65,105Zm6.06,13.77a9.92,9.92,0,1,1-6.48-12.45A9.92,9.92,0,0,1,637.71,118.78ZM631.65,105A11.31,11.31,0,1,0,639,119.19,11.31,11.31,0,0,0,631.65,105Zm6.06,13.77a9.92,9.92,0,1,1-6.48-12.45A9.92,9.92,0,0,1,637.71,118.78Zm-2.3-25.71A23.83,23.83,0,1,0,651,123,23.83,23.83,0,0,0,635.41,93.07Zm5.29,26.65a13.06,13.06,0,1,1-8.52-16.38A13.08,13.08,0,0,1,640.7,119.72Zm-1.68-.53a11.3,11.3,0,1,0-14.17,7.39A11.3,11.3,0,0,0,639,119.19Zm-1.31-.41a9.92,9.92,0,1,1-6.48-12.45A9.92,9.92,0,0,1,637.71,118.78ZM631.65,105A11.31,11.31,0,1,0,639,119.19,11.31,11.31,0,0,0,631.65,105Zm6.06,13.77a9.92,9.92,0,1,1-6.48-12.45A9.92,9.92,0,0,1,637.71,118.78ZM631.65,105A11.31,11.31,0,1,0,639,119.19,11.31,11.31,0,0,0,631.65,105Zm6.06,13.77a9.92,9.92,0,1,1-6.48-12.45A9.92,9.92,0,0,1,637.71,118.78Z" style="fill:#00E77F"></path><polygon points="625.75 138.95 617.01 136.2 615.55 142.54 623.32 144.99 625.75 138.95" style="fill:#00E77F"></polygon><polygon points="610.04 130.77 605.81 122.64 600.29 126.09 604.06 133.31 610.04 130.77" style="fill:#00E77F"></polygon><polygon points="604.73 113.88 607.48 105.14 601.14 103.67 598.69 111.44 604.73 113.88" style="fill:#00E77F"></polygon><polygon points="612.91 98.17 621.04 93.94 617.59 88.42 610.37 92.19 612.91 98.17" style="fill:#00E77F"></polygon><polygon points="629.81 92.85 638.54 95.61 640.01 89.27 632.24 86.82 629.81 92.85" style="fill:#00E77F"></polygon><polygon points="645.51 101.04 649.74 109.16 655.26 105.72 651.5 98.49 645.51 101.04" style="fill:#00E77F"></polygon><polygon points="650.83 117.93 648.07 126.67 654.41 128.14 656.86 120.36 650.83 117.93" style="fill:#00E77F"></polygon><polygon points="642.64 133.64 634.52 137.87 637.96 143.39 645.19 139.62 642.64 133.64" style="fill:#00E77F"></polygon><path d="M529,61.42a7.25,7.25,0,1,0,4.73,9.09A7.25,7.25,0,0,0,529,61.42Zm3.89,8.83a6.36,6.36,0,1,1-4.15-8A6.37,6.37,0,0,1,532.89,70.25ZM529,61.42a7.25,7.25,0,1,0,4.73,9.09A7.25,7.25,0,0,0,529,61.42Zm3.89,8.83a6.36,6.36,0,1,1-4.15-8A6.37,6.37,0,0,1,532.89,70.25ZM529,61.42a7.25,7.25,0,1,0,4.73,9.09A7.25,7.25,0,0,0,529,61.42Zm3.89,8.83a6.36,6.36,0,1,1-4.15-8A6.37,6.37,0,0,1,532.89,70.25Zm-1.47-16.49a15.28,15.28,0,1,0,10,19.16A15.3,15.3,0,0,0,531.42,53.76Zm3.39,17.09a8.37,8.37,0,1,1-5.47-10.5A8.38,8.38,0,0,1,534.81,70.85Zm-1.08-.34a7.24,7.24,0,1,0-9.08,4.74A7.24,7.24,0,0,0,533.73,70.51Zm-.84-.26a6.36,6.36,0,1,1-4.15-8A6.37,6.37,0,0,1,532.89,70.25ZM529,61.42a7.25,7.25,0,1,0,4.73,9.09A7.25,7.25,0,0,0,529,61.42Zm3.89,8.83a6.36,6.36,0,1,1-4.15-8A6.37,6.37,0,0,1,532.89,70.25ZM529,61.42a7.25,7.25,0,1,0,4.73,9.09A7.25,7.25,0,0,0,529,61.42Zm3.89,8.83a6.36,6.36,0,1,1-4.15-8A6.37,6.37,0,0,1,532.89,70.25Z" style="fill:#00E77F"></path><polygon points="525.22 83.18 519.62 81.42 518.68 85.48 523.66 87.05 525.22 83.18" style="fill:#00E77F"></polygon><polygon points="515.16 77.94 512.44 72.72 508.9 74.93 511.32 79.57 515.16 77.94" style="fill:#00E77F"></polygon><polygon points="511.75 67.11 513.51 61.5 509.45 60.56 507.88 65.55 511.75 67.11" style="fill:#00E77F"></polygon><polygon points="516.99 57.04 522.2 54.32 520 50.79 515.36 53.2 516.99 57.04" style="fill:#00E77F"></polygon><polygon points="527.82 53.63 533.43 55.39 534.37 51.33 529.38 49.76 527.82 53.63" style="fill:#00E77F"></polygon><polygon points="537.89 58.88 540.61 64.08 544.14 61.88 541.73 57.24 537.89 58.88" style="fill:#00E77F"></polygon><polygon points="541.3 69.7 539.54 75.31 543.6 76.25 545.17 71.26 541.3 69.7" style="fill:#00E77F"></polygon><polygon points="536.05 79.77 530.84 82.49 533.05 86.02 537.69 83.61 536.05 79.77" style="fill:#00E77F"></polygon><g style="opacity:0.6000000000000001"><path d="M529,61.42a7.25,7.25,0,1,0,4.73,9.09A7.25,7.25,0,0,0,529,61.42Zm3.89,8.83a6.36,6.36,0,1,1-4.15-8A6.37,6.37,0,0,1,532.89,70.25ZM529,61.42a7.25,7.25,0,1,0,4.73,9.09A7.25,7.25,0,0,0,529,61.42Zm3.89,8.83a6.36,6.36,0,1,1-4.15-8A6.37,6.37,0,0,1,532.89,70.25ZM529,61.42a7.25,7.25,0,1,0,4.73,9.09A7.25,7.25,0,0,0,529,61.42Zm3.89,8.83a6.36,6.36,0,1,1-4.15-8A6.37,6.37,0,0,1,532.89,70.25Zm-1.47-16.49a15.28,15.28,0,1,0,10,19.16A15.3,15.3,0,0,0,531.42,53.76Zm3.39,17.09a8.37,8.37,0,1,1-5.47-10.5A8.38,8.38,0,0,1,534.81,70.85Zm-1.08-.34a7.24,7.24,0,1,0-9.08,4.74A7.24,7.24,0,0,0,533.73,70.51Zm-.84-.26a6.36,6.36,0,1,1-4.15-8A6.37,6.37,0,0,1,532.89,70.25ZM529,61.42a7.25,7.25,0,1,0,4.73,9.09A7.25,7.25,0,0,0,529,61.42Zm3.89,8.83a6.36,6.36,0,1,1-4.15-8A6.37,6.37,0,0,1,532.89,70.25ZM529,61.42a7.25,7.25,0,1,0,4.73,9.09A7.25,7.25,0,0,0,529,61.42Zm3.89,8.83a6.36,6.36,0,1,1-4.15-8A6.37,6.37,0,0,1,532.89,70.25Z" style="fill:#fff"></path><polygon points="525.22 83.18 519.62 81.42 518.68 85.48 523.66 87.05 525.22 83.18" style="fill:#fff"></polygon><polygon points="515.16 77.94 512.44 72.72 508.9 74.93 511.32 79.57 515.16 77.94" style="fill:#fff"></polygon><polygon points="511.75 67.11 513.51 61.5 509.45 60.56 507.88 65.55 511.75 67.11" style="fill:#fff"></polygon><polygon points="516.99 57.04 522.2 54.32 520 50.79 515.36 53.2 516.99 57.04" style="fill:#fff"></polygon><polygon points="527.82 53.63 533.43 55.39 534.37 51.33 529.38 49.76 527.82 53.63" style="fill:#fff"></polygon><polygon points="537.89 58.88 540.61 64.08 544.14 61.88 541.73 57.24 537.89 58.88" style="fill:#fff"></polygon><polygon points="541.3 69.7 539.54 75.31 543.6 76.25 545.17 71.26 541.3 69.7" style="fill:#fff"></polygon><polygon points="536.05 79.77 530.84 82.49 533.05 86.02 537.69 83.61 536.05 79.77" style="fill:#fff"></polygon></g><path d="M612.7,77a29.85,29.85,0,1,0-36.06,21.94A29.85,29.85,0,0,0,612.7,77Zm-15.46-3.76A13.94,13.94,0,1,1,587,56.4,13.93,13.93,0,0,1,597.24,73.24Z" style="fill:#263238"></path><polygon points="582.5 99.09 571.35 96.38 570.05 104.42 579.97 106.84 582.5 99.09" style="fill:#263238"></polygon><polygon points="562.2 90.17 556.23 80.36 549.62 85.12 554.92 93.84 562.2 90.17" style="fill:#263238"></polygon><polygon points="554.15 69.49 556.87 58.34 548.82 57.03 546.4 66.95 554.15 69.49" style="fill:#263238"></polygon><polygon points="563.08 49.18 572.88 43.22 568.12 36.61 559.4 41.91 563.08 49.18" style="fill:#263238"></polygon><polygon points="583.75 41.13 594.9 43.85 596.21 35.81 586.29 33.39 583.75 41.13" style="fill:#263238"></polygon><polygon points="604.06 50.06 610.02 59.87 616.63 55.1 611.33 46.38 604.06 50.06" style="fill:#263238"></polygon><polygon points="612.11 70.74 609.39 81.89 617.43 83.19 619.85 73.28 612.11 70.74" style="fill:#263238"></polygon><polygon points="603.18 91.05 593.37 97.01 598.14 103.62 606.86 98.32 603.18 91.05" style="fill:#263238"></polygon><path d="M574.41,75.42l9,4.9L592.08,75l-.24-10.2-8.94-4.89-8.73,5.29ZM583.89,67A3.24,3.24,0,1,1,580,69.35,3.24,3.24,0,0,1,583.89,67Z" style="fill:#263238"></path></g><g id="freepik--character-2--inject-84"><path d="M560.52,201.71l5.89,1.1a18.27,18.27,0,0,0,3.65-10.55c0-.87,1.26,4.36-.66,11.11,6.22,1.17,14.68,2.74,22.08,4,.62-2.87,1.31-5.51,1.31-5.51a32.92,32.92,0,0,0,.3,5.8c1,.19,2,.35,3,.52A113.71,113.71,0,0,1,598.6,196a39.83,39.83,0,0,0,1.66,13c4.71.78,7.82,1.21,7.65,1-5.8-9.32.18-13.18-.67-20.71-1-9-8.25-11.59-7-18,1-5.24,3.23-14.69-3.09-17.81a13,13,0,0,0-13.48-4.92c-11.17,2.32-9.65,19.24-10.9,22.43-1.79,4.55-4.31,5.85-6.86,11s-.7,9.19-1,12.93S559.34,201.51,560.52,201.71Z" style="fill:#263238"></path><path d="M608.31,208.77a18.87,18.87,0,0,1-1.54-5,9.85,9.85,0,0,1,.83-4.95c.59-1.63,1.26-3.3,1.71-5.06a14,14,0,0,0,.36-5.51,12.16,12.16,0,0,0-2.08-5.14A32.26,32.26,0,0,0,604.1,179a20,20,0,0,1-3.18-4.07,9.66,9.66,0,0,1-1.12-5,9,9,0,0,0,.54,5.3,18.47,18.47,0,0,0,3,4.49,40.1,40.1,0,0,1,3.19,4.1,11.68,11.68,0,0,1,1.78,4.63,13.61,13.61,0,0,1-.31,5c-.37,1.67-1,3.31-1.47,5a18.6,18.6,0,0,0-.6,2.65,7.64,7.64,0,0,0,.16,2.78A15.23,15.23,0,0,0,608.31,208.77Z" style="fill:#263238"></path><path d="M576.76,153.5a26.82,26.82,0,0,0-2.45,6.06c-.62,2.09-1.13,4.21-1.61,6.32L572,169a15.77,15.77,0,0,1-1,3,17.37,17.37,0,0,1-3.75,5,25.71,25.71,0,0,0-2.18,2.54,15.61,15.61,0,0,0-1.68,2.95,22.11,22.11,0,0,0-1,3.22A13.49,13.49,0,0,0,562,189c0,1.13.15,2.22.25,3.28a17.66,17.66,0,0,1,0,3.17,6.66,6.66,0,0,1-3.47,5,6.75,6.75,0,0,0,4.13-4.91,16.22,16.22,0,0,0,.26-3.32c0-1.11-.11-2.18-.07-3.22a17.52,17.52,0,0,1,1.49-6.06,14.53,14.53,0,0,1,1.57-2.66,23,23,0,0,1,2.08-2.38c.74-.78,1.51-1.59,2.21-2.48a13.77,13.77,0,0,0,1.75-2.93,17.75,17.75,0,0,0,1-3.23c.23-1.08.43-2.15.62-3.21.39-2.14.75-4.27,1.2-6.38A31.43,31.43,0,0,1,576.76,153.5Z" style="fill:#263238"></path><path d="M542,452.5c2,.64,58.1-.09,60.22-1.48.82-.51,1.19-8.69,1.35-18.6v-.31c0-2,.07-4.14.07-6.27,0-.29,0-.59,0-.88.08-14.29-.15-29.12-.15-29.12l-37.55.38L567,425.06l.05,1.15.22,6,0,.61s-21.36,9.89-23.53,11.66S540,451.88,542,452.5Z" style="fill:#ffc4c0"></path><path d="M558.83,436.63c.15,0,.22-.08.23-.13Z" style="fill:#00E77F"></path><path d="M542,452.5c2,.63,58.09-.09,60.21-1.48.72-.45,1.1-7,1.29-15.37-10.29,2.15-50.14,10.21-51.23,6.8-.43-1.34,3-3.65,5.13-5-5.89,2.81-12.42,6-13.57,7C541.66,446.21,540,451.87,542,452.5Z" style="fill:#263238"></path><path d="M615,234.15s-8.42,94.85-9.8,102.09c-.32,1.65-.51,10.61-.64,22.14-.29,25.14-.12,70.48-.12,70.48H564.85s1.18-78.56,2.93-93,13-101.69,13-101.69Z" style="fill:#263238"></path><path d="M566.64,422c6.17-.13,4.4-.18,10.58-.24,3,0,22.87-.2,25.7.27a.06.06,0,0,1,0,.12c-2.83.47-22.68.3-25.7.27-6.18-.06-4.41-.11-10.58-.24A.09.09,0,0,1,566.64,422Z" style="fill:#37474f"></path><path d="M596.9,377.06q.08-8.61.13-17.22c0-5.56,0-11.12.3-16.68.53-11.24,2.81-22.29,4.44-33.41s3-22.29,4.2-33.46c1.37-12.54,2.59-25.09,3.88-37.63,0-.09.14-.09.13,0-1.86,22.4-3.94,44.79-7.05,67.06q-1.15,8.31-2.52,16.58c-.93,5.58-1.85,11.17-2.29,16.82s-.5,11.07-.55,16.61q-.09,8.61-.17,17.21c-.13,12.73-.25,32.34-.38,45.08a.19.19,0,0,1-.38,0C596.73,406.65,596.82,388.42,596.9,377.06Z" style="fill:#37474f"></path><path d="M623.33,234.15S606.56,329,605.18,336.24c-.32,1.65-.51,10.61-.64,22.14v0L585.67,234.15Z" style="fill:#37474f"></path><path d="M635.53,455.69c2.05-.32,51.8-26.32,53.06-28.51.5-.83-2.87-8.3-7.2-17.21l-.13-.28c-.89-1.83-18.66-31.79-18.66-31.79l-30.6,18,17,30.25.3.54s-14.59,18.47-15.73,21S633.49,456,635.53,455.69Z" style="fill:#ffc4c0"></path><path d="M635.54,455.69c2-.32,51.79-26.32,53.05-28.52.42-.7-2-6.26-5.37-13.4-7.13,5.39-41.56,31.25-44.08,28.56-.53-.57-.13-1.91.57-3.35a90.68,90.68,0,0,0-6.17,8.7C632.42,450.22,633.49,456,635.54,455.69Z" style="fill:#263238"></path><path d="M644.57,425l36.26-22.4s-42-60-42.15-65.35c-.29-7.93-4.09-40.64-7.28-67.13,0,0,6.05-14.34-5.28-36H580.69s3,20.62,8.26,33.69a60.5,60.5,0,0,1,10.1,4.61s4.52,59.05,4.69,66.42C604.07,353.4,644.57,425,644.57,425Z" style="fill:#263238"></path><path d="M642.35,416.64c5.23-3.29,3.69-2.42,8.95-5.64,2.58-1.58,19.53-11.92,22.19-13,.06,0,.12.07.07.11-2.18,1.85-19.31,11.9-21.92,13.42-5.33,3.12-3.83,2.17-9.2,5.23A.09.09,0,1,1,642.35,416.64Z" style="fill:#37474f"></path><path d="M587.23,266.91a75.09,75.09,0,0,1,11.82,5.51.13.13,0,0,1-.11.24c-4-1.71-8.05-3.35-11.93-5.28A.26.26,0,0,1,587.23,266.91Z" style="fill:#37474f"></path><path d="M592.79,260.33c-.39-2.37-.71-4.75-.91-7.15a65.43,65.43,0,0,1,.14-13.42.12.12,0,0,1,.23,0,124.47,124.47,0,0,0,1.08,18.51c.45,2.95,1.93,7.39-1.15,7.85s-5.17-7-5.56-9a67.87,67.87,0,0,1-.66-17.55c0-.14.25-.17.25,0a133.07,133.07,0,0,0,.67,13.31c.18,2,1.83,13.39,5.39,12.56.6-.14.9-.72,1-1.62a14.3,14.3,0,0,0-.48-3.48" style="fill:#37474f"></path><path d="M592.18,265.74a19.12,19.12,0,0,1,.8,2.35,5.3,5.3,0,0,1,.33,1.93c0,.12-.18.13-.25.05a6.88,6.88,0,0,1-.82-1.88c-.27-.73-.56-1.45-.81-2.18A.4.4,0,0,1,592.18,265.74Z" style="fill:#37474f"></path><path d="M620.78,237a42.61,42.61,0,0,1,3.58,7.42,46.71,46.71,0,0,1,2.2,8c.29,1.35.41,2.73.59,4.1s.21,2.76.15,4.14a43.91,43.91,0,0,1-.87,8.24v-.1q1.83,17.16,3.52,34.31t3.39,34.32l.11,1.08,0,.53a1.33,1.33,0,0,0,.08.47c.23.52.62,1.21,1,1.81.71,1.24,1.46,2.46,2.2,3.69l4.55,7.32,9.2,14.59L669,396c-6.4-9.55-12.79-19.11-19.06-28.76-3.14-4.82-6.29-9.63-9.37-14.49L636,345.42c-.75-1.23-1.51-2.46-2.23-3.71a17.65,17.65,0,0,1-1-2,2.2,2.2,0,0,1-.12-.59l-.05-.53-.11-1.08q-1.75-17.16-3.38-34.34t-3.25-34.36v-.1a43.48,43.48,0,0,0,1-8.12c.08-1.36,0-2.73-.08-4.09s-.23-2.73-.49-4.07a45.73,45.73,0,0,0-2-8A41.39,41.39,0,0,0,620.78,237Z" style="fill:#37474f"></path><path d="M588.37,194.72c-1.58,7.47-9.58,32.75-17.48,38.44-5.66,4.09-25.1,7.87-40.07,7.69-5.19-.06-1.82-22.1,3.07-24.8,2.93-1.63,24.79-.48,28.18-1.83,2.54-1,8.41-13.49,19-24.74C586.86,183.32,590.5,184.68,588.37,194.72Z" style="fill:#ffc4c0"></path><path d="M532.14,240.86c-3,0-19.72-.09-23.42-1.29s-14.12-5.43-13.49-8.36,3.78-1.93,3.78-1.93-4.12-2.49-3.21-5.38,5.75-1.18,5.75-1.18-4-2.86-2.93-5.68,5.69-.29,5.69-.29-3.81-2.44-1.92-4.38c2.27-2.33,8.8,3,13,4,1,.23,19.62,3.31,19.62,3.31Z" style="fill:#ffc4c0"></path><path d="M503.91,216.54c4.81,3.88,7.59,4.75,13.63,5.45.11,0,.12.19,0,.19-6-.15-9.62-.73-13.83-5.41C503.51,216.54,503.68,216.36,503.91,216.54Z" style="fill:#263238"></path><path d="M501.17,222.4c5.35,3.6,8.35,4.56,14.62,5.76.09,0,.07.17,0,.16-6.25-.66-9.87-1.33-14.74-5.62C500.81,222.51,500.93,222.24,501.17,222.4Z" style="fill:#263238"></path><path d="M499.33,229.33c5.43,3.1,8.67,4.3,14.91,4.69a.12.12,0,0,1,0,.23c-6.4.22-10.46-1.24-15-4.75C498.94,229.26,499,229.13,499.33,229.33Z" style="fill:#263238"></path><path d="M539.67,217.89s-6.41-5.48-9.62-6.84-17-2-17.33.94c-.41,3.84,7.49,5.8,11.48,6.25,0,0-1,8.89,4.42,11.52S539.67,217.89,539.67,217.89Z" style="fill:#ffc4c0"></path><path d="M513,213.08c2.16,3.77,7.44,4,11.28,4.76a.35.35,0,0,1,.26.52c-.15,3.75.73,9.09,3.89,11.48a.09.09,0,1,1-.09.15c-3.74-2.1-5-7.27-4.61-11.37-3.95-.69-9.23-1.18-10.77-5.52C512.9,213.07,512.94,213.05,513,213.08Z" style="fill:#263238"></path><path d="M574.61,234.45,565,209.66a233.53,233.53,0,0,1,15.41-20.84c8-9.41,12.52-9.24,9.2,5.83S580.64,227.44,574.61,234.45Z" style="fill:#00E77F"></path><path d="M574.61,234.45,565,209.66a233.53,233.53,0,0,1,15.41-20.84c8-9.41,12.52-9.24,9.2,5.83S580.64,227.44,574.61,234.45Z" style="fill:#00E77F"></path><path d="M587.32,182.68a1.31,1.31,0,0,1-1.3,1,1,1,0,0,1-.38-.07A8.29,8.29,0,0,1,587.32,182.68Zm-9.76,13a1.36,1.36,0,1,0,0,2.71,1.36,1.36,0,0,0,0-2.71Zm8.46,0a1.36,1.36,0,1,0,0,2.71,1.36,1.36,0,0,0,0-2.71Zm-4.23-7.23a1.36,1.36,0,1,0,0,2.71,1.36,1.36,0,0,0,0-2.71Zm8.46,0a1.36,1.36,0,0,0,0,2.71c.16-1,.27-1.86.33-2.66A.86.86,0,0,0,590.25,188.41ZM569.1,210.28a1.36,1.36,0,1,0,1.36,1.36A1.36,1.36,0,0,0,569.1,210.28Zm8.46,0a1.36,1.36,0,1,0,0,2.71,1.36,1.36,0,0,0,0-2.71Zm7.1,1.36a1.27,1.27,0,0,0,.2.69c.2-.63.4-1.27.59-1.92A1.34,1.34,0,0,0,584.66,211.64Zm-11.33-8.59a1.36,1.36,0,1,0,0,2.71,1.36,1.36,0,0,0,0-2.71Zm8.46,0a1.36,1.36,0,1,0,0,2.71,1.36,1.36,0,0,0,0-2.71Zm-4.23,21.87a1.36,1.36,0,1,0,1.35,1.36A1.36,1.36,0,0,0,577.56,224.92Zm-4.23-7.23a1.36,1.36,0,1,0,1.35,1.36A1.36,1.36,0,0,0,573.33,217.69Zm8.46,0a1.36,1.36,0,1,0,0,2.71,1.18,1.18,0,0,0,.27,0c.27-.7.54-1.42.8-2.14A1.32,1.32,0,0,0,581.79,217.69Zm-8,14.74.72,1.84a1.27,1.27,0,0,0,.14-.58A1.34,1.34,0,0,0,573.82,232.43Z" style="fill:#fff"></path><path d="M567.07,215.1l7.54,19.35c6-7,11.62-24.74,14.95-39.8,1.91-8.64,1.23-12.39-1.21-12.23Z" style="opacity:0.1"></path><path d="M568.08,208.61c1.52,3.36,2.92,6.74,4.2,10.2.65,1.73,1.27,3.48,1.87,5.23s1.09,3.6,1.66,5.4c0,.09-.11.13-.14,0-1.22-3.5-2.57-7-3.86-10.43s-2.57-6.93-3.85-10.39C567.94,208.59,568.05,208.54,568.08,208.61Z" style="fill:#263238"></path><path d="M578,237.2l50.24-.57s-15.8-43.32-28-53.17c-5.55-4.48-10.16-3-13.69.85-.88,1-11.05,18.41-11.33,24-.24,5,4.44,9.78,4.44,9.78Z" style="fill:#00E77F"></path><path d="M595.83,182.36a1.36,1.36,0,1,1-1.36-1.36A1.35,1.35,0,0,1,595.83,182.36ZM586,195.64a1.36,1.36,0,1,0,0,2.71,1.36,1.36,0,0,0,0-2.71Zm8.45,0a1.36,1.36,0,1,0,1.36,1.36A1.36,1.36,0,0,0,594.47,195.64Zm8.46,0a1.36,1.36,0,1,0,1.36,1.36A1.35,1.35,0,0,0,602.93,195.64Zm7.21.86a1.18,1.18,0,0,0-.1.5,1.34,1.34,0,0,0,1.14,1.33C610.84,197.71,610.49,197.1,610.14,196.5Zm-27.35-5.82a1.13,1.13,0,0,0,.27-.49C583,190.35,582.89,190.51,582.79,190.68Zm7.46-2.27a1.36,1.36,0,1,0,1.35,1.36A1.36,1.36,0,0,0,590.25,188.41Zm8.45,0a1.36,1.36,0,1,0,1.36,1.36A1.35,1.35,0,0,0,598.7,188.41Zm7.12,1.3a.13.13,0,0,0,0,.06,1.33,1.33,0,0,0,.94,1.28C606.44,190.59,606.13,190.14,605.82,189.71Zm-28.26,20.57a1.36,1.36,0,1,0,0,2.71,1.36,1.36,0,0,0,0-2.71Zm8.46,0a1.36,1.36,0,1,0,0,2.71,1.36,1.36,0,0,0,0-2.71Zm8.45,0a1.36,1.36,0,1,0,1.36,1.36A1.36,1.36,0,0,0,594.47,210.28Zm8.46,0a1.36,1.36,0,1,0,1.36,1.36A1.35,1.35,0,0,0,602.93,210.28Zm8.46,0a1.36,1.36,0,1,0,1.36,1.36A1.35,1.35,0,0,0,611.39,210.28Zm-29.6-7.23a1.36,1.36,0,1,0,0,2.71,1.36,1.36,0,0,0,0-2.71Zm8.46,0a1.36,1.36,0,1,0,1.35,1.36A1.36,1.36,0,0,0,590.25,203.05Zm8.45,0a1.36,1.36,0,1,0,1.36,1.36A1.35,1.35,0,0,0,598.7,203.05Zm8.46,0a1.36,1.36,0,1,0,1.36,1.36A1.35,1.35,0,0,0,607.16,203.05Zm7.13,1.13a.85.85,0,0,0,0,.23,1.31,1.31,0,0,0,.74,1.19ZM586,224.92a1.36,1.36,0,1,0,1.35,1.36A1.36,1.36,0,0,0,586,224.92Zm8.45,0a1.36,1.36,0,1,0,1.36,1.36A1.36,1.36,0,0,0,594.47,224.92Zm8.46,0a1.36,1.36,0,1,0,1.36,1.36A1.35,1.35,0,0,0,602.93,224.92Zm8.46,0a1.36,1.36,0,1,0,1.36,1.36A1.35,1.35,0,0,0,611.39,224.92Zm8.46,0a1.36,1.36,0,1,0,1.36,1.36A1.36,1.36,0,0,0,619.85,224.92Zm-38.06-7.23a1.36,1.36,0,1,0,1.35,1.36A1.36,1.36,0,0,0,581.79,217.69Zm8.46,0a1.36,1.36,0,1,0,1.35,1.36A1.36,1.36,0,0,0,590.25,217.69Zm8.45,0a1.36,1.36,0,1,0,1.36,1.36A1.35,1.35,0,0,0,598.7,217.69Zm8.46,0a1.36,1.36,0,1,0,1.36,1.36A1.35,1.35,0,0,0,607.16,217.69Zm8.46,0a1.36,1.36,0,1,0,1.36,1.36A1.36,1.36,0,0,0,615.62,217.69Zm-33.83,14.64a1.36,1.36,0,1,0,1.35,1.36A1.36,1.36,0,0,0,581.79,232.33Zm8.46,0a1.36,1.36,0,1,0,1.35,1.36A1.36,1.36,0,0,0,590.25,232.33Zm8.45,0a1.36,1.36,0,1,0,1.36,1.36A1.35,1.35,0,0,0,598.7,232.33Zm8.46,0a1.36,1.36,0,1,0,1.36,1.36A1.35,1.35,0,0,0,607.16,232.33Zm8.46,0a1.36,1.36,0,1,0,1.36,1.36A1.36,1.36,0,0,0,615.62,232.33Zm8.46,0a1.36,1.36,0,1,0,1.35,1.36A1.36,1.36,0,0,0,624.08,232.33Z" style="fill:#fff"></path><path d="M587.46,215.38a48.66,48.66,0,0,1,7.08,1.38c1.15.34,2.28.72,3.41,1.13.56.2,1.12.39,1.69.57a7.6,7.6,0,0,0,1.82.4c.06,0,0,.09,0,.09a15,15,0,0,1-1.77-.09,13.85,13.85,0,0,1-1.67-.37c-1.17-.33-2.32-.71-3.49-1-2.35-.69-4.71-1.37-7.1-1.88C587.31,215.55,587.35,215.36,587.46,215.38Z" style="fill:#263238"></path><path d="M581.47,217.32a53.84,53.84,0,0,1,6-.11c1,0,2,.15,3,.27q.71.09,1.41.21c.52.08,1,.23,1.54.3a0,0,0,0,1,0,.09c-.49-.06-1,0-1.48-.06l-1.48-.08-3-.16c-2-.13-3.95-.24-5.94-.3C581.36,217.48,581.37,217.33,581.47,217.32Z" style="fill:#263238"></path><path d="M595.73,182.73c-.08.93-3.51,7.47-7.67,7.9-1.36.14-2.45-7.23-2.45-7.23l-.21-.53-2.86-7.37,8.08-7.11,1.18-.95s.65,2.06,1.44,4.64c0,.12.07.24.11.37a4,4,0,0,1,.13.42q.19.58.36,1.17c.09.3.18.59.26.91s.17.63.26.94A51.53,51.53,0,0,1,595.73,182.73Z" style="fill:#ffc4c0"></path><path d="M593.24,172.08a15.84,15.84,0,0,1-7.84,10.79l-2.86-7.37,8.08-7.11,1.18-.95S592.45,169.5,593.24,172.08Z" style="fill:#263238"></path><path d="M571,161.87c-3.07,13.53,4.69,16.89,7.61,17.55,2.65.59,11.75,2.29,16.19-10.85S593.94,149.72,588,148,574.08,148.34,571,161.87Z" style="fill:#ffc4c0"></path><path d="M573.45,160c.33,0,.64,0,1,0a1.59,1.59,0,0,0,1-.2.5.5,0,0,0,.12-.59,1.25,1.25,0,0,0-1.13-.52,1.82,1.82,0,0,0-1.23.4A.52.52,0,0,0,573.45,160Z" style="fill:#263238"></path><path d="M582.78,161.83c-.31-.1-.58-.25-.88-.38a1.58,1.58,0,0,1-.82-.56.49.49,0,0,1,.12-.59,1.22,1.22,0,0,1,1.24,0,1.82,1.82,0,0,1,1,.85A.53.53,0,0,1,582.78,161.83Z" style="fill:#263238"></path><path d="M580,164.73s.06.06,0,.1c-.24.91-.36,2,.41,2.49,0,0,0,.06,0,.05C579.4,167,579.58,165.56,580,164.73Z" style="fill:#263238"></path><path d="M581,164c1.51.23,1,3.23-.45,3S579.73,163.76,581,164Z" style="fill:#263238"></path><path d="M581.55,164.22c.23.22.43.57.74.66s.69-.16,1-.42c0,0,.05,0,0,0-.1.57-.43,1.12-1.06,1.09s-.88-.61-.92-1.21C581.33,164.27,581.46,164.13,581.55,164.22Z" style="fill:#263238"></path><path d="M574.82,163.57s-.08,0-.08.07c-.14.93-.45,2-1.35,2.14a0,0,0,0,0,0,.05C574.44,165.87,574.84,164.48,574.82,163.57Z" style="fill:#263238"></path><path d="M574.17,162.45c-1.48-.38-2.13,2.6-.76,3S575.4,162.77,574.17,162.45Z" style="fill:#263238"></path><path d="M573.5,162.51c-.27.1-.56.34-.85.3s-.5-.43-.64-.78c0,0,0,0,0,0-.14.56-.08,1.2.44,1.43s1-.2,1.21-.74C573.66,162.64,573.61,162.47,573.5,162.51Z" style="fill:#263238"></path><path d="M578.63,172.37c-.25.19-.52.46-.86.44a2.57,2.57,0,0,1-1-.38s-.06,0,0,0a1.27,1.27,0,0,0,1.11.68,1,1,0,0,0,.86-.73S578.67,172.34,578.63,172.37Z" style="fill:#263238"></path><path d="M575.42,168.25s-.46,1.35-.59,2c0,.06.14.12.36.18h0a3.15,3.15,0,0,0,3.25-.56c0-.05,0-.14-.08-.11a4.76,4.76,0,0,1-3,.25c0-.19.88-2.28.78-2.3a5.45,5.45,0,0,0-1.55,0c.89-2.84,2.23-5.5,3.07-8.33a.09.09,0,0,0-.16-.08,47.82,47.82,0,0,0-3.69,8.83C573.7,168.53,575.14,168.31,575.42,168.25Z" style="fill:#263238"></path><path d="M594.42,168.5c-3.47-.48-3.36-11.27-3.34-12.6-.06.84-.39,5.25-.75,5.39a3.49,3.49,0,0,1-1.07-.32h0a10.39,10.39,0,0,0,0-1.59c0-.25-.15.52-.38,1.46l-.62-.25a13,13,0,0,0,0-3.38c-.06-.42-.37,1.43-.94,3a41.68,41.68,0,0,0-8.93-2.55,21.69,21.69,0,0,0-2.28-.23c.13-1.3.42-2.67.3-2.38a12.65,12.65,0,0,0-.8,2.36l-1,0c.1-1.85,1.28-4.68.94-4.27a12.91,12.91,0,0,0-2.25,4.34c-1.27.11-1.64.32-1.64,0a15.39,15.39,0,0,1,5.64-9c4.77-3.64,13.54-3.77,17.77,3.05,0,0,3.76,3,4,7.34S596.42,168.78,594.42,168.5Z" style="fill:#263238"></path><path d="M593.72,173.56a3.29,3.29,0,0,1-.66.08,1.9,1.9,0,0,1-.65-.08,1.85,1.85,0,0,1-.76-.36,2.26,2.26,0,0,1-.46-.47,2.6,2.6,0,0,1-.42-.84l1.26-3.57s3.59-3.88,5.39-2.55S596.12,173,593.72,173.56Z" style="fill:#ffc4c0"></path><path d="M596.49,167.44a0,0,0,0,1,0,.07,6,6,0,0,0-3.54,3.26,1.29,1.29,0,0,1,2-.09,0,0,0,0,1,0,.08,1.45,1.45,0,0,0-1.64.28,6.55,6.55,0,0,0-.93,1.17c-.1.14-.34,0-.27-.13l0,0C592.29,170,594.27,167.35,596.49,167.44Z" style="fill:#263238"></path><path d="M593.61,173a.65.65,0,1,1-.4-.81A.64.64,0,0,1,593.61,173Z" style="fill:#fff"></path><path d="M595.05,172.17a.46.46,0,0,1-.58.28.45.45,0,0,1-.28-.58.46.46,0,0,1,.58-.28A.47.47,0,0,1,595.05,172.17Z" style="fill:#fff"></path><rect x="503.73" y="199.96" width="125.9" height="57.62" transform="translate(132.14 -200.93) rotate(22.7)" style="fill:#fff"></rect><path d="M613.64,279.64l-116.23-48.4-.18-.07.07-.18,22.19-53.18.09-.23.23.09,116.11,48.68.12.06,0,.12Zm0,0,22.1-53.21.07.17L519.62,178.13,520,178l-22.28,53.14-.11-.26Z" style="fill:#263238"></path><path d="M530.26,209.36a9.83,9.83,0,0,1-3.06,0,9.76,9.76,0,1,1,3.06,0Z" style="fill:#ebebeb"></path><path d="M532,199.84a3,3,0,1,1-1.55-3.91A3,3,0,0,1,532,199.84Z" style="fill:#fff"></path><path d="M530.74,208.23l-.48,1.13a9.83,9.83,0,0,1-3.06,0,9.72,9.72,0,0,1-6.38-4l.48-1.12a5.14,5.14,0,1,1,9.44,4.08Z" style="fill:#fff"></path><rect x="509.27" y="230.39" width="111.82" height="3.93" transform="translate(133.41 -200.07) rotate(22.7)" style="fill:#ebebeb"></rect><rect x="505.93" y="238.37" width="111.82" height="3.93" transform="translate(136.23 -198.16) rotate(22.7)" style="fill:#ebebeb"></rect><rect x="502.59" y="246.35" width="111.82" height="3.93" transform="translate(139.05 -196.26) rotate(22.7)" style="fill:#ebebeb"></rect><rect x="542.87" y="209.83" width="61.85" height="5.29" transform="translate(126.41 -204.93) rotate(22.7)" style="fill:#ebebeb"></rect><rect x="540.69" y="211.9" width="30.64" height="5.29" transform="translate(125.83 -197.92) rotate(22.7)" style="fill:#dbdbdb"></rect><path d="M605.59,191.05c9.44,17.36,18.59,31.48,16.4,39.66-3.28,12.25-21.47,33.71-27.92,37.06-2.78,1.44-17.35-18.06-14.91-20.35,2.94-2.74,22-22.28,22.32-24.31.51-3.48-1.64-10.51-4-29.35C595.72,179.15,602,184.36,605.59,191.05Z" style="fill:#ffc4c0"></path><path d="M587.57,243.62a119.21,119.21,0,0,1-11.79-1.89c-3.4-.74-9.35-1.48-12.1-.87-4.11.9-20.73,7.3-19.26,11.36,1.32,3.68,14.9-3.63,14.9-3.63s-14.35,6.17-11.94,10.3S564,252.72,564,252.72s-14.6,6.67-11.44,10.54c2.39,2.92,15.81-5.68,15.81-5.68s-12.51,5.82-10.18,8.93c2.57,3.44,15.46-3.72,15.46-3.72,7.24,6.91,16.43,8.23,21.84,4.19C596.39,266.32,587.57,243.62,587.57,243.62Z" style="fill:#ffc4c0"></path><path d="M564.15,246.14c-1.71.66-3.45,1.32-5.1,2.13s-3.27,1.69-4.83,2.65a30.71,30.71,0,0,0-5.73,4.33,67.52,67.52,0,0,1,10.8-6.53c1.64-.81,3.25-1.71,4.89-2.52A0,0,0,1,0,564.15,246.14Z" style="fill:#263238"></path><path d="M567.19,252c-2.15.94-4.31,1.8-6.42,2.84s-4,2.19-6,3.37c-.16.09-.06.14.1.06,2.07-1.1,4.06-1.95,6.14-3s4.12-2.22,6.23-3.21C567.25,252.07,567.23,252,567.19,252Z" style="fill:#263238"></path><path d="M570.72,256.62a52.3,52.3,0,0,0-9.5,5.09c-.15.09,0,.15.15.06,3.12-1.75,5.56-3.15,9.39-5C570.82,256.71,570.79,256.59,570.72,256.62Z" style="fill:#263238"></path><path d="M624.74,230.44l-24.33-10.78A232.12,232.12,0,0,1,596.64,194c-1-12.31,2.37-15.38,10.63-2.35S624.07,221.21,624.74,230.44Z" style="fill:#00E77F"></path><path d="M604.29,197a1.36,1.36,0,1,1-1.36-1.36A1.35,1.35,0,0,1,604.29,197Zm5.89-.59a1.31,1.31,0,0,0-.14.59,1.33,1.33,0,0,0,1.3,1.34C611,197.69,610.58,197.05,610.18,196.41Zm-11.48-8a1.36,1.36,0,1,0,1.36,1.36A1.35,1.35,0,0,0,598.7,188.41Zm7.14,1.09a1.18,1.18,0,0,0,0,.27,1.33,1.33,0,0,0,1.08,1.32C606.54,190.53,606.18,190,605.84,189.5Zm-2.91,20.78a1.36,1.36,0,1,0,1.36,1.36A1.35,1.35,0,0,0,602.93,210.28Zm8.46,0a1.36,1.36,0,1,0,1.36,1.36A1.35,1.35,0,0,0,611.39,210.28Zm7.11,1.44a1.29,1.29,0,0,0,.43.91C618.78,212.33,618.64,212,618.5,211.72Zm-19.8-8.67a1.33,1.33,0,0,0-1,.48c.1.68.19,1.35.29,2a1.36,1.36,0,0,0,2.1-1.13A1.36,1.36,0,0,0,598.7,203.05Zm8.46,0a1.36,1.36,0,1,0,1.36,1.36A1.35,1.35,0,0,0,607.16,203.05Zm7.26.73a1.33,1.33,0,0,0,1.06,2Zm5.43,21.14a1.36,1.36,0,1,0,1.36,1.36A1.36,1.36,0,0,0,619.85,224.92Zm-12.69-7.23a1.36,1.36,0,1,0,1.36,1.36A1.35,1.35,0,0,0,607.16,217.69Zm8.46,0a1.36,1.36,0,1,0,1.36,1.36A1.36,1.36,0,0,0,615.62,217.69Z" style="fill:#fff"></path><path d="M596.64,201.64a12.53,12.53,0,0,1,.83,2.24l.23.77q-.26-2.15-.48-4.29c0-.1.13-.13.14,0,.53,3.24,2.93,18.43,3,19.22.07,0,1.3.64,1.35.64s0,.15-.06.12-1.76-.62-1.76-.63c-.29-.7-1.89-12.32-2.06-13.73a1.63,1.63,0,0,1-.09-.19c-.07-.2-.13-.4-.2-.61-.13-.37-.24-.75-.36-1.12a17.68,17.68,0,0,1-.65-2.37S596.62,201.59,596.64,201.64Z" style="fill:#263238"></path><path d="M601,216.9a24,24,0,0,1,2.86.95c1,.32,1.9.64,2.85,1,1.81.66,3.61,1.37,5.4,2.09a116.27,116.27,0,0,1,10.6,4.82c.07,0,0,.15-.06.12-3.68-1.41-7.28-3-10.93-4.48l-5.37-2.19c-.9-.36-1.79-.75-2.69-1.11a28.8,28.8,0,0,1-2.7-1.1S600.9,216.89,601,216.9Z" style="fill:#263238"></path></g><g id="freepik--character-1--inject-84"><polygon points="260.63 443.02 254.98 443.02 209.62 231.79 161.83 231.79 189.14 443.02 183.56 443.02 155.62 226.9 214.21 226.9 260.63 443.02" style="fill:#00E77F"></polygon><polygon points="260.63 443.02 254.98 443.02 209.62 231.79 161.83 231.79 189.14 443.02 183.56 443.02 155.62 226.9 214.21 226.9 260.63 443.02" style="opacity:0.4"></polygon><rect x="151.94" y="221.06" width="64.96" height="5.83" style="fill:#00E77F"></rect><rect x="151.94" y="221.06" width="64.96" height="5.83" style="opacity:0.2"></rect><polygon points="214.18 227.68 191.33 454.36 185.75 454.36 208.05 233.22 160.25 233.22 119.92 454.36 114.28 454.36 155.62 227.68 214.18 227.68" style="fill:#00E77F"></polygon><rect x="151.76" y="276.41" width="56.49" height="5.54" style="fill:#00E77F"></rect><rect x="142.8" y="321.36" width="56.49" height="5.54" style="fill:#00E77F"></rect><rect x="133.24" y="366.31" width="61.64" height="5.54" style="fill:#00E77F"></rect><rect x="125.89" y="411.26" width="65.6" height="5.54" style="fill:#00E77F"></rect><g style="opacity:0.2"><polygon points="214.18 227.68 191.33 454.36 185.75 454.36 208.05 233.22 160.25 233.22 119.92 454.36 114.28 454.36 155.62 227.68 214.18 227.68"></polygon><rect x="151.76" y="276.41" width="56.49" height="5.54"></rect><rect x="142.8" y="321.36" width="56.49" height="5.54"></rect><rect x="133.24" y="366.31" width="61.64" height="5.54"></rect><rect x="125.89" y="411.26" width="65.6" height="5.54"></rect></g><path d="M131.83,301.19S112.32,337.93,112.31,338c-1.14,6.94-2,13.05-2.17,16.25,0,0,0,0,0,.05a4.92,4.92,0,0,0,.16,2.23l0,.05c1.84,1.74,57.06,12.46,59.11,12.19s1.43-6.15-.38-8.27-21.13-15.69-21.13-15.69L167.1,308Z" style="fill:#f7a9a0"></path><path d="M116,330.62,112.31,338c-1.14,6.94-2,13.05-2.17,16.25,0,0,0,0,0,.05a9.35,9.35,0,0,0,.16,2.23l0,.05c1.84,1.74,57.06,12.46,59.11,12.19s1.43-6.15-.38-8.27-21.13-15.69-21.13-15.69l3.76-7.43Z" style="fill:#fff"></path><path d="M151.33,345.36c-3.59-1.23-8.19-1.32-11.4.9-.12.09,0,.26.13.24a52.37,52.37,0,0,1,11.19-.68A.24.24,0,0,0,151.33,345.36Z" style="fill:#263238"></path><path d="M153.76,347.35c-3.59-1.23-8.19-1.32-11.39.9-.13.09,0,.27.12.24a53,53,0,0,1,11.19-.67A.24.24,0,0,0,153.76,347.35Z" style="fill:#263238"></path><path d="M156.19,349.35c-3.59-1.23-8.19-1.32-11.39.9-.13.08,0,.26.12.24a52.37,52.37,0,0,1,11.19-.68A.24.24,0,0,0,156.19,349.35Z" style="fill:#263238"></path><path d="M169.44,368.73c-2.06.27-57.27-10.45-59.11-12.19-.71-.65.38-8.79,2-18.58l.06-.31,35.7,6.52-.14.6s19.3,13.56,21.13,15.69S171.49,368.46,169.44,368.73Z" style="fill:#37474f"></path><path d="M112.36,337.64l0,.32c-1.6,9.79-2.7,17.93-2,18.58S123.07,360,136,362.62c15.45,3.15,32.33,6.26,33.45,6.11,2.05-.27,1.42-6.15-.38-8.27s-21.12-15.69-21.12-15.69l.13-.6L136.16,342Z" style="fill:#00E77F"></path><path d="M169.23,366.46c-9.26-2-46.82-9.37-56.13-10.68-.07,0-.08,0,0,.06,9.14,2.22,46.75,9.25,56.11,10.78C169.4,366.65,169.42,366.51,169.23,366.46Z" style="fill:#263238"></path><path d="M136.16,342c-.12,6.14-.27,15.19-.17,20.62,15.45,3.15,32.33,6.26,33.45,6.11,2.05-.27,1.42-6.15-.38-8.27s-21.12-15.69-21.12-15.69l.13-.6Z" style="opacity:0.1"></path><path d="M110.07,334.2l41.35,5.43s50.25-76.18,45.88-99.23c-2.4-12.69-45.54-32.61-45.54-32.61L147.4,199H117s-12.4,18.28-3.49,35.45c6,11.67,39.3,20.58,40.52,24.33C155.61,263.74,110.07,334.2,110.07,334.2Z" style="fill:#455a64"></path><path d="M118,326.92a32.11,32.11,0,0,1,3.25.13c1.21.06,2.41.12,3.61.21q3.47.27,6.91.68c4.64.54,9.28,1.14,13.9,1.84,2.63.4,5.25.82,7.87,1.29a.09.09,0,0,1,0,.17c-4.62-.39-9.23-.87-13.84-1.34s-9.22-.93-13.8-1.57c-1.31-.18-2.63-.35-3.94-.59s-2.66-.32-3.93-.66C117.91,327.06,117.89,326.93,118,326.92Z" style="fill:#263238"></path><path d="M150.76,324.13c3.61-5.52,7.11-11.12,10.55-16.76s6.83-11.3,10.07-17,6.42-11.53,9.33-17.45c1.46-2.95,2.86-5.94,4.13-9a79.29,79.29,0,0,0,3.36-9.25c.87-3.12,1.67-6.4,1-9.51a13.56,13.56,0,0,0-1.85-4.39,22.07,22.07,0,0,0-1.39-2c-.52-.61-1-1.24-1.61-1.82-4.56-4.68-10.25-8.15-16-11.37s-11.77-5.94-17.75-8.73c-1.5-.71-3-1.42-4.46-2.17-.74-.39-1.47-.78-2.18-1.21a4.9,4.9,0,0,1-1.86-1.67,23.33,23.33,0,0,1-2.66-9.5,23.23,23.23,0,0,0,2.87,9.37,4.62,4.62,0,0,0,1.81,1.54c.71.4,1.44.78,2.18,1.14,1.49.71,3,1.38,4.5,2.06,6,2.69,12.07,5.38,17.92,8.5a91.82,91.82,0,0,1,8.53,5.09,49.74,49.74,0,0,1,7.73,6.32c.59.59,1.13,1.24,1.67,1.88a19.67,19.67,0,0,1,1.46,2.06,13.46,13.46,0,0,1,2.1,9.77c-.16.82-.27,1.66-.46,2.47s-.38,1.63-.63,2.43a79.59,79.59,0,0,1-3.44,9.34c-1.3,3.06-2.72,6.05-4.19,9-3,5.91-6.14,11.72-9.48,17.42s-6.79,11.34-10.33,16.92S154.51,318.7,150.76,324.13Z" style="fill:#263238"></path><path d="M153.21,355.66s.31,36.79.31,36.81c0,7,.17,13.21.54,16.39a.07.07,0,0,0,0,.05,4.81,4.81,0,0,0,.53,2.17.1.1,0,0,0,0,.05c2.1,1.41,58.33,2.87,60.31,2.26s.39-6.29-1.74-8.09-23.43-12-23.43-12l-.66-36.77Z" style="fill:#f7a9a0"></path><path d="M153.46,384.92s.06,7.53.06,7.55c0,7,.17,13.21.54,16.39a.07.07,0,0,0,0,.05,9.47,9.47,0,0,0,.53,2.17.1.1,0,0,0,0,.05c2.1,1.41,58.33,2.87,60.31,2.26s.39-6.29-1.74-8.09-23.43-12-23.43-12l0-7.66Z" style="fill:#fff"></path><path d="M193.23,393.33c-3.75-.61-8.3.06-11.09,2.77-.11.11,0,.26.16.22a53.09,53.09,0,0,1,10.92-2.52A.24.24,0,0,0,193.23,393.33Z" style="fill:#263238"></path><path d="M196,394.9c-3.74-.62-8.29.05-11.08,2.77-.11.1,0,.26.16.22A52.16,52.16,0,0,1,196,395.37.24.24,0,0,0,196,394.9Z" style="fill:#263238"></path><path d="M198.68,396.46c-3.74-.61-8.29.06-11.09,2.78-.11.1,0,.25.17.21a52.14,52.14,0,0,1,10.92-2.51A.24.24,0,0,0,198.68,396.46Z" style="fill:#263238"></path><path d="M215,413.39c-2,.61-58.21-.85-60.31-2.26-.81-.53-1.08-8.73-1.11-18.66v-.31l36.28.54,0,.62s21.28,10.18,23.43,12S216.93,412.79,215,413.39Z" style="fill:#00E77F"></path><path d="M214.37,411.2c-9.47-.48-47.72-1.52-57.12-1.27-.08,0-.08.05,0,.06,9.37.68,47.63,1.4,57.11,1.36C214.56,411.35,214.57,411.21,214.37,411.2Z" style="fill:#263238"></path><path d="M134.62,238s16.7,52.61,17,62.28c.25,8.25-.8,92.84-.8,92.84l42.26.25s-3.57-86.27-4.23-94.86c-1.24-16.06-15.31-60.16-25.37-99.45H117.92s.39,20.57,9.75,35.45C127.67,234.47,131.91,236.44,134.62,238Z" style="fill:#455a64"></path><path d="M153.06,385.29c4.89-.14,9.95-.28,14.83-.16s9.7.19,14.53.48c2.75.16,5.48.26,8.22.53a.07.07,0,0,1,0,.14c-4.88.29-9.78.23-14.66.19s-9.69-.1-14.54-.32c-2.74-.13-5.48-.27-8.22-.46C152.93,385.67,152.77,385.3,153.06,385.29Z" style="fill:#263238"></path><path d="M162.31,223.81c1.5,5,2.77,10.13,4.12,15.2s2.71,10.22,4.06,15.34c2.6,9.9,5.18,19.81,7.13,29.86a179.81,179.81,0,0,1,3.38,30.6c.22,10.48,0,21-.07,31.44s-.16,21.07-.34,31.6c0,1.31-.05,2.62-.1,3.93a.1.1,0,0,1-.19,0c-.28-10.48-.13-21-.1-31.46s.17-21,.08-31.44a187.73,187.73,0,0,0-2.68-31c-1.77-10.08-4.25-20-6.83-29.92q-2.21-8.48-4.42-17c-1.47-5.68-3-11.36-4.35-17.09A.16.16,0,0,1,162.31,223.81Z" style="fill:#263238"></path><path d="M145.07,239a37.68,37.68,0,0,1-6.27-.57,60.82,60.82,0,0,1-6.08-1.69,47.75,47.75,0,0,0-6-1,21.33,21.33,0,0,1-5.85-1.74c-.08,0-.15.08-.07.13a37,37,0,0,0,5.6,2.43c2,.63,4.1.71,6.13,1.21a51.59,51.59,0,0,0,6.26,1.44,22.71,22.71,0,0,0,6.27-.1C145.18,239.1,145.15,239,145.07,239Z" style="fill:#263238"></path><path d="M151.76,339.11l-.07-13c0-4.32-.05-8.64-.12-12.95s-.13-8.64-.43-12.93a37.93,37.93,0,0,0-1-6.31c-.46-2.1-1-4.19-1.55-6.28-2.14-8.35-4.53-16.66-6.88-25l-7.07-24.93c1.37,4.1,2.67,8.22,4,12.33l3.82,12.39q3.76,12.4,7.1,24.93c.52,2.11,1.07,4.2,1.52,6.32a38.8,38.8,0,0,1,1,6.46c.25,4.34.31,8.66.29,13Q152.3,326.15,151.76,339.11Z" style="fill:#263238"></path><path d="M185.46,280.36c-1.57-5.46-3.05-10.95-4.53-16.43l-4.37-16.46L172.26,231c-.71-2.75-1.45-5.48-2.2-8.22s-1.46-5.49-2.46-8.14a147.24,147.24,0,0,1,5.4,16.16c1.59,5.45,3.05,10.94,4.53,16.43s2.82,11,4.14,16.52S184.29,274.8,185.46,280.36Z" style="fill:#263238"></path><path d="M165.86,144.79c.89,13,6.31,38.83,10.13,42.85,3.18,3.35,20,16.28,29.93,20.54,3.7,1.6,10.76-21.17,6.94-23.34-2.61-1.47-19.64-6.12-21.25-7.84-3-3.17-11.23-24-17.69-34C170.32,137.35,165.31,136.73,165.86,144.79Z" style="fill:#f7a9a0"></path><path d="M201.67,206.07c2.42,1.38,16,8.07,19.54,8.83s14,2.21,14.88-.47-2.17-3.34-2.17-3.34,4.51-.09,5.13-2.86-4.11-3.66-4.11-3.66,4.62-.43,5-3.24-4.49-2.9-4.49-2.9,4.24-.2,3.62-2.66c-.76-3-8.54-1.72-12.42-2.86-.88-.26-17.5-6.51-17.5-6.51Z" style="fill:#f7a9a0"></path><path d="M235.91,198.44c-5.73.9-8.39.3-13.62-2-.11,0-.2.1-.09.16,4.93,2.68,8.15,3.91,13.77,2.08C236.24,198.63,236.18,198.4,235.91,198.44Z" style="fill:#263238"></path><path d="M235.39,204.49c-6,.41-8.92-.21-14.58-2.18-.08,0-.14.11-.06.14,5.39,2.4,8.64,3.55,14.61,2.35C235.63,204.74,235.67,204.47,235.39,204.49Z" style="fill:#263238"></path><path d="M233.64,211c-5.87,0-9.06-.57-14.32-3.18a.11.11,0,0,0-.1.19c5.09,3.18,9.08,3.89,14.4,3.17C234,211.11,234,211,233.64,211Z" style="fill:#263238"></path><path d="M207.45,183.35s6.86-2.39,10.11-2.77,15.86,2.65,15.36,5.41c-.65,3.56-8.27,3.25-12,2.61,0,0-1.48,8.25-7,9.21S207.45,183.35,207.45,183.35Z" style="fill:#f7a9a0"></path><path d="M232.42,186.91c-2.93,2.83-7.76,1.67-11.41,1.32a.33.33,0,0,0-.37.4c-.86,3.42-3,8-6.53,9.31a.08.08,0,0,0,0,.16c3.92-.91,6.44-5.22,7.14-9,3.74.42,8.62,1.36,11.15-2.14C232.46,186.92,232.44,186.89,232.42,186.91Z" style="fill:#263238"></path><path d="M208.5,179.06l-11,26.22s-19.54-11-22.4-17-10-34-9.95-43.34,4.94-8.32,9.41-1.67,18,29.69,18.46,30.08S208.5,179.06,208.5,179.06Z" style="fill:#00E77F"></path><path d="M198.34,189.89c.88-1.9,1.72-3.82,2.56-5.74.4-.92.81-1.84,1.18-2.77s.9-2,1.22-3a.06.06,0,0,0-.1-.05c-.57.92-1,1.94-1.52,2.9s-.9,1.79-1.34,2.7c-.92,1.88-1.84,3.76-2.72,5.66-1.75,3.81-3.39,7.65-5,11.53a.08.08,0,1,0,.14.07C194.7,197.42,196.57,193.69,198.34,189.89Z" style="fill:#263238"></path><path d="M184.53,197.09c-4.29-3-8.29-6.34-9.47-8.79-2.87-6-10-34-9.95-43.34,0-4.58,1.22-6.66,2.94-6.83C170.19,145.05,180,179.33,184.53,197.09Z" style="opacity:0.1"></path><path d="M167.49,145.76c-2.88.13-8-4.21-9.22-8.53a63.33,63.33,0,0,1,2.06-6.28c.66-2,1.35-4.27,1.84-6.37.09-.44,12.46,6.23,12.46,6.23a34.57,34.57,0,0,0-3.13,7.79,5.72,5.72,0,0,0-.11.88.76.76,0,0,1,0,.15C171.27,141.33,170.57,145.62,167.49,145.76Z" style="fill:#f7a9a0"></path><path d="M171.4,139.48c0,.05,0,.1,0,.15a9.42,9.42,0,0,1-1.37-.24c-7.73-1.95-7.55-12.15-7.38-14.7,2.27.87,12,6.12,12,6.12a34.57,34.57,0,0,0-3.13,7.79A4.66,4.66,0,0,0,171.4,139.48Z" style="fill:#263238"></path><path d="M159.88,110.67c-1,4.91,2.73,18.5,6.41,21.28,5.33,4,13.44,3.73,16.7-2.54,3.17-6.07-2-23.7-6.09-26.16C170.93,99.63,161.41,103.41,159.88,110.67Z" style="fill:#f7a9a0"></path><path d="M174.1,117.73s-.06.07,0,.1c.28.91.44,2-.3,2.53a0,0,0,0,0,0,0C174.74,120,174.51,118.55,174.1,117.73Z" style="fill:#263238"></path><path d="M173,117c-1.5.29-.82,3.28.58,3S174.28,116.76,173,117Z" style="fill:#263238"></path><path d="M179.49,116.65s.09,0,.09.07c.19.93.55,2,1.46,2.08,0,0,0,0,0,.06C180,119,179.52,117.57,179.49,116.65Z" style="fill:#263238"></path><path d="M180.1,115.5c1.46-.46,2.26,2.5.91,2.92S178.87,115.88,180.1,115.5Z" style="fill:#263238"></path><path d="M171.53,115.9a11.79,11.79,0,0,0,1.06-.67c.41-.26.76-.43,1-.89a.67.67,0,0,0-.28-.75,1.62,1.62,0,0,0-1.62.21,2.35,2.35,0,0,0-1.1,1.3A.69.69,0,0,0,171.53,115.9Z" style="fill:#263238"></path><path d="M180.91,113.73c-.43,0-.83,0-1.26,0a2,2,0,0,1-1.28-.28.65.65,0,0,1-.14-.78,1.6,1.6,0,0,1,1.49-.65,2.35,2.35,0,0,1,1.61.56A.69.69,0,0,1,180.91,113.73Z" style="fill:#263238"></path><path d="M175.22,126.52c.27.17.56.42.9.37a2.38,2.38,0,0,0,.94-.47s.07,0,.06,0a1.31,1.31,0,0,1-1.06.78,1,1,0,0,1-.92-.66S175.18,126.5,175.22,126.52Z" style="fill:#263238"></path><path d="M175.55,123.53a3.27,3.27,0,0,0,2.43.92,4.49,4.49,0,0,0,1.15-.21l.21-.08a1,1,0,0,0,.19-.08.22.22,0,0,0,.14-.25h0a.94.94,0,0,0,0-.09h0l0-.08c-.15-.72-.47-1.79-.47-1.79.29.07,1.76.37,1.65,0a48.59,48.59,0,0,0-3.41-9.26.09.09,0,0,0-.17.06c.75,3,2,5.76,2.8,8.72a6,6,0,0,0-1.6-.11c-.09,0,.66,2,.7,2.38v0a4.52,4.52,0,0,1-3.5-.27C175.54,123.39,175.48,123.47,175.55,123.53Z" style="fill:#263238"></path><path d="M178.62,124a3.8,3.8,0,0,1-1.23,1.51,1.79,1.79,0,0,1-1,.3c-.79,0-1-.7-1-1.31a4,4,0,0,1,.13-1A5,5,0,0,0,178.62,124Z" style="fill:#263238"></path><path d="M177.39,125.48a1.79,1.79,0,0,1-1,.3c-.79,0-1-.7-1-1.31A1.76,1.76,0,0,1,177.39,125.48Z" style="fill:#ff99ba"></path><path d="M162,123.82s-5.91-7.78-5.94-12.64c0-2.19,2.79-4,2.79-4a4.92,4.92,0,0,1,1-5.1c2.31-2.68,8.58-2.8,8.58-2.8s3.42-6.24,9.37-4.53,2.91,8.56,2.91,8.56,2.4,2.75-2.47,5.61-15.14,1.63-15.14,1.63a35.57,35.57,0,0,1,.95,10.55A3.26,3.26,0,0,1,162,123.82Z" style="fill:#263238"></path><path d="M169.48,99.3a9.91,9.91,0,0,0-4.09-.31,10.61,10.61,0,0,0-3.55.94,6,6,0,0,0-3.75,4.94,4.19,4.19,0,0,0,1.13,3.08s.08,0,0-.06c-1.49-1.49-1.06-4.1.16-5.61a9.08,9.08,0,0,1,5.78-2.86,17.77,17.77,0,0,1,4.25,0A.06.06,0,0,0,169.48,99.3Z" style="fill:#263238"></path><path d="M182.21,97.11a4.88,4.88,0,0,0-3.7-2.76,8.42,8.42,0,0,0-5.38.76,10.53,10.53,0,0,0-4.07,3.74s0,.07.06,0a9.27,9.27,0,0,1,8.47-4.2,5.09,5.09,0,0,1,3.91,2.11,5,5,0,0,1,.32,4.25,9.41,9.41,0,0,1-3.28,4.06s0,.07,0,.05a9.77,9.77,0,0,0,3.32-3.5A5.47,5.47,0,0,0,182.21,97.11Z" style="fill:#263238"></path><path d="M179.56,109.1a17.22,17.22,0,0,1-7,2,35,35,0,0,1-7.66-.24c-1.48-.19-3-.44-4.41-.72a0,0,0,1,0,0,.07,38.52,38.52,0,0,0,8,1.57,19.31,19.31,0,0,0,7.44-.85,16.25,16.25,0,0,0,3.74-1.78A0,0,0,1,0,179.56,109.1Z" style="fill:#263238"></path><path d="M164.4,121.77s-3.61-4.12-5.51-2.78,1.15,7.54,3.62,8.16a2.43,2.43,0,0,0,3.1-1.65Z" style="fill:#f7a9a0"></path><path d="M159.81,120.74a0,0,0,0,0,0,.07,6.15,6.15,0,0,1,3.58,3.47,1.35,1.35,0,0,0-2-.14s0,.1.06.08a1.5,1.5,0,0,1,1.69.34,7,7,0,0,1,.93,1.24c.09.14.35,0,.28-.14l0,0C164.09,123.5,162.11,120.71,159.81,120.74Z" style="fill:#263238"></path><rect x="177.96" y="132.59" width="100.87" height="66.72" transform="translate(337.18 426.47) rotate(-148.67)" style="fill:#37474f"></rect><path d="M202.47,128.19a7.9,7.9,0,1,0,8.52-2.07A7.91,7.91,0,0,0,202.47,128.19Z" style="fill:#fff"></path><polygon points="211.83 178.09 261.6 208.39 255.39 162.57 211.83 178.09" style="fill:#263238"></polygon><polygon points="187.31 163.2 231.45 190.07 221.54 156.66 187.31 163.2" style="fill:#455a64"></polygon><rect x="164.35" y="181.12" width="100.87" height="14.38" transform="translate(129.25 -84.23) rotate(31.33)" style="fill:#455a64"></rect><path d="M112.55,200.87l57.16,14.29c-.28,1.12,8-45.57-.1-76.28-.55-2.09-9-6.32-13.91-3.65C134.35,146.89,112.37,201.6,112.55,200.87Z" style="fill:#00E77F"></path><path d="M165,150.74c10.59,12,31.45,33.58,42.84,32.86,12.07-.77,26.08-15.91,32.3-20.85,2.64-2.1-16-18.19-19.26-16.69s-12.37,11.64-15,12.28S184.61,146.48,172,140.27C157.26,133,156.36,141,165,150.74Z" style="fill:#f7a9a0"></path><path d="M240.08,122.14a4,4,0,0,1,2.63,3.67,5.87,5.87,0,0,1,4,.37c2.14,1.13,1.3,5,1.3,5a7.16,7.16,0,0,1,4.13,1.06c1.94,1.29,1.65,5.29,1.65,5.29a6.35,6.35,0,0,1,3,3.22c1.44,3.81-2.33,8.77-4.7,12s-12.05,10-13.76,11.44L217.2,148.83s3.88-13.44,10.52-20.32C230.47,125.67,237.12,121.22,240.08,122.14Z" style="fill:#f7a9a0"></path><path d="M242.28,125.71c-3.68,2.28-6.49,5.52-9.48,8.6-.07.07,0,.17.1.1,2.94-3.1,6.45-5.57,9.51-8.54A.1.1,0,0,0,242.28,125.71Z" style="fill:#263238"></path><path d="M247.67,131a11.43,11.43,0,0,0-2.09,2.08c-.69.78-1.37,1.58-2,2.39-1.33,1.62-2.63,3.27-3.87,4.95-.06.08,0,.18.11.11,1.33-1.61,2.68-3.21,4.07-4.76.7-.78,1.41-1.55,2.12-2.31a14.05,14.05,0,0,0,1.9-2.26A.15.15,0,0,0,247.67,131Z" style="fill:#263238"></path><path d="M253.71,137.58a7.8,7.8,0,0,0-1.78,2c-.59.75-1.19,1.5-1.79,2.24-1.2,1.49-2.4,3-3.64,4.42-.07.07,0,.17.1.1,1.28-1.46,2.58-2.9,3.84-4.38.62-.72,1.24-1.45,1.85-2.18a7.3,7.3,0,0,0,1.5-2.12A.05.05,0,0,0,253.71,137.58Z" style="fill:#263238"></path><path d="M216,148.9,235.49,171S216.15,187.16,204,184.56s-33.65-24.91-41.16-35.42-3.09-15.6,8.66-9.67,32.76,17.67,33.55,17.85S216,148.9,216,148.9Z" style="fill:#00E77F"></path><path d="M220.58,163.2c-1.33-1.61-2.71-3.19-4.08-4.76-.66-.76-1.32-1.53-2-2.26s-1.43-1.67-2.22-2.41a.06.06,0,0,0-.09.08c.58.91,1.32,1.74,2,2.61s1.24,1.58,1.87,2.37c1.3,1.63,2.61,3.27,3.95,4.87,2.69,3.22,5.47,6.35,8.29,9.45a.08.08,0,0,0,.12-.1C225.84,169.72,223.26,166.43,220.58,163.2Z" style="fill:#263238"></path><path d="M220.82,180.66a33.28,33.28,0,0,1-7.8,3.47,21.59,21.59,0,0,1-8.54.79,13.88,13.88,0,0,1-4.15-1.27,40.64,40.64,0,0,1-3.79-2.05,81.7,81.7,0,0,1-7-4.87,142.4,142.4,0,0,1-12.83-11.32q-3-3-5.88-6.22c-1.87-2.15-3.67-4.36-5.37-6.64,1.79,2.21,3.69,4.33,5.65,6.39s3.94,4.09,6,6.05a155,155,0,0,0,12.88,11.15,83.58,83.58,0,0,0,7,4.88,38.08,38.08,0,0,0,3.7,2,14.16,14.16,0,0,0,4,1.3,21.36,21.36,0,0,0,8.37-.58A33.27,33.27,0,0,0,220.82,180.66Z" style="fill:#263238"></path><path d="M166.11,155c1,.75,2,1.42,3.06,2.13a6.45,6.45,0,0,1-1.68-.84A6,6,0,0,1,166.11,155Z" style="fill:#263238"></path></g></svg>