<svg xmlns="http://www.w3.org/2000/svg" viewBox="0 0 500 500"><g id="freepik--Table--inject-100"><polygon points="44.36 407.76 95.77 407.51 147.18 407.43 250 407.26 352.82 407.43 404.23 407.51 455.64 407.76 404.23 408 352.82 408.09 250 408.26 147.18 408.09 95.77 408 44.36 407.76" style="fill:#263238"></polygon></g><g id="freepik--Character--inject-100"><path d="M345.57,150.9s13-11.82,8.56-20.49c-6.25-12.09-32.34-2.76-37.83-23.63C312.16,91,325.36,78.25,315.38,66c-6.7-8.27-36.3-6-36.3-6,19.07-14.89,46.78-21,63.36-7.2,14.9,12.36,8.17,31.19,14.62,40.57,9.15,13.3,30.14,13.74,29.77,31.26-.43,20.3-26.84,25.21-28.66,27.78Z" style="fill:#00E77F;opacity:0.5"></path><polygon points="388.51 129.14 384.74 129.84 383.89 133.82 383.05 129.84 379.27 129.14 383.03 128.22 383.89 124.45 384.75 128.22 388.51 129.14" style="fill:#fff"></polygon><polygon points="342.7 103.53 338.92 104.23 338.08 108.21 337.24 104.23 333.46 103.53 337.22 102.61 338.08 98.85 338.94 102.61 342.7 103.53" style="fill:#fff"></polygon><polygon points="351.39 91.52 349.28 91.91 348.8 94.14 348.33 91.91 346.22 91.52 348.32 91 348.8 88.9 349.29 91 351.39 91.52" style="fill:#fff"></polygon><polygon points="321.52 81.36 319.41 81.75 318.94 83.97 318.46 81.75 316.35 81.36 318.45 80.84 318.94 78.74 319.42 80.84 321.52 81.36" style="fill:#fff"></polygon><polygon points="365.59 143.17 363.48 143.56 363 145.79 362.53 143.56 360.42 143.17 362.52 142.66 363 140.55 363.49 142.66 365.59 143.17" style="fill:#fff"></polygon><polygon points="337.44 47.92 335.33 48.31 334.85 50.54 334.38 48.31 332.27 47.92 334.37 47.41 334.85 45.31 335.33 47.41 337.44 47.92" style="fill:#fff"></polygon><path d="M375.36,120.14a.62.62,0,0,0,0,1.23A.62.62,0,0,0,375.36,120.14Z" style="fill:#fff"></path><path d="M304.25,47.31a.62.62,0,0,0,0,1.23A.62.62,0,0,0,304.25,47.31Z" style="fill:#fff"></path><path d="M323.23,66.23a.61.61,0,0,0,0,1.22A.61.61,0,0,0,323.23,66.23Z" style="fill:#fff"></path><path d="M292.75,55a.43.43,0,0,0,0,.86A.43.43,0,0,0,292.75,55Z" style="fill:#fff"></path><path d="M351.5,116.68a.44.44,0,0,0,0,.87A.44.44,0,0,0,351.5,116.68Z" style="fill:#fff"></path><path d="M318.12,103.1a.43.43,0,0,0,0,.86A.43.43,0,0,0,318.12,103.1Z" style="fill:#fff"></path><path d="M377.65,110.87a1.18,1.18,0,0,0,0,2.35A1.18,1.18,0,0,0,377.65,110.87Z" style="fill:#fff"></path><path d="M329.52,109.7a1.18,1.18,0,0,0,0,2.35A1.18,1.18,0,0,0,329.52,109.7Z" style="fill:#fff"></path><path d="M191.34,274.2a83,83,0,0,0,16.14,7.88c-9.1-12.34-9-41.25-7.79-37.19,5.83,19.42,20.73,40.27,26.1,41.06,0,0,.06,0,.09,0,14.37.93,27.2-3.13,37.83-9a.08.08,0,0,0,0-.06C252,263,251.24,233.63,252.06,235.38c8.91,18.73,26.13,29.07,29,28.9h0c10.36-9.62,15.67-19,14.1-19.81-11.43-6.14-21.64-22.92-31-40.74v0c-9.22-17.56-15.37-44.12-28-59.58-11.51-14.15-33.39-15.84-45.39-7.72C159.39,157.73,184.24,269.78,191.34,274.2Z" style="fill:#263238"></path><path d="M193,135.1a21.86,21.86,0,0,0-6.94,5.56,46.25,46.25,0,0,0-5,7.09,73.48,73.48,0,0,0-6.25,15.69C171.78,174.2,172.1,195,172.31,206a171.57,171.57,0,0,0,4.39,32.69c.58,2.69,1.35,5.34,2,8l2.3,7.95,2.63,7.85,2.9,7.77-2.36-7.91-2.17-8-2-8c-.57-2.68-1.24-5.33-1.73-8a187.11,187.11,0,0,1-3.91-32.47c-.4-10.88-.66-31.5,2-42.19A74.26,74.26,0,0,1,182,148.1a44.74,44.74,0,0,1,4.53-7.17,30.44,30.44,0,0,1,2.94-3.19A15.94,15.94,0,0,1,193,135.1Z" style="fill:#263238"></path><path d="M296.39,241.42a139.65,139.65,0,0,1-10-11c-3.17-3.77-6.17-7.64-8.95-11.64s-5.43-8.06-7.78-12.26-4.54-8.52-6.82-12.78c-4.67-8.49-10.48-26.66-15.71-34.91-2.64-4.11-5.37-8.18-8.4-12.08a66.84,66.84,0,0,0-4.94-5.6,18.71,18.71,0,0,0-6.18-4.45,19.68,19.68,0,0,1,5.76,4.77,62.47,62.47,0,0,1,4.51,5.79c2.83,4,5.39,8.09,7.84,12.26,4.92,8.35,10.73,26.48,15.24,35,2.35,4.24,4.58,8.51,7,12.74a118.34,118.34,0,0,0,8.12,12.27A137.66,137.66,0,0,0,296.39,241.42Z" style="fill:#263238"></path><path d="M214.41,239.42c19.43,18.52,55.49,46.24,70.45,50.55,16.63,4.79,49.71-35.49,71.45-60.12,4.32-4.9-31.61-40.83-36-35.37C309,208.76,286.22,241,282.12,241.17c-3.36.17-35.47-11.4-53.52-18.14C199.87,212.31,200.74,226.38,214.41,239.42Z" style="fill: rgb(255, 196, 192);"></path><path d="M311.64,203.45l35.85,42.75s-40.83,45.68-57.29,45.87-61.36-36.35-75.74-51.57-12.59-26.42,9.22-19.47,55.59,18.35,58.62,17.64S311.64,203.45,311.64,203.45Z" style="fill:#ebebeb"></path><path d="M335,255.82c-12.11-19.13-27.74-37.39-30.24-40.77-.12-.16-.36,0-.23.2,2.62,3.19,18.22,26,30.21,40.8C334.92,256.22,335.16,256,335,255.82Z" style="fill:#263238"></path><path d="M304.57,286.05c-5.41,3.6-10.45,6-14.37,6-16.46.2-61.37-36.35-75.74-51.56-6.15-6.52-9.34-12.29-9.27-16.24C229,239.15,284.49,273.61,304.57,286.05Z" style="fill:#c7c7c7"></path><path d="M344.23,243.63l-32-38.6c.46-1.11,3-3.74,5.24-7.36,0,0,4.95-12.89,5-25.46,0-10.55-1.12-26.23,4.55-26.42,8.28-.3,12.12,19.34,13.64,30.75,5-3.76,9.66-6.53,13-7.15,11-2.06,26.39,45.77,19,54.38C365.45,232.07,350.4,242.89,344.23,243.63Z" style="fill: rgb(255, 196, 192);"></path><g style="opacity:0.7000000000000001"><path d="M376.75,248.17a35.64,35.64,0,1,1-40.68-39.39l6.11-52.53-2.86-.33.65-5.62,24.26,2.83-.65,5.62-2.87-.33L354.59,211A35.63,35.63,0,0,1,376.75,248.17Z" style="fill:#fff"></path><path d="M376.75,248.17a35.85,35.85,0,0,1-7.49,18.07l-.76,1c-.27.32-.56.61-.85.91-.57.6-1.12,1.22-1.71,1.79a38.37,38.37,0,0,1-3.83,3.15,40.55,40.55,0,0,1-4.2,2.64c-.74.37-1.5.7-2.25,1.05-.38.17-.75.36-1.13.51l-1.18.41a34.82,34.82,0,0,1-9.69,2l-2.48.09c-.83,0-1.65-.08-2.48-.12a38.92,38.92,0,0,1-4.93-.66,36,36,0,0,1-17.34-9.25l-.91-.86-.82-.93c-.54-.63-1.12-1.23-1.63-1.89A37.32,37.32,0,0,1,310.3,262a38.51,38.51,0,0,1-2.23-4.45c-.3-.78-.56-1.57-.84-2.35-.13-.39-.28-.78-.4-1.18l-.29-1.21A36,36,0,0,1,318,216.59a36.54,36.54,0,0,1,18-8.25l-.38.39c1-8.76,2-17.52,3-26.27l3.14-26.25.35.44-2.86-.34-.39,0,0-.39.67-5.63,0-.37.38,0,24.25,2.9.3,0,0,.3-.67,5.63,0,.29-.29,0-2.87-.34.31-.24L354.72,211l-.08-.14a35.75,35.75,0,0,1,22.11,37.34Zm0,0a35.58,35.58,0,0,0-22.21-37.09l-.1,0v-.1l6-52.55,0-.28.28,0,2.88.32-.33.26.64-5.63.27.34-24.27-2.76.42-.33-.64,5.63-.34-.44,2.86.32.4.05-.05.4-3,26.27c-1,8.76-2.05,17.51-3.09,26.27l0,.33-.34.06a35.66,35.66,0,0,0-17.6,8,35.27,35.27,0,0,0-11.45,35.44l.28,1.19c.11.4.26.78.39,1.17.27.77.52,1.55.81,2.32a36.71,36.71,0,0,0,2.18,4.4,35.88,35.88,0,0,0,2.71,4.1c.5.65,1.06,1.25,1.59,1.87l.81.93.89.85a35.55,35.55,0,0,0,17.1,9.24,38.44,38.44,0,0,0,4.88.68c.82,0,1.64.14,2.46.14l2.47-.08a34.46,34.46,0,0,0,9.63-2l1.17-.4c.38-.15.75-.34,1.12-.5.75-.35,1.51-.67,2.25-1a39.45,39.45,0,0,0,4.19-2.6,38,38,0,0,0,3.83-3.11c.6-.57,1.15-1.18,1.72-1.77.28-.3.58-.59.85-.9l.76-1A35.77,35.77,0,0,0,376.75,248.17Z" style="fill:#263238"></path></g><path d="M370.39,247.43a29.24,29.24,0,1,1-54.24-18.23,64.78,64.78,0,0,0,17.7,6.8c12.4,2.8,22.34-3.09,33.44-5.48A29.17,29.17,0,0,1,370.39,247.43Z" style="fill:#00E77F"></path><path d="M312.3,240.66s1.52-20.18,22.78-24.57" style="fill:#fff"></path><path d="M337.34,175.94c-1,5.72,6.33,3.58,6.33,3.58s-9.76,5.61-8.47,11.9c1.25,6.05,10,3.15,10.6,3-.51.31-9.35,5.7-7.4,11.88,2,6.42,10.28,2,10.81,1.72-.39.44-5.53,6.3-3,10.66,4.37,7.49,17.92-7.14,24.94-7.11,0,0,1.32,11.91,1.43,12.25,0,0,13.17-13.66,12.67-23.14a6,6,0,0,0-5-5.73s4.73-3.94,3.35-8.85c-.71-2.52-5.38-3.63-5.38-3.63s3.66-3.3,2.16-7.6c-1.18-3.43-5.68-4-5.68-4s2-4.81-.31-7.92C369.73,156.61,339.41,163.69,337.34,175.94Z" style="fill: rgb(255, 196, 192);"></path><path d="M374.06,170.62c.1,0,.1-.17,0-.17-10.54-.1-22.15,3-30.8,9.14-.28.21-.08.75.28.59C353.66,175.57,363,172.28,374.06,170.62Z" style="fill:#263238"></path><path d="M378.42,182.33c.12,0,.09-.22,0-.22-10.86-.05-23.84,3.82-33,12.06-.32.28-.32.85.07.55C352,189.7,368.46,183.77,378.42,182.33Z" style="fill:#263238"></path><path d="M348.77,208.77c9.07-7.57,19.65-11.46,31.09-13.91.15,0,.08-.23-.05-.24-5.92-.33-13.05,2-18.44,4.26a31,31,0,0,0-12.86,9.57C348.38,208.62,348.58,208.93,348.77,208.77Z" style="fill:#263238"></path><path d="M343.48,179.46c-.34.24.39.47.06.72-1.4,1.06-9.27,8.18-7.68,11.61,1.28,2.75,5.86,2.93,7.65,2.31l4.5-1.55-3.68,3a19.41,19.41,0,0,0-4.2,4.71,7,7,0,0,0-1.14,5.58,4,4,0,0,0,4,3.06,12,12,0,0,0,5.77-1.75l4.91-2.77-3.72,4.21a17.86,17.86,0,0,0-2.62,3.86,7.52,7.52,0,0,0-.94,4.25,3.58,3.58,0,0,0,2.36,2.94,7.87,7.87,0,0,0,4.42-.4,62.21,62.21,0,0,0,8.85-4.15c1.46-.76,2.93-1.53,4.44-2.23a11.75,11.75,0,0,1,4.75-1.36,12.88,12.88,0,0,0-4.55,1.77c-1.43.8-2.83,1.68-4.23,2.55a53.86,53.86,0,0,1-8.82,4.71,9.27,9.27,0,0,1-5.27.65,5.1,5.1,0,0,1-3.66-4.22,9.27,9.27,0,0,1,1-5.3,20,20,0,0,1,2.86-4.34l1.19,1.43a13.85,13.85,0,0,1-6.8,2.14,5.81,5.81,0,0,1-3.69-1.26,6.51,6.51,0,0,1-2.06-3.26,8.77,8.77,0,0,1,1.43-7.06,21.39,21.39,0,0,1,4.7-5.11l.82,1.47c-2.3.71-7.44,1.07-10-2.95C331.63,187,341.58,180.52,343.48,179.46Z" style="fill:#263238"></path><path d="M343.67,179.52a11.76,11.76,0,0,1-3.56-.22,2.71,2.71,0,0,1-2.05-1.8,5.4,5.4,0,0,1,.35-3.1c.39-1.1.87-2.24,1.4-3.39a9.25,9.25,0,0,0-2.56,2.86,5.47,5.47,0,0,0-.75,4.09,3.92,3.92,0,0,0,1.34,1.88,4.12,4.12,0,0,0,2.07.71A6.28,6.28,0,0,0,343.67,179.52Z" style="fill:#263238"></path><path d="M165.89,328.39s1.42,16.06,3.53,39.3v0c.06.67.12,1.35.19,2,1,11.41,2.21,24.41,3.45,38h73c-5.23-40.91-9.75-76.15-10.14-79.15l0-.22Z" style="fill:#37474f"></path><path d="M176.12,337.59q.67,8.43,1.41,16.86h0c.14,1.63.3,3.25.44,4.87v.05c1.41,16.13,2.9,32.27,4.56,48.38h1.05c-1.78-16.58-3.44-33.17-5.12-49.78v0c-.18-1.8-.36-3.59-.55-5.4v0c-.5-5-1-9.94-1.52-14.92C176.36,337.42,176.1,337.42,176.12,337.59Z" style="fill:#263238"></path><path d="M148.85,328.39s3.33,18.84,8,45.23h0c.09.42.16.84.24,1.29h0c1.79,10.09,3.76,21.24,5.82,32.83h50.85l1.16-7.65h0l.22-1.5.06-.39.84-5.62h0l.33-2.1,9.43-62.09Z" style="fill:#263238"></path><path d="M129.29,407.76h69.07c0-.3,0-.53,0-.72s0-.47,0-.47c.39-.21.77-.43,1.16-.63,4.06-2.21,7.63-3.93,10.56-5.24l1.45-.65c1.33-.58,2.52-1.06,3.51-1.45,2.54-1,4-1.45,4-1.45.08-.22.16-.42.23-.63,10-25.48,16-64.3,16.6-67.91l0-.28H137.3S133.54,364.85,129.29,407.76Z" style="fill:#37474f"></path><path d="M139,407.76h.92c1.81-22.87,3.49-45.75,5.24-68.62,0-.38-.55-.38-.57,0Q141.81,373.44,139,407.76Z" style="fill:#263238"></path><path d="M222.61,395.32a153.68,153.68,0,0,0-24.16,11.25c-.3.17-.1.64.22.5,8.14-3.49,16.44-6.84,24.38-10.78A.53.53,0,0,0,222.61,395.32Z" style="fill:#263238"></path><path d="M225.2,339.47c0-.28-.52-.34-.52,0a271.52,271.52,0,0,1-1.36,27.2c-.38,4.19-3.75,27.36-11,25.67-1.22-.28-1.84-1.48-2-3.32-.23-2.2.6-4.91,1-7.1.81-4.85,1.46-9.72,1.87-14.62a132.87,132.87,0,0,0-.29-27.41.24.24,0,0,0-.47,0c0,12.66-.32,25.3-2.21,37.84-.91,6-3.95,15.1,2.35,16s10.58-14.25,11.36-18.41C226,363.73,226.11,351.21,225.2,339.47Z" style="fill:#263238"></path><path d="M212.49,392.92a39.31,39.31,0,0,0-1.63,4.8,10.78,10.78,0,0,0-.68,3.95c0,.26.36.28.5.11a14.07,14.07,0,0,0,1.69-3.84c.55-1.49,1.14-3,1.65-4.46A.82.82,0,0,0,212.49,392.92Z" style="fill:#263238"></path><path d="M179.6,347.05a13.06,13.06,0,0,0-.31-3,.16.16,0,0,0-.3,0,12.6,12.6,0,0,0-.34,2.6c-.1,1-.23,2-.34,3a44.27,44.27,0,0,1-1.06,6.05,21.58,21.58,0,0,1-5.55,10,29,29,0,0,1-9.39,6.18c-3.91,1.65-8,2.27-12.05,3.46-.17,0-.12.29.05.29a34.58,34.58,0,0,0,13-2.56,28.11,28.11,0,0,0,9.8-6.25,21.83,21.83,0,0,0,5.71-10.26,31.93,31.93,0,0,0,.78-6.07A29.82,29.82,0,0,0,179.6,347.05Z" style="fill:#263238"></path><path d="M245.05,347.18l-8.34-46.41s8.79-13.45,7.51-29.34c-.93-11.56-26-52-28.09-54-8.54-8-22.94-4.79-28.85-.32C154.53,241.87,142.09,295,131,347.18Z" style="fill:#00E77F"></path><path d="M205.64,296.46a95.51,95.51,0,0,1,14.15.22c2.33.24,4.64.59,7,1,1.15.2,2.3.36,3.46.51a15,15,0,0,0,3.66.14.09.09,0,0,1,0,.17,26.39,26.39,0,0,1-3.43.45,26.89,26.89,0,0,1-3.36-.13c-2.38-.23-4.74-.56-7.1-.81-4.78-.49-9.56-1-14.37-1.14C205.41,296.85,205.41,296.47,205.64,296.46Z" style="fill:#263238"></path><path d="M194.75,302.3A101,101,0,0,1,206.21,300c1.93-.27,3.86-.42,5.81-.52.93-.05,1.86-.08,2.79-.1s2.05.1,3.08.06c.1,0,.13.16,0,.17-1,.06-1.92.29-2.88.41l-2.89.35c-1.93.24-3.86.5-5.79.72-3.87.44-7.71.92-11.56,1.5C194.58,302.65,194.55,302.35,194.75,302.3Z" style="fill:#263238"></path><path d="M217.83,219.18l11.31,52.54,10.21,136h23.33s-24.15-109.41-24.06-110.29,10.64-12.47,7.69-28.35S219.87,220.63,217.83,219.18Z" style="fill:#ebebeb"></path><path d="M220.29,223.41c1.09,2.7,2.21,5.39,3.34,8.07s2.24,5.38,3.39,8.05q3.43,8,7,16l.23-1c-2.53,2.06-7.65,6.79-7.65,6.79l9.08,12.38s-.81,37.6-1.1,41c.67-3.36,2.63-41.4,2.63-41.4l-9-12.27-.23,1.19c2.48-2.11,4.94-4.23,7.39-6.39l.49-.44-.27-.58q-3.7-7.9-7.51-15.76c-1.26-2.63-2.56-5.23-3.85-7.84S221.63,226,220.29,223.41Z" style="fill:#dbdbdb"></path><path d="M196.07,218.21c.59,2.08,10,14.21,19.56,13.3,3.11-.3,3.47-16.38,3.47-16.38l.22-1.27L222.41,196,201,183.71,198,182.1s-.53,4.94-1.12,11.09c0,.28-.06.57-.09.88s-.08.67-.11,1c-.1.91-.2,1.85-.27,2.79-.07.71-.13,1.4-.17,2.15s-.1,1.49-.16,2.24C195.63,209.67,195.83,217.33,196.07,218.21Z" style="fill: rgb(255, 196, 192);"></path><path d="M196.84,193.19a36.32,36.32,0,0,0,22.48,20.67L222.41,196,201,183.71,198,182.1S197.43,187,196.84,193.19Z" style="fill:#263238"></path><path d="M245.77,164.53c6.7,31.06-11.15,38.58-17.85,40-6.08,1.31-27,5-36.83-25.23s2.45-43.14,16.2-46.86S239.07,133.46,245.77,164.53Z" style="fill: rgb(255, 196, 192);"></path><path d="M239,160a20.14,20.14,0,0,1-2.19-.15,3.52,3.52,0,0,1-2.2-.57,1.12,1.12,0,0,1-.2-1.37,2.81,2.81,0,0,1,2.64-1,4.12,4.12,0,0,1,2.77,1.08A1.21,1.21,0,0,1,239,160Z" style="fill:#263238"></path><path d="M218.15,168c.72-.19,1.36-.49,2.06-.75a3.57,3.57,0,0,0,1.95-1.17,1.14,1.14,0,0,0-.19-1.37,2.81,2.81,0,0,0-2.83-.25,4.08,4.08,0,0,0-2.35,1.8A1.21,1.21,0,0,0,218.15,168Z" style="fill:#263238"></path><path d="M223.48,171.89c0-.07-.15.13-.14.22.43,2.12.56,4.62-1.25,5.66-.06,0,0,.13,0,.11C224.42,177.16,224.22,173.84,223.48,171.89Z" style="fill:#263238"></path><path d="M221.2,170c-3.48.32-2.6,7.25.63,7S224.11,169.72,221.2,170Z" style="fill:#263238"></path><path d="M219.88,170.52c-.55.47-1.06,1.24-1.78,1.41s-1.56-.46-2.2-1.08c-.07-.07-.12,0-.11.09.15,1.33.83,2.63,2.28,2.64s2.11-1.28,2.27-2.65C220.37,170.67,220.11,170.33,219.88,170.52Z" style="fill:#263238"></path><path d="M235.43,169.12c0-.08.18.09.18.18.08,2.17.54,4.63,2.54,5.21.07,0,.07.13,0,.12C235.74,174.46,235.16,171.19,235.43,169.12Z" style="fill:#263238"></path><path d="M237.21,166.74c3.45-.51,4.2,6.44,1,6.9S234.31,167.16,237.21,166.74Z" style="fill:#263238"></path><path d="M238.61,167c.65.32,1.32.95,2.06.94s1.41-.8,1.89-1.56c.05-.08.12,0,.13.07.16,1.33-.2,2.75-1.61,3.1s-2.34-.75-2.82-2.06C238.17,167.21,238.35,166.82,238.61,167Z" style="fill:#263238"></path><path d="M225.83,188.5c.56.46,1.13,1.11,1.92,1.12a5.67,5.67,0,0,0,2.28-.74.08.08,0,0,1,.1.11,2.92,2.92,0,0,1-2.64,1.39,2.31,2.31,0,0,1-1.86-1.77C225.59,188.49,225.75,188.43,225.83,188.5Z" style="fill:#263238"></path><path d="M233.71,179.5s.89,3.14,1.1,4.65c0,.14-.33.26-.84.36,0,0,0,0-.06,0a7.25,7.25,0,0,1-7.35-1.71c-.12-.13.05-.31.2-.24a10.89,10.89,0,0,0,6.82,1c0-.44-1.71-5.33-1.47-5.38a13.1,13.1,0,0,1,3.54.3c-1.66-6.59-4.37-12.87-5.93-19.46-.05-.23.29-.35.38-.15,3.31,6.38,5.38,13.92,7.28,20.68C237.62,180.37,234.35,179.67,233.71,179.5Z" style="fill:#263238"></path><path d="M189.31,178.53c5.4.42,6.64-10.91,6.64-10.91s11,0,14.59-15.74a24.25,24.25,0,0,1-4.85,13s19.35-2,27.49-18.24c0,0-3.25,8.25-6.29,11.18,0,0,8.11-2.26,12.07-8.85,0,0,3.39,9.34,6,11.92,0,0-.79-33.85-32.16-30.25,0,0-19.64,1.3-26.69,16.85S189.31,178.53,189.31,178.53Z" style="fill:#263238"></path><path d="M207.67,167.06s-18.85,3.6-22.41,6.66c-1.46,1.26.18,8.1,1.37,8.94.75.53,11-4.08,22-5.58C208.64,177.08,206.61,171.37,207.67,167.06Z" style="fill:#455a64"></path><path d="M246.4,174.81a8.47,8.47,0,0,1-.79,1.05c-1.16,1.29-2.69,1.89-5.28,1.23-1.69-.43-3-2.08-5.76-1.77a9.35,9.35,0,0,0-4.76,1.73,27.55,27.55,0,0,0-2.62,2.1c-.21.17-.42.36-.63.55a4.85,4.85,0,0,1-.61.49,8,8,0,0,1-1,.64c-4.09,2.19-10.87,2.28-13.47.35-2.38-1.76-4.19-6.91-3.91-11.88a15.08,15.08,0,0,1,.48-3.16,12.31,12.31,0,0,1,1.17-2.91c.1-.17.19-.33.29-.48a7.51,7.51,0,0,1,1-1.2c2.47-2.55,7.23-4.6,12.4-5.84l1.59-.34c1.15-.24,2.31-.43,3.46-.58,1.33-.17,2.66-.29,3.94-.33,4.54-.18,8.53.46,10.63,2.14a10.92,10.92,0,0,1,3.21,4.8,20.37,20.37,0,0,1,.82,2.72,25.84,25.84,0,0,1,.42,9A5.07,5.07,0,0,1,246.4,174.81Z" style="fill:#fff;opacity:0.2"></path><g style="opacity:0.2"><path d="M246.4,174.81a8.47,8.47,0,0,1-.79,1.05L235,170.52a1.52,1.52,0,0,1,1.07-2.83,1.76,1.76,0,0,1,.3.1l10.6,5.32A5.07,5.07,0,0,1,246.4,174.81Z" style="fill:#fff"></path><path d="M229.81,177.05a27.55,27.55,0,0,0-2.62,2.1l-19.64-9.85a15.08,15.08,0,0,1,.48-3.16Z" style="fill:#fff"></path><path d="M223.66,169.32a1,1,0,0,1-1.17.54.9.9,0,0,1-.21-.08l-13.08-6.55c.1-.17.19-.33.29-.48a7.51,7.51,0,0,1,1-1.2l12.74,6.39A1,1,0,0,1,223.66,169.32Z" style="fill:#fff"></path><path d="M246.51,164.12l-18.6-9.33c1.33-.17,2.66-.29,3.94-.33l13.84,6.94A20.37,20.37,0,0,1,246.51,164.12Z" style="fill:#fff"></path><path d="M242.87,165.18a.52.52,0,0,1-.58.26l-.11,0-19.32-9.69,1.59-.34,18.19,9.12A.5.5,0,0,1,242.87,165.18Z" style="fill:#fff"></path><path d="M226,180.19a8,8,0,0,1-1,.64l-10-5a.51.51,0,0,1-.22-.69.49.49,0,0,1,.58-.26l.11,0Z" style="fill:#fff"></path></g><path d="M214.2,183.08a7.57,7.57,0,0,1-3.07-1.52c-3.64-3.13-6.16-12.74-2.07-19.09h0c2.75-4.26,11-7,17.25-8,5.78-.93,13.15-1,16.49,1.71,5.51,4.43,5.54,15.37,4.08,18.8-1,2.34-3.62,3.36-6.68,2.58a9.06,9.06,0,0,1-1.84-.76,7.25,7.25,0,0,0-3.77-1c-2.56.13-4,1.15-7.7,4.27A15.36,15.36,0,0,1,214.2,183.08ZM209.92,163c-3.69,5.73-1.51,14.84,1.88,17.76,3.09,2.67,10.38,1.93,14.44-1.48,3.59-3,5.3-4.36,8.3-4.51a8.08,8.08,0,0,1,4.27,1.12,8.53,8.53,0,0,0,1.64.68c2,.51,4.53.26,5.49-2,1.33-3.13,1.28-13.54-3.78-17.61-2.57-2.07-8.58-2.64-15.69-1.49-7.94,1.29-14.44,4.24-16.55,7.52Z" style="fill:#455a64"></path><path d="M196.54,180.64s-8.13-9-12.28-5.95,2.82,16.63,8.31,17.92a5.38,5.38,0,0,0,6.79-3.77Z" style="fill: rgb(255, 196, 192);"></path><path d="M186.36,178.54a.08.08,0,0,0,0,.15c3.86,1,6.23,4.18,8,7.55-1.26-1.22-2.85-1.78-4.5-.25-.09.08,0,.22.12.18a3.3,3.3,0,0,1,3.75.69,15.76,15.76,0,0,1,2.1,2.7c.22.31.79.06.61-.3a.36.36,0,0,0,0-.09C195.92,184.48,191.45,178.38,186.36,178.54Z" style="fill:#263238"></path><path d="M193.36,192.82a1.74,1.74,0,1,0,1.74-1.74A1.74,1.74,0,0,0,193.36,192.82Z" style="fill:#fff"></path><path d="M219,216.83l-.85,8.86c-.41,9.7-1.68,13.58-3.77,13.73-6.87.47-17.6-17.45-18.34-21.21S219,216.83,219,216.83Z" style="fill: rgb(255, 196, 192);"></path><path d="M118.54,407.76h92.77L195.67,213.41s-3.33-.23-11.6,5.5c-8.83,6.11-17.8,18.62-29.93,44.85C126.14,324.32,118.54,407.76,118.54,407.76Z" style="fill:#ebebeb"></path><path d="M192.43,234.89c-3.11,10-29.91,75.69-39.66,87.45-7.41,8.94-30.71,20.44-36.93-3.17-4.14-15.73,43.57-79.22,65.08-97.81C190.8,212.83,199,213.85,192.43,234.89Z" style="fill:#ebebeb"></path><path d="M131.2,333.24a27,27,0,0,0,11.37-3.16,31.11,31.11,0,0,0,9.2-7.27,41.19,41.19,0,0,0,3.53-4.7c1.06-1.66,2-3.4,3-5.14,1.87-3.5,3.62-7.08,5.31-10.69,3.48-7.17,6.7-14.46,10-21.74l9.72-21.89c-1.33,3.77-2.78,7.49-4.19,11.23s-3,7.41-4.47,11.11q-4.57,11.08-9.67,21.94c-1.74,3.6-3.54,7.17-5.47,10.69-1,1.75-2,3.5-3.08,5.19a33.38,33.38,0,0,1-3.76,4.78,31.81,31.81,0,0,1-9.73,7.14,28.54,28.54,0,0,1-5.72,1.93A21.86,21.86,0,0,1,131.2,333.24Z" style="fill:#263238"></path><path d="M179.67,267.45a30.8,30.8,0,0,1,2.34-3.32c.83-1.05,1.67-2.07,2.55-3.13a10.47,10.47,0,0,1-2,3.59A14.71,14.71,0,0,1,179.67,267.45Z" style="fill:#263238"></path><path d="M195.67,213.41c-1.41,3.22-11.16,32-13.78,38.48l-.24.59.51.41q5.25,4.14,10.55,8.23l-.18-1.35-9.8,13-.32.43.19.49c2.84,7.18,20.82,40.24,22.41,43.76-1.23-3.66-17.83-37.27-20.63-44.45l-.13.92,9.82-12.93.58-.77-.76-.58q-5.32-4.06-10.67-8.07l.27,1C186,246,194.51,216.73,195.67,213.41Z" style="fill:#dbdbdb"></path><path d="M142.7,359.4c-.37,11.7.17,24.93,2.66,27.36,4.66,4.56,17.08,4.18,21,4.14s17.81,0,21.07-7.21c1.44-3.16,1.82-19.49,1.78-25.27,0-2.34-.54-13.89-.72-15.18,0-.31-.86-.27-.89-.07-.2,1.32-.07,6.11-.14,7-22.38,2.88-36.24.47-43.42-.91,0-2.16,0-3.84,0-6a122.08,122.08,0,0,0,21.2,2,231.88,231.88,0,0,0,23.25-1.65c.18,0,.05-.89-.22-.88-2.92,0-13,1-23.21,1a184.81,184.81,0,0,1-21.77-1.7C142.88,342.2,142.87,353.79,142.7,359.4Zm4,26c-2.47-2.84-2.78-11-2.77-15.89,0-6.73,0-12.1,0-18.83,17.23,4,36.2,2,43.39.58,0,.29.13,14.48,0,19-.17,5.78-.35,11-2.57,14-1.9,2.58-7.27,5.16-19.6,5.15C156.3,389.42,148.78,387.8,146.72,385.43Z" style="fill:#dbdbdb"></path><path d="M127.46,208.25c3.32-13.21,9.17-31.51,14.4-34.91,5.48-3.56,25.27-15.31,30.75-16.56s26,1.67,30,4.65c3.24,2.38-.71,9.74-12.06,10.4-10.61.62-13.18.25-16.12,1.15s-10.93,9.46-9.5,13.78c.84,2.55,7.58,6.17,12.19,4.67s6.79-6.54,12.25-10.09,14.25-2.07,14.5.37-2.8,3.24-8.21,10.85c-3.48,4.9-5.2,13.87-12.79,22.12-3.8,4.15-10.9,15.52-10.9,15.52Z" style="fill: rgb(255, 196, 192);"></path><path d="M141.86,173.34c5-6.23,17.23-17.11,28.49-20.07,7.61-2,31.42,13,30.16,17.71s-5.55,4.27-11.83,2.82c-2.28-.53-14.06-6.27-16.43-3.92-3.4,3.36-8.6,15.57-8.6,15.57Z" style="fill: rgb(255, 196, 192);"></path><path d="M200.1,169c-2.55-5.48-9.08-9-15.63-11.88-.11-.05-.18.11-.08.15,1.67.75,12.18,7,15.62,11.81C200.05,169.16,200.12,169.09,200.1,169Z" style="fill:#263238"></path><path d="M141.86,173.34c5-6.23,17.23-17.11,28.49-20.07,7.61-2,25.8,15.83,24.54,20.56s-7.47,4.43-14,1.32c-2.12-1-9-7-11.32-4.68-3.4,3.37-11.72,11.74-11.72,11.74Z" style="fill: rgb(255, 196, 192);"></path><path d="M162.66,177c.8-1,1.07-1.33,1.89-2.29s1.65-1.92,2.53-2.82a9.64,9.64,0,0,1,2.51-2.13,4.89,4.89,0,0,1,3.09-.27c2.34.48,4.31,2.22,6.19,3.59,2.1,1.53,6.52,4.12,10.12,4.13a6.94,6.94,0,0,0,2.89-.46,4.44,4.44,0,0,0,1.83-1.15c1.83-2.45.22-5.65-1.52-8-3.24-4.35-7.87-7.75-12.4-10.62-1.12-.71-2.25-1.38-3.38-2.06a10.73,10.73,0,0,0-4.18-1.71c-2.47-.28-6.8,1.79-8.14,2.41-.1.05-.15-.12-.05-.17,1.62-.78,5.72-3.45,9.69-2.81a12.54,12.54,0,0,1,4,1.85c1.32.75,2.62,1.55,3.9,2.37a56.91,56.91,0,0,1,7.12,5.33,23.72,23.72,0,0,1,5.58,6.56,7,7,0,0,1-.35,7.16c-1.29,1.69-3.66,1.88-4.74,1.9a11.57,11.57,0,0,1-3.15-.38,50.87,50.87,0,0,1-6.62-2.74c-2.07-1.1-3.85-2.77-6-3.69a4.22,4.22,0,0,0-3.25-.14,11.15,11.15,0,0,0-2.65,1.94,33.34,33.34,0,0,0-4.55,4.34C162.64,177.59,162.32,177.4,162.66,177Z" style="fill:#263238"></path><path d="M138.05,178.84c1.92-3,6-15.86,9-19.61s16.07-16.41,21.4-15.22c6.71,1.5-1.7,13-5.81,17.62s-4.44,13.28-4.44,13.28Z" style="fill: rgb(255, 196, 192);"></path><path d="M168.48,153.81c-1.44,1.46-2.75,3.11-4,4.7a40.5,40.5,0,0,0-3.59,4.67,17.72,17.72,0,0,0-1.93,5.45c-.19.93-.33,1.87-.44,2.82s-.14,2.09-.27,3.12a.09.09,0,0,0,.17,0,42.74,42.74,0,0,1,1.35-5.55,24.23,24.23,0,0,1,2.31-5.42c2-3.38,4.65-6.3,6.65-9.67C168.78,153.83,168.58,153.71,168.48,153.81Z" style="fill:#263238"></path><path d="M158.1,176.36a16.58,16.58,0,0,0,.49,4.76,35,35,0,0,0,1.36,4.59,43.52,43.52,0,0,0,1.85,4.4c.66,1.44,1.52,2.77,2.34,4.17a30.83,30.83,0,0,1,3.88,8.94,27.47,27.47,0,0,1,.53,9.68,34.3,34.3,0,0,0-1.24-9.49,35.58,35.58,0,0,0-4-8.62,40.74,40.74,0,0,1-2.36-4.26,36.14,36.14,0,0,1-1.75-4.57C158.29,182.87,157.51,179.58,158.1,176.36Z" style="fill:#263238"></path><path d="M174.77,191.72a8.51,8.51,0,0,0,5.66-2.87c1.38-1.38,2.67-2.86,4.07-4.23A19.9,19.9,0,0,1,189,181a23,23,0,0,1,6.22-2,12.56,12.56,0,0,1,6.27,0c1.67.51,3.55,1.9,3,3.93a7.78,7.78,0,0,1-1.43,2.5,21.12,21.12,0,0,1-1.93,2.08c-1.38,1.33-2.88,2.56-4.13,4-1.68,2-2.65,4.43-3.76,6.74-.41.86-3,6.65-4,8.63a31.37,31.37,0,0,1-3,4.82,43.78,43.78,0,0,1-3.64,3.95,27.18,27.18,0,0,0-3.75,4.47c0,.08-.15,0-.12-.08,1.21-3.21,3.85-5.63,6.23-8,3.08-3.05,8.83-17.33,10-19.31,1.88-3.32,5.18-5.25,7.44-8.22.52-.68,1.32-1.67,1.17-2.6a2.66,2.66,0,0,0-1.87-1.78,10.78,10.78,0,0,0-6.11.16,27.67,27.67,0,0,0-6,1.9,19.85,19.85,0,0,0-4.52,3.26c-1.56,1.44-3,2.92-4.69,4.25a8.52,8.52,0,0,1-5.66,2.15C174.64,191.88,174.66,191.73,174.77,191.72Z" style="fill:#263238"></path><path d="M199.12,160.27c-1.49-.48-3-1-4.46-1.46a0,0,0,0,1,0-.06c1.75.42,3.55.72,5.31,1.13a5.34,5.34,0,0,1,3.63,2.17,4,4,0,0,1-.23,3.92,10.61,10.61,0,0,1-3.29,3,.06.06,0,1,1-.07-.1c1.83-1.46,4.62-4.25,2.6-6.68A7.23,7.23,0,0,0,199.12,160.27Z" style="fill:#263238"></path><path d="M194.32,174.63a8.71,8.71,0,0,0,4.6-1.5,3.59,3.59,0,0,0,1.19-1.68,3.53,3.53,0,0,0,.16-1.12,1.7,1.7,0,0,0-.32-1.12c-.08-.07.07-.16.1-.07s.25.38.35.58a2.62,2.62,0,0,1,.2.53,3,3,0,0,1,.06,1.12,3.56,3.56,0,0,1-1.12,2.13,6,6,0,0,1-5.22,1.26A.07.07,0,0,1,194.32,174.63Z" style="fill:#263238"></path><path d="M172,230.2c-1.64,12.9-20.14,80.75-26.09,91.14s-21.36,17-28.72.86,6.67-100.54,10.28-113.95C129.47,200.79,172.59,225.53,172,230.2Z" style="fill: rgb(255, 196, 192);"></path><path d="M178.91,237.73l-55.58-22.34s-11.07,78.41-8.12,101.68c2.12,16.7,22.42,25.6,35,.81S178.91,237.73,178.91,237.73Z" style="fill:#ebebeb"></path><path d="M173.22,247.88c-8.37-3-42.17-16.77-49.27-20.23-.49-.24-.46-.61.09-.43,25.3,8.53,41.23,16.91,49.29,20.32C173.53,247.63,173.43,248,173.22,247.88Z" style="fill:#263238"></path><path d="M162.54,290.16c4-11,7.67-22,10.83-33.19.88-3.14,1.74-6.28,2.56-9.43s1.6-6.07,2.26-9.14c-1.19-.59-6.34-3-6.92-3.4a.21.21,0,0,1,.17-.37c.65.15,6.58,2.53,7.87,3.23.18.09-1.34,6.1-2,9s-1.37,5.72-2.11,8.56q-2.2,8.44-4.83,16.78-2.82,9-6.09,17.77C162.39,295,157.46,304.26,162.54,290.16Z" style="fill:#263238"></path></g><g id="freepik--Bottles--inject-100"><rect x="262.99" y="367.2" width="3.94" height="76.86" style="fill:#263238"></rect><rect x="266.93" y="438.67" width="83.97" height="5.38" style="fill:#263238"></rect><path d="M295.63,362.1l-.29,64.34a7.59,7.59,0,0,1-15.18-.07l.29-64.34Z" style="fill:#ebebeb"></path><path d="M294.66,380.71l-.2,45.68a6.71,6.71,0,1,1-13.42-.06l.2-45.68Z" style="fill:#c7c7c7"></path><rect x="278.07" y="356.39" width="19.94" height="10" transform="translate(1.64 -1.3) rotate(0.26)" style="fill:#00E77F"></rect><path d="M319,362.1l-.29,64.34a7.59,7.59,0,0,1-15.18-.07l.29-64.34Z" style="fill:#ebebeb"></path><path d="M318.05,380.71l-.2,45.68a6.71,6.71,0,0,1-13.42-.06l.21-45.68Z" style="fill:#37474f"></path><rect x="301.46" y="356.39" width="19.94" height="10" transform="translate(1.64 -1.4) rotate(0.26)" style="fill:#455a64"></rect><path d="M350.89,395.9l0,7.19H266.93V395.9h13.63v2.41c0,1.19,3.36,2.14,7.48,2.14s7.48-.95,7.48-2.14V395.9H304v2.41c0,1.19,3.34,2.14,7.47,2.14s7.47-.95,7.47-2.14V395.9h8.45v2.41c0,1.19,3.34,2.14,7.47,2.14s7.48-.95,7.48-2.14V395.9Z" style="fill:#455a64"></path><rect x="266.93" y="403.09" width="83.97" height="2.9" style="fill:#263238"></rect><rect x="350.89" y="367.2" width="3.94" height="76.86" style="fill:#263238"></rect><path d="M195.26,434.68H121.79s9.79-32.48,14.61-43.84a13.64,13.64,0,0,0,2.47,1.67,11.77,11.77,0,0,0,2.2.9,10.83,10.83,0,0,0,1.44.36l.16,0,.48.06c4.14.34,10.15-2.8,16-4.94a26.84,26.84,0,0,1,7.82-1.89c5.14-.22,10.63,2.39,13.81,4.22C185.52,402.5,195.26,434.68,195.26,434.68Z" style="fill:#00E77F"></path><path d="M159.11,388.91c-6.12,2.25-12.46,5.62-16.6,4.86a13,13,0,0,1-6.11-2.93c-.36-2,5.83-4.52,13.59-3.84A58,58,0,0,1,159.11,388.91Z" style="fill:#00E77F"></path><g style="opacity:0.2"><path d="M159.11,388.91c-6.12,2.25-12.46,5.62-16.6,4.86a13,13,0,0,1-6.11-2.93c-.36-2,5.83-4.52,13.59-3.84A58,58,0,0,1,159.11,388.91Z"></path></g><path d="M132,412.57a1.27,1.27,0,0,1-.47-.09,1.19,1.19,0,0,1-.61-1.56c6.1-13.93,15.84-36.83,16-39V346.74a1.19,1.19,0,0,1,2.37,0V372c0,2.64-12.42,31.21-16.23,39.91A1.17,1.17,0,0,1,132,412.57Z" style="fill:#fff;opacity:0.30000000000000004"></path><path d="M137.35,406.91a.15.15,0,0,1-.09,0,.23.23,0,0,1-.12-.31C142,395.39,151.3,373.76,151.3,372V349.81a.24.24,0,0,1,.24-.24.23.23,0,0,1,.23.24V372c0,2.31-13.62,33.45-14.2,34.78A.23.23,0,0,1,137.35,406.91Z" style="fill:#fff;opacity:0.30000000000000004"></path><g style="opacity:0.2"><path d="M195.26,434.68H121.79s9.79-32.48,14.61-43.84l.51-1.2c3.92-9.26,7.28-17.41,7.28-18.41V340.51h28.59v30.72c0,1,3.74,10.1,8,20C185.52,402.5,195.26,434.68,195.26,434.68Z" style="fill:#fff"></path><path d="M195.26,434.68l-36.63.21-36.84.12h-.44l.12-.42q3.54-11.74,7.3-23.42c1.27-3.88,2.55-7.77,3.9-11.63s2.79-7.71,4.42-11.45,3.15-7.54,4.66-11.33l1.1-2.85.51-1.43a6.77,6.77,0,0,0,.35-1.33l0-6.13.05-24.51v-.45h.45l28.59.06h.39v.39l0,24.52v6.13a5.88,5.88,0,0,0,.36,1.38L174,374l1.1,2.86c1.5,3.79,3.08,7.56,4.66,11.33a244.11,244.11,0,0,1,8.3,23.08C190.53,419,192.92,426.85,195.26,434.68Zm0,0q-3.66-11.7-7.53-23.33c-1.31-3.88-2.63-7.74-4-11.58s-2.83-7.65-4.49-11.39-3.19-7.53-4.71-11.33l-1.12-2.86-.53-1.45a6.29,6.29,0,0,1-.4-1.58V365l-.06-24.52.39.39-28.59.06.45-.45,0,24.51v6.13a6.77,6.77,0,0,1-.41,1.64l-.53,1.45-1.12,2.86c-1.52,3.8-3.12,7.56-4.71,11.33s-3.09,7.53-4.45,11.39-2.67,7.72-3.95,11.59q-3.82,11.64-7.4,23.36l-.31-.42,36.63.12Z" style="fill:#263238"></path><path d="M144.45,347.33a14.23,14.23,0,0,1,3.42-.38,13.77,13.77,0,0,1,3.43.38,16,16,0,0,1-6.85,0Z" style="fill:#263238"></path><path d="M144.45,350.88a4,4,0,0,1,3.42,0,4.14,4.14,0,0,1-3.42,0Z" style="fill:#263238"></path><path d="M144.45,353.59a3.78,3.78,0,0,1,1.71-.37,3.65,3.65,0,0,1,1.71.37,3.66,3.66,0,0,1-1.71.38A3.79,3.79,0,0,1,144.45,353.59Z" style="fill:#263238"></path><path d="M144.45,356.31a4,4,0,0,1,3.42,0,4.14,4.14,0,0,1-3.42,0Z" style="fill:#263238"></path><path d="M144.45,358.8a14.22,14.22,0,0,1,3.42-.37,13.76,13.76,0,0,1,3.43.37,15.63,15.63,0,0,1-6.85,0Z" style="fill:#263238"></path><path d="M144.45,362.35a3.79,3.79,0,0,1,1.71-.38,3.66,3.66,0,0,1,1.71.38,4.14,4.14,0,0,1-3.42,0Z" style="fill:#263238"></path><path d="M144.45,365.06a4.14,4.14,0,0,1,3.42,0,4,4,0,0,1-3.42,0Z" style="fill:#263238"></path><path d="M144.45,367.78a3.79,3.79,0,0,1,1.71-.38,3.66,3.66,0,0,1,1.71.38,3.65,3.65,0,0,1-1.71.37A3.78,3.78,0,0,1,144.45,367.78Z" style="fill:#263238"></path></g><path d="M60.09,395.3h6.6a8.48,8.48,0,0,1,8.48,8.48v31.65a0,0,0,0,1,0,0H51.62a0,0,0,0,1,0,0V403.78A8.48,8.48,0,0,1,60.09,395.3Z" style="fill:#dbdbdb"></path><rect x="57.33" y="389.41" width="12.14" height="7.05" style="fill:#dbdbdb"></rect><rect x="55.19" y="386.12" width="16.42" height="6.28" style="fill:#00E77F"></rect><rect x="53.59" y="410.19" width="17.38" height="15.88" style="fill:#fff"></rect><path d="M88.47,395.3h6.6a8.48,8.48,0,0,1,8.48,8.48v31.65a0,0,0,0,1,0,0H80a0,0,0,0,1,0,0V403.78A8.48,8.48,0,0,1,88.47,395.3Z" style="fill:#dbdbdb"></path><rect x="85.7" y="389.41" width="12.14" height="7.05" style="fill:#dbdbdb"></rect><rect x="83.56" y="386.12" width="16.42" height="6.28" style="fill:#455a64"></rect><rect x="81.96" y="410.19" width="17.38" height="15.88" style="fill:#fff"></rect></g><g id="freepik--Microscope--inject-100"><path d="M446.37,407.58H437.5s-2.12-32.65-21.88-34.29c-10.46-.86-20.1,6.58-27.61,14.95,7.43-8.43,20.61-19.32,33.17-19.32C440.11,368.92,446.37,407.58,446.37,407.58Z" style="fill:#263238"></path><polygon points="387.81 306.44 401.42 278.7 406.02 284.93 394.35 306.44 387.81 306.44" style="fill:#263238"></polygon><rect x="386.11" y="293.12" width="33.27" height="7.98" transform="translate(-47.96 514.69) rotate(-62.19)" style="fill:#455a64"></rect><polygon points="398.51 313.69 402.74 312.54 415.52 288.87 414.04 284.26 398.51 313.69" style="fill:#37474f"></polygon><rect x="357.1" y="308.53" width="5.75" height="21.07" rx="2.65" transform="translate(160.31 -118.56) rotate(23.92)" style="fill:#37474f"></rect><rect x="373.28" y="318.24" width="5.75" height="21.07" rx="2.65" transform="translate(165.65 -124.29) rotate(23.92)" style="fill:#37474f"></rect><rect x="362.04" y="314.53" width="7.98" height="27.13" rx="3.59" transform="translate(164.49 -120.24) rotate(23.92)" style="fill:#37474f"></rect><rect x="392.93" y="233.79" width="7.98" height="27.13" rx="3.59" transform="translate(134.39 -139.69) rotate(23.92)" style="fill:#37474f"></rect><rect x="404.87" y="239.08" width="7.98" height="27.13" rx="3.59" transform="translate(137.57 -144.09) rotate(23.92)" style="fill:#37474f"></rect><path d="M360.66,309.92l28.57-59.48s8.16.27,22.28,10.07l-30.35,59.34A56.75,56.75,0,0,1,360.66,309.92Z" style="fill:#37474f"></path><path d="M386.84,324.83s-26.92-7.95-34.32-15.23l2.36-5.31a72.55,72.55,0,0,1,34.32,15.23Z" style="fill:#455a64"></path><path d="M412.54,262.2s-10.66-9.08-25.12-11.81l2.47-5.26C405.17,244.87,415,257,415,257Z" style="fill:#455a64"></path><path d="M392.7,298s-11.78-7.79-21.93-10.31a1.09,1.09,0,0,1-.56-1.54l2.77-5.89a1.27,1.27,0,0,1,1.55-.56A60.45,60.45,0,0,1,396.45,290a1.17,1.17,0,0,1,.56,1.55l-2.77,5.88A1.15,1.15,0,0,1,392.7,298Z" style="fill:#455a64"></path><path d="M411.68,290.73l2.13-1S443.52,303,442,338.39c-1,23.46-18.14,39.69-18.14,39.69s20.82-26.87,13-51.74S411.68,290.73,411.68,290.73Z" style="fill:#455a64"></path><path d="M439.58,340.83c-1.71,21.64-15.74,37.25-15.74,37.25H402.53c-9.77-12.85-25.31-20.36-25.31-20.36l17,3,1.51-.78,3-1.53s4.31,6.6,10.8,6.45a9.94,9.94,0,0,0,3.85-.86c7.58-3.28,11.41-23.41,7.87-35.43S402.2,309.1,402.2,309.1l9.48-18.37C428.63,298.34,441.28,319.19,439.58,340.83Z" style="fill:#37474f"></path><path d="M409.57,364.85s-5.58,1.89-13.81-4.93l3-1.53s4.31,6.6,10.8,6.45Z" style="fill:#455a64"></path><path d="M437.5,407.58H374c1.59-2.48,4.33-6.94,8-11.85l.23-.32c.1-.13.2-.25.29-.38a3,3,0,0,1,.18-.25l.55-.71.16-.21.59-.76c.32-.41.67-.85,1.06-1.32s.55-.67.83-1c.44-.52.9-1.07,1.4-1.64l.78-.89c7.51-8.37,17.15-15.81,27.61-14.95C435.38,374.93,437.5,407.58,437.5,407.58Z" style="fill:#455a64"></path><rect x="329.28" y="350.49" width="62.68" height="7.94" transform="translate(30.76 -28.79) rotate(4.77)" style="fill:#263238"></rect><rect x="391.82" y="353.68" width="13.9" height="7.94" transform="translate(31.16 -31.95) rotate(4.78)" style="fill:#37474f"></rect><path d="M386.5,402.35a2.15,2.15,0,1,1-2.15-2.15A2.15,2.15,0,0,1,386.5,402.35Z" style="fill:#263238"></path><path d="M431.16,402.35A2.15,2.15,0,1,1,429,400.2,2.15,2.15,0,0,1,431.16,402.35Z" style="fill:#263238"></path><path d="M413.44,380.23a2.15,2.15,0,1,1-2.15-2.15A2.15,2.15,0,0,1,413.44,380.23Z" style="fill:#263238"></path><path d="M396.92,264.83a2.15,2.15,0,1,1-2.15-2.15A2.15,2.15,0,0,1,396.92,264.83Z" style="fill:#263238"></path><path d="M378.3,304.29a2.15,2.15,0,1,1-2.15-2.15A2.15,2.15,0,0,1,378.3,304.29Z" style="fill:#263238"></path><path d="M417.67,305.05a2.15,2.15,0,1,1-2.15-2.15A2.15,2.15,0,0,1,417.67,305.05Z" style="fill:#263238"></path><circle cx="399.44" cy="367.19" r="2.15" style="fill:#263238"></circle></g></svg>