<svg xmlns="http://www.w3.org/2000/svg" viewBox="0 0 500 500"><g id="freepik--Sofa--inject-45"><rect x="93.88" y="233.97" width="50.47" height="132.43" style="fill:#00E77F"></rect><rect x="93.88" y="233.97" width="50.47" height="132.43" style="opacity:0.2"></rect><rect x="355.66" y="233.97" width="50.47" height="132.43" style="fill:#00E77F"></rect><rect x="355.66" y="233.97" width="50.47" height="132.43" style="opacity:0.2"></rect><rect x="144.34" y="140.75" width="211.33" height="225.65" style="fill:#00E77F"></rect><rect x="144.34" y="140.75" width="211.33" height="225.65" style="opacity:0.2"></rect><g style="opacity:0.2"><rect x="355.69" y="233.97" width="1.2" height="132.42"></rect><rect x="143.74" y="233.97" width="1.2" height="132.42"></rect><path d="M356.91,328H143.74V286.89H356.91ZM145,326.73H355.67V288.12H145Z"></path></g><g style="opacity:0.2"><path d="M157.5,213.16a.84.84,0,0,0,0,1.67A.84.84,0,0,0,157.5,213.16Z"></path><path d="M158.93,315.41a.84.84,0,0,0,0,1.67A.84.84,0,0,0,158.93,315.41Z"></path><path d="M216.05,299.44c0-.09-.09-.17-.13-.25a.38.38,0,0,0-.65,0,2,2,0,0,0-.13.25C214.66,300.43,216.52,300.43,216.05,299.44Z"></path><path d="M132.62,317.51c0-.08-.08-.17-.13-.25a.38.38,0,0,0-.65,0c-.05.08-.09.17-.13.25C131.24,318.5,133.1,318.5,132.62,317.51Z"></path><path d="M164.69,218.26a.64.64,0,0,0,0,1.28A.64.64,0,0,0,164.69,218.26Z"></path><path d="M120.2,283.07a.64.64,0,0,0,0,1.27A.64.64,0,0,0,120.2,283.07Z"></path><path d="M204,182.64a.89.89,0,0,0-1.25,0,1.25,1.25,0,0,0-.3,1.21,1,1,0,0,0,1.86,0A1.24,1.24,0,0,0,204,182.64Z"></path><path d="M165.93,310.68a.89.89,0,0,0-1.25,0,1.23,1.23,0,0,0-.3,1.2,1,1,0,0,0,1.85,0A1.21,1.21,0,0,0,165.93,310.68Z"></path><path d="M341.51,319.3a.84.84,0,0,0,0-1.68A.84.84,0,0,0,341.51,319.3Z"></path><path d="M290.77,207.74a.84.84,0,0,0,0-1.67A.84.84,0,0,0,290.77,207.74Z"></path><path d="M368.58,311.41c0,.08.08.17.13.25a.38.38,0,0,0,.65,0c.05-.08.09-.17.13-.25C370,310.42,368.11,310.42,368.58,311.41Z"></path><path d="M265.27,261.06a.89.89,0,0,0,1.25,0,1.23,1.23,0,0,0,.3-1.21,1,1,0,0,0-1.85,0A1.26,1.26,0,0,0,265.27,261.06Z"></path></g><g style="opacity:0.2"><path d="M145,328s53.22,10.38,105.3,10.38S355.66,328,355.66,328Z"></path></g><rect x="93.88" y="354.75" width="312.24" height="11.64" style="fill:#37474f"></rect><polygon points="161.48 366.4 148.65 392.67 135.76 419.08 124.53 419.08 128.7 392.67 132.85 366.4 161.48 366.4" style="fill:#37474f"></polygon><polygon points="132.85 366.4 161.49 366.4 153.7 382.33 130.34 382.33 132.85 366.4" style="fill:#263238"></polygon><polygon points="370.66 419.08 359.44 419.08 346.55 392.67 333.71 366.4 362.35 366.4 366.49 392.67 370.66 419.08" style="fill:#37474f"></polygon><polygon points="364.86 382.33 341.5 382.33 333.71 366.4 362.34 366.4 364.86 382.33" style="fill:#263238"></polygon></g><g id="freepik--Character--inject-45"><path d="M373.3,309.63c-.92-2.77-49.95-67.56-53.3-68.8-.38-.17-22.3,15.43-22.3,15.43-.9,1.21-42.56-7.6-42.56-7.6l-.42,50.26,75.89-1.61s10.25,6,19.63,10.93h0c5.77,3,10.88,5.6,12.34,6C366.4,315.2,374.23,312.38,373.3,309.63Z" style="fill: rgb(255, 196, 192);"></path><path d="M362.61,314.23c-1.47-.38-6.57-2.94-12.33-6h0c-9.37-4.91-19.62-10.95-19.62-10.95l-16.89.37L287.28,255c5.81,1,10.14,1.64,10.43,1.26,0,0,21.9-15.6,22.29-15.43,3.35,1.24,52.38,66,53.3,68.79S366.4,315.21,362.61,314.23Z" style="fill:#fff"></path><path d="M373.74,309.71c-1-2.84-50.21-67.58-53.65-68.86-1.3-.5-12,6.13-22.39,15.41L329.51,298s29.34,15.55,33.26,16.55S374.71,312.55,373.74,309.71Z" style="fill:#00E77F"></path><path d="M370.45,310.75c-8.52-10.65-41.89-54.41-49.51-65.58-.06-.1,0-.14.07-.06,8.68,10.38,41.69,54.41,49.62,65.51C370.79,310.85,370.63,311,370.45,310.75Z" style="fill:#263238"></path><path d="M357.27,312.12a11,11,0,0,1-2.29-8.51,10.64,10.64,0,0,1,3.95-6.84c.07,0,.16.07.1.13A12.66,12.66,0,0,0,357.41,312,.09.09,0,0,1,357.27,312.12Z" style="fill:#263238"></path><path d="M333.18,300.54c-3.36-4.3-5.66-10.5-4.16-15.9.06-.21.35-.13.39.05a75,75,0,0,0,4.37,15.52A.35.35,0,0,1,333.18,300.54Z" style="fill:#263238"></path><path d="M337,302.9c-3.36-4.3-5.66-10.5-4.16-15.9.06-.21.35-.13.38.05a76.22,76.22,0,0,0,4.37,15.52A.34.34,0,0,1,337,302.9Z" style="fill:#263238"></path><path d="M340.9,305.26c-3.36-4.3-5.66-10.5-4.16-15.9.05-.21.35-.13.38.05a76.22,76.22,0,0,0,4.37,15.52A.34.34,0,0,1,340.9,305.26Z" style="fill:#263238"></path><path d="M344.76,307.62c-3.37-4.3-5.66-10.5-4.16-15.91,0-.2.35-.12.38.06a75.58,75.58,0,0,0,4.37,15.52A.34.34,0,0,1,344.76,307.62Z" style="fill:#263238"></path><path d="M312.74,255.77c-3.7-4.88,3.89-10.63,7.59-5.74S316.44,260.66,312.74,255.77Z" style="fill:#263238"></path><path d="M331.27,308.86c1.24-4.64.42-9.66.21-14.38a.67.67,0,0,0-.94-.52.15.15,0,0,0-.23,0,28.68,28.68,0,0,0-8.11,12.4c-.86,2.8-.53,6.92,3,7.73C328.47,314.82,330.54,311.57,331.27,308.86Zm-3.45,2.94c-5.05,3.16-4.67-3.86-3.95-5.9a31.74,31.74,0,0,1,1.72-3.81,85.81,85.81,0,0,1,4.58-7.35c0,2.33.12,4.64.17,7C330.4,304.47,330.61,310.06,327.82,311.8Z" style="fill:#263238"></path><path d="M315.8,280.6c-2.57,2.5-.72,6.2,1.45,8.16a28.63,28.63,0,0,0,13.34,6.44.14.14,0,0,0,.17-.15.67.67,0,0,0,.55-.93c-2.25-4.15-4.14-8.88-7.6-12.22C321.69,280,318.24,278.24,315.8,280.6Zm10.81,7.92c1.16,2,2.21,4.08,3.44,6.05a83.47,83.47,0,0,1-7.71-3.94,28.86,28.86,0,0,1-3.44-2.38c-1.67-1.37-5.62-7.19.34-7.09C322.53,281.22,325.23,286.12,326.61,288.52Z" style="fill:#263238"></path><path d="M252.84,233.25H218.78S183.15,216.13,154.45,223c-32.9,7.91-37.11,49.23-12.52,63.84,31.16,18.52,169.82,14.93,169.82,14.93l-30-50.8s-46.11-9.71-87.92-8.3l59,8Z" style="fill:#263238"></path><path d="M283.77,254.28a.82.82,0,0,1-.06-.26l-.06-.22c0-.16-.08-.32-.13-.49a9,9,0,0,0-.35-1c-.12-.33-.27-.65-.42-1a7.07,7.07,0,0,0-.56-.9s-.05,0-.08,0a.1.1,0,0,0-.05,0s-.05,0-.08,0a.15.15,0,0,0-.07,0c-5.07-1-39.53-5.88-44.65-6.46s-10.35-1.07-15.53-1.5a307.23,307.23,0,0,0-31.09-1.12c-1,0-1.94.05-2.91.09-.21-.07-.43-.11-.64-.16-.5-.12-1-.24-1.5-.34-.93-.18-1.88-.32-2.82-.46-2-.3-3.93-.51-5.88-.87a.09.09,0,0,0,0,.18c2,.43,3.9,1,5.86,1.43.57.12,1.13.25,1.7.36-3.8.2-7.6.49-11.39.84a.1.1,0,0,0,0,.19c5.16-.31,10.36-.35,15.54-.26s10.26.2,15.39.5c10.38.59,20.74,1.52,31.08,2.6,5.8.61,40.93,5.74,46.75,6h.07c.05.13.1.27.16.4.16.31.32.63.5.93a9.68,9.68,0,0,0,.52.88c.09.14.18.28.28.42l.15.21a1.07,1.07,0,0,1,.15.22C283.64,254.48,283.84,254.4,283.77,254.28Z" style="fill:#455a64"></path><path d="M300.94,298.71c-1.86-3-3.44-6.13-5.14-9.19s-3.41-6.14-5.12-9.21c-3.41-6.12-15.65-26.7-16.86-28.14-.08-.09-.23,0-.2.12.58,1.59,8.22,15.22,10,18.25,3.52,6.08,7.21,12,10.86,18,1,1.71,2.11,3.4,3.17,5.11s2.18,3.37,3.14,5.12C300.83,298.92,301,298.82,300.94,298.71Z" style="fill:#455a64"></path><path d="M273.47,257.29c-3.06-.74-6.19-1.21-9.28-1.8s-6.2-1.17-9.3-1.74q-9.3-1.73-18.64-3.31c-12.4-2.08-24.86-3.82-37.39-5-7.07-.68-14.15-1.12-21.24-1.64-.15,0-.14.22,0,.23,12.61.57,25.21,2.28,37.7,4.07s24.72,3.73,37,5.81q5.22.88,10.44,1.79c3.53.61,7.06,1.36,10.61,1.81C273.55,257.51,273.61,257.32,273.47,257.29Z" style="fill:#455a64"></path><path d="M308.71,474.94c-3-.3-77.26-33.68-79.29-36.75-.78-1.15,3.45-12.26,9-25.53,1.18-2.86,2.43-5.81,3.71-8.8,8.27-19.43,17.51-39.85,17.51-39.85l49.75,22.19-18.88,39.23-4.14,8.62s22.72,25.5,24.59,29.1S311.7,475.24,308.71,474.94Z" style="fill: rgb(255, 196, 192);"></path><path d="M308.71,474.94c-3-.3-77.26-33.68-79.29-36.75-.94-1.41,5.5-17.51,12.66-34.33l48.38,21.57-4.14,8.62s22.72,25.5,24.59,29.1S311.7,475.24,308.71,474.94Z" style="fill:#fff"></path><path d="M308.71,474.94c-3-.3-77.26-33.68-79.29-36.75-.78-1.15,3.45-12.26,9-25.53l47.95,21.39s22.72,25.5,24.59,29.1S311.7,475.24,308.71,474.94Z" style="fill:#00E77F"></path><path d="M309,471.49c-12.31-5.9-62.54-28.55-75.16-33.44-.1,0-.13,0,0,.07,12.08,6.12,62.48,28.36,75.1,33.58C309.16,471.8,309.24,471.62,309,471.49Z" style="fill:#263238"></path><path d="M307.33,458.33a11,11,0,0,0-8.82-.3,10.64,10.64,0,0,0-5.77,5.39c0,.08.11.14.15.07a12.69,12.69,0,0,1,14.37-5A.09.09,0,0,0,307.33,458.33Z" style="fill:#263238"></path><path d="M290.59,437.46c-4.95-2.31-11.52-3.15-16.45-.46-.19.1,0,.37.15.36a75.57,75.57,0,0,1,16.11.75A.34.34,0,0,0,290.59,437.46Z" style="fill:#263238"></path><path d="M293.77,440.69c-5-2.31-11.52-3.15-16.45-.46-.19.1,0,.37.14.36a75.66,75.66,0,0,1,16.12.75A.34.34,0,0,0,293.77,440.69Z" style="fill:#263238"></path><path d="M296.94,443.92c-4.95-2.31-11.52-3.15-16.45-.47-.19.11,0,.38.14.37a75.66,75.66,0,0,1,16.12.75A.34.34,0,0,0,296.94,443.92Z" style="fill:#263238"></path><path d="M300.11,447.15c-4.95-2.31-11.52-3.15-16.45-.47-.19.11,0,.38.15.37a75.6,75.6,0,0,1,16.11.75A.34.34,0,0,0,300.11,447.15Z" style="fill:#263238"></path><path d="M242.31,427.65c-5.6-2.5-9.49,6.2-3.88,8.7S247.92,430.15,242.31,427.65Z" style="fill:#263238"></path><path d="M302,426.58c-1.59-3.22-5.68-2.61-8.21-1.13a28.63,28.63,0,0,0-10.26,10.7.15.15,0,0,0,.09.22c-.05.4.23.89.72.8,4.65-.86,9.73-1.2,14-3.46C300.76,432.39,303.45,429.63,302,426.58Zm-10.88,7.85c-2.28.47-4.56.84-6.82,1.4a84.27,84.27,0,0,1,6.13-6.12,30.57,30.57,0,0,1,3.33-2.55c1.82-1.16,8.58-3.12,6.64,2.52C299.29,432.8,293.8,433.86,291.08,434.43Z" style="fill:#263238"></path><path d="M270.28,432.44c4,2.61,9.07,3.39,13.63,4.64.47.13.8-.33.78-.74a.14.14,0,0,0,.11-.2,28.69,28.69,0,0,0-9.3-11.55c-2.4-1.68-6.43-2.65-8.28.43C265.47,427.93,267.92,430.91,270.28,432.44Zm-1.74-4.19c-1.45-5.79,5.12-3.25,6.84-1.94a30.57,30.57,0,0,1,3.1,2.82,83.82,83.82,0,0,1,5.58,6.62c-2.2-.75-4.45-1.31-6.68-2C274.73,433,269.34,431.44,268.54,428.25Z" style="fill:#263238"></path><path d="M243.21,399.3l56,25.3s66.61-127.84,68.35-167c1.48-33.3-21.7-46.15-96.65-24.61l-18.36.23v12.67c8.06,1.06,29.56,4.44,29.56,4.44,15.64,5.9,20.68,8.34,20.43,8.85C263.48,338,243.21,399.3,243.21,399.3Z" style="fill:#263238"></path><path d="M311.66,245.16c-2.26,3-4.35,6.14-6.35,9.34-12-5.35-25.11-8.44-38.13-10.05q-5.52-.67-11.09-1c-.15,0-.14.23,0,.24a167.55,167.55,0,0,1,38.79,7.38c3.49,1.08,6.9,2.32,10.34,3.55-2.4,3.84-4.67,7.78-6.84,11.74a233.3,233.3,0,0,0-10.94,22.84c-1.8,4.32-3.55,8.67-5.1,13.09,0,.13.17.21.22.09q10.26-22.87,22.39-44.76c2.28-4.12,4.66-8.18,6.89-12.33C311.92,245.18,311.74,245,311.66,245.16Z" style="fill:#455a64"></path><path d="M300.39,411.07c-3.27-1.27-6.43-2.86-9.62-4.3l-9.61-4.31c-6.4-2.86-28.52-12-30.35-12.46-.12,0-.18.15-.09.21,1.42.93,15.69,7.28,18.92,8.66,6.46,2.77,13,5.33,19.49,8,1.86.75,3.73,1.46,5.6,2.19s3.76,1.4,5.59,2.23C300.43,411.3,300.5,411.11,300.39,411.07Z" style="fill:#455a64"></path><path d="M311.38,250.93c-4.41,8.39-8.17,17.17-12,25.84s-7.53,17.31-11.14,26q-10.77,26.06-20.06,52.7c-3.52,10-6.81,20.16-10,30.3-.05.15.18.2.23.06,5.93-17.94,12.35-35.72,19.05-53.38s13.8-35.08,21.32-52.37q3.17-7.28,6.43-14.51c2.18-4.83,4.45-9.63,6.49-14.51C311.76,250.9,311.49,250.73,311.38,250.93Z" style="fill:#455a64"></path><path d="M217.08,232.19c1.23,1.3,79,3.08,79.4,2.59,1.06-1.34-9-50.7-17.11-69.57C269,141,263.09,138.85,259.6,137.41c-4.46-1.84-12.58-1.41-14.54-.59-2.23.91-11.88,11.74-14.78,20.49C224.47,174.9,216,231.05,217.08,232.19Z" style="fill:#455a64"></path><path d="M265.94,141.72H239.89c.48-.56,1-1.09,1.4-1.57h23C264.8,140.59,265.35,141.11,265.94,141.72Zm3.28,4.1H236.64l-1.11,1.56h34.74Q269.73,146.56,269.22,145.82Zm3.51,5.66H233c-.3.52-.58,1-.85,1.56h41.47Zm2.95,5.67H230.34l-.06.16c-.15.44-.29.91-.44,1.4h46.59C276.18,158.17,275.93,157.66,275.68,157.15Zm2.64,5.66H228.69c-.13.5-.27,1-.4,1.56H279Zm2.36,5.66H227.3c-.11.52-.23,1-.35,1.57h54.31C281.07,169.5,280.87,169,280.68,168.47Zm2,5.67h-56.6q-.18.78-.33,1.56h57.44Zm1.77,5.66H224.91c-.1.52-.21,1-.31,1.56h60.31C284.75,180.83,284.6,180.31,284.44,179.8Zm1.63,5.67H223.82c-.1.52-.19,1-.29,1.56h63C286.36,186.51,286.22,186,286.07,185.47Zm1.53,5.66H222.79c-.1.52-.19,1-.28,1.56H288C287.87,192.17,287.74,191.65,287.6,191.13Zm1.45,5.66H221.8l-.27,1.57h67.9C289.3,197.84,289.17,197.31,289.05,196.79Zm1.37,5.67H220.85c-.08.52-.17,1-.25,1.56h70.18Zm1.3,5.66H220l-.24,1.56h72.36C292,209.16,291.84,208.64,291.72,208.12Zm1.25,5.66H219.09c-.08.53-.15,1.06-.23,1.57H293.3Zm1.18,5.67H218.29q-.12.81-.21,1.56h76.37C294.36,220.5,294.25,220,294.15,219.45Zm1.09,5.66H217.55c-.06.55-.12,1.08-.17,1.57h78.14C295.43,226.18,295.34,225.65,295.24,225.11Zm1,5.67H217a3.45,3.45,0,0,0,.07,1.41,1.17,1.17,0,0,0,.47.15H296.4C296.35,231.88,296.28,231.36,296.2,230.78Z" style="fill:#263238"></path><path d="M272.49,144c33.54,25.2,62.54,60.18,59.76,71.26-2.95,11.71-26.13,24.81-46.61,27.48-4.19.55-17.16-30.2-12.87-31.61,3.35-1.1,18.57-5.43,20.39-7.51,1.26-1.45-22.35-34.67-30-52C255.08,133.41,263.51,137.21,272.49,144Z" style="fill: rgb(255, 196, 192);"></path><path d="M281.42,210.16s-12.8,1.28-21.13,2.52c-4.65.69-12.51,2.58-15.69,4.65-4.76,3.09-22.7,19.07-18.92,23.5,3.42,4,8.59-2.34,8.59-2.34s-6.3,6.41-1.68,9.35,10.58-6,10.58-6-7.16,6.34-1.93,9c4.54,2.31,12.48-7.23,12.48-7.23s-8.25,5.84-3.83,8.66c4.88,3.12,18.58-9.68,18.58-9.68,10.95,1.22,17.7.47,25.42-1.69C295.3,240.54,281.42,210.16,281.42,210.16Z" style="fill: rgb(255, 196, 192);"></path><path d="M241.25,244c.49-.68,1-1.35,1.5-2a42.22,42.22,0,0,1,3.06-3.84c1.09-1.17,2.23-2.29,3.4-3.38s2.61-2.17,3.81-3.35a.1.1,0,1,1,.13.14,43.79,43.79,0,0,0-3.42,3.65c-1.09,1.22-2.16,2.45-3.24,3.68s-2.17,2.33-3.26,3.5c-.54.59-1,1.2-1.57,1.8a13.6,13.6,0,0,1-1.5,1.71.08.08,0,0,1-.11-.09A10.18,10.18,0,0,1,241.25,244Z" style="fill:#263238"></path><path d="M233,239.85a66.6,66.6,0,0,1,5.53-7.25,45.84,45.84,0,0,1,6.75-6.16c.09-.06.2.06.13.14-2,2.28-4.11,4.52-6.18,6.77-1,1.1-5.45,6.23-6,6.71C233.1,240.18,232.92,240,233,239.85Z" style="fill:#263238"></path><path d="M248.91,248.13a64.56,64.56,0,0,1,5.32-6.73A59.67,59.67,0,0,1,261.1,236c.09,0,.21.06.13.14-2.15,2-4.32,3.92-6.36,6-1,1-4.74,5.3-5.78,6.19C249,248.37,248.85,248.24,248.91,248.13Z" style="fill:#263238"></path><path d="M309.78,175l-25.54,16.56s-18.95-29.34-23.86-43.24.81-13.93,14.22-3.86S309.78,175,309.78,175Z" style="fill:#455a64"></path><path d="M270.72,141.72h-12a7.7,7.7,0,0,1,0-1.57h9.61C269,140.61,269.86,141.14,270.72,141.72Zm5.62,4.1H259.56c.14.5.3,1,.49,1.56h18.28Zm7,5.66H261.61c.21.5.44,1,.68,1.56h22.9C284.57,152.51,284,152,283.33,151.48Zm6.65,5.67H264.24l.78,1.56h26.75Zm6.43,5.66H267.15c.28.51.56,1,.85,1.56h30.14Zm6.27,5.66H270.27l.89,1.57h33.23Zm6.15,5.67H273.54c.31.53.61,1.05.92,1.56h34.29l1-.67Zm-31.92,5.66.94,1.56H300l2.4-1.56Zm3.47,5.67,1,1.56h9.92l2.41-1.56Zm3.57,5.66.29.46.71-.46Z" style="fill:#263238"></path><path d="M304,171.37c-9.74,7.75-19.36,13-21.27,14.35-.09.06-.17-.09-.08-.15,1.94-1.18,12.35-8.84,21.25-14.36C304,171.14,304.07,171.3,304,171.37Z" style="fill:#263238"></path><path d="M285.88,190.46a12.81,12.81,0,0,0-1.55.8c-2.84-4.9-5.9-9.86-8.79-14.74l-4.24-7.16c-1.46-2.49-2.8-5.09-4.4-7.49a.06.06,0,0,0-.11.06,76.2,76.2,0,0,0,3.48,6.94c-.26-.34-.51-.7-.79-1-.63-.75-1.25-1.5-1.81-2.3-.09-.12-.3,0-.21.12.54.76,1,1.55,1.51,2.35s1,1.56,1.55,2.33,1.09,1.44,1.66,2.13a2.56,2.56,0,0,0,.2.26c.78,1.43,1.54,2.86,2.35,4.27,2.84,4.93,9.29,14.86,9.38,14.83a13.18,13.18,0,0,0,1.85-1.23C286,190.54,286,190.44,285.88,190.46Z" style="fill:#263238"></path><path d="M230.47,143c-27.22,14.14-52.78,31.34-57.58,43.29-3,7.52.71,21.15,3.74,29.34,1.48,4,39.13-11.54,36-14.85-7.74-8.18-9-11.46-8.15-13.12.53-1.06,30.32-26.92,38.68-38.58C254.82,132.84,242.38,136.81,230.47,143Z" style="fill: rgb(255, 196, 192);"></path><path d="M226.86,237.71c-3.56,2-7.74-7.19-7.74-7.19a7.5,7.5,0,0,1-2.1,4.67c-2.26,2.12-6.57-.5-6.57-.5a9.31,9.31,0,0,1-3,4.57c-2.37,1.81-7.1-.2-7.1-.2a8.11,8.11,0,0,1-5.17,2.35c-5.22.16-9.65-6.47-12.52-10.65s-7.06-18.75-8.14-21.44l26.71-18.61s18.18,15.12,20.85,20.52C224.32,215.78,232.29,234.66,226.86,237.71Z" style="fill: rgb(255, 196, 192);"></path><path d="M219.18,230.39C218,225,215.43,219.88,213,215c-.06-.11-.23,0-.17.08,2.53,4.85,3.82,10.49,6.16,15.42A.13.13,0,0,0,219.18,230.39Z" style="fill:#263238"></path><path d="M210.74,234.36a14.64,14.64,0,0,0-1.65-3.4c-.67-1.16-1.35-2.31-2.05-3.46-1.41-2.28-2.87-4.53-4.4-6.74-.07-.1-.23,0-.17.09,1.4,2.28,2.77,4.58,4.07,6.91.65,1.17,1.29,2.35,1.93,3.52a17.14,17.14,0,0,0,1.94,3.25A.19.19,0,0,0,210.74,234.36Z" style="fill:#263238"></path><path d="M200.29,239a10.17,10.17,0,0,0-1.64-3c-.67-1-1.32-2.06-2-3.09-1.31-2.07-2.61-4.14-3.84-6.25a.1.1,0,0,0-.17.09c1.24,2.15,2.45,4.32,3.71,6.46.62,1,1.24,2.1,1.87,3.15a9.34,9.34,0,0,0,1.94,2.7C200.24,239.06,200.31,239,200.29,239Z" style="fill:#263238"></path><path d="M191.15,164.19l19.93,19.55s26.21-23.21,33.8-35.85,2-13.82-13.17-6.62S191.15,164.19,191.15,164.19Z" style="fill:#00E77F"></path><path d="M191.15,164.19l19.93,19.55s26.21-23.21,33.8-35.85,2-13.82-13.17-6.62S191.15,164.19,191.15,164.19Z" style="fill:#455a64"></path><path d="M248.2,140.15a8.36,8.36,0,0,1-.35,1.57H230.78l.93-.45c.84-.4,1.65-.77,2.43-1.12Zm-25.41,5.67-2.88,1.56h25.27c.32-.54.62-1.07.89-1.56Zm-10.2,5.66L209.86,153h31.41c.41-.53.8-1,1.18-1.56Zm-9.77,5.67-2.61,1.56H236.5c.46-.52.92-1,1.36-1.56Zm-9.42,5.66-2.25,1.38.18.18h39.92l1.48-1.56Zm2.11,5.66,1.6,1.57h28.55l1.57-1.57Zm5.78,5.67,1.59,1.56H219.8l1.65-1.56Zm5.77,5.66,1.59,1.56h5.07l1.7-1.56Z" style="fill:#263238"></path><path d="M215.22,178.63c-9.2-7.82-16-15.95-17.58-17.51-.07-.08.06-.19.13-.11,1.48,1.62,10.71,10.09,17.6,17.5C215.45,178.6,215.31,178.71,215.22,178.63Z" style="fill:#263238"></path><path d="M232.85,152.64c-1,2.14-2,4.27-2.85,6.47,0-.15,0-.29,0-.44a28.33,28.33,0,0,1,.61-4c0-.15-.19-.22-.23-.07-.3,1.33-.57,2.68-.78,4-.11.65-.17,1.3-.22,1.95a2.12,2.12,0,0,1,0,.24.19.19,0,0,0,0,.08c-1,2.93-1.58,5.93-2.41,8.89a.11.11,0,1,0,.22.06c.82-2.9,2-5.71,3-8.54s1.86-5.72,2.84-8.57C233.06,152.62,232.89,152.54,232.85,152.64Z" style="fill:#263238"></path><path d="M246.87,150.31c4.38,1.2,12.21-5.26,15.4-10.62.22-.37-.21-4.34-.5-9.19-.17-3-.29-6.23-.18-9.23,0-.62-19,3.88-19,3.88a48,48,0,0,1,1.4,11.6,7.61,7.61,0,0,1-.18,1.22,1.18,1.18,0,0,0,0,.21C243.31,140.5,242.64,149.14,246.87,150.31Z" style="fill: rgb(255, 196, 192);"></path><path d="M260.43,121.3c-1.06,5-4.67,17.2-14.73,17a10.31,10.31,0,0,1-1.92-.17,1.05,1.05,0,0,1,0-.21,7.61,7.61,0,0,0,.18-1.22,48.16,48.16,0,0,0-1.4-11.61S256.32,121.9,260.43,121.3Z" style="fill:#263238"></path><path d="M241.44,110.75c.09,4.61-3.12,8.42-7.17,8.49s-7.4-3.59-7.49-8.21,3.12-8.42,7.17-8.5S241.35,106.13,241.44,110.75Z" style="fill:#00E77F"></path><ellipse cx="235.67" cy="111.15" rx="8.16" ry="9.3" transform="translate(-2.1 4.56) rotate(-1.1)" style="fill:#c7c7c7"></ellipse><path d="M260.62,96.33c3.11,6.26,2.81,25.88-1.17,30.91-5.77,7.29-16.8,9.73-23.4,2.44-6.39-7.08-5.54-32.64-.94-37.37C241.87,85.34,256,87.09,260.62,96.33Z" style="fill: rgb(255, 196, 192);"></path><path d="M245.16,113.38s.1.06.1.12c-.06,1.32.1,2.84,1.29,3.29,0,0,0,.08,0,.08C245.09,116.65,244.9,114.62,245.16,113.38Z" style="fill:#263238"></path><path d="M246.36,112c2.12-.14,2.24,4.13.27,4.26S244.57,112.13,246.36,112Z" style="fill:#263238"></path><path d="M237.77,113.63s-.11.07-.1.12c.08,1.32-.06,2.84-1.24,3.32,0,0,0,.08,0,.07C237.9,116.89,238.05,114.87,237.77,113.63Z" style="fill:#263238"></path><path d="M236.55,112.28c-2.13-.1-2.18,4.17-.21,4.26S238.33,112.37,236.55,112.28Z" style="fill:#263238"></path><path d="M248.23,108.58a14.54,14.54,0,0,1-1.74-.23,2.86,2.86,0,0,1-1.73-.58.89.89,0,0,1-.08-1.09,2.24,2.24,0,0,1,2.16-.69,3.25,3.25,0,0,1,2.15,1A1,1,0,0,1,248.23,108.58Z" style="fill:#263238"></path><path d="M234.5,109.23c.59-.12,1.11-.32,1.68-.49a2.85,2.85,0,0,0,1.62-.83.9.9,0,0,0-.08-1.1,2.22,2.22,0,0,0-2.24-.35,3.27,3.27,0,0,0-2,1.31A1,1,0,0,0,234.5,109.23Z" style="fill:#263238"></path><path d="M247.72,125.6c-.31.31-.62.75-1.09.8a3.52,3.52,0,0,1-1.43-.29s-.09,0-.06.07a1.79,1.79,0,0,0,1.7.67,1.41,1.41,0,0,0,1-1.2C247.86,125.57,247.76,125.55,247.72,125.6Z" style="fill:#263238"></path><path d="M246.21,121.68a4.5,4.5,0,0,1-2.94,2.09,5.85,5.85,0,0,1-1.62.12,1.55,1.55,0,0,1-.31,0l-.29,0a.32.32,0,0,1-.27-.29h0a.66.66,0,0,1,0-.14h0v-.12c-.05-1,0-2.56,0-2.56-.36.19-2.23,1.1-2.22.57.14-4.41.29-9.31,1.36-13.67a.12.12,0,0,1,.24,0c0,4.24-.67,8.46-.71,12.72a7.68,7.68,0,0,1,2.11-.7c.14,0-.16,3-.1,3.44a.18.18,0,0,0,0,0,6.23,6.23,0,0,0,4.62-1.58C246.18,121.49,246.29,121.57,246.21,121.68Z" style="fill:#263238"></path><path d="M242.24,123.35a5.34,5.34,0,0,0,2.18,1.6,2.41,2.41,0,0,0,1.46,0c1.05-.31,1.05-1.28.83-2.1a6,6,0,0,0-.51-1.26A6.89,6.89,0,0,1,242.24,123.35Z" style="fill:#263238"></path><path d="M244.42,125a2.41,2.41,0,0,0,1.46,0c1.05-.31,1.05-1.28.83-2.1A2.49,2.49,0,0,0,244.42,125Z" style="fill:#ff98b9"></path><path d="M262.71,110.25c-1.28-.24-4.24-4.67-5.51-6.43s-1.77-11.06-1.84-13.16a13.92,13.92,0,0,1,5.26,5.67C262,99.13,262.71,104.6,262.71,110.25Z" style="fill:#263238;opacity:0.2"></path><path d="M239.21,97.89a6.66,6.66,0,0,0,6.08,2.22A6.77,6.77,0,0,0,250.48,96c0-.06.12,0,.1,0a6.7,6.7,0,0,1-5.2,4.57,6.84,6.84,0,0,1-6.3-2.64C239,97.91,239.14,97.81,239.21,97.89Z" style="fill:#263238"></path><path d="M246,81.45c3.85.07,7.39,2.18,8.82,4.79a7.47,7.47,0,0,1,.75,4.85c0,.07-.15.06-.14,0a8.19,8.19,0,0,0-3.9-7.37,10.53,10.53,0,0,0-9.34-1.07,6.74,6.74,0,0,0-3.57,2.9c-.07.14-.36,0-.3-.1C239.34,83,242.5,81.4,246,81.45Z" style="fill:#263238"></path><path d="M223.68,89.93a8.45,8.45,0,0,1,3.59-4.59c2.35-1.47,5-1.27,7.67-1,.08,0,.07.12,0,.11-2.26-.21-4.56-.29-6.63.79a8.28,8.28,0,0,0-3.84,4.08,8.13,8.13,0,0,0,3.43,10.08,8.25,8.25,0,0,0,6.52.63c.08,0,.14.09.06.13a8.3,8.3,0,0,1-10.8-10.21Z" style="fill:#263238"></path><path d="M261.92,100.15s3.58-6.92.49-10.88c-1.76-2.24-7.5-1.88-7.5-1.88a10.38,10.38,0,0,0-6.66-4.33c-4.82-1-10.51,1.82-10.51,1.82s-4.59-2.57-8.84-.08c-5.93,3.47-5.09,12.55.94,15.41,4.24,2,9.93-1.79,9.93-1.79.55.07,6.22,3.41,10.43-1.66,0,0,3.49,3,6.58.85A5,5,0,0,0,261.92,100.15Z" style="fill:#263238"></path><path d="M259.14,112.53s3.41-6.81,6.44-5.68,1.09,10.56-2,12.27a3.38,3.38,0,0,1-4.75-1.14Z" style="fill: rgb(255, 196, 192);"></path><path d="M265,109.54c.05,0,.07.06,0,.09-2.17,1.27-3.07,3.59-3.6,5.93a1.87,1.87,0,0,1,2.69-.91c.07,0,0,.14,0,.13a2.08,2.08,0,0,0-2.16,1,9.82,9.82,0,0,0-.82,2c-.08.23-.47.17-.42-.08v0C260.16,114.75,261.84,110.3,265,109.54Z" style="fill:#263238"></path><polygon points="251.71 126.18 257.93 123.69 263.04 117.66 262.11 116.87 257.2 122.67 251.26 125.05 251.71 126.18" style="fill:#c7c7c7"></polygon><path d="M252.39,125.22c-.55-1.81-5.59-1.28-4.75,1.46S253,127,252.39,125.22Z" style="fill:#37474f"></path><path d="M265.68,106.67s.93-10.06-1.87-15.69c-3.13-6.27-16.59-12.51-26.07-6.1,0,0,15.24-2.32,22.07,6.44,2.88,3.69,2.5,15.53,2.5,15.53Z" style="fill:#c7c7c7"></path><ellipse cx="264.26" cy="111.81" rx="9.3" ry="8.16" transform="translate(143.04 371.88) rotate(-87.94)" style="fill:#c7c7c7"></ellipse><path d="M258.5,111.31c-.17,4.61,3,8.47,7,8.61s7.47-3.47,7.63-8.08-3-8.47-7-8.62S258.66,106.7,258.5,111.31Z" style="fill:#00E77F"></path><path d="M264.55,141.08a87.88,87.88,0,0,1-6.58,7.31c-2.25,2.1-5,4-8,4.3s-6-.28-7.11-3.92c-.9-2.89-.78-5.87-.3-9.59a.11.11,0,1,0-.22,0c-.64,4.78-1.28,12.19,3.07,13.8,4.88,1.81,9.62-.74,13-4.12a45.8,45.8,0,0,0,6.26-7.67C264.67,141.1,264.59,141,264.55,141.08Z" style="fill:#263238"></path></g><g id="freepik--Device--inject-45"><rect x="200.68" y="250.56" width="88.93" height="3.99" style="fill:#c7c7c7"></rect><polygon points="270.57 250.56 273.62 254.55 200.68 254.55 200.68 250.56 270.57 250.56" style="fill:#a6a6a6"></polygon><polygon points="266.77 254.55 180.1 254.55 172.89 195.69 259.56 195.69 266.77 254.55" style="fill:#c7c7c7"></polygon><path d="M225.11,225.12a5.17,5.17,0,0,1-5.19,5.27,5.38,5.38,0,0,1-5.36-5.27,5.15,5.15,0,0,1,5.18-5.28A5.4,5.4,0,0,1,225.11,225.12Z" style="fill:#fff"></path></g><g id="freepik--Table--inject-45"><rect x="373.51" y="262.33" width="92.72" height="11.88" style="fill:#455a64"></rect><rect x="376.12" y="274.21" width="87.49" height="3.71" style="fill:#37474f"></rect><rect x="388.62" y="364.54" width="62.5" height="3.71" style="fill:#455a64"></rect><polygon points="386.59 419.08 381.96 419.08 381.96 277.92 394.59 277.92 386.59 419.08" style="fill:#455a64"></polygon><polygon points="394.59 277.92 394.12 286.27 381.96 286.27 381.96 277.92 394.59 277.92" style="fill:#263238"></polygon><polygon points="453.14 419.08 457.78 419.08 457.78 277.92 445.14 277.92 453.14 419.08" style="fill:#455a64"></polygon><polygon points="445.14 277.92 445.62 286.27 457.77 286.27 457.77 277.92 445.14 277.92" style="fill:#263238"></polygon></g></svg>