<?xml version="1.0" encoding="UTF-8" standalone="no"?>
<!DOCTYPE svg PUBLIC "-//W3C//DTD SVG 1.1//EN" "http://www.w3.org/Graphics/SVG/1.1/DTD/svg11.dtd">
<svg width="100%" height="100%" viewBox="0 0 512 512" version="1.1" xmlns="http://www.w3.org/2000/svg" xmlns:xlink="http://www.w3.org/1999/xlink" xml:space="preserve" xmlns:serif="http://www.serif.com/" style="fill-rule:evenodd;clip-rule:evenodd;stroke-linecap:round;stroke-linejoin:round;stroke-miterlimit:1.5;">
    <g transform="matrix(6.17707,0,0,2.52652,-311.407,0)">
        <ellipse cx="91.857" cy="101.325" rx="41.444" ry="101.325" style="fill:white;"/>
    </g>
    <g transform="matrix(1.06889,0,0,1.06889,-4.03377,-37.2952)">
        <path d="M406.665,162.974L79.884,162.974C71.488,162.35 68.529,165.76 68.029,174.435C64.456,236.341 65.49,301.252 66.362,370.269C66.456,377.723 67.647,380.743 74.083,380.602C121.621,377.225 169.158,376.868 216.695,380.602C212.633,384.192 211.869,387.123 216.695,388.935C235.071,390.412 252.811,390.459 269.853,388.935C274.68,387.123 273.916,384.192 269.853,380.602C317.391,376.868 364.928,377.225 412.466,380.602C418.902,380.743 420.093,377.723 420.187,370.269C421.058,301.252 422.093,236.341 418.52,174.435C418.019,165.76 415.061,162.35 406.665,162.974" style="fill:rgb(255,227,151);"/>
    </g>
    <g transform="matrix(1.06889,0,0,1.06889,-4.03377,-37.2952)">
        <path d="M243.362,357.435C219.887,333.896 188.282,330.919 149.695,345.602C128.086,353.825 111.276,359.017 91.362,357.269L91.362,357.435C86.39,360.213 80.89,365.102 75.029,371.435C125.879,368.397 179.623,368.251 236.695,371.435C240.751,360.356 245.131,360.181 249.853,371.435C306.926,368.251 360.669,368.397 411.52,371.435C405.659,365.102 400.159,360.213 395.187,357.435L395.187,357.269C375.273,359.017 358.462,353.825 336.853,345.602C298.267,330.919 266.662,333.896 243.187,357.435" style="fill:rgb(189,189,194);"/>
    </g>
    <g transform="matrix(1.06889,0,0,1.06889,-4.03377,-37.2952)">
        <path d="M243.362,357.435L243.362,150.769C212.17,123.467 176.11,116.348 136.695,136.935C123.075,144.05 110.692,147.477 91.362,149.935C90.007,218.595 90.051,287.72 91.362,357.269C111.276,359.017 128.086,353.825 149.695,345.602C188.282,330.919 219.887,333.896 243.362,357.435Z" style="fill:white;"/>
    </g>
    <g transform="matrix(-1.06889,0,0,1.06889,516.034,-37.2952)">
        <path d="M91.362,149.935C86.067,154.126 81.102,159.967 76.695,168.602C73.963,230.989 73.317,298.382 75.029,371.435C80.89,365.102 86.39,360.213 91.362,357.435" style="fill:rgb(189,189,194);"/>
    </g>
    <g transform="matrix(1.06889,0,0,1.06889,-4.03377,-37.2952)">
        <path d="M91.362,357.435C86.39,360.213 80.89,365.102 75.029,371.435C73.317,298.382 73.963,230.989 76.695,168.602C81.102,159.967 86.067,154.126 91.362,149.935C90.007,218.595 90.051,287.72 91.362,357.269" style="fill:rgb(189,189,194);"/>
    </g>
    <g transform="matrix(-1.06889,0,0,1.06889,516.034,-37.2952)">
        <path d="M243.362,357.435L243.362,150.769C212.17,123.467 176.11,116.348 136.695,136.935C123.075,144.05 110.692,147.477 91.362,149.935C90.007,218.595 90.051,287.72 91.362,357.269C111.276,359.017 128.086,353.825 149.695,345.602C188.282,330.919 219.887,333.896 243.362,357.435Z" style="fill:white;"/>
    </g>
    <g transform="matrix(1.06889,0,0,1.06889,-4.03377,-37.2952)">
        <path d="M236.695,371.435C240.751,360.356 245.131,360.181 249.853,371.435" style="fill:none;stroke:black;stroke-width:3.74px;"/>
        <path d="M243.362,357.435L243.362,150.769C212.17,123.467 176.11,116.348 136.695,136.935C123.075,144.05 110.692,147.477 91.362,149.935C90.007,218.595 90.051,287.72 91.362,357.269C111.276,359.017 128.086,353.825 149.695,345.602C188.282,330.919 219.887,333.896 243.362,357.435Z" style="fill:none;stroke:black;stroke-width:3.74px;"/>
        <path d="M75.029,371.435C125.879,368.397 179.623,368.251 236.695,371.435" style="fill:none;stroke:black;stroke-width:3.74px;"/>
        <path d="M79.884,162.974C71.488,162.35 68.529,165.76 68.029,174.435C64.456,236.341 65.49,301.252 66.362,370.269C66.456,377.723 67.647,380.743 74.083,380.602C121.621,377.225 169.158,376.868 216.695,380.602C212.633,384.192 211.869,387.123 216.695,388.935C235.071,390.412 252.811,390.459 269.853,388.935" style="fill:none;stroke:black;stroke-width:3.74px;"/>
        <g transform="matrix(1,0,0,1,0,142)">
            <path d="M107.695,172.435C128.364,170.766 146.258,162.216 165.195,158.996C185.2,155.595 203.14,157.088 222.695,162.902" style="fill:none;stroke:black;stroke-width:3.74px;"/>
        </g>
        <g transform="matrix(1,0,0,1,0,109)">
            <path d="M107.695,172.435C128.364,170.766 146.258,162.216 165.195,158.996C185.2,155.595 203.14,157.088 222.695,162.902" style="fill:none;stroke:black;stroke-width:3.74px;"/>
        </g>
        <g transform="matrix(1,0,0,1,0,75)">
            <path d="M107.695,172.435C128.364,170.766 146.258,162.216 165.195,158.996C185.2,155.595 203.14,157.088 222.695,162.902" style="fill:none;stroke:black;stroke-width:3.74px;"/>
        </g>
        <g transform="matrix(1,0,0,1,0,42)">
            <path d="M107.695,172.435C128.364,170.766 146.258,162.216 165.195,158.996C185.2,155.595 203.14,157.088 222.695,162.902" style="fill:none;stroke:black;stroke-width:3.74px;"/>
        </g>
        <g transform="matrix(1,0,0,1,0,10)">
            <path d="M107.695,172.435C128.364,170.766 146.258,162.216 165.195,158.996C185.2,155.595 203.14,157.088 222.695,162.902" style="fill:none;stroke:black;stroke-width:3.74px;"/>
        </g>
        <path d="M91.362,149.935C86.067,154.126 81.102,159.967 76.695,168.602C73.963,230.989 73.317,298.382 75.029,371.435C80.89,365.102 86.39,360.213 91.362,357.435" style="fill:none;stroke:black;stroke-width:3.74px;"/>
        <g transform="matrix(-1,0,0,1,486.549,0)">
            <path d="M243.362,357.435L243.362,150.769C212.17,123.467 176.11,116.348 136.695,136.935C123.075,144.05 110.692,147.477 91.362,149.935C90.007,218.595 90.051,287.72 91.362,357.269C111.276,359.017 128.086,353.825 149.695,345.602C188.282,330.919 219.887,333.896 243.362,357.435Z" style="fill:none;stroke:black;stroke-width:3.74px;"/>
        </g>
        <g transform="matrix(-1,0,0,1,486.549,0)">
            <path d="M75.029,371.435C125.879,368.397 179.623,368.251 236.695,371.435" style="fill:none;stroke:black;stroke-width:3.74px;"/>
        </g>
        <g transform="matrix(-1,0,0,1,486.549,0)">
            <path d="M79.884,162.974C71.488,162.35 68.529,165.76 68.029,174.435C64.456,236.341 65.49,301.252 66.362,370.269C66.456,377.723 67.647,380.743 74.083,380.602C121.621,377.225 169.158,376.868 216.695,380.602C212.633,384.192 211.869,387.123 216.695,388.935" style="fill:none;stroke:black;stroke-width:3.74px;"/>
        </g>
        <g transform="matrix(-1,0,0,1,486.549,142)">
            <path d="M107.695,172.435C128.364,170.766 146.258,162.216 165.195,158.996C185.2,155.595 203.14,157.088 222.695,162.902" style="fill:none;stroke:black;stroke-width:3.74px;"/>
        </g>
        <g transform="matrix(-1,0,0,1,486.549,109)">
            <path d="M107.695,172.435C128.364,170.766 146.258,162.216 165.195,158.996C185.2,155.595 203.14,157.088 222.695,162.902" style="fill:none;stroke:black;stroke-width:3.74px;"/>
        </g>
        <g transform="matrix(-1,0,0,1,486.549,75)">
            <path d="M107.695,172.435C128.364,170.766 146.258,162.216 165.195,158.996C185.2,155.595 203.14,157.088 222.695,162.902" style="fill:none;stroke:black;stroke-width:3.74px;"/>
        </g>
        <g transform="matrix(-1,0,0,1,486.549,42)">
            <path d="M107.695,172.435C128.364,170.766 146.258,162.216 165.195,158.996C185.2,155.595 203.14,157.088 222.695,162.902" style="fill:none;stroke:black;stroke-width:3.74px;"/>
        </g>
        <g transform="matrix(-1,0,0,1,486.549,10)">
            <path d="M107.695,172.435C128.364,170.766 146.258,162.216 165.195,158.996C185.2,155.595 203.14,157.088 222.695,162.902" style="fill:none;stroke:black;stroke-width:3.74px;"/>
        </g>
        <g transform="matrix(-1,0,0,1,486.549,0)">
            <path d="M91.362,149.935C86.067,154.126 81.102,159.967 76.695,168.602C73.963,230.989 73.317,298.382 75.029,371.435C80.89,365.102 86.39,360.213 91.362,357.435" style="fill:none;stroke:black;stroke-width:3.74px;"/>
        </g>
    </g>
</svg>
