<?xml version="1.0" encoding="UTF-8" standalone="no"?>
<!DOCTYPE svg PUBLIC "-//W3C//DTD SVG 1.1//EN" "http://www.w3.org/Graphics/SVG/1.1/DTD/svg11.dtd">
<svg width="100%" height="100%" viewBox="0 0 512 512" version="1.1" xmlns="http://www.w3.org/2000/svg" xmlns:xlink="http://www.w3.org/1999/xlink" xml:space="preserve" xmlns:serif="http://www.serif.com/" style="fill-rule:evenodd;clip-rule:evenodd;stroke-linecap:round;stroke-linejoin:round;stroke-miterlimit:1.5;">
    <g transform="matrix(1.24564,0,0,1.37765,-12.5993,-75.9615)">
        <ellipse cx="215.631" cy="240.962" rx="205.516" ry="185.824" style="fill:white;"/>
    </g>
    <g transform="matrix(1.02034,0.475792,-0.462352,0.991517,136.578,-124.404)">
        <ellipse cx="226.662" cy="249.183" rx="100.898" ry="103.831" style="fill:rgb(159,169,248);"/>
    </g>
    <g transform="matrix(1.02034,0.475792,-0.462352,0.991517,136.578,-124.404)">
        <path d="M149.718,182.045C154.107,185.435 158.309,192.161 154.788,201.659C153.382,205.451 153.82,210.6 155.243,216.472C158.06,228.102 155.155,231.779 147.667,236.898C142.362,240.525 142.006,249.305 143.121,257.792C159.279,264.925 163.03,276.88 161.001,291.083C159.983,298.206 161.555,302.741 165.546,311.119C169.957,320.377 166.679,323.48 160.132,327.219C139.068,308.184 125.764,280.27 125.764,249.183C125.764,223.593 134.78,200.152 149.718,182.045" style="fill:rgb(168,225,163);"/>
    </g>
    <g transform="matrix(1.02034,0.475792,-0.462352,0.991517,136.578,-124.404)">
        <path d="M326.193,266.299C323.561,261.755 321.134,257.446 317.083,260.287C311.821,263.977 307.653,264.839 306.551,260.754C305.532,256.975 302.314,255.476 299.703,255.462C292.843,255.426 288.539,260.126 289.126,266.991C290.022,277.456 287.486,286.344 280.603,293.233C278.48,306.083 273.948,305.373 268.86,298.371C266.404,294.992 264.356,291.151 263.557,285.897C262.839,281.176 259.48,277.459 259.39,272.372C259.296,267.049 258.489,261.959 256.263,257.733C253.165,251.848 248.903,248.23 239.503,254.632C234.669,252.435 230.799,248.359 226.662,244.869C224.37,242.935 222.595,241.137 213.703,237.462C208.967,235.505 206.827,232.18 208.82,227.912C211.488,222.196 211.155,216.302 209.767,208.421C207.982,198.29 208.914,190.636 216.791,186.36C222.169,183.439 229.997,184.78 233.821,188.93C238.311,184.033 243.052,184.243 249.92,186.786C256.529,189.233 263.332,188.62 265.262,185.227C269.87,177.122 275.998,174.683 285.259,179.746C287.279,180.851 292.542,181.232 294.051,178.6C295.675,175.765 297.045,175.559 298.338,176.134C316.399,194.9 327.56,220.711 327.56,249.183C327.56,255.018 327.091,260.74 326.191,266.314" style="fill:rgb(168,225,163);"/>
    </g>
    <g transform="matrix(1.0295,0.480065,-0.480065,1.0295,139.83,-136.8)">
        <path d="M194.996,289.343C197.885,288.118 200.47,286.666 201.754,284.237C202.919,277.757 204.991,273.321 210.014,273.425C213.366,273.494 216.353,281.931 210.464,288.292C201.727,297.729 188.685,292.019 194.996,289.343Z" style="fill:rgb(168,225,163);"/>
    </g>
    <g transform="matrix(1.22441,0.570951,-0.554822,1.18982,113.365,-195.387)">
        <path d="M230.655,145.432C284.494,147.593 327.56,193.254 327.56,249.183C327.56,305.111 284.497,350.771 230.661,352.934L230.748,341.622C278.531,339.478 316.685,298.88 316.685,249.183C316.685,199.47 278.505,158.861 230.699,156.742L230.655,145.432" style="fill:rgb(189,189,194);"/>
    </g>
    <g transform="matrix(0.977896,0.456,-0.475459,1.01962,137.78,-174.351)">
        <path d="M259.966,182.142C260.201,174.05 260.214,166.058 259.966,158.183L250.14,158.183C250.148,165.87 250.147,173.883 250.14,182.142" style="fill:rgb(189,189,194);"/>
    </g>
    <g transform="matrix(0.977896,0.456,-0.456,0.977896,103.598,-101.047)">
        <path d="M250.14,325.282C249.878,333.061 249.867,341.038 250.14,349.241L259.966,349.241C260.314,341.29 260.299,333.329 259.966,325.359" style="fill:rgb(189,189,194);"/>
    </g>
    <g transform="matrix(0.721307,0,0,0.921423,69.3485,30.656)">
        <path d="M238.542,404.798C241.458,391.381 243.466,378.267 244.556,364.85L263.663,364.85C265.206,377.906 267.221,391.028 269.677,404.798" style="fill:rgb(189,189,194);"/>
    </g>
    <g transform="matrix(1.21166,0,0,1.21166,-54.2156,-74.8227)">
        <path d="M298.465,395.119C268.323,394.81 238.181,394.812 208.039,395.119C207.415,399.426 207.434,404.056 208.039,408.979C238.485,409.283 268.634,409.291 298.465,408.979C299.089,404.359 299.07,399.739 298.465,395.119Z" style="fill:rgb(189,189,194);"/>
    </g>
    <g transform="matrix(1,0,0,1,8,5)">
        <g transform="matrix(1.0295,0.480065,-0.480065,1.0295,131.83,-141.8)">
            <g transform="matrix(0.991101,0,0,0.963103,2.01717,11.1006)">
                <ellipse cx="226.662" cy="249.183" rx="100.898" ry="103.831" style="fill:none;stroke:black;stroke-width:3.6px;"/>
            </g>
            <path d="M150.403,186.428C154.753,189.693 158.918,196.172 155.428,205.319C154.034,208.971 154.469,213.93 155.878,219.585C158.671,230.786 155.791,234.327 148.37,239.258C143.112,242.751 142.759,251.207 143.865,259.381C159.878,266.25 163.596,277.765 161.585,291.443C160.577,298.303 162.134,302.672 166.09,310.741C170.462,319.657 167.213,322.645 160.724,326.247" style="fill:none;stroke:black;stroke-width:3.52px;"/>
            <path d="M194.996,289.343C197.885,288.118 200.47,286.666 201.754,284.237C202.919,277.757 204.991,273.321 210.014,273.425C213.366,273.494 216.353,281.931 210.464,288.292C201.727,297.729 188.685,292.019 194.996,289.343Z" style="fill:none;stroke:black;stroke-width:3.52px;"/>
            <path d="M297.7,180.736C296.418,180.182 295.061,180.38 293.451,183.111C291.956,185.646 286.74,185.278 284.738,184.215C275.559,179.338 269.485,181.687 264.918,189.493C263.006,192.761 256.263,193.352 249.713,190.995C242.906,188.545 238.207,188.344 233.757,193.06C229.968,189.063 222.209,187.772 216.878,190.584C209.072,194.703 208.148,202.074 209.917,211.831C211.293,219.422 211.623,225.098 208.978,230.603C207.004,234.714 209.125,237.916 213.818,239.801C222.631,243.341 224.391,245.072 226.662,246.934C230.762,250.296 234.598,254.221 239.389,256.338C248.705,250.172 252.929,253.656 256,259.324C258.206,263.394 259.005,268.296 259.099,273.423C259.188,278.323 262.517,281.902 263.229,286.449C264.021,291.509 266.051,295.208 268.485,298.463C273.528,305.206 278.019,305.891 280.123,293.514C286.945,286.88 289.458,278.32 288.57,268.24C287.988,261.629 292.254,257.102 299.053,257.137C301.641,257.151 304.83,258.594 305.84,262.233C306.932,266.168 311.063,265.337 316.278,261.784C320.293,259.048 322.698,263.198 325.307,267.574" style="fill:none;stroke:black;stroke-width:3.52px;"/>
        </g>
        <g transform="matrix(1.22441,0.570951,-0.554822,1.18982,105.365,-200.387)">
            <path d="M230.655,145.432C284.494,147.593 327.56,193.254 327.56,249.183C327.56,305.111 284.497,350.771 230.661,352.934" style="fill:none;stroke:black;stroke-width:3px;"/>
        </g>
        <g transform="matrix(0.977896,0.456,-0.475459,1.01962,129.78,-179.351)">
            <path d="M259.966,182.142C260.201,174.05 260.214,166.058 259.966,158.183L250.14,158.183C250.148,165.87 250.147,173.883 250.14,182.142" style="fill:none;stroke:black;stroke-width:3.63px;"/>
        </g>
        <g transform="matrix(0.977896,0.456,-0.456,0.977896,95.5983,-106.047)">
            <path d="M250.14,325.282C249.878,333.061 249.867,341.038 250.14,349.241L259.966,349.241C260.314,341.29 260.299,333.329 259.966,325.359" style="fill:none;stroke:black;stroke-width:3.71px;"/>
        </g>
        <g transform="matrix(1.09112,0.508797,-0.494424,1.0603,120.661,-153.961)">
            <path d="M231.069,145.45C284.715,147.828 327.56,193.397 327.56,249.183C327.56,304.95 284.745,350.508 231.125,352.915" style="fill:none;stroke:black;stroke-width:3.37px;"/>
        </g>
        <g transform="matrix(0.721307,0,0,0.921423,61.3485,25.656)">
            <path d="M263.663,364.85C265.206,377.906 267.221,391.028 269.677,404.798" style="fill:none;stroke:black;stroke-width:4.83px;"/>
        </g>
        <g transform="matrix(0.721307,0,0,0.921423,61.3485,25.656)">
            <path d="M238.542,404.798C241.458,391.381 243.466,378.267 244.556,364.85" style="fill:none;stroke:black;stroke-width:4.83px;"/>
        </g>
        <g transform="matrix(1.21166,0,0,1.21166,-62.2156,-79.8227)">
            <path d="M298.465,395.119C268.323,394.81 238.181,394.812 208.039,395.119C207.415,399.426 207.434,404.056 208.039,408.979C238.485,409.283 268.634,409.291 298.465,408.979C299.089,404.359 299.07,399.739 298.465,395.119Z" style="fill:none;stroke:black;stroke-width:3.3px;"/>
        </g>
    </g>
</svg>
