<?xml version="1.0" encoding="UTF-8" standalone="no"?>
<!DOCTYPE svg PUBLIC "-//W3C//DTD SVG 1.1//EN" "http://www.w3.org/Graphics/SVG/1.1/DTD/svg11.dtd">
<svg width="100%" height="100%" viewBox="0 0 512 512" version="1.1" xmlns="http://www.w3.org/2000/svg" xmlns:xlink="http://www.w3.org/1999/xlink" xml:space="preserve" xmlns:serif="http://www.serif.com/" style="fill-rule:evenodd;clip-rule:evenodd;stroke-linecap:round;stroke-linejoin:round;stroke-miterlimit:1.5;">
    <g transform="matrix(6.17707,0,0,2.52652,-311.407,0)">
        <ellipse cx="91.857" cy="101.325" rx="41.444" ry="101.325" style="fill:white;"/>
    </g>
    <g transform="matrix(2.02868,0,0,2.02868,10.7646,-20.57)">
        <path d="M177.208,139.631C157.76,146.262 124.794,161.608 120.884,162.3C116.559,159.564 21.289,124.728 14.884,125.233C17.951,123.443 118.055,83.442 120.884,82.3C123.495,82.648 226.169,123.333 226.884,124.767C225.477,126.196 208.459,129.768 199.415,132.501" style="fill:rgb(148,148,159);"/>
    </g>
    <g transform="matrix(2.02868,0,0,2.02868,10.7646,-20.57)">
        <path d="M74.954,144.815C71.109,153.838 69.319,162.154 68.884,169.7C106.005,193.417 140.563,192.648 172.884,170.5C172.567,160.65 170.688,151.581 167.209,143.312" style="fill:rgb(148,148,159);"/>
    </g>
    <g transform="matrix(2.02868,0,0,2.02868,10.7646,-20.57)">
        <path d="M129.484,118.7C129.484,118.7 145.87,111.724 197.284,128.1C202.818,129.862 196.407,158.144 201.084,180.5C200.897,183.151 197.735,186.739 195.668,184.405C192.724,190.745 189.843,188.96 185.099,187.3C186.299,190 177.818,191.434 177.484,187.3C176.907,180.134 177.492,139.741 177.203,139.633C135.698,124.241 129.484,118.7 129.484,118.7Z" style="fill:rgb(255,227,151);"/>
    </g>
    <g transform="matrix(2.02868,0,0,2.02868,10.7646,-20.57)">
        <path d="M117.084,119.1C118.747,112.737 126.888,112.195 129.484,118.7C127.151,122.861 118.618,123.138 117.084,119.1Z" style="fill:rgb(255,227,151);"/>
    </g>
    <g>
        <g transform="matrix(2.02868,0,0,2.02868,10.7646,-20.57)">
            <path d="M195.278,139.214C195.067,152.871 194.679,166.463 195.993,178.214" style="fill:none;stroke:black;stroke-width:1.97px;"/>
        </g>
        <g transform="matrix(2.02868,0,0,2.02868,10.7646,-20.57)">
            <path d="M188.278,158.714C188.546,166.494 188.582,174.101 187.707,181.5" style="fill:none;stroke:black;stroke-width:1.97px;"/>
        </g>
        <g transform="matrix(2.02868,0,0,2.02868,10.7646,-20.57)">
            <path d="M169.856,131.214C169.856,131.214 179.803,134.095 181.993,137.5C184.182,140.904 182.993,151.642 182.993,151.642" style="fill:none;stroke:black;stroke-width:1.97px;"/>
        </g>
        <g transform="matrix(2.02868,0,0,2.02868,10.7646,-20.57)">
            <path d="M154.427,121.98C164.679,123.918 174.27,125.418 185.284,129.642" style="fill:none;stroke:black;stroke-width:1.97px;"/>
        </g>
        <g transform="matrix(2.02868,0,0,2.02868,10.7646,-20.57)">
            <path d="M129.484,118.7C129.484,118.7 145.87,111.724 197.284,128.1C202.818,129.862 196.407,158.144 201.084,180.5C200.897,183.151 197.735,186.739 195.668,184.405C192.724,190.745 189.843,188.96 185.099,187.3C186.299,190 177.818,191.434 177.484,187.3C176.907,180.134 177.492,139.741 177.203,139.633C135.698,124.241 129.484,118.7 129.484,118.7Z" style="fill:none;stroke:black;stroke-width:1.97px;"/>
        </g>
        <g transform="matrix(2.02868,0,0,2.02868,10.7646,-20.57)">
            <path d="M177.208,139.631C157.76,146.262 124.794,161.608 120.884,162.3C116.559,159.564 21.289,124.728 14.884,125.233C17.951,123.443 118.055,83.442 120.884,82.3C123.495,82.648 226.169,123.333 226.884,124.767C225.477,126.196 208.459,129.768 199.415,132.501" style="fill:none;stroke:black;stroke-width:1.97px;"/>
        </g>
        <g transform="matrix(2.02868,0,0,2.02868,10.7646,-20.57)">
            <path d="M74.954,144.815C71.109,153.838 69.319,162.154 68.884,169.7C106.005,193.417 140.563,192.648 172.884,170.5C172.567,160.65 170.688,151.581 167.209,143.312" style="fill:none;stroke:black;stroke-width:1.97px;"/>
        </g>
        <g transform="matrix(2.02868,0,0,2.02868,10.7646,-20.57)">
            <path d="M117.084,119.1C118.747,112.737 126.888,112.195 129.484,118.7C127.151,122.861 118.618,123.138 117.084,119.1Z" style="fill:none;stroke:black;stroke-width:1.97px;"/>
        </g>
    </g>
</svg>
