<?xml version="1.0" encoding="UTF-8" standalone="no"?>
<!DOCTYPE svg PUBLIC "-//W3C//DTD SVG 1.1//EN" "http://www.w3.org/Graphics/SVG/1.1/DTD/svg11.dtd">
<svg width="100%" height="100%" viewBox="0 0 512 512" version="1.1" xmlns="http://www.w3.org/2000/svg" xmlns:xlink="http://www.w3.org/1999/xlink" xml:space="preserve" xmlns:serif="http://www.serif.com/" style="fill-rule:evenodd;clip-rule:evenodd;stroke-linecap:round;stroke-linejoin:round;stroke-miterlimit:1.5;">
    <g transform="matrix(6.17707,0,0,2.52652,-311.407,0)">
        <ellipse cx="91.857" cy="101.325" rx="41.444" ry="101.325" style="fill:white;"/>
    </g>
    <g transform="matrix(1.39479,1.39479,-1.39479,1.39479,258.994,-90.2864)">
        <path d="M112.938,71.7C112.571,52.495 113.454,33.29 115.373,14.086C115.373,12.925 133.373,12.925 133.373,14.086C135.325,33.29 136.142,52.495 135.808,71.7L112.938,71.7" style="fill:rgb(159,169,248);"/>
    </g>
    <g transform="matrix(1.39479,1.39479,-1.39479,1.39479,258.994,-90.2864)">
        <path d="M134.052,21.287C133.843,18.887 133.617,16.486 133.373,14.086C133.373,12.925 115.373,12.925 115.373,14.086C115.124,16.58 114.892,19.075 114.678,21.57L114.678,21.571C118.679,21.894 121.236,24.185 121.115,27.8C120.5,46.143 121.783,63.029 124.358,65.514C127.114,64.383 128.264,51.22 127.687,27.943C128.201,23.763 130.109,21.285 134.053,21.296" style="fill:rgb(189,189,194);"/>
    </g>
    <g transform="matrix(1.39479,1.39479,-1.39479,1.39479,258.994,-90.2864)">
        <path d="M111.494,162.558C107.741,162.558 107.741,156.658 111.494,156.658L137.105,156.658C141.087,156.658 141.204,162.558 137.105,162.558L111.494,162.558Z" style="fill:rgb(189,189,194);"/>
    </g>
    <g transform="matrix(1.39479,1.39479,-1.39479,1.39479,258.994,-90.2864)">
        <path d="M134.094,201.883L115.794,201.883C115.51,195.369 114.478,188.606 112.594,181.558C110.875,175.09 110.545,168.76 111.494,162.558L137.105,162.558C138.146,169.294 137.826,175.622 136.2,181.558C134.435,188.732 133.725,195.51 134.094,201.883" style="fill:rgb(159,169,248);"/>
    </g>
    <g transform="matrix(1.39479,1.39479,-1.39479,1.39479,258.994,-90.2864)">
        <path d="M115.894,206.133C113.191,213.097 113.019,222.182 115.132,224.469C121.233,231.072 123.155,235.585 126.094,241.633C128.37,234.78 132.129,228.448 135.774,224.725C137.99,222.46 137.444,212.43 134.094,206.133" style="fill:rgb(189,189,194);"/>
    </g>
    <g transform="matrix(1.39479,1.39479,-1.39479,1.39479,258.994,-90.2864)">
        <path d="M115.894,206.133L134.094,206.133C136.219,205.925 136.535,202.425 134.094,201.883L115.794,201.883C113.688,202.048 113.632,205.935 115.894,206.133Z" style="fill:rgb(189,189,194);"/>
    </g>
    <g transform="matrix(1.39479,1.39479,-1.39479,1.39479,258.994,-90.2864)">
        <path d="M137.873,71.7L110.873,71.7C109.043,71.7 109.043,82.5 110.873,82.5L137.873,82.5C139.662,82.5 139.662,71.7 137.873,71.7" style="fill:rgb(189,189,194);"/>
    </g>
    <g transform="matrix(1.39479,1.39479,-1.39479,1.39479,258.994,-90.2864)">
        <path d="M135.808,156.658L112.938,156.658C114.161,149.888 114.035,142.173 112.938,132.95C111.652,123.455 111.622,112.406 112.938,103.75C113.684,96.031 113.738,89.1 112.938,82.5L135.808,82.5C135.023,88.831 135.019,96.052 135.808,104.25C136.862,114.144 136.836,123.182 135.808,131.45C134.633,139.981 134.622,148.407 135.808,156.658" style="fill:rgb(159,169,248);"/>
    </g>
    <g>
        <g transform="matrix(1.39479,1.39479,-1.39479,1.39479,258.994,-90.2864)">
            <path d="M114.678,21.571C118.679,21.894 121.236,24.185 121.115,27.8C120.5,46.143 121.783,63.029 124.358,65.514C127.114,64.383 128.264,51.22 127.687,27.943C128.201,23.763 130.109,21.285 134.053,21.296" style="fill:none;stroke:black;stroke-width:2.03px;"/>
        </g>
        <g transform="matrix(1.39479,1.39479,-1.39479,1.39479,258.994,-90.2864)">
            <path d="M112.938,71.7C112.571,52.495 113.454,33.29 115.373,14.086C115.373,12.925 133.373,12.925 133.373,14.086C135.325,33.29 136.142,52.495 135.808,71.7" style="fill:none;stroke:black;stroke-width:2.03px;"/>
        </g>
        <g transform="matrix(1.39479,1.39479,-1.39479,1.39479,258.994,-90.2864)">
            <path d="M111.494,162.558C107.741,162.558 107.741,156.658 111.494,156.658L137.105,156.658C141.087,156.658 141.204,162.558 137.105,162.558L111.494,162.558Z" style="fill:none;stroke:black;stroke-width:2.03px;"/>
        </g>
        <g transform="matrix(1.39479,1.39479,-1.39479,1.39479,258.994,-90.2864)">
            <path d="M115.794,201.883C115.51,195.369 114.478,188.606 112.594,181.558C110.875,175.09 110.545,168.76 111.494,162.558L137.105,162.558C138.146,169.294 137.826,175.622 136.2,181.558C134.435,188.732 133.725,195.51 134.094,201.883" style="fill:none;stroke:black;stroke-width:2.03px;"/>
        </g>
        <g transform="matrix(1.39479,1.39479,-1.39479,1.39479,258.994,-90.2864)">
            <path d="M115.894,206.133C113.191,213.097 113.019,222.182 115.132,224.469C121.233,231.072 123.155,235.585 126.094,241.633C128.37,234.78 132.129,228.448 135.774,224.725C137.99,222.46 137.444,212.43 134.094,206.133" style="fill:none;stroke:black;stroke-width:2.03px;"/>
        </g>
        <g transform="matrix(1.39479,1.39479,-1.39479,1.39479,258.994,-90.2864)">
            <path d="M126.094,241.633L125.397,221.383C123.739,219.817 123.59,218.25 125.397,216.683C126.887,218.25 126.841,219.817 125.397,221.383" style="fill:none;stroke:black;stroke-width:2.03px;"/>
        </g>
        <g transform="matrix(1.39479,1.39479,-1.39479,1.39479,258.994,-90.2864)">
            <path d="M115.894,206.133L134.094,206.133C136.219,205.925 136.535,202.425 134.094,201.883L115.794,201.883C113.688,202.048 113.632,205.935 115.894,206.133Z" style="fill:none;stroke:black;stroke-width:2.03px;"/>
        </g>
        <g transform="matrix(1.39479,1.39479,-1.39479,1.39479,258.994,-90.2864)">
            <path d="M137.873,71.7L110.873,71.7C109.043,71.7 109.043,82.5 110.873,82.5L137.873,82.5C139.662,82.5 139.662,71.7 137.873,71.7" style="fill:none;stroke:black;stroke-width:2.03px;"/>
        </g>
        <g transform="matrix(1.39479,1.39479,-1.39479,1.39479,258.994,-90.2864)">
            <path d="M135.808,82.5C135.023,88.831 135.019,96.052 135.808,104.25C136.862,114.144 136.836,123.182 135.808,131.45C134.633,139.981 134.622,148.407 135.808,156.658" style="fill:none;stroke:black;stroke-width:2.03px;"/>
        </g>
        <g transform="matrix(1.39479,1.39479,-1.39479,1.39479,258.994,-90.2864)">
            <path d="M112.938,156.658C114.161,149.888 114.035,142.173 112.938,132.95C111.652,123.455 111.622,112.406 112.938,103.75C113.684,96.031 113.738,89.1 112.938,82.5" style="fill:none;stroke:black;stroke-width:2.03px;"/>
        </g>
    </g>
</svg>
