<?xml version="1.0" encoding="UTF-8" standalone="no"?>
<!DOCTYPE svg PUBLIC "-//W3C//DTD SVG 1.1//EN" "http://www.w3.org/Graphics/SVG/1.1/DTD/svg11.dtd">
<svg width="100%" height="100%" viewBox="0 0 512 512" version="1.1" xmlns="http://www.w3.org/2000/svg" xmlns:xlink="http://www.w3.org/1999/xlink" xml:space="preserve" xmlns:serif="http://www.serif.com/" style="fill-rule:evenodd;clip-rule:evenodd;stroke-linecap:round;stroke-linejoin:round;stroke-miterlimit:1.5;">
    <g transform="matrix(6.17707,0,0,2.52652,-311.407,0)">
        <ellipse cx="91.857" cy="101.325" rx="41.444" ry="101.325" style="fill:white;"/>
    </g>
    <g transform="matrix(1.79832,1.79832,-1.79832,1.79832,273.599,-184.146)">
        <path d="M114.399,210.42C116.722,209.583 118.787,209.521 120.518,210.462C119.448,213.415 118.406,216.47 117.395,219.631C116.477,216.464 115.477,213.396 114.399,210.42" style="fill:rgb(148,148,159);"/>
    </g>
    <g transform="matrix(1.79832,1.79832,-1.79832,1.79832,273.599,-184.146)">
        <path d="M130.152,71.243C124.322,74.442 111.678,74.901 104.432,71.122C104.662,102.615 105.26,155.862 104.458,188.861C107.222,185.73 111.684,190.864 112.177,193.001C112.573,190.757 120.204,188.778 122.323,193.178C124.844,190.215 126.381,186.548 129.876,188.463C128.983,156.512 129.827,102.842 130.241,71.332" style="fill:rgb(255,227,151);"/>
    </g>
    <g transform="matrix(1.79832,1.79832,-1.79832,1.79832,273.599,-184.146)">
        <path d="M130.241,71.332C130.288,67.748 130.329,64.452 130.362,61.506L130.277,61.591C123.56,64.918 110.706,64.683 104.37,61.161C104.384,64.149 104.405,67.491 104.432,71.122C111.678,74.901 124.322,74.442 130.152,71.243" style="fill:rgb(189,189,194);"/>
    </g>
    <g transform="matrix(1.79832,1.79832,-1.79832,1.79832,273.599,-184.146)">
        <path d="M130.362,61.506C130.461,52.618 130.48,46.927 130.332,46.204C129.351,41.411 104.759,41.04 104.458,46.204C104.347,48.108 104.333,53.461 104.37,61.161C110.706,64.683 123.56,64.918 130.277,61.591" style="fill:rgb(254,205,202);"/>
    </g>
    <g transform="matrix(1.79832,1.79832,-1.79832,1.79832,273.599,-184.146)">
        <path d="M114.399,210.42C116.722,209.583 118.787,209.521 120.518,210.462" style="fill:none;stroke:black;stroke-width:1.57px;"/>
        <path d="M112.191,74.496C112.643,110.464 112.944,149.785 112.254,187.278" style="fill:none;stroke:black;stroke-width:1.57px;"/>
        <path d="M122.799,74.496C122.26,112.831 121.665,151.086 122.506,187.278" style="fill:none;stroke:black;stroke-width:1.57px;"/>
        <path d="M104.458,46.204C103.931,55.254 105.591,142.253 104.458,188.861C109.682,198.024 114.076,208.182 117.395,219.631C121.16,207.859 125.349,197.568 129.876,188.463C128.575,141.915 130.96,49.271 130.332,46.204C129.351,41.411 104.759,41.04 104.458,46.204Z" style="fill:none;stroke:black;stroke-width:1.57px;"/>
        <path d="M104.37,61.161C110.706,64.683 123.56,64.918 130.277,61.591" style="fill:none;stroke:black;stroke-width:1.57px;"/>
        <path d="M104.432,71.122C111.678,74.901 124.322,74.442 130.152,71.243" style="fill:none;stroke:black;stroke-width:1.57px;"/>
        <path d="M106.606,46.89C113.689,49.3 120.772,49.217 127.854,47.018" style="fill:none;stroke:black;stroke-width:1.57px;"/>
        <path d="M104.458,188.861C107.222,185.73 111.684,190.864 112.177,193.001C112.573,190.757 120.204,188.778 122.323,193.178C124.844,190.215 126.381,186.548 129.876,188.463" style="fill:none;stroke:black;stroke-width:1.57px;"/>
    </g>
</svg>
