<?xml version="1.0" encoding="UTF-8" standalone="no"?>
<!DOCTYPE svg PUBLIC "-//W3C//DTD SVG 1.1//EN" "http://www.w3.org/Graphics/SVG/1.1/DTD/svg11.dtd">
<svg width="100%" height="100%" viewBox="0 0 512 512" version="1.1" xmlns="http://www.w3.org/2000/svg" xmlns:xlink="http://www.w3.org/1999/xlink" xml:space="preserve" xmlns:serif="http://www.serif.com/" style="fill-rule:evenodd;clip-rule:evenodd;stroke-linecap:round;stroke-linejoin:round;stroke-miterlimit:1.5;">
    <g transform="matrix(6.17707,0,0,2.52652,-311.407,-2.22045e-16)">
        <ellipse cx="91.857" cy="101.325" rx="41.444" ry="101.325" style="fill:white;"/>
    </g>
    <g transform="matrix(1.2392,0,0,1.2392,-60.2101,-52.1841)">
        <path d="M219.337,326.484C192.723,329.351 171.515,335.666 168.464,345.528L168.464,363.327C192.012,393.212 321.385,393.588 341.883,363.327L341.883,345.5C339.088,335.856 317.812,329.515 291.045,326.579L291.045,326.602C287.118,315.905 285.186,304.876 284.739,293.599C284.075,290.163 282.118,287.805 277.699,287.498C263.23,288.789 247.117,288.711 232.647,287.498C228.229,287.805 226.271,290.163 225.608,293.599C225.162,304.868 223.232,315.889 219.31,326.579" style="fill:rgb(148,148,159);"/>
    </g>
    <g transform="matrix(1.2392,0,0,1.2392,-60.2101,-52.1841)">
        <path d="M232.647,287.498C233.02,282.197 233.075,276.728 232.647,271.026C232.147,264.359 229.753,258.065 225.915,254.367C157.797,188.717 193.12,111.511 255.173,111.511C317.227,111.511 352.55,188.717 284.432,254.367C280.594,258.065 278.2,264.359 277.699,271.026C277.272,276.728 277.326,282.197 277.699,287.498C263.23,288.789 247.117,288.711 232.647,287.498" style="fill:rgb(255,227,151);"/>
    </g>
    <g transform="matrix(1.2392,0,0,1.2392,-60.2101,-38.5529)">
        <g transform="matrix(1,0,0,1,0,-11)">
            <path d="M341.883,345.5C339.088,335.856 317.812,329.515 291.045,326.579" style="fill:none;stroke:black;stroke-width:3.23px;"/>
        </g>
        <g transform="matrix(1,0,0,1,0,-11)">
            <path d="M219.337,326.484C192.723,329.351 171.515,335.666 168.464,345.528L168.464,363.327C192.012,393.212 321.385,393.588 341.883,363.327L341.883,345.5" style="fill:none;stroke:black;stroke-width:3.23px;"/>
        </g>
        <g transform="matrix(1,0,0,1,0,-30.3191)">
            <path d="M182.411,373.422C217.987,390.159 297.765,390.114 330.347,372.806" style="fill:none;stroke:black;stroke-width:3.23px;"/>
        </g>
        <g transform="matrix(0.337985,0,0,0.229431,168.521,250.801)">
            <path d="M182.411,373.422C217.987,390.159 297.765,390.114 330.347,372.806" style="fill:none;stroke:black;stroke-width:11.17px;"/>
        </g>
        <g transform="matrix(1,0,0,1,1.31255,2)">
            <path d="M295.863,327.059C287.717,312.239 284.063,296.671 283.426,280.599C282.763,277.163 280.805,274.805 276.387,274.498C261.917,275.789 245.805,275.711 231.335,274.498C226.917,274.805 224.959,277.163 224.295,280.599C223.659,296.671 220.005,312.239 211.859,327.059" style="fill:none;stroke:black;stroke-width:3.23px;"/>
        </g>
        <path d="M277.699,276.498C277.326,271.197 277.272,265.728 277.699,260.026C278.2,253.359 280.594,247.065 284.432,243.367C352.55,177.717 317.227,100.511 255.173,100.511C193.12,100.511 157.797,177.717 225.915,243.367C229.753,247.065 232.147,253.359 232.647,260.026C233.075,265.728 233.02,271.197 232.647,276.498" style="fill:none;stroke:black;stroke-width:3.23px;"/>
        <g transform="matrix(1,0,0,1,0,-0.718378)">
            <path d="M244.382,277.217C244.801,263.054 243.797,246.167 237.34,229.874C230.5,212.614 223.856,195.861 225.139,183.883C227.678,160.167 247.023,158.066 256.379,175.67C260.849,184.081 260.046,196.085 255.173,196.085L255.174,196.085C250.302,196.085 249.499,184.081 253.969,175.67C263.324,158.066 282.67,160.167 285.209,183.883C286.492,195.861 279.848,212.614 273.008,229.874C266.551,246.167 265.546,263.054 265.966,277.217" style="fill:none;stroke:black;stroke-width:3.23px;"/>
        </g>
    </g>
</svg>
