<?xml version="1.0" encoding="UTF-8" standalone="no"?>
<!DOCTYPE svg PUBLIC "-//W3C//DTD SVG 1.1//EN" "http://www.w3.org/Graphics/SVG/1.1/DTD/svg11.dtd">
<svg width="100%" height="100%" viewBox="0 0 512 512" version="1.1" xmlns="http://www.w3.org/2000/svg" xmlns:xlink="http://www.w3.org/1999/xlink" xml:space="preserve" xmlns:serif="http://www.serif.com/" style="fill-rule:evenodd;clip-rule:evenodd;stroke-linecap:round;stroke-linejoin:round;stroke-miterlimit:1.5;">
    <g transform="matrix(6.17707,0,0,2.52652,-311.407,0)">
        <ellipse cx="91.857" cy="101.325" rx="41.444" ry="101.325" style="fill:white;"/>
    </g>
    <g transform="matrix(0.868404,0,0,0.868404,38.2179,37.4966)">
        <path d="M213.894,121.778C209.223,106.538 203.643,92.025 197.192,78.208C194.886,73.271 173.495,78.784 173.495,87.844C167.088,81.438 147.766,92.051 149.637,98.162C154.621,114.441 161.229,130.867 170.129,147.502C182.898,135.587 197.77,127.049 213.553,121.889" style="fill:rgb(159,169,248);"/>
    </g>
    <g transform="matrix(0.868404,0,0,0.868404,38.2179,37.4966)">
        <path d="M273.378,118.115C276.637,118.738 279.873,119.497 283.077,120.393C284.483,109.925 284.115,102.011 283.077,91.365C279.891,58.686 221.105,59.728 217.761,92.392C216.837,101.424 216.993,109.529 217.761,120.599C221.204,119.613 224.684,118.785 228.19,118.115C227.118,107.425 227.138,101.979 228.19,93.592C230.76,73.119 271.299,73.042 273.155,93.592C273.909,101.941 274.098,108.303 273.155,118.072" style="fill:rgb(159,169,248);"/>
    </g>
    <g transform="matrix(0.868404,0,0,0.868404,38.2179,37.4966)">
        <path d="M172.264,433.905C142.978,433.86 129.645,419.163 128.268,389.909C126.141,344.741 126.223,300.125 128.268,256C128.268,69.302 373.301,69.302 373.301,256C375.354,300.123 375.419,344.743 373.301,389.909C373.04,418.979 357.932,433.201 329.305,433.905C277.965,436.423 225.689,436.601 172.264,433.905" style="fill:rgb(168,225,163);"/>
    </g>
    <g transform="matrix(0.868404,0,0,0.868404,38.2179,37.4966)">
        <path d="M331.781,147.502C340.681,130.867 347.289,114.441 352.273,98.162C354.144,92.051 334.821,81.438 328.415,87.844C328.415,78.784 307.023,73.271 304.718,78.208C298.267,92.025 292.687,106.538 288.016,121.778L288.016,121.889C303.799,127.049 318.671,135.587 331.44,147.502" style="fill:rgb(159,169,248);"/>
    </g>
    <g transform="matrix(0.868404,0,0,0.868404,38.2179,37.4966)">
        <path d="M327.832,298.163C338.898,298.163 353.146,333.739 346.776,351.527C286.957,346.489 214.138,346.554 154.319,351.527C152.041,331.073 160.608,299.49 172.264,298.163C218.465,292.902 276.303,294.56 327.832,298.163" style="fill:rgb(159,169,248);"/>
    </g>
    <g transform="matrix(0.868404,0,0,0.868404,38.2179,37.4966)">
        <path d="M356.753,291.493C350.805,299.313 352.05,307.15 351.433,316.714C351.433,323.784 361.89,323.784 361.89,316.714C361.361,307.124 362.545,298.998 356.753,291.493Z" style="fill:rgb(148,148,159);"/>
    </g>
    <g transform="matrix(0.868404,0,0,0.868404,38.2179,37.4966)">
        <path d="M213.894,121.778C209.223,106.538 203.643,92.025 197.192,78.208C194.886,73.271 173.495,78.784 173.495,87.844C167.088,81.438 147.766,92.051 149.637,98.162C154.621,114.441 161.229,130.867 170.129,147.502" style="fill:none;stroke:black;stroke-width:4.61px;"/>
        <path d="M228.19,118.115C227.118,107.425 227.138,101.979 228.19,93.592C230.76,73.119 271.299,73.042 273.155,93.592C273.909,101.941 274.098,108.303 273.155,118.072" style="fill:none;stroke:black;stroke-width:4.61px;"/>
        <g transform="matrix(1.45922,0,0,1.44976,-116.47,-49.1344)">
            <path d="M229.048,117.077C228.521,109.441 228.414,103.85 229.048,97.62C231.339,75.09 271.625,74.371 273.809,96.912C274.52,104.255 274.772,109.714 273.809,116.935" style="fill:none;stroke:black;stroke-width:3.17px;"/>
        </g>
        <path d="M373.301,256C375.354,300.123 375.419,344.743 373.301,389.909C373.04,418.979 357.932,433.201 329.305,433.905C277.965,436.423 225.689,436.601 172.264,433.905" style="fill:none;stroke:black;stroke-width:4.61px;"/>
        <path d="M160.319,351.527C158.309,364.039 157.524,377.026 159.518,390.873C161.54,404.908 167.988,412.104 181.844,412.598C227.66,414.333 273.102,414.199 318.251,412.598C331.808,411.805 340.01,404.403 340.977,390.472C341.892,377.29 340.863,364.709 339.776,351.527" style="fill:none;stroke:black;stroke-width:4.61px;"/>
        <path d="M327.832,298.163C338.898,298.163 353.146,333.739 346.776,351.527C286.957,346.489 214.138,346.554 154.319,351.527C152.041,331.073 160.608,299.49 172.264,298.163C218.465,292.902 276.303,294.56 327.832,298.163" style="fill:none;stroke:black;stroke-width:4.61px;"/>
        <g transform="matrix(-1,0,0,1,501.569,0)">
            <path d="M373.301,256C375.346,300.125 375.428,344.741 373.301,389.909C371.924,419.163 358.591,433.86 329.305,433.905" style="fill:none;stroke:black;stroke-width:4.61px;"/>
        </g>
        <path d="M145.866,291.493C145.866,87.796 356.753,91.854 356.753,291.493" style="fill:none;stroke:black;stroke-width:4.61px;"/>
        <path d="M373.301,256C373.301,69.302 128.268,69.302 128.268,256" style="fill:none;stroke:black;stroke-width:4.61px;"/>
        <path d="M356.753,291.493C350.805,299.313 352.05,307.15 351.433,316.714C351.433,323.784 361.89,323.784 361.89,316.714C361.361,307.124 362.545,298.998 356.753,291.493Z" style="fill:none;stroke:black;stroke-width:4.61px;"/>
        <path d="M176.316,93.984C178.583,101.315 181.213,108.646 184.191,115.977" style="fill:none;stroke:black;stroke-width:4.61px;"/>
        <g transform="matrix(-1,0,0,1,501.91,0)">
            <path d="M213.894,121.778C209.223,106.538 203.643,92.025 197.192,78.208C194.886,73.271 173.495,78.784 173.495,87.844C167.088,81.438 147.766,92.051 149.637,98.162C154.621,114.441 161.229,130.867 170.129,147.502" style="fill:none;stroke:black;stroke-width:4.61px;"/>
        </g>
        <g transform="matrix(-1,0,0,1,501.91,0)">
            <path d="M176.316,93.984C178.583,101.315 181.213,108.646 184.191,115.977" style="fill:none;stroke:black;stroke-width:4.61px;"/>
        </g>
    </g>
</svg>
