<?xml version="1.0" encoding="UTF-8" standalone="no"?>
<!DOCTYPE svg PUBLIC "-//W3C//DTD SVG 1.1//EN" "http://www.w3.org/Graphics/SVG/1.1/DTD/svg11.dtd">
<svg width="100%" height="100%" viewBox="0 0 512 512" version="1.1" xmlns="http://www.w3.org/2000/svg" xmlns:xlink="http://www.w3.org/1999/xlink" xml:space="preserve" xmlns:serif="http://www.serif.com/" style="fill-rule:evenodd;clip-rule:evenodd;stroke-linecap:round;stroke-linejoin:round;stroke-miterlimit:1.5;">
    <g transform="matrix(6.17707,0,0,2.52652,-311.407,0)">
        <ellipse cx="91.857" cy="101.325" rx="41.444" ry="101.325" style="fill:white;"/>
    </g>
    <g transform="matrix(1.06426,0,0,1.06426,-2.00525,-20.2515)">
        <path d="M216.699,236.201C237.229,293.911 254.789,352.417 274.703,409.91C282.293,407.231 287.281,397.881 284.281,380.339C277.242,339.184 266.005,291.778 256,253.589C253.776,243.706 251.526,239.444 245.163,239.434L240.812,239.434C237.354,239.434 234.031,236.183 231.699,232.305C229.806,229.155 227.978,226.006 226.191,222.857" style="fill:rgb(189,189,194);"/>
    </g>
    <g transform="matrix(-1.06426,0,0,1.06426,513.109,-20.2515)">
        <path d="M216.699,236.201C237.229,293.911 254.789,352.417 274.703,409.91C282.293,407.231 287.281,397.881 284.281,380.339C277.242,339.184 266.005,291.778 256,253.589C253.776,243.706 251.526,239.444 245.163,239.434L240.812,239.434C237.354,239.434 234.031,236.183 231.699,232.305C229.806,229.155 227.978,226.006 226.191,222.857" style="fill:rgb(189,189,194);"/>
    </g>
    <path d="M241.428,204.172C239.421,176.252 234.408,131.142 230.152,120.879C215.362,85.208 169.102,86.565 160.304,133.605C153.435,170.332 164.474,188.345 192.269,202.565C205.55,209.36 212.727,220.138 220.089,232.458C221.792,235.307 224.164,236.529 226.305,233.938C231.612,227.515 236.215,220.74 240.511,213.812C242.152,211.167 241.685,207.753 241.428,204.172ZM220.846,147.01C220.846,170.87 208.711,182.801 196.577,182.801C184.442,182.801 172.308,170.87 172.308,147.01C172.308,103.901 220.846,103.901 220.846,147.01Z" style="fill:rgb(255,227,151);"/>
    <path d="M270.572,204.172C272.579,176.252 277.592,131.142 281.848,120.879C296.638,85.208 342.898,86.565 351.696,133.605C358.565,170.332 347.526,188.345 319.731,202.565C306.45,209.36 299.273,220.138 291.911,232.458C290.208,235.307 287.836,236.529 285.695,233.938C280.388,227.515 275.785,220.74 271.489,213.812C269.848,211.167 270.315,207.753 270.572,204.172ZM291.154,147.01C291.154,170.87 303.289,182.801 315.423,182.801C327.558,182.801 339.692,170.87 339.692,147.01C339.692,103.901 291.154,103.901 291.154,147.01Z" style="fill:rgb(255,227,151);"/>
    <g transform="matrix(1.06426,0,0,1.06426,-2.68321,-19.4606)">
        <g transform="matrix(1,0,0,1,0.637022,-0.74319)">
            <path d="M216.699,236.201C237.229,293.911 254.789,352.417 274.703,409.91C282.293,407.231 287.281,397.881 284.281,380.339C277.242,339.184 266.005,291.778 256,253.589C253.776,243.706 251.526,239.444 245.163,239.434L240.812,239.434C237.354,239.434 234.031,236.183 231.699,232.305C229.806,229.155 227.978,226.006 226.191,222.857" style="fill:none;stroke:black;stroke-width:3.76px;"/>
        </g>
        <path d="M229.371,210.129C227.486,183.895 222.776,141.509 218.777,131.865C204.879,98.349 161.413,99.624 153.146,143.824C146.692,178.333 157.064,195.258 183.181,208.62C195.66,215.005 202.404,225.132 209.322,236.708C210.921,239.384 213.15,240.533 215.162,238.098C220.148,232.063 224.473,225.697 228.51,219.188C230.052,216.702 229.613,213.494 229.371,210.129Z" style="fill:none;stroke:black;stroke-width:3.76px;"/>
        <path d="M210.032,156.419C210.032,201.258 164.425,201.258 164.425,156.419C164.425,115.913 210.032,115.913 210.032,156.419Z" style="fill:none;stroke:black;stroke-width:3.76px;"/>
        <g transform="matrix(-1,0,0,1,485.49,-0.74319)">
            <path d="M216.699,236.201C219.951,245.341 223.128,254.501 226.251,263.674" style="fill:none;stroke:black;stroke-width:3.76px;"/>
        </g>
        <g transform="matrix(-1,0,0,1,485.49,-0.74319)">
            <path d="M242.434,312.401C253.077,345.01 263.518,377.62 274.703,409.91C282.293,407.231 287.281,397.881 284.281,380.339C277.849,342.736 267.914,299.915 258.615,263.674" style="fill:none;stroke:black;stroke-width:3.76px;"/>
        </g>
        <g transform="matrix(-1,0,0,1,485.49,-0.74319)">
            <path d="M240.812,239.434C237.354,239.434 234.031,236.183 231.699,232.305C229.806,229.155 227.978,226.006 226.191,222.857" style="fill:none;stroke:black;stroke-width:3.76px;"/>
        </g>
        <g transform="matrix(-1,0,0,1,486.127,0)">
            <path d="M229.371,210.129C227.486,183.895 222.776,141.509 218.777,131.865C204.879,98.349 161.413,99.624 153.146,143.824C146.692,178.333 157.064,195.258 183.181,208.62C195.66,215.005 202.404,225.132 209.322,236.708C210.921,239.384 213.15,240.533 215.162,238.098C220.148,232.063 224.473,225.697 228.51,219.188C230.052,216.702 229.613,213.494 229.371,210.129Z" style="fill:none;stroke:black;stroke-width:3.76px;"/>
        </g>
        <g transform="matrix(-1,0,0,1,486.127,0)">
            <path d="M210.032,156.419C210.032,201.258 164.425,201.258 164.425,156.419C164.425,115.913 210.032,115.913 210.032,156.419Z" style="fill:none;stroke:black;stroke-width:3.76px;"/>
        </g>
        <g transform="matrix(1,0,0,1,0.189989,-3.07805)">
            <ellipse cx="241.945" cy="263.018" rx="6.804" ry="7.018" style="fill:none;stroke:black;stroke-width:3.76px;"/>
        </g>
        <path d="M238.78,253.834L245.455,266.066" style="fill:none;stroke:black;stroke-width:3.76px;"/>
    </g>
</svg>
