<?xml version="1.0" encoding="UTF-8" standalone="no"?>
<!DOCTYPE svg PUBLIC "-//W3C//DTD SVG 1.1//EN" "http://www.w3.org/Graphics/SVG/1.1/DTD/svg11.dtd">
<svg width="100%" height="100%" viewBox="0 0 512 512" version="1.1" xmlns="http://www.w3.org/2000/svg" xmlns:xlink="http://www.w3.org/1999/xlink" xml:space="preserve" xmlns:serif="http://www.serif.com/" style="fill-rule:evenodd;clip-rule:evenodd;stroke-linecap:round;stroke-linejoin:round;stroke-miterlimit:1.5;">
    <g transform="matrix(6.17707,0,0,2.52652,-311.407,0)">
        <ellipse cx="91.857" cy="101.325" rx="41.444" ry="101.325" style="fill:white;"/>
    </g>
    <g transform="matrix(1.12908,0,0,1.12908,-39.3792,-15.6266)">
        <path d="M120.685,171.86C129.205,170.271 137.726,170.246 146.246,171.86L146.246,346.928C137.726,348.219 129.205,348.279 120.685,346.9C119.606,288.553 119.678,230.207 120.685,171.86Z" style="fill:rgb(189,189,194);"/>
    </g>
    <g transform="matrix(1.12908,0,0,1.12908,250.877,-15.6266)">
        <path d="M120.685,171.86C129.205,170.525 137.726,170.525 146.246,171.86L146.246,346.928C137.726,348.555 129.205,348.477 120.685,346.9C120.183,288.553 120.144,230.207 120.685,171.86Z" style="fill:rgb(189,189,194);"/>
    </g>
    <g transform="matrix(1.12908,0,0,1.12908,-39.3792,-15.6266)">
        <path d="M146.246,303.026L146.246,323.026C221.082,324.403 297.943,324.361 377.368,323.026L377.368,302.87L377.368,303.026C300.598,302.625 223.85,302.593 146.246,303.026" style="fill:rgb(189,189,194);"/>
    </g>
    <g transform="matrix(1.12908,0,0,1.12908,-39.3792,-130.935)">
        <path d="M146.246,303.026L146.246,323.026C223.704,323.601 300.443,323.519 377.368,323.026L377.368,303.026C300.44,302.54 223.708,302.445 146.246,303.026" style="fill:rgb(189,189,194);"/>
    </g>
    <g transform="matrix(0.632005,0,0,0.831776,49.0787,69.7246)">
        <path d="M193.143,169.549L193.143,150C183.02,150.752 172.896,150.732 162.773,150L162.773,169.549" style="fill:rgb(255,227,151);"/>
    </g>
    <g transform="matrix(0.632005,0,0,0.831776,49.0787,69.7246)">
        <path d="M162.773,197.787L162.773,287.574C162.773,306.696 193.143,306.301 193.143,287.574L193.143,197.787" style="fill:rgb(255,227,151);"/>
    </g>
    <g transform="matrix(0.632005,0,0,0.779639,111.178,85.4578)">
        <path d="M193.143,160.718L193.143,150C183.02,150.752 172.896,150.732 162.773,150L162.773,160.707" style="fill:rgb(159,169,248);"/>
    </g>
    <g transform="matrix(0.632005,0,0,0.779639,238.374,85.4578)">
        <path d="M193.143,160.718L193.143,144.207C183.02,144.96 172.896,144.939 162.773,144.207L162.773,160.707" style="fill:rgb(168,225,163);"/>
    </g>
    <g transform="matrix(0.632005,0,0,0.779639,111.178,85.4578)">
        <path d="M162.773,190.833L162.773,287.574C162.773,306.696 193.143,306.301 193.143,287.574L193.143,190.833" style="fill:rgb(159,169,248);"/>
    </g>
    <g transform="matrix(-0.632005,0,0,0.647255,463.363,125.407)">
        <path d="M162.773,168.144L162.773,287.574C162.773,306.696 193.143,306.301 193.143,287.574L193.143,168.144" style="fill:rgb(168,225,163);"/>
    </g>
    <g transform="matrix(-0.632005,0,0,0.475757,399.006,177.16)">
        <path d="M162.773,150L162.773,287.574C162.773,306.696 193.143,306.301 193.143,287.574L193.143,150C183.02,150.752 172.896,150.732 162.773,150" style="fill:rgb(254,205,202);"/>
    </g>
    <g transform="matrix(1.12908,0,0,1.12908,-39.3792,-15.6266)">
        <path d="M120.685,171.86C129.205,170.271 137.726,170.246 146.246,171.86L146.246,346.928C137.726,348.219 129.205,348.279 120.685,346.9C119.606,288.553 119.678,230.207 120.685,171.86Z" style="fill:none;stroke:black;stroke-width:3.54px;"/>
        <g transform="matrix(1,0,0,1,257.074,0)">
            <path d="M120.685,171.86C129.205,170.525 137.726,170.525 146.246,171.86L146.246,346.928C137.726,348.555 129.205,348.477 120.685,346.9C120.183,288.553 120.144,230.207 120.685,171.86Z" style="fill:none;stroke:black;stroke-width:3.54px;"/>
        </g>
        <path d="M146.246,323.026C221.082,324.403 297.943,324.361 377.368,323.026" style="fill:none;stroke:black;stroke-width:3.54px;"/>
        <g transform="matrix(1,0,0,1,0,-20)">
            <path d="M146.246,323.026C223.85,322.593 300.598,322.625 377.368,323.026" style="fill:none;stroke:black;stroke-width:3.54px;"/>
        </g>
        <g transform="matrix(1,0,0,1,0,-102.126)">
            <path d="M146.246,323.026C223.704,323.601 300.443,323.519 377.368,323.026" style="fill:none;stroke:black;stroke-width:3.54px;"/>
        </g>
        <g transform="matrix(1,0,0,1,0,-122.126)">
            <path d="M146.246,323.026C223.708,322.445 300.44,322.54 377.368,323.026" style="fill:none;stroke:black;stroke-width:3.54px;"/>
        </g>
        <g transform="matrix(1,0,0,1,0,2)">
            <path d="M188.252,300.713C191.18,297.826 193.077,293.446 193.143,287.574C193.4,264.878 193.538,242.122 193.544,219.301" style="fill:none;stroke:black;stroke-width:3.54px;"/>
        </g>
        <g transform="matrix(1,0,0,1,0,2)">
            <path d="M193.512,198.498C193.458,182.367 193.337,166.202 193.143,150C199.599,150 199.59,140.662 193.143,140.337C182.189,139.783 172.087,139.797 162.773,140.337C156.378,140.707 156.368,150 162.773,150C162.575,166.3 162.453,182.399 162.401,198.699" style="fill:none;stroke:black;stroke-width:3.54px;"/>
        </g>
        <g transform="matrix(1,0,0,1,0,2)">
            <path d="M162.372,219.01C162.378,241.865 162.517,264.719 162.773,287.574C162.838,293.446 164.736,297.826 167.664,300.713" style="fill:none;stroke:black;stroke-width:3.54px;"/>
        </g>
        <g transform="matrix(0.559754,0,0,0.736687,78.3453,75.5938)">
            <path d="M162.773,150L162.773,169.549" style="fill:none;stroke:black;stroke-width:5.42px;"/>
        </g>
        <g transform="matrix(0.559754,0,0,0.736687,78.3453,75.5938)">
            <path d="M162.773,197.787L162.773,287.574C162.773,306.696 193.143,306.301 193.143,287.574L193.143,197.787" style="fill:none;stroke:black;stroke-width:5.42px;"/>
        </g>
        <g transform="matrix(0.559754,0,0,0.736687,78.3453,75.5938)">
            <path d="M193.143,169.549L193.143,150C183.02,150.752 172.896,150.732 162.773,150" style="fill:none;stroke:black;stroke-width:5.42px;"/>
        </g>
        <g transform="matrix(1,0,0,1,55,2)">
            <path d="M188.252,300.713C191.18,297.826 193.077,293.446 193.143,287.574C193.4,264.878 193.538,242.122 193.544,219.301" style="fill:none;stroke:black;stroke-width:3.54px;"/>
        </g>
        <g transform="matrix(1,0,0,1,55,2)">
            <path d="M193.512,198.498C193.458,182.367 193.337,166.202 193.143,150C199.599,150 199.59,140.662 193.143,140.337C182.189,139.783 172.087,139.797 162.773,140.337C156.378,140.707 156.368,150 162.773,150C162.577,166.166 162.455,182.332 162.403,198.498" style="fill:none;stroke:black;stroke-width:3.54px;"/>
        </g>
        <g transform="matrix(1,0,0,1,55,2)">
            <path d="M162.372,219.301C162.38,242.058 162.518,264.816 162.773,287.574C162.838,293.446 164.736,297.826 167.664,300.713" style="fill:none;stroke:black;stroke-width:3.54px;"/>
        </g>
        <g transform="matrix(0.559754,0,0,0.69051,133.345,89.5283)">
            <path d="M193.143,160.718L193.143,150C183.02,150.752 172.896,150.732 162.773,150L162.773,160.707" style="fill:none;stroke:black;stroke-width:5.64px;"/>
        </g>
        <g transform="matrix(0.559754,0,0,0.69051,246,89.5283)">
            <path d="M193.143,160.718L193.143,144.207C183.02,144.96 172.896,144.939 162.773,144.207L162.773,160.707" style="fill:none;stroke:black;stroke-width:5.64px;"/>
        </g>
        <g transform="matrix(0.559754,0,0,0.69051,133.345,89.5283)">
            <path d="M162.773,190.833L162.773,287.574C162.773,306.696 193.143,306.301 193.143,287.574L193.143,190.833" style="fill:none;stroke:black;stroke-width:5.64px;"/>
        </g>
        <g transform="matrix(-1,0,0,1,523.614,2)">
            <path d="M188.252,300.713C191.18,297.826 193.077,293.446 193.143,287.574C193.4,264.878 193.538,242.122 193.544,219.301" style="fill:none;stroke:black;stroke-width:3.54px;"/>
        </g>
        <g transform="matrix(-1,0,0,1,523.614,2)">
            <path d="M193.512,198.506C193.458,182.372 193.337,166.204 193.143,150C199.599,150 199.59,140.662 193.143,140.337C182.189,139.783 172.087,139.797 162.773,140.337C156.378,140.707 156.368,150 162.773,150C162.577,166.169 162.455,182.337 162.403,198.506" style="fill:none;stroke:black;stroke-width:3.54px;"/>
        </g>
        <g transform="matrix(-1,0,0,1,523.614,2)">
            <path d="M162.372,219.301C162.38,242.058 162.518,264.816 162.773,287.574C162.838,293.446 164.736,297.826 167.664,300.713" style="fill:none;stroke:black;stroke-width:3.54px;"/>
        </g>
        <g transform="matrix(-0.559754,0,0,0.573261,445.268,124.911)">
            <path d="M162.773,168.144L162.773,287.574C162.773,306.696 193.143,306.301 193.143,287.574L193.143,168.144" style="fill:none;stroke:black;stroke-width:6.25px;"/>
        </g>
        <g transform="matrix(-1,0,0,1,466.614,2)">
            <path d="M188.252,300.713C191.18,297.826 193.077,293.446 193.143,287.574C193.4,264.878 193.538,242.122 193.544,219.301" style="fill:none;stroke:black;stroke-width:3.54px;"/>
        </g>
        <g transform="matrix(-1,0,0,1,466.614,2)">
            <path d="M193.512,198.506C193.458,182.372 193.337,166.204 193.143,150C199.599,150 199.59,140.662 193.143,140.337C182.189,139.783 172.087,139.797 162.773,140.337C156.378,140.707 156.368,150 162.773,150C162.577,166.169 162.455,182.337 162.403,198.506" style="fill:none;stroke:black;stroke-width:3.54px;"/>
        </g>
        <g transform="matrix(-1,0,0,1,466.614,2)">
            <path d="M162.372,219.301C162.38,242.058 162.518,264.816 162.773,287.574C162.838,293.446 164.736,297.826 167.664,300.713" style="fill:none;stroke:black;stroke-width:3.54px;"/>
        </g>
        <g transform="matrix(-0.559754,0,0,0.421368,388.268,170.747)">
            <path d="M162.773,150L162.773,287.574C162.773,306.696 193.143,306.301 193.143,287.574L193.143,150C183.02,150.752 172.896,150.732 162.773,150" style="fill:none;stroke:black;stroke-width:7.15px;"/>
        </g>
    </g>
</svg>
